<svg xmlns="http://www.w3.org/2000/svg" viewBox="0 0 298.02 48.4"><defs><style>.cls-1{fill:#253678}.cls-2{fill:#f6ad15}</style></defs><title>Ресурс 1</title><g id="Слой_2" data-name="Слой 2"><g id="Слой_1-2" data-name="Слой 1"><path class="cls-1" d="M35.58 26.85h5.54v2.27h-5.54zm0-6.32h5.54v2.28h-5.54zm0 3.38h5.54v2.28h-5.54zM0 11.73v5.54h4.45v2.77h2.28v-2.77h28.85v2.15h5.54v-7.69H0zm269.94 18.79a8.69 8.69 0 1 0 8.69 8.69 8.7 8.7 0 0 0-8.69-8.69zm0 14.69a6 6 0 1 1 6-6 6 6 0 0 1-6 6z"/><circle class="cls-1" cx="269.94" cy="39.21" r="1.75"/><path class="cls-1" d="M269.94 41.51a2.3 2.3 0 1 1 2.3-2.3 2.3 2.3 0 0 1-2.3 2.3zM247.85 31a8.69 8.69 0 1 0 8.69 8.69 8.7 8.7 0 0 0-8.69-8.69zm0 14.69a6 6 0 1 1 6-6 6 6 0 0 1-6 6.02z"/><circle class="cls-1" cx="247.85" cy="39.72" r="1.75"/><path class="cls-1" d="M247.85 42a2.3 2.3 0 1 1 2.3-2.3 2.3 2.3 0 0 1-2.3 2.3zm-22.09-11.48a8.69 8.69 0 1 0 8.69 8.69 8.7 8.7 0 0 0-8.69-8.69zm0 14.69a6 6 0 1 1 6-6 6 6 0 0 1-6 6z"/><circle class="cls-1" cx="225.76" cy="39.21" r="1.75"/><path class="cls-1" d="M225.76 41.51a2.3 2.3 0 1 1 2.3-2.3 2.3 2.3 0 0 1-2.3 2.3z"/><path class="cls-1" d="M298 39.77l-12-11.55-250.41.14v5.63l177.75.2.1 8.51H216V39.21a9.78 9.78 0 0 1 19.55 0v3.29h2.54v-2.79a9.78 9.78 0 0 1 19.55 0v2.79h2.54v-3.29a9.78 9.78 0 0 1 19.56 0v3.45H282v-2.9z"/><path class="cls-2" d="M40.35 3.73h1v7.99h-1zm244.66 1.93h1v22.52h-1z"/><path class="cls-2" transform="rotate(-89.92 163.09 8.242)" d="M162.59-114.18h1v244.86h-1z"/><path class="cls-2" d="M47.35 9.29l-6.5-1.16 6.52-1.76-.02 2.92zm231.66-.25l6.5-1.16-6.52-1.76.02 2.92zM145.8 1.66h-1.13V.91h.1a1.65 1.65 0 0 0 .91-.22 1 1 0 0 0 .42-.7h.9v5.67h-1.2zm3.84 0h-1.13V.91h.1a1.65 1.65 0 0 0 .91-.22 1 1 0 0 0 .42-.7h.85v5.67h-1.15zm5 2.16h-2.26v-.94h2.26zm1.8-2.16h-1.13V.91h.1a1.65 1.65 0 0 0 .91-.22 1 1 0 0 0 .42-.7h.85v5.67h-1.15zm3.85 3.18a.44.44 0 0 0 .4.18.58.58 0 0 0 .37-.11.7.7 0 0 0 .21-.3 1.65 1.65 0 0 0 .1-.46v-.84a1 1 0 0 1-.41.35 1.47 1.47 0 0 1-.65.13 1.42 1.42 0 0 1-.64-.13 1.12 1.12 0 0 1-.43-.37 1.62 1.62 0 0 1-.24-.56 3.09 3.09 0 0 1-.08-.71 2.28 2.28 0 0 1 .44-1.5 1.72 1.72 0 0 1 1.4-.52 1.76 1.76 0 0 1 .94.22 1.48 1.48 0 0 1 .54.58 2.44 2.44 0 0 1 .24.84 8.57 8.57 0 0 1 .06 1v1.17a3.09 3.09 0 0 1-.22 1 1.47 1.47 0 0 1-.57.68 2 2 0 0 1-1.08.25 2.83 2.83 0 0 1-.59-.06 1.24 1.24 0 0 1-.5-.22 1.18 1.18 0 0 1-.35-.44 1.65 1.65 0 0 1-.14-.68h1.1a.92.92 0 0 0 .1.5zm-.06-2.15a.51.51 0 0 0 .48.25.52.52 0 0 0 .49-.25 1.73 1.73 0 0 0 .14-.82 3.9 3.9 0 0 0 0-.45 1.18 1.18 0 0 0-.09-.36.55.55 0 0 0-.25-.22.57.57 0 0 0-.32-.08.58.58 0 0 0-.33.08.52.52 0 0 0-.19.24 1.21 1.21 0 0 0-.08.36v.44a1.73 1.73 0 0 0 .16.82zM165 1.36h1.58l.67 2.88.67-2.88h1.58v4.3h-1V2.61l-.76 3.06h-.91L166 2.61v3.05h-1zm6.31 4.3h-1.06V4.42h1.06z"/></g></g></svg>