<svg xmlns="http://www.w3.org/2000/svg" xmlns:xlink="http://www.w3.org/1999/xlink" viewBox="0 0 298.01562 51.398241" height="68.531" width="397.354"><defs><symbol id="a" overflow="visible"><path d="M1.453 0H2.61v-5.656h-.843c-.063.312-.204.543-.422.687-.219.149-.524.219-.907.219H.329V-4h1.125zm0 0"/></symbol><symbol id="b" overflow="visible"><path d="M2.61-2.781H.36v.937h2.25zm0 0"/></symbol><symbol id="c" overflow="visible"><path d="M1.266-3.797c0-.156.004-.3.015-.437.008-.133.035-.254.078-.36a.57.57 0 0 1 .204-.234.618.618 0 0 1 .328-.078c.132 0 .242.027.328.078a.513.513 0 0 1 .187.234 1.2 1.2 0 0 1 .078.36c.02.136.032.28.032.437 0 .387-.047.664-.141.828-.094.168-.258.25-.484.25-.23 0-.391-.082-.485-.25-.093-.164-.14-.441-.14-.828zm.093 2.485H.25c0 .273.04.5.125.687.094.18.21.324.36.438.144.105.312.18.5.218.187.04.382.063.593.063.457 0 .817-.086 1.078-.25a1.53 1.53 0 0 0 .563-.688 3 3 0 0 0 .219-1c.03-.375.046-.765.046-1.172a8.33 8.33 0 0 0-.062-1 2.574 2.574 0 0 0-.25-.843 1.492 1.492 0 0 0-.547-.579c-.23-.144-.543-.218-.938-.218-.636 0-1.101.172-1.39.515-.293.344-.438.844-.438 1.5 0 .262.024.5.079.72.05.21.128.39.234.546.113.156.258.281.437.375.176.086.391.125.641.125s.46-.04.64-.125c.188-.094.329-.21.422-.36h.016v.282c0 .21-.012.402-.031.578-.012.18-.043.328-.094.453a.72.72 0 0 1-.219.297c-.086.074-.203.11-.359.11-.2 0-.336-.055-.406-.172-.074-.125-.11-.29-.11-.5zm0 0"/></symbol><symbol id="d" overflow="visible"><path d="M.375-4.297h1.563l.671 2.875.672-2.875H4.86V0H3.83v-3.063L3.078 0h-.923l-.75-3.063V0H.375zm0 0"/></symbol><symbol id="e" overflow="visible"><path d="M1.484-1.25H.438V0h1.046zm0 0"/></symbol></defs><use transform="translate(-128.784 -774.249)" height="100%" width="100%" y="43.25" x="269.82" xlink:href="#a" fill="#f5ae23"/><path d="M35.578 25.844h5.543v2.273h-5.543zm0 3.296h5.543v2.274h-5.543zm0-6.613h5.543v2.274h-5.543zM0 13.719v5.543h4.45v2.773h2.277v-2.773h28.851v2.152h5.543v-7.695zm0 0" fill="#303d7a"/><path d="M45.848 31.96c0 .247-.2.446-.446.446h-3.11a.445.445 0 0 1-.444-.445v-.11c0-.246.199-.445.445-.445h3.11c.245 0 .445.2.445.445zm0 0" fill="#fff"/><path d="M269.941 48.203a6 6 0 0 1-6-5.996 5.998 5.998 0 1 1 6 5.996m0-14.688c-4.793 0-8.691 3.899-8.691 8.692 0 4.789 3.898 8.687 8.691 8.687 4.79 0 8.688-3.898 8.688-8.687 0-4.793-3.899-8.692-8.688-8.692" fill="#303d7a"/><path d="M271.691 42.207a1.752 1.752 0 1 1-3.504-.004 1.752 1.752 0 0 1 3.504.004" fill="#303d7a"/><path d="M269.941 44.5a2.295 2.295 0 1 1-.004-4.59 2.295 2.295 0 0 1 .004 4.59m-22.093 4.207a5.998 5.998 0 0 1-5.996-6 5.998 5.998 0 1 1 11.996 0 6 6 0 0 1-6 6m0-14.688c-4.79 0-8.688 3.895-8.688 8.688 0 4.793 3.899 8.691 8.688 8.691 4.793 0 8.691-3.898 8.691-8.691 0-4.793-3.898-8.688-8.691-8.688" fill="#303d7a"/><path d="M249.602 42.707c0 .965-.786 1.754-1.754 1.754a1.752 1.752 0 1 1 1.754-1.754" fill="#303d7a"/><path d="M247.848 45.004a2.3 2.3 0 0 1-2.297-2.297 2.3 2.3 0 0 1 2.297-2.297 2.298 2.298 0 0 1 0 4.594m-22.09 3.199a5.998 5.998 0 1 1 .004-11.996 5.998 5.998 0 0 1-.004 11.996m0-14.688c-4.79 0-8.688 3.899-8.688 8.692 0 4.789 3.899 8.687 8.688 8.687 4.793 0 8.691-3.898 8.691-8.687 0-4.793-3.898-8.692-8.691-8.692" fill="#303d7a"/><path d="M227.512 42.207a1.753 1.753 0 0 1-3.504 0 1.753 1.753 0 1 1 3.504 0" fill="#303d7a"/><path d="M225.758 44.5a2.297 2.297 0 0 1-2.297-2.293 2.298 2.298 0 0 1 4.594 0 2.297 2.297 0 0 1-2.297 2.293" fill="#303d7a"/><path d="M298.016 42.758l-12.02-11.547v-.035H35.656l.055 14.48h180.27v-2.887h.03c-.011-.187-.03-.375-.03-.566 0-5.387 4.386-9.774 9.777-9.774 5.39 0 9.777 4.387 9.777 9.774 0 .191-.015.379-.027.566h.027v2.719h2.54v-2.723h.003c0-.02-.004-.039-.004-.058 0-5.39 4.383-9.778 9.774-9.778 5.39 0 9.777 4.387 9.777 9.778 0 .02-.004.039-.004.058h.004v2.723h2.535v-2.727h.027c-.008-.183-.027-.367-.027-.558 0-5.387 4.387-9.774 9.781-9.774 5.387 0 9.774 4.387 9.774 9.774 0 .191-.016.375-.028.558h.028v2.895h2.273v-2.898zm0 0" fill="#303d7a"/><path d="M40.848 5.722v7.997m244.668-8.063v25.52M40.656 8.074l244.86.332" fill="none" stroke="#f5ae23" stroke-miterlimit="10"/><path d="M47.352 9.281l-6.504-1.164 6.523-1.754zm231.66.25l6.504-1.164-6.524-1.754zm0 0" fill="#f5ae23"/><use height="100%" width="100%" y="43.25" x="251.5" xlink:href="#a" transform="translate(-107.152 -37.594)" fill="#f5ae23"/><use height="100%" width="100%" y="43.25" x="255.34" xlink:href="#a" transform="translate(-107.152 -37.594)" fill="#f5ae23"/><use height="100%" width="100%" y="43.25" x="259.18" xlink:href="#b" transform="translate(-107.152 -37.594)" fill="#f5ae23"/><use height="100%" width="100%" y="43.25" x="262.14" xlink:href="#a" transform="translate(-107.152 -37.594)" fill="#f5ae23"/><use height="100%" width="100%" y="43.25" x="265.98" xlink:href="#c" transform="translate(-107.152 -37.594)" fill="#f5ae23"/><use height="100%" width="100%" y="43.25" x="271.74" xlink:href="#d" transform="translate(-107.152 -37.594)" fill="#f5ae23"/><use height="100%" width="100%" y="43.25" x="276.972" xlink:href="#e" transform="translate(-107.152 -37.594)" fill="#f5ae23"/></svg>