<svg xmlns="http://www.w3.org/2000/svg" viewBox="0 0 220.95 44.88"><defs><style>.cls-1{fill:#fff}.cls-2{fill:#253678}.cls-3{fill:#f6ad15}</style></defs><title>2652</title><g id="Слой_2" data-name="Слой 2"><g id="Слой_1-2" data-name="Слой 1"><path class="cls-1" d="M219.08 25.5c.62 0 1.11-.12 1.11.5 0 .61-.5.5-1.11.5h-2.15c-.62 0-1.11.11-1.11-.5 0-.62.5-.5 1.11-.5z"/><path class="cls-2" d="M35.58 25.78h5.54v2.28h-5.54zm5.54 4.37v-.97h-5.54v6.51h115.65v-5.54H41.12zm-5.54-7.68h5.54v2.28h-5.54zM0 13.66v5.54h4.45v2.78h2.28V19.2h28.85v2.16h5.54v-7.7H0zM205.26 27a8.7 8.7 0 1 0 8.7 8.7 8.71 8.71 0 0 0-8.7-8.7zm0 14.71a6 6 0 1 1 6-6 6 6 0 0 1-6 5.98z"/><circle class="cls-2" cx="205.26" cy="35.68" r="1.75"/><path class="cls-2" d="M205.26 38a2.3 2.3 0 1 1 2.3-2.3 2.3 2.3 0 0 1-2.3 2.3zm-22.12-10.52a8.7 8.7 0 1 0 8.7 8.7 8.71 8.71 0 0 0-8.7-8.7zm0 14.71a6 6 0 1 1 6-6 6 6 0 0 1-6 6z"/><circle class="cls-2" cx="183.14" cy="36.18" r="1.75"/><path class="cls-2" d="M183.14 38.48a2.3 2.3 0 1 1 2.3-2.3 2.3 2.3 0 0 1-2.3 2.3zM161 27a8.7 8.7 0 1 0 8.7 8.7A8.71 8.71 0 0 0 161 27zm0 14.71a6 6 0 1 1 6-6 6 6 0 0 1-6 5.98z"/><circle class="cls-2" cx="161.02" cy="35.68" r="1.75"/><path class="cls-2" d="M161 38a2.3 2.3 0 1 1 2.3-2.3A2.3 2.3 0 0 1 161 38z"/><path class="cls-2" d="M220.95 24.3h-71.87v9.29H149v5.54h2.27v-3.45a9.79 9.79 0 0 1 19.58 0V39h2.54v-3.16a9.78 9.78 0 0 1 19.55 0V39h2.54V35.68a9.79 9.79 0 0 1 19.58 0v3.45h2.28v-3.29h3.62z"/><path class="cls-3" d="M40.16 5.73h1v7.99h-1zm179.34.19h1v18.52h-1zm-70.39-.13h1v18.52h-1z"/><path class="cls-3" transform="rotate(-89.89 130.574 8.503)" d="M130.07-80.92h1V97.94h-1z"/><path class="cls-3" d="M46.84 9.55l-6.5-1.16 6.52-1.76-.02 2.92zm166.66.25l6.5-1.16-6.52-1.76.02 2.92zm-57.38-.12l-6.51-1.17 6.52-1.75-.01 2.92zm-13.01 0l6.5-1.17-6.52-1.75.02 2.92zm34.47-5.91l2-3.77h1.27v3.82h.58v1h-.58V6h-1.12V4.77h-2.14zm2.14-2.23l-1.17 2.29h1.19zm5.93-.1l.71 3.06.71-3.06h1.67V6h-1.1V2.77l-.8 3.23h-1l-.81-3.25V6H184V1.44zm5.07 3.25V6h-1.12V4.69zM92 1.53a1 1 0 0 0-.08-.53.47.47 0 0 0-.42-.2.61.61 0 0 0-.39.11.73.73 0 0 0-.23.32 1.76 1.76 0 0 0-.11.48v.91a1.07 1.07 0 0 1 .44-.38 1.56 1.56 0 0 1 .69-.14 1.51 1.51 0 0 1 .68.14 1.2 1.2 0 0 1 .45.39 1.71 1.71 0 0 1 .25.59 3.3 3.3 0 0 1 .08.75 2.37 2.37 0 0 1-.46 1.58 1.85 1.85 0 0 1-1.48.54 2 2 0 0 1-1-.22 1.49 1.49 0 0 1-.57-.61 2.6 2.6 0 0 1-.26-.9 9.09 9.09 0 0 1-.06-1.06V2.06A3.33 3.33 0 0 1 89.79 1a1.64 1.64 0 0 1 .6-.74A2 2 0 0 1 91.55 0a2.55 2.55 0 0 1 .63.08 1.43 1.43 0 0 1 .53.25 1.3 1.3 0 0 1 .37.47 1.76 1.76 0 0 1 .15.73zm-1.19 2.62a4.13 4.13 0 0 0 0 .48 1.26 1.26 0 0 0 .1.38.59.59 0 0 0 .2.25.6.6 0 0 0 .34.09.62.62 0 0 0 .35-.09A.56.56 0 0 0 92 5a1.31 1.31 0 0 0 .09-.38v-.47a1.85 1.85 0 0 0-.09-.88.54.54 0 0 0-.52-.27.55.55 0 0 0-.52.26 1.84 1.84 0 0 0-.15.89zm4.26.54V5.8a3.69 3.69 0 0 1 0 .6 1.36 1.36 0 0 1-.17.49 1 1 0 0 1-.34.34 1.32 1.32 0 0 1-.56.17v-.6a.46.46 0 0 0 .33-.24.87.87 0 0 0 .11-.43V6H94V4.69zM99.42.12v.94a7.91 7.91 0 0 0-.67 1.13 11.21 11.21 0 0 0-.51 1.24 11.35 11.35 0 0 0-.37 1.3q-.14.66-.22 1.3h-1.28q.07-.54.2-1.14a10.17 10.17 0 0 1 .36-1.22 10.79 10.79 0 0 1 .55-1.25 9.25 9.25 0 0 1 .77-1.23h-2.54V.12zm4.3 1.32l.71 3.06.71-3.06h1.67V6h-1.1V2.77l-.8 3.23h-1l-.81-3.25V6H102V1.44zm5.07 3.25V6h-1.12V4.69z"/></g></g></svg>