<svg xmlns="http://www.w3.org/2000/svg" viewBox="0 0 227.07806 43.882849" height="58.51" width="302.771"><path d="M225.117 31.809c.617 0 1.117-.118 1.117.5 0 .613-.5.5-1.117.5h-2.148c-.614 0-1.114.113-1.114-.5 0-.618.5-.5 1.114-.5zm0 0" fill="#fff"/><path d="M35.578 13.164H0v5.543h4.453v2.774h2.274v-2.774h28.851v16.488h5.547v-22.03zm0 0" fill="#303d7a"/><path d="M146.707 34.68a9.73 9.73 0 0 1 1.14-4.567H35.579v5.543h111.18a10.04 10.04 0 0 1-.051-.976m62.682-4.567a9.726 9.726 0 0 1 1.137 4.567c0 .328-.015.656-.047.976h16.598v-5.543zm-18.394 5.543a9.726 9.726 0 0 1 1.09-5.543h-5.11a9.706 9.706 0 0 1 1.434 5.07c0 .16-.016.313-.023.473zm-22.144 0c-.008-.16-.024-.312-.024-.472 0-1.86.527-3.59 1.434-5.07h-5.11a9.726 9.726 0 0 1 1.086 5.542zm0 0" fill="#303d7a"/><path d="M200.738 24.89c5.008 0 9.14 3.778 9.715 8.633.836.082 1.672.157 2.508.247-.563-6.266-5.84-11.196-12.254-11.196-6.227 0-11.387 4.649-12.191 10.66a64.36 64.36 0 0 1 2.59-.242c.804-4.597 4.812-8.101 9.632-8.101" fill="#303d7a"/><path d="M200.738 25.98c-4.195 0-7.707 2.985-8.52 6.946.5-.031 1.005-.07 1.509-.09.886-3.024 3.68-5.234 6.98-5.234 3.457 0 6.355 2.421 7.09 5.66.515.043 1.027.101 1.539.152-.617-4.2-4.23-7.434-8.598-7.434" fill="#303d7a"/><path d="M200.738 40.688a6.007 6.007 0 0 1 0-12.012 6.007 6.007 0 1 1 0 12.012m0-14.708c-4.797 0-8.699 3.903-8.699 8.7 0 4.8 3.902 8.703 8.7 8.703 4.796 0 8.702-3.902 8.702-8.703 0-4.797-3.902-8.7-8.703-8.7" fill="#303d7a"/><path d="M202.496 34.68c0 .972-.789 1.754-1.758 1.754a1.754 1.754 0 1 1 0-3.508c.969 0 1.758.785 1.758 1.754" fill="#303d7a"/><path d="M200.738 36.98a2.305 2.305 0 0 1-2.3-2.3 2.301 2.301 0 0 1 4.602 0 2.303 2.303 0 0 1-2.302 2.3m-22.121-11.585c5.008 0 9.14 3.777 9.719 8.632.832.082 1.668.157 2.504.246-.563-6.27-5.84-11.199-12.25-11.199-6.227 0-11.387 4.653-12.192 10.66.86-.093 1.723-.175 2.586-.242.805-4.594 4.813-8.097 9.633-8.097" fill="#303d7a"/><path d="M178.617 26.484c-4.195 0-7.707 2.985-8.52 6.942.505-.028 1.008-.067 1.512-.086.883-3.024 3.676-5.238 6.98-5.238 3.458 0 6.352 2.425 7.09 5.664.512.043 1.024.101 1.536.152-.613-4.2-4.23-7.434-8.598-7.434" fill="#303d7a"/><path d="M178.617 41.191a6.007 6.007 0 0 1-6.004-6.007 6.007 6.007 0 1 1 12.012 0 6.007 6.007 0 0 1-6.008 6.007m0-14.707c-4.797 0-8.7 3.903-8.7 8.7 0 4.797 3.903 8.699 8.7 8.699 4.797 0 8.703-3.902 8.703-8.7 0-4.796-3.902-8.699-8.703-8.699" fill="#303d7a"/><path d="M180.375 35.184a1.756 1.756 0 0 1-3.512 0 1.756 1.756 0 0 1 3.512 0" fill="#303d7a"/><path d="M178.617 37.48a2.3 2.3 0 0 1-2.297-2.296 2.304 2.304 0 0 1 2.297-2.301c1.27 0 2.3 1.035 2.3 2.3a2.301 2.301 0 0 1-2.3 2.298M156.5 25.98c-4.125 0-7.582 2.887-8.473 6.747.496-.032.992-.067 1.492-.086.883-3.02 3.676-5.239 6.981-5.239 3.457 0 6.352 2.426 7.09 5.664.492.043.984.102 1.476.145-.699-4.098-4.27-7.23-8.566-7.23" fill="#303d7a"/><path d="M156.5 24.89c4.937 0 9.02 3.676 9.684 8.434.855.082 1.71.157 2.566.25-.563-6.265-5.84-11.199-12.25-11.199-6.227 0-11.387 4.652-12.191 10.664a71.37 71.37 0 0 1 2.585-.246c.883-4.496 4.852-7.902 9.606-7.902" fill="#303d7a"/><path d="M156.5 40.688a6.007 6.007 0 0 1-6.008-6.008 6.004 6.004 0 0 1 6.008-6.004 6.007 6.007 0 0 1 0 12.012m0-14.708c-4.797 0-8.703 3.903-8.703 8.7 0 4.8 3.906 8.703 8.703 8.703 4.797 0 8.7-3.902 8.7-8.703 0-4.797-3.903-8.7-8.7-8.7" fill="#303d7a"/><path d="M158.254 34.68c0 .972-.785 1.754-1.754 1.754a1.754 1.754 0 1 1 1.754-1.754" fill="#303d7a"/><path d="M156.5 36.98a2.3 2.3 0 0 1-2.3-2.3 2.301 2.301 0 0 1 2.3-2.297 2.3 2.3 0 0 1 2.297 2.297 2.3 2.3 0 0 1-2.297 2.3m-9.793 1.153h-2.273V32.59h2.273zm66.098 0h-2.278V32.59h2.278zm-43.977-.168h-2.539v-5.543h2.54zm22.122 0h-2.54v-5.543h2.54zm0 0" fill="#303d7a"/><path d="M41.3 13.461h-1V5.465h1zM226.644 30.18h-1V5.664h1zm0 0" fill="#f5ae23"/><path d="M226.144 8.914L41.285 8.582v-1l184.86.332zm0 0" fill="#f5ae23"/><path d="M46.98 9.29l-6.503-1.165L47 6.371zm172.66.25l6.504-1.165-6.523-1.754zm-99.538-7.876h-1.13V.91h.102c.387 0 .688-.07.91-.215.22-.144.36-.375.418-.695h.852v5.664h-1.152zm2.527 4c0-.25.023-.484.074-.703.05-.219.129-.43.234-.625.102-.2.235-.39.391-.582a5.99 5.99 0 0 1 .547-.57l.465-.434c.129-.11.23-.215.308-.312.079-.094.137-.192.18-.286.043-.097.07-.199.082-.312a2.84 2.84 0 0 0 .024-.383c0-.473-.188-.707-.563-.707a.576.576 0 0 0-.34.09.583.583 0 0 0-.191.238 1.284 1.284 0 0 0-.09.352c-.012.133-.02.277-.02.425h-1.101v-.214c0-.532.14-.934.422-1.22.285-.28.73-.421 1.336-.421.578 0 1.004.133 1.28.398.278.27.415.649.415 1.145 0 .184-.016.352-.047.508a1.948 1.948 0 0 1-.422.871c-.113.137-.25.277-.41.422l-.64.59a2.636 2.636 0 0 0-.399.453 1.314 1.314 0 0 0-.184.379h2.137v.898zm5.183-.207c0 .195-.015.383-.046.563-.028.18-.082.332-.16.464a1.057 1.057 0 0 1-.325.32 1.294 1.294 0 0 1-.527.157v-.563a.433.433 0 0 0 .312-.222.812.812 0 0 0 .106-.41v-.102h-.418v-1.25h1.058zm2.543-4.019L129.25 3.59h1.121V1.438zM130.235 0h1.19v3.59h.548v.898h-.547v1.176h-1.055V4.488h-2.016v-.945zm4.136 1.36h1.578l.672 2.878.672-2.879h1.574v4.305h-1.031V2.605l-.762 3.06h-.91l-.762-3.06v3.06h-1.031zm6.352 4.304h-1.055v-1.25h1.055zm0 0" fill="#f5ae23"/></svg>