<svg xmlns="http://www.w3.org/2000/svg" viewBox="0 0 270.29 49.17"><defs><style>.cls-1{fill:#fff}.cls-2{fill:#253678}.cls-3{fill:#f6ad15}</style></defs><title>4678</title><g id="Слой_2" data-name="Слой 2"><g id="Слой_1-2" data-name="Слой 1"><path class="cls-1" d="M255.05 29.88a1 1 0 0 1 1.11 1 1 1 0 0 1-1.11 1h-2.15a1 1 0 0 1-1.11-1 1 1 0 0 1 1.11-1z"/><path class="cls-2" d="M35.58 13.45H0V19h4.45v2.77h2.28V19h28.85v11.71h5.54V13.45h-5.54zm176.49 18.32a8.7 8.7 0 1 0 8.7 8.7 8.71 8.71 0 0 0-8.7-8.7zm0 14.71a6 6 0 1 1 6-6 6 6 0 0 1-6 6z"/><circle class="cls-2" cx="212.07" cy="40.47" r="1.75"/><path class="cls-2" d="M212.07 42.77a2.3 2.3 0 1 1 2.3-2.3 2.3 2.3 0 0 1-2.3 2.3zm22.12-11.5a8.7 8.7 0 1 0 8.7 8.7 8.71 8.71 0 0 0-8.7-8.7zm0 14.71a6 6 0 1 1 6-6 6 6 0 0 1-6 6.02z"/><circle class="cls-2" cx="234.19" cy="39.97" r="1.75"/><path class="cls-2" d="M234.19 42.27a2.3 2.3 0 1 1 2.3-2.3 2.3 2.3 0 0 1-2.3 2.3zm-44.19-11a8.7 8.7 0 1 0 8.7 8.7 8.71 8.71 0 0 0-8.7-8.7zM190 46a6 6 0 1 1 6-6 6 6 0 0 1-6 6z"/><circle class="cls-2" cx="189.95" cy="39.97" r="1.75"/><path class="cls-2" d="M190 42.27a2.3 2.3 0 1 1 2.3-2.3 2.3 2.3 0 0 1-2.3 2.3zm-12.38-4.39h2.54v5.54h-2.54zm-9.79-6.61a8.7 8.7 0 1 0 8.7 8.7 8.71 8.71 0 0 0-8.7-8.7zm0 14.71a6 6 0 1 1 6-6 6 6 0 0 1-6 6.02z"/><circle class="cls-2" cx="167.83" cy="39.97" r="1.75"/><path class="cls-2" d="M167.83 42.27a2.3 2.3 0 1 1 2.3-2.3 2.3 2.3 0 0 1-2.3 2.3zm-12.37-4.39h2.58v5.54h-2.58zm-9.75-6.61a8.7 8.7 0 1 0 8.7 8.7 8.71 8.71 0 0 0-8.7-8.7zm0 14.71a6 6 0 1 1 6-6 6 6 0 0 1-6 6.02z"/><circle class="cls-2" cx="145.71" cy="39.97" r="1.75"/><path class="cls-2" d="M145.71 42.27A2.3 2.3 0 1 1 148 40a2.3 2.3 0 0 1-2.29 2.27z"/><path class="cls-2" d="M35.65 34.9l97.61.06.1 8.45h2.56v-3.45a9.79 9.79 0 0 1 19.58 0v.33h2.57v-.33a9.79 9.79 0 0 1 19.58 0v.33h2.57v-.33a9.79 9.79 0 0 1 19.58 0v.33h2.56a9.78 9.78 0 0 1 19.56 0h2.56v-.33A9.79 9.79 0 0 1 244 40v.33h26.29l-12-11.56h-125l-97.65.39"/><path class="cls-2" d="M243.98 37.88h2.28v5.54h-2.28zm-44.24-.17h2.54v5.54h-2.54zm22.12 0h2.54v5.54h-2.54z"/><path class="cls-3" d="M40.15 5.47h1v7.99h-1zm217.35.19h1v23.52h-1z"/><path class="cls-3" transform="rotate(-89.91 149.569 8.244)" d="M149.07-100.18h1v216.86h-1z"/><path class="cls-3" d="M46.83 9.29l-6.5-1.16 6.52-1.76-.02 2.92zm204.66.25L258 8.38l-6.53-1.76.02 2.92zm-127.64-6.4a1.05 1.05 0 0 1 .72-.48 1 1 0 0 1-.39-.18 1 1 0 0 1-.39-.59 1.37 1.37 0 0 1 0-.32 1.46 1.46 0 0 1 .44-1.2 2.22 2.22 0 0 1 2.44 0 1.46 1.46 0 0 1 .44 1.2 1.26 1.26 0 0 1 0 .32 1.13 1.13 0 0 1-.14.32 1.06 1.06 0 0 1-.25.27 1 1 0 0 1-.38.18 1.05 1.05 0 0 1 .72.48 1.7 1.7 0 0 1 .24.92 2.75 2.75 0 0 1-.06.54 1.36 1.36 0 0 1-.25.55 1.42 1.42 0 0 1-.55.42 2.76 2.76 0 0 1-1.9 0 1.43 1.43 0 0 1-.55-.42 1.36 1.36 0 0 1-.25-.55 2.75 2.75 0 0 1-.06-.54 1.7 1.7 0 0 1 .17-.92zm.94 1.28a.9.9 0 0 0 .1.31.57.57 0 0 0 .2.21.72.72 0 0 0 .64 0 .57.57 0 0 0 .2-.21.9.9 0 0 0 .1-.31 2.59 2.59 0 0 0 0-.76.89.89 0 0 0-.1-.31.57.57 0 0 0-.2-.21.71.71 0 0 0-.64 0 .57.57 0 0 0-.2.21.89.89 0 0 0-.1.31 2.64 2.64 0 0 0 0 .76zm.22-2.3a.53.53 0 0 0 .82 0 1 1 0 0 0 .15-.6q0-.78-.56-.78t-.56.78a1 1 0 0 0 .14.61zm3.81 3.34a3.48 3.48 0 0 1 0 .56 1.27 1.27 0 0 1-.16.46 1 1 0 0 1-.32.32 1.25 1.25 0 0 1-.52.16V6.4a.44.44 0 0 0 .31-.22.82.82 0 0 0 .1-.41v-.1h-.42V4.42h1.06zm1.9-.62a.44.44 0 0 0 .4.18.57.57 0 0 0 .37-.11.7.7 0 0 0 .21-.3 1.65 1.65 0 0 0 .1-.46v-.84a1 1 0 0 1-.41.35 1.47 1.47 0 0 1-.65.13 1.42 1.42 0 0 1-.64-.13 1.12 1.12 0 0 1-.43-.37 1.62 1.62 0 0 1-.24-.56 3.09 3.09 0 0 1-.08-.71 2.28 2.28 0 0 1 .44-1.5A1.72 1.72 0 0 1 131.2 0a1.77 1.77 0 0 1 .94.22 1.48 1.48 0 0 1 .54.58 2.44 2.44 0 0 1 .24.84 8.58 8.58 0 0 1 .06 1v1.17a3.08 3.08 0 0 1-.22 1 1.47 1.47 0 0 1-.57.68 2 2 0 0 1-1.08.25 2.83 2.83 0 0 1-.59-.06 1.24 1.24 0 0 1-.5-.22 1.18 1.18 0 0 1-.35-.44 1.65 1.65 0 0 1-.14-.68h1.1a.92.92 0 0 0 .09.5zm-.06-2.15a.51.51 0 0 0 .48.25.52.52 0 0 0 .49-.25 1.73 1.73 0 0 0 .14-.82 3.9 3.9 0 0 0 0-.45 1.18 1.18 0 0 0-.09-.36.55.55 0 0 0-.19-.23.57.57 0 0 0-.32-.08.58.58 0 0 0-.33.08.52.52 0 0 0-.19.24 1.21 1.21 0 0 0-.08.36v.44a1.73 1.73 0 0 0 .09.83zm5.04 1.13h-2.26v-.94h2.26zm1.81-2.16h-1.13V.91h.1a1.65 1.65 0 0 0 .92-.21 1 1 0 0 0 .42-.7h.85v5.66h-1.15zm3.7-.66l-.12 1.29a.9.9 0 0 1 .42-.32 1.71 1.71 0 0 1 .62-.1 1.33 1.33 0 0 1 .68.16 1.19 1.19 0 0 1 .42.41 1.76 1.76 0 0 1 .22.58 3.37 3.37 0 0 1 .06.66 4.18 4.18 0 0 1-.08.86 1.67 1.67 0 0 1-.28.66 1.25 1.25 0 0 1-.56.42 2.46 2.46 0 0 1-.9.14 2.2 2.2 0 0 1-.87-.14 1.22 1.22 0 0 1-.51-.38 1.32 1.32 0 0 1-.24-.51 2.43 2.43 0 0 1-.07-.53V4h1.1v.3a1 1 0 0 0 .08.3.6.6 0 0 0 .17.23.45.45 0 0 0 .3.09.55.55 0 0 0 .52-.28 1.73 1.73 0 0 0 .16-.83 4.46 4.46 0 0 0 0-.58 1.06 1.06 0 0 0-.11-.37.43.43 0 0 0-.2-.19.8.8 0 0 0-.32-.06.5.5 0 0 0-.38.14.67.67 0 0 0-.16.38h-1l.21-3.08h3V1zm4.01 4.46a3.48 3.48 0 0 1 0 .56 1.27 1.27 0 0 1-.16.46 1 1 0 0 1-.32.32 1.25 1.25 0 0 1-.52.16V6.4a.44.44 0 0 0 .31-.22.82.82 0 0 0 .1-.41v-.1h-.42V4.42h1.06zm.58.2a3.11 3.11 0 0 1 .08-.7 2.56 2.56 0 0 1 .23-.62 3.35 3.35 0 0 1 .39-.58 6 6 0 0 1 .55-.57l.46-.43a2.58 2.58 0 0 0 .31-.31 1.32 1.32 0 0 0 .18-.29 1.09 1.09 0 0 0 .08-.31 3.3 3.3 0 0 0 0-.38q0-.7-.56-.7a.58.58 0 0 0-.34.09.58.58 0 0 0-.19.24 1.13 1.13 0 0 0-.09.35 4.16 4.16 0 0 0 0 .42h-1.1v-.23a1.65 1.65 0 0 1 .42-1.22 1.83 1.83 0 0 1 1.34-.42 1.79 1.79 0 0 1 1.28.4 1.51 1.51 0 0 1 .42 1.14 2.53 2.53 0 0 1 0 .51 1.91 1.91 0 0 1-.15.45 2.06 2.06 0 0 1-.27.42 4 4 0 0 1-.41.42l-.64.59a2.37 2.37 0 0 0-.4.45 1.3 1.3 0 0 0-.18.38h2.14v.9zm5.98-4.3h1.58l.64 2.88.67-2.88h1.58v4.3h-1V2.61l-.76 3.06h-.91l-.76-3.06v3.05h-1zm6.35 4.3h-1.06V4.42h1.06z"/></g></g></svg>