<svg xmlns="http://www.w3.org/2000/svg" viewBox="0 0 298.85543 44.21094" height="58.948" width="398.474"><path d="M44.969 32.43c.617 0 1.113-.117 1.113.5 0 .613-.496.5-1.113.5H42.82c-.613 0-1.113.113-1.113-.5 0-.617.5-.5 1.113-.5zm238.968-7c.614 0 1.114.383 1.114 1 0 .613-.5 1-1.114 1h-2.148c-.617 0-1.113-.387-1.113-1 0-.617.496-1 1.113-1zm0 0" fill="#fff"/><path d="M41.121 31.523h-5.543v-18.03h5.543zm0 0" fill="#303d7a"/><path d="M41.121 19.04H0v-5.548h41.121zm0 0" fill="#303d7a"/><path d="M6.727 21.809H4.453v-5.543h2.274zm256.347 19.207a6.007 6.007 0 0 1-6.004-6.008 6.007 6.007 0 1 1 12.012 0 6.007 6.007 0 0 1-6.008 6.008m0-14.707c-4.797 0-8.7 3.898-8.7 8.699 0 4.797 3.903 8.699 8.7 8.699 4.797 0 8.703-3.902 8.703-8.7 0-4.8-3.902-8.698-8.703-8.698" fill="#303d7a"/><path d="M264.832 35.008c0 .969-.79 1.754-1.758 1.754a1.754 1.754 0 1 1 0-3.508c.969 0 1.758.785 1.758 1.754" fill="#303d7a"/><path d="M263.074 37.305a2.298 2.298 0 1 1 .003-4.596 2.298 2.298 0 0 1-.003 4.596m-22.117 4.211a6.004 6.004 0 0 1-6.008-6.004 6.007 6.007 0 1 1 6.008 6.004m0-14.707c-4.8 0-8.703 3.902-8.703 8.703 0 4.797 3.902 8.699 8.703 8.699 4.797 0 8.7-3.902 8.7-8.7 0-4.8-3.903-8.702-8.7-8.702" fill="#303d7a"/><path d="M242.71 35.512c0 .968-.784 1.754-1.753 1.754a1.757 1.757 0 0 1-1.758-1.754c0-.969.79-1.754 1.758-1.754.969 0 1.754.785 1.754 1.754" fill="#303d7a"/><path d="M240.957 37.809c-1.27 0-2.3-1.032-2.3-2.297 0-1.27 1.03-2.301 2.3-2.301a2.301 2.301 0 0 1 2.297 2.3 2.3 2.3 0 0 1-2.297 2.298m-22.121 3.207a6.01 6.01 0 0 1-6.008-6.008A6.01 6.01 0 0 1 218.836 29a6.01 6.01 0 0 1 6.008 6.008 6.01 6.01 0 0 1-6.008 6.008m0-14.707c-4.797 0-8.7 3.898-8.7 8.699 0 4.797 3.903 8.699 8.7 8.699 4.797 0 8.7-3.902 8.7-8.7 0-4.8-3.903-8.698-8.7-8.698" fill="#303d7a"/><path d="M220.59 35.008a1.754 1.754 0 1 1-3.508 0 1.754 1.754 0 0 1 3.508 0" fill="#303d7a"/><path d="M218.836 37.305a2.298 2.298 0 1 1 0-4.598c1.27 0 2.3 1.035 2.3 2.3a2.299 2.299 0 0 1-2.3 2.298m-9.793 1.155h-2.54v-5.542h2.54zm-12.328 2.556a6.007 6.007 0 0 1-6.004-6.008 6.007 6.007 0 1 1 12.012 0 6.01 6.01 0 0 1-6.008 6.008m0-14.707c-4.797 0-8.7 3.898-8.7 8.699 0 4.797 3.903 8.699 8.7 8.699 4.797 0 8.703-3.902 8.703-8.7 0-4.8-3.902-8.698-8.703-8.698" fill="#303d7a"/><path d="M198.473 35.008c0 .969-.79 1.754-1.758 1.754a1.754 1.754 0 1 1 0-3.508c.969 0 1.758.785 1.758 1.754" fill="#303d7a"/><path d="M196.715 37.305a2.301 2.301 0 0 1-2.301-2.297 2.307 2.307 0 0 1 2.3-2.301 2.305 2.305 0 0 1 2.302 2.3 2.299 2.299 0 0 1-2.301 2.298m-9.789 1.155h-2.586v-5.542h2.586zm-12.328 2.556a6.007 6.007 0 1 1 0-12.016 6.007 6.007 0 0 1 6.004 6.008 6.007 6.007 0 0 1-6.004 6.008m0-14.707c-4.801 0-8.704 3.898-8.704 8.699 0 4.797 3.903 8.699 8.704 8.699 4.796 0 8.699-3.902 8.699-8.7 0-4.8-3.903-8.698-8.7-8.698" fill="#303d7a"/><path d="M176.352 35.008a1.757 1.757 0 0 1-3.512 0 1.757 1.757 0 0 1 3.512 0" fill="#303d7a"/><path d="M174.598 37.305a2.3 2.3 0 1 1-.001-4.598 2.298 2.298 0 1 1 0 4.598" fill="#303d7a"/><path d="M35.531 23.96v14.5h129.274v-2.964h.027c-.012-.164-.027-.324-.027-.488 0-5.399 4.39-9.79 9.789-9.79 5.402 0 9.793 4.391 9.793 9.79 0 .164-.016.324-.028.488h2.59c-.008-.164-.023-.324-.023-.488 0-5.399 4.39-9.79 9.789-9.79 5.398 0 9.793 4.391 9.793 9.79 0 .164-.02.324-.028.488h2.59c-.008-.164-.023-.324-.023-.488 0-5.399 4.39-9.79 9.789-9.79 5.398 0 9.789 4.391 9.789 9.79 0 .164-.016.324-.023.488h2.562c.012-5.39 4.399-9.777 9.793-9.777 5.39 0 9.781 4.386 9.79 9.777h2.562c-.008-.164-.024-.324-.024-.488 0-5.399 4.39-9.79 9.79-9.79 5.398 0 9.792 4.391 9.792 9.79 0 .164-.02.324-.027.488h14.031V23.961zm0 0" fill="#303d7a"/><path d="M275.14 38.46h-2.273v-5.542h2.274zm-43.976-.167h-2.539V32.75h2.539zm22.121 0h-2.539V32.75h2.54zm45.57-2.77h-12.039V23.961zm0 0" fill="#303d7a"/><path d="M41.098 13.46h-1V5.47h1zm245.343 10.724h-1V5.664h1zm0 0" fill="#f5ae23"/><path d="M285.941 8.914L41.082 8.582v-1l244.86.332zm0 0" fill="#f5ae23"/><path d="M46.777 9.293l-6.504-1.168 6.524-1.754zm232.66.25l6.504-1.168-6.523-1.754zM124.894 1.664h-1.125v-.75h.102c.387 0 .688-.074.91-.215.219-.144.36-.379.418-.699h.848v5.664h-1.153zm3.844 0h-1.129v-.75h.102c.387 0 .687-.074.91-.215.219-.144.36-.379.418-.699h.848v5.664h-1.149zm3.872 3.793c0 .195-.016.387-.048.563a1.2 1.2 0 0 1-.164.464.943.943 0 0 1-.324.32 1.256 1.256 0 0 1-.523.157v-.563a.414.414 0 0 0 .312-.222.798.798 0 0 0 .106-.406v-.106h-.418V4.418h1.058zm1.84-2.757c.093.163.253.245.48.245.226 0 .39-.082.488-.246.094-.168.14-.441.14-.824 0-.16-.007-.313-.023-.45a1.212 1.212 0 0 0-.09-.355.547.547 0 0 0-.191-.234.587.587 0 0 0-.324-.082c-.14 0-.25.027-.332.082a.462.462 0 0 0-.188.238 1.156 1.156 0 0 0-.086.356c-.015.136-.02.285-.02.445 0 .383.048.656.145.824m.059 2.145c.078.12.21.18.406.18a.594.594 0 0 0 .367-.106.72.72 0 0 0 .211-.3c.051-.13.086-.282.102-.458a6.77 6.77 0 0 0 .023-.574v-.273h-.015a1.016 1.016 0 0 1-.414.347 1.44 1.44 0 0 1-.653.133 1.4 1.4 0 0 1-.64-.133 1.108 1.108 0 0 1-.426-.367 1.648 1.648 0 0 1-.242-.559 3.127 3.127 0 0 1-.075-.71c0-.653.145-1.157.438-1.504.289-.344.754-.52 1.394-.52.395 0 .708.074.946.219.234.148.414.344.539.586.125.242.207.523.242.843.04.32.059.653.059 1 0 .407-.012.797-.04 1.172a3.037 3.037 0 0 1-.214.996 1.47 1.47 0 0 1-.567.684c-.261.168-.62.254-1.086.254-.203 0-.398-.02-.586-.063a1.214 1.214 0 0 1-.5-.222 1.132 1.132 0 0 1-.347-.442 1.598 1.598 0 0 1-.14-.683h1.1c0 .215.04.379.118.5m3.683-3.836l-.12 1.289h.019a.893.893 0 0 1 .414-.324 1.73 1.73 0 0 1 .625-.102c.27 0 .496.055.676.156.18.106.32.243.421.414.106.172.18.364.223.579.043.218.063.437.063.66 0 .316-.028.601-.078.855a1.663 1.663 0 0 1-.286.66c-.136.188-.32.325-.554.418a2.55 2.55 0 0 1-.899.14c-.355 0-.644-.05-.867-.144a1.233 1.233 0 0 1-.508-.379 1.39 1.39 0 0 1-.238-.511 2.547 2.547 0 0 1-.059-.52v-.148h1.106c0 .093.004.195.015.3.008.11.036.208.075.301a.654.654 0 0 0 .171.235c.075.058.176.09.297.09.243 0 .414-.09.516-.278.105-.183.156-.46.156-.828 0-.234-.011-.426-.031-.582a.998.998 0 0 0-.11-.367.401.401 0 0 0-.202-.192.769.769 0 0 0-.32-.058c-.165 0-.294.047-.38.14a.64.64 0 0 0-.164.38h-1.03l.206-3.079h2.953v.895zm5.137 2.816h-2.258v-.941h2.258zm1.809-2.16h-1.13v-.75h.106c.383 0 .684-.074.906-.215.223-.144.36-.379.422-.699h.848v5.664h-1.152zm3.894.465a.493.493 0 0 0 .41.191.491.491 0 0 0 .407-.191c.101-.129.152-.328.152-.602 0-.515-.188-.773-.559-.773-.375 0-.562.258-.562.773 0 .274.05.473.152.602m-.219 2.3a.81.81 0 0 0 .102.31c.05.09.121.16.207.21a.604.604 0 0 0 .32.074.602.602 0 0 0 .317-.074.565.565 0 0 0 .207-.21.87.87 0 0 0 .101-.31 2.365 2.365 0 0 0 0-.765.926.926 0 0 0-.101-.309.585.585 0 0 0-.207-.207.602.602 0 0 0-.317-.078.607.607 0 0 0-.32.078.585.585 0 0 0-.207.207.846.846 0 0 0-.102.31 2.3 2.3 0 0 0-.027.386c0 .133.008.258.027.379m-.941-1.285c.16-.254.402-.415.719-.48v-.017a1.037 1.037 0 0 1-.387-.175 1.032 1.032 0 0 1-.25-.274.986.986 0 0 1-.137-.316 1.38 1.38 0 0 1-.039-.32c0-.555.145-.954.442-1.2.297-.242.703-.363 1.222-.363.516 0 .922.121 1.22.363.296.246.444.645.444 1.2 0 .097-.015.207-.047.32a.994.994 0 0 1-.14.316.971.971 0 0 1-.25.274c-.106.082-.23.136-.38.175v.016c.321.066.56.227.72.48.16.254.238.563.238.922 0 .164-.02.344-.059.543-.039.2-.125.38-.25.551a1.444 1.444 0 0 1-.55.426c-.235.11-.555.168-.946.168-.398 0-.71-.059-.949-.168a1.4 1.4 0 0 1-.547-.426 1.335 1.335 0 0 1-.254-.55 2.83 2.83 0 0 1-.058-.544c0-.359.078-.668.238-.921m4.977 2.312c0 .195-.016.387-.043.563-.032.18-.086.332-.164.464a1.016 1.016 0 0 1-.325.32 1.294 1.294 0 0 1-.523.157v-.563a.414.414 0 0 0 .308-.222.798.798 0 0 0 .106-.406v-.106h-.414V4.418h1.055zm1.945-3.328a.481.481 0 0 0 .406.191.498.498 0 0 0 .41-.191c.098-.129.149-.328.149-.602 0-.515-.184-.773-.559-.773-.375 0-.558.258-.558.773 0 .274.05.473.152.602m-.223 2.3a.87.87 0 0 0 .106.31c.05.09.117.16.203.21a.614.614 0 0 0 .32.074.617.617 0 0 0 .32-.074.556.556 0 0 0 .204-.21.871.871 0 0 0 .105-.31 2.837 2.837 0 0 0 0-.765.929.929 0 0 0-.105-.309.574.574 0 0 0-.204-.207.617.617 0 0 0-.32-.078.617.617 0 0 0-.32.078.574.574 0 0 0-.203.207.929.929 0 0 0-.106.31 2.3 2.3 0 0 0-.027.386c0 .133.008.258.027.379m-.937-1.285c.16-.254.398-.415.719-.48v-.017a.983.983 0 0 1-.387-.175 1.049 1.049 0 0 1-.39-.59 1.38 1.38 0 0 1-.04-.32c0-.555.149-.954.445-1.2.297-.242.704-.363 1.22-.363.515 0 .925.121 1.218.363.297.246.445.645.445 1.2a1.203 1.203 0 0 1-.184.637.987.987 0 0 1-.253.273 1 1 0 0 1-.38.175v.016c.321.066.563.227.72.48.16.254.242.563.242.922 0 .164-.02.344-.059.543-.043.2-.125.38-.254.551a1.46 1.46 0 0 1-.547.426c-.238.11-.554.168-.949.168-.394 0-.71-.059-.95-.168a1.46 1.46 0 0 1-.546-.426 1.327 1.327 0 0 1-.25-.55 2.573 2.573 0 0 1-.062-.544c0-.359.082-.668.242-.921m4.797-2.137l-.118 1.289h.016a.893.893 0 0 1 .414-.324 1.73 1.73 0 0 1 .625-.102c.274 0 .496.055.676.156.18.106.32.243.426.414.101.172.175.364.218.579.043.218.063.437.063.66 0 .316-.027.601-.078.855a1.663 1.663 0 0 1-.285.66c-.137.188-.32.325-.555.418-.234.09-.535.14-.898.14-.356 0-.645-.05-.868-.144a1.26 1.26 0 0 1-.507-.379 1.322 1.322 0 0 1-.235-.511 2.317 2.317 0 0 1-.062-.52v-.148h1.105c0 .093.004.195.016.3a.92.92 0 0 0 .078.301.577.577 0 0 0 .172.235.46.46 0 0 0 .293.09c.242 0 .414-.09.515-.278.106-.183.157-.46.157-.828 0-.234-.008-.426-.032-.582a1.003 1.003 0 0 0-.105-.367.424.424 0 0 0-.207-.192.756.756 0 0 0-.32-.058.498.498 0 0 0-.38.14.692.692 0 0 0-.163.38h-1.032l.207-3.079h2.953v.895zm4.816.352h1.578l.672 2.882.672-2.883h1.574v4.305h-1.031V2.61l-.762 3.055h-.91l-.762-3.055v3.055h-1.03zm6.352 4.304h-1.055V4.418h1.055zm0 0" fill="#f5ae23"/></svg>