<svg xmlns="http://www.w3.org/2000/svg" viewBox="0 0 328.25 49.18"><defs><style>.cls-1{fill:#253678}.cls-2{fill:#f6ad15}</style></defs><title>4886</title><g id="Слой_2" data-name="Слой 2"><g id="Слой_1-2" data-name="Слой 1"><path class="cls-1" d="M66.08 13.46h5.54v19.61h-5.54z"/><path class="cls-1" d="M30.5 13.46h41.12V19H30.5z"/><path class="cls-1" d="M34.95 16.24h2.27v5.54h-2.27zm270.19 15.04a8.7 8.7 0 1 0 8.7 8.7 8.71 8.71 0 0 0-8.7-8.7zm0 14.71a6 6 0 1 1 6-6 6 6 0 0 1-6 6.01z"/><circle class="cls-1" cx="305.14" cy="39.98" r="1.75"/><path class="cls-1" d="M305.14 42.28a2.3 2.3 0 1 1 2.3-2.3 2.3 2.3 0 0 1-2.3 2.3zM283 31.78a8.7 8.7 0 1 0 8.7 8.7 8.71 8.71 0 0 0-8.7-8.7zm0 14.71a6 6 0 1 1 6-6 6 6 0 0 1-6 6z"/><circle class="cls-1" cx="283.02" cy="40.48" r="1.75"/><path class="cls-1" d="M283 42.78a2.3 2.3 0 1 1 2.3-2.3 2.3 2.3 0 0 1-2.3 2.3zm-22.1-11.5a8.7 8.7 0 1 0 8.7 8.7 8.71 8.71 0 0 0-8.7-8.7zm0 14.71a6 6 0 1 1 6-6 6 6 0 0 1-6 6.01z"/><circle class="cls-1" cx="260.9" cy="39.98" r="1.75"/><path class="cls-1" d="M260.9 42.28a2.3 2.3 0 1 1 2.3-2.3 2.3 2.3 0 0 1-2.3 2.3zm-12.33-4.39h2.54v5.54h-2.54zm-9.79-6.61a8.7 8.7 0 1 0 8.7 8.7 8.71 8.71 0 0 0-8.7-8.7zm0 14.71a6 6 0 1 1 6-6 6 6 0 0 1-6 6.01z"/><circle class="cls-1" cx="238.78" cy="39.98" r="1.75"/><path class="cls-1" d="M238.78 42.28a2.3 2.3 0 1 1 2.3-2.3 2.3 2.3 0 0 1-2.3 2.3zm-44.24-11a8.7 8.7 0 1 0 8.7 8.7 8.71 8.71 0 0 0-8.7-8.7zm0 14.71a6 6 0 1 1 6-6 6 6 0 0 1-6 6.01z"/><circle class="cls-1" cx="194.54" cy="39.98" r="1.75"/><path class="cls-1" d="M194.54 42.28a2.3 2.3 0 1 1 2.3-2.3 2.3 2.3 0 0 1-2.3 2.3zm31.86-4.39h2.59v5.54h-2.59zm-9.74-6.61a8.7 8.7 0 1 0 8.7 8.7 8.71 8.71 0 0 0-8.7-8.7zm0 14.71a6 6 0 1 1 6-6 6 6 0 0 1-6 6.01z"/><circle class="cls-1" cx="216.66" cy="39.98" r="1.75"/><path class="cls-1" d="M216.66 42.28A2.3 2.3 0 1 1 219 40a2.3 2.3 0 0 1-2.34 2.28zm-12.4-4.39h2.6v5.54h-2.6zm-22.07 0h2.56v5.54h-2.56zm-9.77-6.61a8.7 8.7 0 1 0 8.7 8.7 8.71 8.71 0 0 0-8.7-8.7zm0 14.71a6 6 0 1 1 6-6 6 6 0 0 1-6 6.01z"/><circle class="cls-1" cx="172.42" cy="39.98" r="1.75"/><path class="cls-1" d="M172.42 42.28a2.3 2.3 0 1 1 2.3-2.3 2.3 2.3 0 0 1-2.3 2.3zm-12.41-4.39h2.62v5.54h-2.62zm-9.71-6.61A8.7 8.7 0 1 0 159 40a8.71 8.71 0 0 0-8.7-8.72zm0 14.71a6 6 0 1 1 6-6 6 6 0 0 1-6 6.01z"/><circle class="cls-1" cx="150.3" cy="39.98" r="1.75"/><path class="cls-1" d="M150.3 42.28a2.3 2.3 0 1 1 2.3-2.3 2.3 2.3 0 0 1-2.3 2.3z"/><path class="cls-1" d="M66.06 29.48v5.77h72.1l-.06 8.18h2.3V39.98A9.8 9.8 0 0 1 160 40v.09h2.55V40a9.8 9.8 0 0 1 19.59 0v.09h2.55V40a9.8 9.8 0 0 1 19.59 0v.09h2.55V40a9.8 9.8 0 0 1 19.59 0v.09h2.55V40a9.8 9.8 0 0 1 19.59 0v.09h2.55V40a9.8 9.8 0 0 1 19.59 0v.09h2.57a9.78 9.78 0 0 1 19.55 0h2.57V40a9.8 9.8 0 0 1 19.59 0v.09h13.34V29.42zm-14.3 3.91h2.28v5.54h-2.28z"/><path class="cls-1" d="M49.87 25.69s-20.16-2-27.28-2.44L0 21.71v5.54l25.53 1.46 4.11 4.69s.92.3 2.38.73a9.78 9.78 0 1 1 19.37 2.72c6.33-2.06-1.52-11.16-1.52-11.16z"/><path class="cls-1" d="M41.71 26.78a8.7 8.7 0 1 0 8.7 8.7 8.71 8.71 0 0 0-8.7-8.7zm0 14.71a6 6 0 1 1 6-6 6 6 0 0 1-6 6z"/><circle class="cls-1" cx="41.71" cy="35.48" r="1.75"/><path class="cls-1" d="M41.71 37.78a2.3 2.3 0 1 1 2.3-2.3 2.3 2.3 0 0 1-2.3 2.3zm-12.07-4.39h2.27v5.54h-2.27zm285.29 4.5h2.28v5.54h-2.28zm-22.12-.68h2.54v5.54h-2.54zm-22.12.51h2.54v5.54h-2.54z"/><path class="cls-2" d="M70.6 5.47h1v7.99h-1zm256.34.19h1v23.76h-1z"/><path class="cls-2" transform="rotate(-89.93 199.502 8.258)" d="M199.01-119.68h1v255.86h-1z"/><path class="cls-2" d="M77.28 9.29l-6.51-1.16 6.53-1.76-.02 2.92zm243.66.25l6.5-1.16-6.52-1.76.02 2.92zM182.4 1.66h-1.13V.91h.1a1.65 1.65 0 0 0 .91-.22 1 1 0 0 0 .42-.7h.85v5.67h-1.15zM186.77 0H188v3.59h.54v.9H188v1.17h-1.06V4.49h-2v-.95zm.12 1.44l-1.1 2.15h1.12V1.44zm4.34 2.38H189v-.94h2.26zm.49 1.84a3.11 3.11 0 0 1 .08-.66 2.56 2.56 0 0 1 .23-.62 3.35 3.35 0 0 1 .39-.58 5.91 5.91 0 0 1 .55-.57l.46-.43a2.64 2.64 0 0 0 .31-.31 1.31 1.31 0 0 0 .18-.29 1.09 1.09 0 0 0 .08-.31 3.32 3.32 0 0 0 0-.38q0-.7-.56-.7a.58.58 0 0 0-.34.09.57.57 0 0 0-.19.24 1.13 1.13 0 0 0-.09.35 4.19 4.19 0 0 0 0 .42h-1.1v-.27a1.64 1.64 0 0 1 .42-1.22 1.82 1.82 0 0 1 1.34-.42 1.79 1.79 0 0 1 1.28.4 1.51 1.51 0 0 1 .42 1.14 2.53 2.53 0 0 1 0 .51 1.92 1.92 0 0 1-.15.45 2.1 2.1 0 0 1-.27.42 4 4 0 0 1-.41.42l-.64.59a2.34 2.34 0 0 0-.4.45 1.3 1.3 0 0 0-.18.38h2.14v.9zm5.15-4h-1.13V.91h.1a1.65 1.65 0 0 0 .91-.22 1 1 0 0 0 .42-.7h.83v5.67h-1.15zm4.68-.3h1.58l.67 2.88.67-2.88H206v4.3h-1V2.61l-.76 3.06h-.91l-.76-3.06v3.05h-1zm6.35 4.3h-1.06V4.42h1.06z"/></g></g></svg>