<svg xmlns="http://www.w3.org/2000/svg" viewBox="0 0 247.07415 43.882849" height="58.51" width="329.432"><path d="M245.117 31.809c.613 0 1.11-.118 1.11.5 0 .613-.497.5-1.11.5h-2.152c-.613 0-1.113.113-1.113-.5 0-.618.5-.5 1.113-.5zm0 0" fill="#fff"/><path d="M35.574 13.168H0v5.543h4.45v2.77h2.273v-2.77h28.851v16.484h5.547V13.168zm0 0" fill="#303d7a"/><path d="M166.703 34.68a9.73 9.73 0 0 1 1.14-4.567H35.575v5.543h131.18a10.04 10.04 0 0 1-.05-.976m62.682-4.567a9.683 9.683 0 0 1 1.09 5.543h16.597v-5.543zm-18.395 5.543a9.683 9.683 0 0 1 1.09-5.543h-5.11a9.717 9.717 0 0 1 1.434 5.07c0 .16-.015.317-.023.473zm-22.144 0c-.008-.156-.024-.312-.024-.472a9.75 9.75 0 0 1 1.43-5.07h-5.106a9.726 9.726 0 0 1 1.137 4.566c0 .332-.015.656-.047.976zm0 0" fill="#303d7a"/><path d="M220.734 24.89c5.008 0 9.141 3.778 9.715 8.633.836.082 1.672.157 2.508.247-.563-6.27-5.84-11.196-12.254-11.196-6.226 0-11.387 4.649-12.191 10.66a72.4 72.4 0 0 1 2.59-.242c.804-4.594 4.812-8.101 9.632-8.101" fill="#303d7a"/><path d="M220.734 25.98c-4.195 0-7.707 2.985-8.52 6.942.5-.027 1.005-.066 1.509-.086.886-3.02 3.675-5.234 6.98-5.234 3.461 0 6.352 2.422 7.094 5.66.512.047 1.023.105 1.535.152-.617-4.2-4.23-7.433-8.598-7.433" fill="#303d7a"/><path d="M220.734 40.688a6.007 6.007 0 0 1 0-12.012 6.007 6.007 0 1 1 0 12.012m0-14.708c-4.797 0-8.699 3.903-8.699 8.7 0 4.8 3.902 8.703 8.7 8.703 4.796 0 8.699-3.902 8.699-8.703 0-4.797-3.899-8.7-8.7-8.7" fill="#303d7a"/><path d="M222.492 34.68c0 .972-.789 1.754-1.758 1.754a1.754 1.754 0 1 1 0-3.508c.97 0 1.758.785 1.758 1.754" fill="#303d7a"/><path d="M220.734 36.98a2.3 2.3 0 1 1-.001-4.6 2.3 2.3 0 0 1 .002 4.6m-22.118-11.585c5.004 0 9.14 3.777 9.715 8.632.836.082 1.672.157 2.504.246-.563-6.27-5.84-11.199-12.25-11.199-6.23 0-11.387 4.653-12.195 10.664.867-.097 1.726-.18 2.59-.246.804-4.594 4.812-8.097 9.636-8.097" fill="#303d7a"/><path d="M198.617 26.484c-4.2 0-7.71 2.985-8.523 6.942.5-.028 1.004-.067 1.508-.09.89-3.02 3.68-5.234 6.984-5.234 3.457 0 6.351 2.425 7.09 5.664.511.043 1.023.101 1.539.152-.617-4.2-4.235-7.434-8.598-7.434" fill="#303d7a"/><path d="M198.617 41.191a6.007 6.007 0 1 1 0-12.015 6.009 6.009 0 0 1 0 12.015m0-14.707c-4.8 0-8.703 3.899-8.703 8.7 0 4.797 3.902 8.699 8.703 8.699 4.797 0 8.7-3.902 8.7-8.7 0-4.8-3.903-8.699-8.7-8.699" fill="#303d7a"/><path d="M200.371 35.184c0 .968-.785 1.754-1.758 1.754a1.754 1.754 0 1 1 0-3.508c.973 0 1.758.785 1.758 1.754" fill="#303d7a"/><path d="M198.617 37.484a2.306 2.306 0 0 1-2.305-2.3 2.309 2.309 0 0 1 2.305-2.301 2.301 2.301 0 0 1 0 4.602M176.496 25.98c-4.125 0-7.582 2.887-8.473 6.747.496-.028.993-.067 1.493-.086.882-3.02 3.675-5.235 6.98-5.235 3.457 0 6.352 2.422 7.09 5.66.492.043.984.098 1.476.145-.703-4.098-4.27-7.23-8.566-7.23" fill="#303d7a"/><path d="M176.496 24.89c4.934 0 9.02 3.676 9.684 8.434.855.082 1.71.157 2.566.25-.562-6.265-5.84-11.199-12.25-11.199-6.227 0-11.387 4.652-12.191 10.664.863-.098 1.722-.18 2.586-.246.882-4.496 4.851-7.902 9.605-7.902" fill="#303d7a"/><path d="M176.496 40.688a6.007 6.007 0 0 1 0-12.012 6.007 6.007 0 1 1 0 12.012m0-14.708c-4.8 0-8.703 3.903-8.703 8.7 0 4.8 3.902 8.703 8.703 8.703 4.797 0 8.7-3.902 8.7-8.703 0-4.797-3.903-8.7-8.7-8.7" fill="#303d7a"/><path d="M178.25 34.68c0 .972-.785 1.754-1.758 1.754a1.754 1.754 0 1 1 0-3.508c.973 0 1.758.785 1.758 1.754" fill="#303d7a"/><path d="M176.496 36.98a2.3 2.3 0 0 1 0-4.601 2.301 2.301 0 0 1 0 4.602m-9.793 1.152h-2.273V32.59h2.273zm66.097 0h-2.273V32.59h2.274zm-43.976-.168h-2.539v-5.543h2.54zm22.121 0h-2.539v-5.543h2.54zm0 0" fill="#303d7a"/><path d="M41.3 13.461h-1V5.469h1zM246.64 30.18h-1V5.664h1zm0 0" fill="#f5ae23"/><path d="M246.14 8.914L41.282 8.582v-1l204.86.332zm0 0" fill="#f5ae23"/><path d="M46.98 9.29l-6.507-1.165 6.523-1.754zm192.657.25l6.504-1.165-6.524-1.754zm-108.59-6.845c.098.164.258.25.48.25.23 0 .395-.086.489-.25.097-.164.144-.441.144-.824 0-.16-.008-.308-.023-.45a1.155 1.155 0 0 0-.094-.355.531.531 0 0 0-.191-.23.578.578 0 0 0-.325-.086.597.597 0 0 0-.332.086.513.513 0 0 0-.187.234c-.043.102-.07.223-.082.356-.016.137-.02.285-.02.445 0 .383.047.66.141.824m.062 2.149c.075.12.211.18.403.18a.556.556 0 0 0 .367-.11.714.714 0 0 0 .215-.297c.047-.129.082-.281.098-.457a6.55 6.55 0 0 0 .023-.578V3.31h-.016a1.01 1.01 0 0 1-.41.351c-.18.086-.398.133-.652.133-.25 0-.465-.047-.64-.133a1.138 1.138 0 0 1-.43-.367 1.71 1.71 0 0 1-.239-.562 3.068 3.068 0 0 1-.074-.708c0-.656.145-1.156.434-1.503.293-.348.757-.52 1.398-.52.395 0 .707.074.941.219.235.148.415.34.54.582.125.246.207.527.246.847.035.317.054.653.054 1 0 .403-.011.797-.035 1.172a3.06 3.06 0 0 1-.215.996 1.501 1.501 0 0 1-.57.684c-.258.168-.617.25-1.082.25a2.93 2.93 0 0 1-.59-.059 1.193 1.193 0 0 1-.5-.226 1.154 1.154 0 0 1-.348-.438 1.724 1.724 0 0 1-.14-.683h1.105c0 .21.04.379.117.5m3.86.612c0 .195-.016.383-.047.563-.027.18-.082.332-.164.46a.942.942 0 0 1-.32.325 1.294 1.294 0 0 1-.528.156v-.563a.423.423 0 0 0 .313-.222.802.802 0 0 0 .105-.41v-.102h-.418v-1.25h1.059zm4.093-4.465a7.512 7.512 0 0 0-.625 1.063 9.81 9.81 0 0 0-.484 1.168c-.14.402-.254.808-.344 1.222-.093.41-.16.817-.21 1.22h-1.208c.043-.34.106-.7.192-1.079a9.958 9.958 0 0 1 .855-2.324 9.01 9.01 0 0 1 .723-1.16h-2.387V.113h3.488zm2.786 2.832h-2.254V2.88h2.254zm1.808-2.16h-1.129V.91h.106c.383 0 .687-.07.906-.215.223-.144.363-.379.422-.695h.848v5.664h-1.153zm3.84 0h-1.129V.91h.106c.382 0 .687-.07.906-.215.223-.144.363-.379.422-.695h.847v5.664h-1.152zm3.871 3.793c0 .195-.015.383-.043.563a1.31 1.31 0 0 1-.164.46.953.953 0 0 1-.324.325 1.293 1.293 0 0 1-.524.156v-.563a.438.438 0 0 0 .313-.222.84.84 0 0 0 .101-.41v-.102h-.414v-1.25h1.055zm1.887-3.793h-1.125V.91h.101c.387 0 .688-.07.91-.215.22-.144.36-.379.419-.695h.847v5.664h-1.152zm4.992 2.16h-2.254V2.88h2.254zm1.809-2.16h-1.13V.91h.106c.383 0 .688-.07.906-.215.223-.144.364-.379.422-.695h.848v5.664h-1.152zm2.527 4c0-.25.027-.484.078-.703.05-.219.125-.43.23-.625.106-.2.235-.39.391-.582.16-.188.34-.379.551-.57l.465-.434c.125-.11.226-.215.305-.312.078-.094.136-.192.18-.29a.972.972 0 0 0 .085-.308 3.58 3.58 0 0 0 .02-.383c0-.473-.188-.707-.559-.707a.576.576 0 0 0-.34.09.527.527 0 0 0-.191.238 1.054 1.054 0 0 0-.09.356c-.016.129-.02.273-.02.421h-1.105v-.214c0-.532.14-.934.426-1.22.281-.28.726-.421 1.336-.421.574 0 1.004.133 1.277.398.277.27.418.649.418 1.145 0 .184-.016.352-.047.508-.031.16-.086.308-.152.453-.07.14-.16.285-.274.418a4.03 4.03 0 0 1-.406.422l-.64.59a2.561 2.561 0 0 0-.403.453 1.43 1.43 0 0 0-.183.379h2.136v.898zm5.184-.207c0 .195-.016.383-.043.563a1.24 1.24 0 0 1-.164.46.92.92 0 0 1-.325.325 1.293 1.293 0 0 1-.523.156v-.563a.43.43 0 0 0 .312-.222.8.8 0 0 0 .102-.41v-.102h-.414v-1.25h1.055zm1.746-4.449l-.121 1.289h.015a.879.879 0 0 1 .418-.324c.168-.07.375-.102.621-.102.274 0 .5.05.676.156.18.106.32.243.426.414.105.168.176.364.219.579.043.214.066.433.066.66 0 .312-.027.597-.082.855-.05.254-.148.477-.285.66-.133.184-.32.325-.555.418-.234.09-.531.137-.894.137-.36 0-.649-.047-.868-.14-.222-.098-.394-.223-.507-.383a1.305 1.305 0 0 1-.239-.512 2.482 2.482 0 0 1-.058-.516v-.152h1.101c0 .098.008.195.016.305.012.105.039.207.078.3.04.09.098.168.172.23a.443.443 0 0 0 .297.095c.238 0 .41-.094.515-.278.102-.183.157-.46.157-.828 0-.234-.012-.43-.032-.586a1.137 1.137 0 0 0-.109-.367.456.456 0 0 0-.203-.191.841.841 0 0 0-.32-.055c-.168 0-.293.047-.383.14a.65.65 0 0 0-.16.38h-1.036l.211-3.079h2.95v.895zm4.816.352h1.574l.672 2.878.672-2.879h1.578v4.305h-1.035V2.61l-.758 3.055h-.914l-.758-3.055v3.055h-1.03zm6.352 4.304h-1.059v-1.25h1.059zm0 0" fill="#f5ae23"/></svg>