<svg xmlns="http://www.w3.org/2000/svg" viewBox="0 0 281.61 49.17"><defs><style>.cls-1{fill:#253678}.cls-2{fill:#7d8bb2}.cls-3{fill:#f6ad15}</style></defs><title>6989</title><g id="Слой_2" data-name="Слой 2"><g id="Слой_1-2" data-name="Слой 1"><path class="cls-1" d="M35.58 13.45h5.54v19.03h-5.54z"/><path class="cls-1" d="M41.12 13.45H0v5.54h4.45v2.78h2.28v-2.78h34.39v-5.54zM244 31.26a8.7 8.7 0 1 0 8.7 8.7 8.71 8.71 0 0 0-8.7-8.7zM244 46a6 6 0 1 1 6-6 6 6 0 0 1-6 6z"/><circle class="cls-1" cx="243.97" cy="39.97" r="1.75"/><path class="cls-1" d="M244 42.26a2.3 2.3 0 1 1 2.3-2.3 2.3 2.3 0 0 1-2.3 2.3zm-22.15-10.49a8.7 8.7 0 1 0 8.7 8.7 8.71 8.71 0 0 0-8.7-8.7zm0 14.71a6 6 0 1 1 6-6 6 6 0 0 1-6 5.99z"/><circle class="cls-1" cx="221.85" cy="40.47" r="1.75"/><path class="cls-1" d="M221.85 42.77a2.3 2.3 0 1 1 2.3-2.3 2.3 2.3 0 0 1-2.3 2.3zm-22.12-11.51a8.7 8.7 0 1 0 8.7 8.7 8.71 8.71 0 0 0-8.7-8.7zm0 14.71a6 6 0 1 1 6-6 6 6 0 0 1-6 6.03z"/><circle class="cls-1" cx="199.73" cy="39.97" r="1.75"/><path class="cls-1" d="M199.73 42.26A2.3 2.3 0 1 1 202 40a2.3 2.3 0 0 1-2.27 2.26zm54.03-4.38h2.27v5.54h-2.27zm-44.24-.17h2.54v5.54h-2.54zm22.12 0h2.54v5.54h-2.54z"/><path class="cls-1" d="M279.91 48.6l-20.19-19.68-224.14.31V35h151.81l-.1 8.44h2.65v-3.5a9.79 9.79 0 0 1 19.58 0v.5h2.56a9.79 9.79 0 0 1 19.58 0h2.56v-.51a9.79 9.79 0 0 1 19.58 0v.51H268l-.07 8z"/><path class="cls-2" d="M259.7 28.9l12.03.11-.1 11.56L259.7 28.9zm21.91 10.43a8.65 8.65 0 0 0-2.34-5.11l-.22-.21-2 1.86.22.21a6.46 6.46 0 0 1 1.61 3.25zm-.09 2.32l-2.73-.07a6 6 0 0 1-1.59 2.87l1.9 1.91a8.65 8.65 0 0 0 2.42-4.71zm-8.75-11.39v2.73a6 6 0 0 1 3 1.34l1.73-2.06a8.12 8.12 0 0 0-4.73-2.01z"/><path class="cls-3" d="M40.09 5.47h1v7.99h-1zm230.64-.06h1V29h-1z"/><path class="cls-3" d="M41.07 7.62h230.16v1H41.07z"/><path class="cls-3" d="M46.77 9.29l-6.51-1.16 6.53-1.76-.02 2.92zm217.96 0l6.5-1.16-6.52-1.76.02 2.92zM136.89 1.66h-1.13V.91h.1a1.66 1.66 0 0 0 .91-.21 1 1 0 0 0 .42-.7h.81v5.66h-1.15zm3.84 0h-1.13V.91h.1a1.66 1.66 0 0 0 .91-.21A1 1 0 0 0 141 0h.85v5.66h-1.15zm4.99 2.16h-2.26v-.94h2.26zm1.8-2.16h-1.12V.91h.1a1.66 1.66 0 0 0 .91-.21 1 1 0 0 0 .42-.7h.85v5.66h-1.15zm6.05-.66a7.49 7.49 0 0 0-.63 1.06 10.63 10.63 0 0 0-.48 1.17 10.83 10.83 0 0 0-.34 1.22q-.14.62-.21 1.22h-1.21q.06-.51.19-1.08a9.63 9.63 0 0 1 .34-1.15 10.09 10.09 0 0 1 .52-1.18 8.67 8.67 0 0 1 .72-1.16h-2.38v-1h3.49zm1.67 4.46a3.48 3.48 0 0 1 0 .56 1.27 1.27 0 0 1-.16.46 1 1 0 0 1-.32.32 1.25 1.25 0 0 1-.52.16V6.4a.44.44 0 0 0 .31-.22.82.82 0 0 0 .1-.41v-.1h-.42V4.42h1.06zM157 1l-.12 1.29a.9.9 0 0 1 .42-.32 1.72 1.72 0 0 1 .62-.1 1.32 1.32 0 0 1 .68.16 1.19 1.19 0 0 1 .42.41 1.76 1.76 0 0 1 .22.58 3.38 3.38 0 0 1 .06.66 4.19 4.19 0 0 1-.08.86 1.67 1.67 0 0 1-.28.66 1.25 1.25 0 0 1-.56.42 2.48 2.48 0 0 1-.9.14 2.19 2.19 0 0 1-.87-.14 1.22 1.22 0 0 1-.51-.38 1.32 1.32 0 0 1-.24-.51 2.44 2.44 0 0 1-.06-.52V4h1.1a3 3 0 0 0 0 .3 1 1 0 0 0 .08.3.6.6 0 0 0 .17.23.45.45 0 0 0 .3.09.55.55 0 0 0 .55-.22 1.73 1.73 0 0 0 .16-.83 4.45 4.45 0 0 0 0-.58 1.07 1.07 0 0 0-.11-.37.43.43 0 0 0-.2-.19.81.81 0 0 0-.32-.06.5.5 0 0 0-.38.14.67.67 0 0 0-.16.38h-1l.21-3.08h3V1zm4.8.36h1.58l.62 2.88.67-2.88h1.58v4.3h-1V2.61l-.76 3.06h-.91l-.76-3.06v3.05h-1zm6.35 4.3h-1.06V4.42h1.06z"/></g></g></svg>