<svg xmlns="http://www.w3.org/2000/svg" viewBox="0 0 277.49606 44.168009" height="58.891" width="369.995"><path d="M41.121 32.48h-5.543V13.454h5.543zm0 0" fill="#303d7a"/><path d="M41.121 13.453H0v5.543h4.45v2.77h2.277v-2.77H41.12zm202.852 27.52a6.005 6.005 0 0 1-6.008-6.008 6.007 6.007 0 0 1 12.012 0 6.004 6.004 0 0 1-6.004 6.008m0-14.707c-4.801 0-8.704 3.902-8.704 8.699 0 4.8 3.903 8.703 8.704 8.703 4.796 0 8.699-3.902 8.699-8.703 0-4.797-3.903-8.7-8.7-8.7" fill="#303d7a"/><path d="M245.727 34.965a1.757 1.757 0 0 1-3.512 0 1.757 1.757 0 0 1 3.512 0" fill="#303d7a"/><path d="M243.973 37.266a2.303 2.303 0 0 1-2.301-2.301 2.304 2.304 0 0 1 2.3-2.301 2.301 2.301 0 0 1 0 4.602m-22.12 4.211a6.01 6.01 0 0 1-6.008-6.008 6.01 6.01 0 0 1 6.008-6.008 6.01 6.01 0 0 1 6.007 6.008 6.01 6.01 0 0 1-6.007 6.008m0-14.711c-4.797 0-8.7 3.902-8.7 8.703 0 4.797 3.903 8.699 8.7 8.699 4.796 0 8.699-3.902 8.699-8.7 0-4.8-3.903-8.702-8.7-8.702" fill="#303d7a"/><path d="M223.605 35.469a1.754 1.754 0 1 1-3.507 0 1.754 1.754 0 0 1 3.507 0" fill="#303d7a"/><path d="M221.852 37.77a2.303 2.303 0 0 1-2.301-2.301 2.304 2.304 0 0 1 2.3-2.301 2.304 2.304 0 0 1 2.301 2.3 2.303 2.303 0 0 1-2.3 2.302m-22.122 3.203a6.004 6.004 0 0 1-6.003-6.008 6.007 6.007 0 1 1 12.011 0 6.007 6.007 0 0 1-6.008 6.008m0-14.707c-4.796 0-8.699 3.902-8.699 8.699 0 4.8 3.903 8.703 8.7 8.703 4.796 0 8.703-3.902 8.703-8.703 0-4.797-3.903-8.7-8.704-8.7" fill="#303d7a"/><path d="M201.488 34.965a1.757 1.757 0 0 1-3.511 0 1.756 1.756 0 0 1 3.511 0" fill="#303d7a"/><path d="M199.73 37.266a2.305 2.305 0 0 1-2.3-2.301 2.307 2.307 0 0 1 2.3-2.301 2.304 2.304 0 0 1 2.301 2.3 2.303 2.303 0 0 1-2.3 2.302" fill="#303d7a"/><path d="M271.754 35.48l-12.035-11.562v-.012H35.579l.089 14.516H189.94v-2.957h.024c-.008-.168-.024-.332-.024-.5 0-5.399 4.391-9.79 9.79-9.79 5.398 0 9.788 4.391 9.788 9.79 0 .168-.015.336-.023.504h2.563c0-5.399 4.394-9.793 9.793-9.793 5.398 0 9.789 4.394 9.789 9.793h2.566c-.008-.172-.027-.34-.027-.512 0-5.398 4.394-9.789 9.793-9.789 5.398 0 9.789 4.39 9.789 9.789 0 .172-.016.344-.028.512zm0 0" fill="#303d7a"/><path d="M256.035 38.422h-2.273v-5.547h2.273zm-43.976-.172h-2.54v-5.543h2.54zm22.121 0h-2.54v-5.543h2.54zm31.277-14.57h12.039v11.562zm0 0" fill="#303d7a"/><path d="M41.086 13.46h-1V5.47h1zM277.43 23.75h-1V5.664h1zm0 0" fill="#f5ae23"/><path d="M276.93 8.914L41.07 8.582v-1l235.86.332zm0 0" fill="#f5ae23"/><path d="M46.766 9.293l-6.504-1.168 6.523-1.754zm223.66.25l6.504-1.168-6.524-1.754zM136.887 1.664h-1.13v-.75h.102c.387 0 .688-.074.91-.219.22-.14.36-.375.418-.695h.848v5.664h-1.148zm3.836 0h-1.125v-.75h.101c.387 0 .688-.074.91-.219.22-.14.36-.375.418-.695h.848v5.664h-1.152zm4.992 2.16h-2.254v-.941h2.254zm1.808-2.16h-1.129v-.75h.106c.383 0 .687-.074.91-.219.219-.14.36-.375.418-.695h.848v5.664h-1.153zm6.051-.672a7.383 7.383 0 0 0-.629 1.063 10.504 10.504 0 0 0-.828 2.39c-.094.41-.16.82-.207 1.22h-1.21a9.956 9.956 0 0 1 .531-2.223c.144-.391.316-.782.519-1.176.2-.395.441-.782.719-1.16h-2.383V.112h3.488zm1.66 4.465c0 .195-.011.387-.043.563a1.2 1.2 0 0 1-.164.464.91.91 0 0 1-.324.32 1.275 1.275 0 0 1-.523.157v-.563a.42.42 0 0 0 .312-.222.798.798 0 0 0 .106-.406v-.106h-.418V4.418h1.054zm1.746-4.449l-.12 1.289h.015a.904.904 0 0 1 .418-.324c.168-.067.379-.102.621-.102.273 0 .5.055.68.156.175.106.316.243.422.414.105.172.175.364.218.579.043.218.067.437.067.66 0 .316-.028.601-.082.855a1.66 1.66 0 0 1-.282.66 1.239 1.239 0 0 1-.558.418c-.235.09-.531.137-.895.137-.359 0-.648-.047-.867-.14a1.233 1.233 0 0 1-.508-.38 1.332 1.332 0 0 1-.238-.511 2.547 2.547 0 0 1-.059-.52v-.148h1.102c0 .093.008.195.02.3a.978.978 0 0 0 .074.301.606.606 0 0 0 .172.235c.074.058.171.09.296.09.239 0 .41-.09.516-.278.106-.183.156-.46.156-.828a4.88 4.88 0 0 0-.03-.582 1.078 1.078 0 0 0-.11-.367.401.401 0 0 0-.203-.192.769.769 0 0 0-.32-.058c-.169 0-.294.047-.38.14a.64.64 0 0 0-.164.38h-1.035l.211-3.079h2.95v.895zm4.817.352h1.574l.672 2.882.672-2.883h1.578v4.305h-1.031V2.61l-.762 3.055h-.914l-.758-3.055v3.055h-1.031zm6.351 4.304h-1.058V4.418h1.058zm0 0" fill="#f5ae23"/></svg>