<svg xmlns="http://www.w3.org/2000/svg" xmlns:xlink="http://www.w3.org/1999/xlink" viewBox="0 0 237.27342 44.098414" height="58.798" width="316.365"><defs><symbol id="a" overflow="visible"><path d="M1.453 0H2.61v-5.656h-.843c-.063.312-.204.543-.422.687-.219.149-.524.219-.907.219H.329V-4h1.125zm0 0"/></symbol><symbol id="b" overflow="visible"><path d="M.375-4.297h1.563l.671 2.875.672-2.875H4.86V0H3.83v-3.063L3.078 0h-.923l-.75-3.063V0H.375zm0 0"/></symbol><symbol id="c" overflow="visible"><path d="M1.484-1.25H.438V0h1.046zm0 0"/></symbol></defs><path d="M35.578 13.38H0v5.543h4.453v2.773h2.274v-2.773h28.851v12.824h5.547V13.38zm172.703 27.523a6.007 6.007 0 1 1-.002-12.013 6.007 6.007 0 0 1 .002 12.013m0-14.707c-4.8 0-8.703 3.902-8.703 8.703 0 4.797 3.902 8.7 8.703 8.7 4.797 0 8.7-3.903 8.7-8.7 0-4.8-3.903-8.703-8.7-8.703" fill="#303d7a"/><path d="M210.035 34.895a1.757 1.757 0 0 1-3.512 0c0-.968.79-1.754 1.758-1.754.969 0 1.754.786 1.754 1.754" fill="#303d7a"/><path d="M208.281 37.196a2.3 2.3 0 0 1-2.3-2.297 2.306 2.306 0 0 1 2.3-2.304 2.3 2.3 0 1 1 0 4.602m-22.121 4.21a6.01 6.01 0 0 1-6.008-6.008 6.007 6.007 0 0 1 12.012 0 6.007 6.007 0 0 1-6.004 6.008m0-14.71c-4.797 0-8.7 3.901-8.7 8.702 0 4.797 3.903 8.7 8.7 8.7 4.797 0 8.7-3.903 8.7-8.7 0-4.8-3.903-8.703-8.7-8.703" fill="#303d7a"/><path d="M187.914 35.4a1.754 1.754 0 1 1-3.508 0 1.754 1.754 0 0 1 3.508 0" fill="#303d7a"/><path d="M186.16 37.696a2.3 2.3 0 0 1-2.3-2.297 2.299 2.299 0 1 1 2.3 2.297m-22.121 3.207a6.006 6.006 0 1 1 .004-12.011 6.006 6.006 0 0 1-.004 12.011m0-14.707c-4.797 0-8.7 3.902-8.7 8.703 0 4.797 3.903 8.7 8.7 8.7 4.797 0 8.703-3.903 8.703-8.7 0-4.8-3.906-8.703-8.703-8.703" fill="#303d7a"/><path d="M165.797 34.895c0 .969-.79 1.754-1.758 1.754a1.754 1.754 0 1 1 0-3.508c.969 0 1.758.786 1.758 1.754" fill="#303d7a"/><path d="M164.039 37.196a2.3 2.3 0 0 1 0-4.601c1.27 0 2.3 1.035 2.3 2.304a2.301 2.301 0 0 1-2.3 2.297" fill="#303d7a"/><path d="M237.273 35.637l-12.851-12.386H35.555l.05 15.101h118.903v-2.699h.039a9.52 9.52 0 0 1-.04-.758c0-5.398 4.38-9.789 9.762-9.789 5.38 0 9.758 4.39 9.758 9.79 0 .253-.02.503-.039.753h.04v2.535h2.53V35.65h.012c0-.086-.011-.168-.011-.25 0-5.398 4.378-9.789 9.761-9.789 5.38 0 9.758 4.39 9.758 9.79 0 .081-.012.163-.012.245h.012v2.54h2.531v-2.54h.04c-.02-.25-.04-.496-.04-.75 0-5.398 4.38-9.789 9.762-9.789 5.379 0 9.758 4.39 9.758 9.79 0 .253-.02.5-.035.745h.035v2.711h2.27v-2.71zm0 0" fill="#303d7a"/><path d="M40.773 5.458v7.996m183.344-7.797v17.516M41.258 8.075l182.86.332" fill="none" stroke="#f5ae23" stroke-miterlimit="10"/><path d="M46.953 9.282L40.45 8.118l6.524-1.754zm170.66.25l6.504-1.164-6.523-1.754zm0 0" fill="#f5ae23"/><g transform="translate(-110.031 -220.448)" fill="#f5ae23"><use xlink:href="#a" x="228.647" y="226.105" width="100%" height="100%"/><use xlink:href="#a" x="232.487" y="226.105" width="100%" height="100%"/><use xlink:href="#b" x="236.327" y="226.105" width="100%" height="100%"/><use xlink:href="#b" x="238.247" y="226.105" width="100%" height="100%"/><use xlink:href="#c" x="243.478" y="226.105" width="100%" height="100%"/></g></svg>