<svg id="Слой_2" xmlns="http://www.w3.org/2000/svg" viewBox="0 0 259.6 129.6"><style>.st0{fill:#253678}.st1{fill:#fff}</style><g id="_x38_х4"><path class="st0" d="M71.6 87.2v-53c0-2.9-2.4-5.1-5.3-5.1H21.9c-6.3 0-8.1-5.5-9.7-1.8C7.8 37.4 1 56.2.9 68.9v.1l.2 38.6 25.6 2.5h233v-23H71.6z"/><circle class="st0" cx="181.4" cy="110.1" r="18.4"/><path class="st1" d="M181.4 129.6c-10.7 0-19.5-8.7-19.5-19.5 0-10.7 8.7-19.5 19.5-19.5 10.7 0 19.5 8.7 19.5 19.5s-8.7 19.5-19.5 19.5zm0-36.8c-9.5 0-17.3 7.8-17.3 17.3s7.8 17.3 17.3 17.3 17.3-7.8 17.3-17.3-7.7-17.3-17.3-17.3z"/><circle class="st1" cx="181.4" cy="110.1" r="11.9"/><circle class="st0" cx="181.4" cy="110.1" r="3.5"/><path class="st0" d="M181.4 114.7c-2.5 0-4.6-2.1-4.6-4.6 0-2.5 2.1-4.6 4.6-4.6 2.5 0 4.6 2.1 4.6 4.6 0 2.6-2.1 4.6-4.6 4.6z"/><circle class="st0" cx="226.4" cy="110.1" r="18.4"/><path class="st1" d="M226.4 129.6c-10.7 0-19.5-8.7-19.5-19.5 0-10.7 8.7-19.5 19.5-19.5 10.7 0 19.5 8.7 19.5 19.5s-8.7 19.5-19.5 19.5zm0-36.8c-9.5 0-17.3 7.8-17.3 17.3s7.8 17.3 17.3 17.3 17.3-7.8 17.3-17.3-7.7-17.3-17.3-17.3z"/><circle class="st1" cx="226.4" cy="110.1" r="11.9"/><circle class="st0" cx="226.4" cy="110.1" r="3.5"/><path class="st0" d="M226.4 114.7c-2.5 0-4.6-2.1-4.6-4.6 0-2.5 2.1-4.6 4.6-4.6 2.5 0 4.6 2.1 4.6 4.6 0 2.6-2.1 4.6-4.6 4.6zm-25.9-34h7.5v16h-7.5z"/><path class="st0" d="M192 78.3h26v4h-26zM3.6 34.2h31v-22l-21.3.3zM0 57.8v46.4s-.2 4.3 1 5.5c.9.9 4.1.9 4.1.9l26.5-.4L22 54.1 0 57.8z"/><path class="st0" d="M79.5.7S75.3-.6 69.8.4C66 1 41.3 4.1 41.3 4.1c-14.3 1.8-25.6 4.5-28 8.4C6.3 23.9 1.1 63 1.1 63l9.2-31.9s12.1 2 16.6 2c12.7 0 29.7.4 41.9.2v56.1h5.6v-9.7h5l.1-79z"/><path class="st1" d="M63.6 34.2V42s.6 6.1-1 7.9c-1.5 1.6-7.7 3-7.7 3L5.6 58.5l4.8-24.4h53.2z"/><path class="st0" d="M46.6 26.2h4v34h-4z"/><circle class="st0" cx="50.4" cy="109.1" r="18.4"/><path class="st1" d="M50.4 128.6c-10.7 0-19.5-8.7-19.5-19.5 0-10.7 8.7-19.5 19.5-19.5 10.7 0 19.5 8.7 19.5 19.5s-8.7 19.5-19.5 19.5zm0-36.8c-9.5 0-17.3 7.8-17.3 17.3s7.8 17.3 17.3 17.3 17.3-7.8 17.3-17.3S60 91.8 50.4 91.8z"/><circle class="st1" cx="50.4" cy="109.1" r="11.9"/><circle class="st0" cx="50.4" cy="109.1" r="3.5"/><path class="st0" d="M50.4 113.7c-2.5 0-4.6-2.1-4.6-4.6 0-2.5 2.1-4.6 4.6-4.6 2.5 0 4.6 2.1 4.6 4.6 0 2.6-2.1 4.6-4.6 4.6z"/><circle class="st0" cx="137.4" cy="110.1" r="18.4"/><path class="st1" d="M137.4 129.6c-10.7 0-19.5-8.7-19.5-19.5 0-10.7 8.7-19.5 19.5-19.5 10.7 0 19.5 8.7 19.5 19.5s-8.7 19.5-19.5 19.5zm0-36.8c-9.5 0-17.3 7.8-17.3 17.3s7.8 17.3 17.3 17.3 17.3-7.8 17.3-17.3-7.7-17.3-17.3-17.3z"/><circle class="st1" cx="137.4" cy="110.1" r="11.9"/><circle class="st0" cx="137.4" cy="110.1" r="3.5"/><path class="st0" d="M137.4 114.7c-2.5 0-4.6-2.1-4.6-4.6 0-2.5 2.1-4.6 4.6-4.6 2.5 0 4.6 2.1 4.6 4.6 0 2.6-2.1 4.6-4.6 4.6z"/><path class="st1" d="M11.1 102.2c1.2 0 2.2.8 2.2 2s-1 2-2.2 2H6.8c-1.2 0-2.2-.8-2.2-2s1-2 2.2-2h4.3z"/><path class="st0" d="M26.4 105.6h4.5v10.1h-4.5zm43.5 0h4.5v10.1h-4.5zm43.5 0h4.5v10.1h-4.5zm43.5 0h5.1v10h-5.1zm89-.9h4.5v11h-4.5zm-45 0h6.1v11h-6.1z"/></g></svg>