<?xml version="1.0" encoding="utf-8"?>
<!-- Generator: Adobe Illustrator 21.1.0, SVG Export Plug-In . SVG Version: 6.00 Build 0)  -->
<svg version="1.1" id="Слой_2" xmlns="http://www.w3.org/2000/svg" xmlns:xlink="http://www.w3.org/1999/xlink" x="0px" y="0px"
	 viewBox="0 0 259.6 129.6" style="enable-background:new 0 0 259.6 129.6;" xml:space="preserve">
<style type="text/css">
	.st0{fill:#253678;}
	.st1{fill:#FFFFFF;}
</style>
<g id="_x38_х4">
	<g>
		<path class="st0" d="M71.6,87.2V43.5v-7.6v-1.7c0-2.9-2.4-5.1-5.3-5.1H66c-0.1,0-0.2,0-0.3,0l0,0c0,0-23.6,0-43.8,0
			c-6.3,0-8.1-5.5-9.7-1.8C7.8,37.4,1,56.2,0.9,68.9l0,0.1l0.2,38.6l25.6,2.5h4.6h228.4v-23H71.6z"/>
	</g>
	<g>
		<g>
			<g>
				<circle class="st0" cx="181.4" cy="110.1" r="18.4"/>
			</g>
			<g>
				<path class="st1" d="M181.4,129.6c-10.7,0-19.5-8.7-19.5-19.5c0-10.7,8.7-19.5,19.5-19.5c10.7,0,19.5,8.7,19.5,19.5
					C200.9,120.9,192.2,129.6,181.4,129.6z M181.4,92.8c-9.5,0-17.3,7.8-17.3,17.3c0,9.5,7.8,17.3,17.3,17.3
					c9.5,0,17.3-7.8,17.3-17.3C198.7,100.6,191,92.8,181.4,92.8z"/>
			</g>
		</g>
		<g>
			<g>
				<g>
					<circle class="st1" cx="181.4" cy="110.1" r="11.9"/>
				</g>
			</g>
			<g>
				<g>
					<circle class="st0" cx="181.4" cy="110.1" r="3.5"/>
				</g>
				<g>
					<path class="st0" d="M181.4,114.7c-2.5,0-4.6-2.1-4.6-4.6c0-2.5,2.1-4.6,4.6-4.6c2.5,0,4.6,2.1,4.6,4.6
						C186,112.7,183.9,114.7,181.4,114.7z"/>
				</g>
			</g>
		</g>
	</g>
	<g>
		<g>
			<g>
				<circle class="st0" cx="226.4" cy="110.1" r="18.4"/>
			</g>
			<g>
				<path class="st1" d="M226.4,129.6c-10.7,0-19.5-8.7-19.5-19.5c0-10.7,8.7-19.5,19.5-19.5c10.7,0,19.5,8.7,19.5,19.5
					C245.9,120.9,237.2,129.6,226.4,129.6z M226.4,92.8c-9.5,0-17.3,7.8-17.3,17.3c0,9.5,7.8,17.3,17.3,17.3
					c9.5,0,17.3-7.8,17.3-17.3C243.7,100.6,236,92.8,226.4,92.8z"/>
			</g>
		</g>
		<g>
			<g>
				<g>
					<circle class="st1" cx="226.4" cy="110.1" r="11.9"/>
				</g>
			</g>
			<g>
				<g>
					<circle class="st0" cx="226.4" cy="110.1" r="3.5"/>
				</g>
				<g>
					<path class="st0" d="M226.4,114.7c-2.5,0-4.6-2.1-4.6-4.6c0-2.5,2.1-4.6,4.6-4.6c2.5,0,4.6,2.1,4.6,4.6
						C231,112.7,228.9,114.7,226.4,114.7z"/>
				</g>
			</g>
		</g>
	</g>
	<g>
		<rect x="200.5" y="80.7" class="st0" width="7.5" height="16"/>
	</g>
	<g>
		<rect x="192" y="78.3" class="st0" width="26" height="4"/>
	</g>
	<g>
		<polygon class="st0" points="3.6,34.2 34.6,34.2 34.6,12.2 13.3,12.5 		"/>
	</g>
	<g>
		<path class="st0" d="M0,57.8v46.4c0,0-0.2,4.3,1,5.5c0.9,0.9,4.1,0.9,4.1,0.9l26.5-0.4L22,54.1L0,57.8z"/>
	</g>
	<g>
		<path class="st0" d="M79.5,0.7c0,0-4.2-1.3-9.7-0.3C66,1,41.3,4.1,41.3,4.1l0,0c-14.3,1.8-25.6,4.5-28,8.4C6.3,23.9,1.1,63,1.1,63
			l9.2-31.9c0,0,12.1,2,16.6,2c12.7,0,29.7,0.4,41.9,0.2v56.1h5.6v-9.7h5L79.5,0.7z"/>
	</g>
	<g>
		<path class="st1" d="M63.6,34.2v7.8c0,0,0.6,6.1-1,7.9c-1.5,1.6-7.7,3-7.7,3L5.6,58.5l4.8-24.4H63.6z"/>
	</g>
	<g>
		<rect x="46.6" y="26.2" class="st0" width="4" height="34"/>
	</g>
	<g>
		<g>
			<g>
				<circle class="st0" cx="50.4" cy="109.1" r="18.4"/>
			</g>
			<g>
				<path class="st1" d="M50.4,128.6c-10.7,0-19.5-8.7-19.5-19.5c0-10.7,8.7-19.5,19.5-19.5c10.7,0,19.5,8.7,19.5,19.5
					C69.9,119.9,61.2,128.6,50.4,128.6z M50.4,91.8c-9.5,0-17.3,7.8-17.3,17.3c0,9.5,7.8,17.3,17.3,17.3c9.5,0,17.3-7.8,17.3-17.3
					C67.7,99.6,60,91.8,50.4,91.8z"/>
			</g>
		</g>
		<g>
			<g>
				<g>
					<circle class="st1" cx="50.4" cy="109.1" r="11.9"/>
				</g>
			</g>
			<g>
				<g>
					<circle class="st0" cx="50.4" cy="109.1" r="3.5"/>
				</g>
				<g>
					<path class="st0" d="M50.4,113.7c-2.5,0-4.6-2.1-4.6-4.6c0-2.5,2.1-4.6,4.6-4.6c2.5,0,4.6,2.1,4.6,4.6
						C55,111.7,52.9,113.7,50.4,113.7z"/>
				</g>
			</g>
		</g>
	</g>
	<g>
		<g>
			<g>
				<circle class="st0" cx="137.4" cy="110.1" r="18.4"/>
			</g>
			<g>
				<path class="st1" d="M137.4,129.6c-10.7,0-19.5-8.7-19.5-19.5c0-10.7,8.7-19.5,19.5-19.5c10.7,0,19.5,8.7,19.5,19.5
					C156.9,120.9,148.2,129.6,137.4,129.6z M137.4,92.8c-9.5,0-17.3,7.8-17.3,17.3c0,9.5,7.8,17.3,17.3,17.3
					c9.5,0,17.3-7.8,17.3-17.3C154.7,100.6,147,92.8,137.4,92.8z"/>
			</g>
		</g>
		<g>
			<g>
				<g>
					<circle class="st1" cx="137.4" cy="110.1" r="11.9"/>
				</g>
			</g>
			<g>
				<g>
					<circle class="st0" cx="137.4" cy="110.1" r="3.5"/>
				</g>
				<g>
					<path class="st0" d="M137.4,114.7c-2.5,0-4.6-2.1-4.6-4.6c0-2.5,2.1-4.6,4.6-4.6c2.5,0,4.6,2.1,4.6,4.6
						C142,112.7,139.9,114.7,137.4,114.7z"/>
				</g>
			</g>
		</g>
	</g>
	<g>
		<path class="st1" d="M11.1,102.2c1.2,0,2.2,0.8,2.2,2l0,0c0,1.2-1,2-2.2,2H6.8c-1.2,0-2.2-0.8-2.2-2l0,0c0-1.2,1-2,2.2-2H11.1z"/>
	</g>
	<g>
		<rect x="26.4" y="105.6" class="st0" width="4.5" height="10.1"/>
	</g>
	<g>
		<rect x="69.9" y="105.6" class="st0" width="4.5" height="10.1"/>
	</g>
	<g>
		<rect x="113.4" y="105.6" class="st0" width="4.5" height="10.1"/>
	</g>
	<g>
		<rect x="156.9" y="105.6" class="st0" width="5.1" height="10"/>
	</g>
	<g>
		<rect x="245.9" y="104.7" class="st0" width="4.5" height="11"/>
	</g>
	<g>
		<rect x="200.9" y="104.7" class="st0" width="6.1" height="11"/>
	</g>
</g>
</svg>
