<svg xmlns="http://www.w3.org/2000/svg" viewBox="0 0 232.02 55.04"><defs><style>.cls-1{fill:#fff}.cls-2{fill:#253678}.cls-3{fill:#7d8bb2}.cls-4{fill:#f6ad15}</style></defs><title>9328</title><g id="Слой_2" data-name="Слой 2"><g id="Слой_1-2" data-name="Слой 1"><path class="cls-1" d="M200 34.76a1 1 0 0 1 1.11 1 1 1 0 0 1-1.11 1h-2.15a1 1 0 0 1-1.11-1 1 1 0 0 1 1.11-1z"/><path class="cls-2" d="M35.58 40.3h95.04v5.54H35.58z"/><path class="cls-1" d="M229.64 34.76c.62 0 1.11.88 1.11 1.5 0 .61-.5 1.5-1.11 1.5h-2.15c-.62 0-1.11-.89-1.11-1.5 0-.62.5-1.5 1.11-1.5z"/><path class="cls-2" d="M184.65 37.13a8.7 8.7 0 1 0 8.7 8.7 8.71 8.71 0 0 0-8.7-8.7zm0 14.71a6 6 0 1 1 6-6 6 6 0 0 1-6 6z"/><circle class="cls-2" cx="184.65" cy="45.83" r="1.75"/><path class="cls-2" d="M184.65 48.13a2.3 2.3 0 1 1 2.3-2.3 2.3 2.3 0 0 1-2.3 2.3zm32.17-11.5a8.7 8.7 0 1 0 8.7 8.7 8.71 8.71 0 0 0-8.7-8.7zm0 14.71a6 6 0 1 1 6-6 6 6 0 0 1-6 6z"/><circle class="cls-2" cx="216.82" cy="45.33" r="1.75"/><path class="cls-2" d="M216.82 47.63a2.3 2.3 0 1 1 2.3-2.3 2.3 2.3 0 0 1-2.3 2.3z"/><path class="cls-3" d="M196.8 20.94v-2.78h-2.54v3.28a9.79 9.79 0 0 1-19.58 0v-3.28h-2.54v2.77h-2.87V32.5h30.57V20.94z"/><path class="cls-3" d="M184.47 12.75a8.7 8.7 0 1 0 8.7 8.7 8.71 8.71 0 0 0-8.7-8.7zm0 14.71a6 6 0 1 1 6-6 6 6 0 0 1-6 6z"/><circle class="cls-2" cx="184.47" cy="21.45" r="1.75"/><path class="cls-3" d="M184.47 19.15a2.3 2.3 0 1 1-2.3 2.3 2.3 2.3 0 0 1 2.3-2.3z"/><path class="cls-2" d="M162.53 37.64a8.7 8.7 0 1 0 8.7 8.7 8.71 8.71 0 0 0-8.7-8.7zm0 14.71a6 6 0 1 1 6-6 6 6 0 0 1-6 5.99z"/><circle class="cls-2" cx="162.53" cy="46.34" r="1.75"/><path class="cls-2" d="M162.53 48.64a2.3 2.3 0 1 1 2.3-2.3 2.3 2.3 0 0 1-2.3 2.3zm-22.12-11.51a8.7 8.7 0 1 0 8.7 8.7 8.71 8.71 0 0 0-8.7-8.7zm0 14.71a6 6 0 1 1 6-6 6 6 0 0 1-6 6z"/><circle class="cls-2" cx="140.41" cy="45.83" r="1.75"/><path class="cls-2" d="M140.41 48.13a2.3 2.3 0 1 1 2.3-2.3 2.3 2.3 0 0 1-2.3 2.3z"/><path class="cls-2" d="M198.91 34.28h-70.45v9.46h-.11v5.54h2.27v-3.43a9.79 9.79 0 0 1 19.58 0v3.27h2.54v-3.27a9.78 9.78 0 0 1 19.53 0v3.27h2.54v-3.27a9.79 9.79 0 0 1 19.58 0v2.44H197v-2.44h1.93z"/><path class="cls-3" d="M206.88 26.52a8.65 8.65 0 0 0-5.32-1.83h-.3v2.71h.3a6 6 0 0 1 3.34 1zm1.77 1.83l-2 1.88a6 6 0 0 1 .91 3.16h2.69a8.64 8.64 0 0 0-1.6-5.04z"/><path class="cls-2" d="M203.36 34.28h-5.54v2.54h3.63v9h3v2.77H207v-3.25a9.79 9.79 0 1 1 19.58 0v3.28h2.54v-2.77H232V34.28zM35.58 35.77h5.54v2.27h-5.54zm0 3.3h5.54v2.27h-5.54zm0-6.61h5.54v2.28h-5.54zM0 23.65v5.54h4.45v2.78h2.28v-2.78h28.85v2.16h5.54v-7.7H0z"/><path class="cls-4" d="M40.24 6.02h1v17.99h-1zm190.67.15h1v28.11h-1zm-102.36 0h1v28.11h-1z"/><path class="cls-4" transform="rotate(-89.9 136.267 8.759)" d="M135.76-86.39h1V103.9h-1z"/><path class="cls-4" d="M47.24 9.8l-6.5-1.17 6.52-1.75-.02 2.92zm177.66.25l6.51-1.17-6.53-1.75.02 2.92zm-102.77.17l6.51-1.17-6.53-1.75.02 2.92zm14.09-.17l-6.51-1.17 6.53-1.75-.02 2.92zm38.43-8.82h-2.22l-.13 1.37a1 1 0 0 1 .44-.34 1.83 1.83 0 0 1 .66-.11 1.41 1.41 0 0 1 .72.17 1.26 1.26 0 0 1 .45.44 1.88 1.88 0 0 1 .23.62 3.6 3.6 0 0 1 .07.7 4.47 4.47 0 0 1-.08.91 1.77 1.77 0 0 1-.3.7 1.32 1.32 0 0 1-.59.44 2.6 2.6 0 0 1-1 .15 2.34 2.34 0 0 1-.92-.15 1.3 1.3 0 0 1-.54-.4 1.4 1.4 0 0 1-.25-.54 2.59 2.59 0 0 1-.06-.55v-.18h1.17v.32a1.06 1.06 0 0 0 .08.32.64.64 0 0 0 .18.25.48.48 0 0 0 .31.1.58.58 0 0 0 .55-.29 1.84 1.84 0 0 0 .17-.88 4.63 4.63 0 0 0 0-.62 1.11 1.11 0 0 0-.11-.39.45.45 0 0 0-.22-.2A.85.85 0 0 0 173 3a.53.53 0 0 0-.4.15.71.71 0 0 0-.17.4h-1.1l.22-3.27h3.14zm2.05 3.62V6a3.69 3.69 0 0 1 0 .6 1.36 1.36 0 0 1-.17.49 1 1 0 0 1-.34.34 1.32 1.32 0 0 1-.56.17V7a.46.46 0 0 0 .33-.24.87.87 0 0 0 .11-.43v-.16h-.44V4.85zm4.07-3.62h-2.22l-.13 1.37a1 1 0 0 1 .44-.34 1.83 1.83 0 0 1 .66-.11 1.41 1.41 0 0 1 .72.17 1.26 1.26 0 0 1 .45.44 1.88 1.88 0 0 1 .23.62 3.6 3.6 0 0 1 .07.7 4.47 4.47 0 0 1-.08.91 1.77 1.77 0 0 1-.3.7 1.32 1.32 0 0 1-.59.44 2.6 2.6 0 0 1-1 .15 2.34 2.34 0 0 1-.92-.15 1.3 1.3 0 0 1-.54-.4 1.4 1.4 0 0 1-.25-.54 2.59 2.59 0 0 1-.06-.55v-.18h1.17v.32a1.06 1.06 0 0 0 .08.32.64.64 0 0 0 .18.25.48.48 0 0 0 .31.1.58.58 0 0 0 .55-.29 1.84 1.84 0 0 0 .17-.88 4.63 4.63 0 0 0 0-.62 1.11 1.11 0 0 0-.11-.39.45.45 0 0 0-.22-.2.85.85 0 0 0-.34-.06.53.53 0 0 0-.4.15.71.71 0 0 0-.17.4h-1.1l.22-3.27h3.14zm4.58.37l.71 3.06.71-3.06h1.67v4.57h-1.1V2.93l-.81 3.25h-1l-.81-3.25v3.24h-1.1V1.6zm5.08 3.25v1.32h-1.12V4.85zM77.68 1.53a1 1 0 0 0-.12-.53.47.47 0 0 0-.43-.2.61.61 0 0 0-.39.11.73.73 0 0 0-.23.32 1.76 1.76 0 0 0-.11.48v.91a1.07 1.07 0 0 1 .44-.38 1.56 1.56 0 0 1 .69-.14 1.51 1.51 0 0 1 .68.14 1.2 1.2 0 0 1 .45.39 1.71 1.71 0 0 1 .25.59A3.3 3.3 0 0 1 79 4a2.37 2.37 0 0 1-.46 1.58 1.85 1.85 0 0 1-1.48.54 2 2 0 0 1-1-.22 1.49 1.49 0 0 1-.57-.61 2.6 2.6 0 0 1-.26-.9 9.09 9.09 0 0 1-.06-1.06V2.09A3.33 3.33 0 0 1 75.43 1 1.64 1.64 0 0 1 76 .28 2 2 0 0 1 77.18 0a2.55 2.55 0 0 1 .63.08 1.43 1.43 0 0 1 .53.25 1.3 1.3 0 0 1 .37.47 1.76 1.76 0 0 1 .15.73zm-1.24 2.62a4.13 4.13 0 0 0 0 .48 1.26 1.26 0 0 0 .1.38.59.59 0 0 0 .2.25.6.6 0 0 0 .34.09.62.62 0 0 0 .35-.09.56.56 0 0 0 .2-.25 1.31 1.31 0 0 0 .09-.38v-.47a1.85 1.85 0 0 0-.15-.88.54.54 0 0 0-.46-.28.55.55 0 0 0-.52.26 1.84 1.84 0 0 0-.15.89zm4.26.54V5.8a3.69 3.69 0 0 1 0 .6 1.36 1.36 0 0 1-.17.49 1 1 0 0 1-.34.34 1.32 1.32 0 0 1-.56.17v-.6a.46.46 0 0 0 .33-.24.87.87 0 0 0 .04-.43V6h-.44V4.69zM85.05.12v.94a7.91 7.91 0 0 0-.67 1.13 11.21 11.21 0 0 0-.51 1.24 11.35 11.35 0 0 0-.37 1.3q-.14.66-.22 1.3H82q.07-.54.2-1.14a10.17 10.17 0 0 1 .36-1.22 10.79 10.79 0 0 1 .55-1.25 9.25 9.25 0 0 1 .77-1.23h-2.53V.12zm4.3 1.32l.71 3.06.71-3.06h1.67V6h-1.1V2.77L90.55 6h-1l-.81-3.25V6h-1.1V1.44zm5.08 3.25V6h-1.12V4.69z"/></g></g></svg>