<svg xmlns="http://www.w3.org/2000/svg" viewBox="0 0 223.31 44.72"><defs><style>.cls-1{fill:#253678}.cls-2{fill:#fff}.cls-3{fill:#f6ad15}</style></defs><title>9437</title><g id="Слой_2" data-name="Слой 2"><g id="Слой_1-2" data-name="Слой 1"><path class="cls-1" d="M65.46 30.44h2.27v5.54h-2.27zm-3.31 0h2.27v5.54h-2.27zm-3.39 0h2.28v5.54h-2.28zm-11.65 0h10.28v5.54H47.11zM0 12h41.12v5.54H0z"/><path class="cls-1" d="M41.65 12h-5.54l11 12.03v10.1h5.54v-10.1L41.65 12zm168.83 10.59h12.83v5.54h-12.83zM5.45 14.77h2.28v5.54H5.45zm116.41 20.75a8.7 8.7 0 1 0-17.4 0v.4h17.36c.03-.14.04-.27.04-.4zm57.66-8.71a8.7 8.7 0 1 0 8.7 8.7 8.71 8.71 0 0 0-8.7-8.7zm0 14.71a6 6 0 1 1 6-6 6 6 0 0 1-6 6z"/><circle class="cls-1" cx="179.52" cy="35.52" r="1.75"/><path class="cls-1" d="M179.52 37.81a2.3 2.3 0 1 1 2.3-2.3 2.3 2.3 0 0 1-2.3 2.3zM157.4 27.32a8.7 8.7 0 1 0 8.7 8.7 8.71 8.71 0 0 0-8.7-8.7zm0 14.71a6 6 0 1 1 6-6 6 6 0 0 1-6 5.97z"/><circle class="cls-1" cx="157.4" cy="36.02" r="1.75"/><path class="cls-1" d="M157.4 38.32a2.3 2.3 0 1 1 2.3-2.3 2.3 2.3 0 0 1-2.3 2.3zm-22.12-11.51a8.7 8.7 0 1 0 8.7 8.7 8.71 8.71 0 0 0-8.7-8.7zm0 14.71a6 6 0 1 1 6-6 6 6 0 0 1-6 6z"/><circle class="cls-1" cx="135.28" cy="35.52" r="1.75"/><path class="cls-1" d="M135.28 37.81a2.3 2.3 0 1 1 2.3-2.3 2.3 2.3 0 0 1-2.3 2.3zm-12.33-4.38h2.54v5.55h-2.54zm66.36 0h2.57v5.55h-2.57zm12.33-6.62a8.7 8.7 0 1 0 8.7 8.7 8.71 8.71 0 0 0-8.7-8.7zm0 14.71a6 6 0 1 1 6-6 6 6 0 0 1-6 6z"/><circle class="cls-1" cx="201.64" cy="35.52" r="1.75"/><path class="cls-1" d="M201.64 37.81a2.3 2.3 0 1 1 2.3-2.3 2.3 2.3 0 0 1-2.3 2.3zm9.79-4.38h2.28v5.55h-2.28zm-66.36-.17h2.54v5.54h-2.54zm-31.91-6.45a8.7 8.7 0 1 0 8.7 8.7 8.71 8.71 0 0 0-8.7-8.7z"/><circle class="cls-2" cx="113.16" cy="35.52" r="6.01"/><circle class="cls-1" cx="113.16" cy="35.52" r="1.75"/><path class="cls-1" d="M113.16 37.81a2.3 2.3 0 1 1 2.3-2.3 2.3 2.3 0 0 1-2.3 2.3zm-12.33-4.38h2.54v5.55h-2.54zM91 26.81a8.7 8.7 0 1 0 8.7 8.7 8.71 8.71 0 0 0-8.7-8.7zm0 14.71a6 6 0 1 1 6-6 6 6 0 0 1-6 6z"/><circle class="cls-1" cx="91.04" cy="35.52" r="1.75"/><path class="cls-1" d="M91 37.81a2.3 2.3 0 1 1 2.3-2.3 2.3 2.3 0 0 1-2.3 2.3zm132.25-1.9v.02"/><path class="cls-1" d="M69.54 30.34v5.45h8.95v3.17H81V35.51a9.8 9.8 0 0 1 19.61 0v.4h2.58v-.4a9.8 9.8 0 0 1 19.61 0v.4h2.58v-.4a9.8 9.8 0 0 1 19.61 0v.4h2.57a9.8 9.8 0 0 1 19.6 0h2.57v-.4a9.8 9.8 0 0 1 19.61 0v.4h2.58v-.4a9.8 9.8 0 0 1 19.61 0v.4h11.86V24.38H78.47v6.07zm153.71-5.98v.02"/><path class="cls-1" d="M167.19 33.26h2.54v5.54h-2.54z"/><path class="cls-3" d="M40.73 5.93h1V12h-1zm181.52-.19h1v16.85h-1z"/><path class="cls-3" d="M222.9 9.38L41.03 9.05v-1l181.87.33v1z"/><path class="cls-3" d="M47.73 9.76l-6.5-1.17 6.52-1.75-.02 2.92zm167.66.25l6.51-1.17-6.53-1.75.02 2.92zm-95.78-4.87a.47.47 0 0 0 .43.19.61.61 0 0 0 .39-.12.74.74 0 0 0 .23-.32 1.73 1.73 0 0 0 .11-.48v-.89a1.1 1.1 0 0 1-.44.37 1.55 1.55 0 0 1-.69.14 1.5 1.5 0 0 1-.68-.14 1.2 1.2 0 0 1-.45-.39 1.71 1.71 0 0 1-.25-.59 3.29 3.29 0 0 1-.08-.75 2.43 2.43 0 0 1 .46-1.6 1.83 1.83 0 0 1 1.48-.56 1.88 1.88 0 0 1 1 .23 1.57 1.57 0 0 1 .57.62 2.59 2.59 0 0 1 .26.9 9.19 9.19 0 0 1 .05 1.06v1.24a3.29 3.29 0 0 1-.23 1.06 1.57 1.57 0 0 1-.6.73 2.11 2.11 0 0 1-1.15.27 3 3 0 0 1-.62-.06 1.31 1.31 0 0 1-.53-.24 1.25 1.25 0 0 1-.37-.47 1.76 1.76 0 0 1-.15-.73h1.17a1 1 0 0 0 .09.53zm-.06-2.28a.54.54 0 0 0 .51.26.55.55 0 0 0 .52-.26 1.85 1.85 0 0 0 .15-.87 4.27 4.27 0 0 0 0-.48 1.26 1.26 0 0 0-.1-.38.6.6 0 0 0-.2-.25.61.61 0 0 0-.34-.09.63.63 0 0 0-.35.09.56.56 0 0 0-.2.25 1.29 1.29 0 0 0-.09.38v.47a1.84 1.84 0 0 0 .1.88zm4.16 2.93a3.69 3.69 0 0 1 0 .6 1.36 1.36 0 0 1-.17.49 1 1 0 0 1-.34.34 1.33 1.33 0 0 1-.56.17V6.8a.46.46 0 0 0 .33-.24.86.86 0 0 0 .11-.43V6h-.44V4.69h1.12zm1.94-.73a.53.53 0 0 0 .53.28.7.7 0 0 0 .35-.08.53.53 0 0 0 .2-.21.85.85 0 0 0 .09-.31 3.16 3.16 0 0 0 0-.37 2.38 2.38 0 0 0 0-.39.94.94 0 0 0-.11-.33.61.61 0 0 0-.24-.23.84.84 0 0 0-.41-.08h-.41v-.8h.4a.61.61 0 0 0 .33-.08.62.62 0 0 0 .21-.21 1 1 0 0 0 .12-.3 1.63 1.63 0 0 0 0-.36 1 1 0 0 0-.14-.61.53.53 0 0 0-.44-.18.62.62 0 0 0-.32.07.48.48 0 0 0-.19.2.9.9 0 0 0-.09.31 3.31 3.31 0 0 0 0 .39h-1.12a1.79 1.79 0 0 1 .45-1.34 1.82 1.82 0 0 1 1.33-.43 2 2 0 0 1 1.28.37 1.43 1.43 0 0 1 .45 1.17 1.51 1.51 0 0 1-.24.89 1.07 1.07 0 0 1-.68.44 1.13 1.13 0 0 1 .83.47 1.72 1.72 0 0 1 .24.95 2.74 2.74 0 0 1-.08.63 1.41 1.41 0 0 1-.3.59 1.56 1.56 0 0 1-.61.42 2.67 2.67 0 0 1-1 .16 1.68 1.68 0 0 1-1.31-.48 1.93 1.93 0 0 1-.43-1.35h1.17a2 2 0 0 0 .14.8zm5.35-1h-2.4v-1h2.4zm1.94-2.29h-1.2V1h.11a1.75 1.75 0 0 0 1-.23 1.06 1.06 0 0 0 .45-.74h.9V6h-1.22zM138 1a.48.48 0 0 0-.43-.19.61.61 0 0 0-.39.11.73.73 0 0 0-.23.32 1.76 1.76 0 0 0-.11.48v.91a1.06 1.06 0 0 1 .44-.38 1.55 1.55 0 0 1 .69-.14 1.5 1.5 0 0 1 .68.14 1.19 1.19 0 0 1 .45.39 1.72 1.72 0 0 1 .25.59 3.3 3.3 0 0 1 .08.75 2.37 2.37 0 0 1-.43 1.59 1.85 1.85 0 0 1-1.48.54 2 2 0 0 1-1-.22 1.49 1.49 0 0 1-.57-.61 2.6 2.6 0 0 1-.26-.9 9.21 9.21 0 0 1-.06-1.06V2.08a3.32 3.32 0 0 1 .23-1.08 1.65 1.65 0 0 1 .6-.74 2 2 0 0 1 1.15-.26 2.55 2.55 0 0 1 .63.08 1.42 1.42 0 0 1 .53.25 1.28 1.28 0 0 1 .37.47 1.76 1.76 0 0 1 .15.73h-1.17A1 1 0 0 0 138 1zm-1.1 3.62a1.23 1.23 0 0 0 .1.38.57.57 0 0 0 .2.25.6.6 0 0 0 .34.09.61.61 0 0 0 .35-.09.55.55 0 0 0 .2-.25 1.3 1.3 0 0 0 .09-.38v-.47a1.84 1.84 0 0 0-.15-.87.54.54 0 0 0-.51-.26.55.55 0 0 0-.52.26 1.84 1.84 0 0 0-.15.87 4.15 4.15 0 0 0 .05.47zm4.23 1.17a3.68 3.68 0 0 1 0 .6 1.35 1.35 0 0 1-.17.49 1 1 0 0 1-.34.34 1.33 1.33 0 0 1-.56.17V6.8a.46.46 0 0 0 .33-.24.86.86 0 0 0 .11-.43V6h-.5V4.69h1.12zm1.94-.73a.53.53 0 0 0 .53.28.7.7 0 0 0 .35-.08.53.53 0 0 0 .2-.21.85.85 0 0 0 .09-.31 3.16 3.16 0 0 0 0-.37 2.37 2.37 0 0 0 0-.39.94.94 0 0 0-.11-.33.61.61 0 0 0-.24-.23.84.84 0 0 0-.41-.08h-.41v-.8h.4a.61.61 0 0 0 .33-.08.62.62 0 0 0 .21-.21 1 1 0 0 0 .12-.3 1.63 1.63 0 0 0 0-.36A1 1 0 0 0 144 1a.53.53 0 0 0-.44-.18.62.62 0 0 0-.32.07.48.48 0 0 0-.19.2.91.91 0 0 0-.09.31 3.33 3.33 0 0 0 0 .39h-1.12a1.79 1.79 0 0 1 .46-1.35 1.82 1.82 0 0 1 1.31-.44 2 2 0 0 1 1.28.37 1.43 1.43 0 0 1 .45 1.17 1.5 1.5 0 0 1-.24.89 1.07 1.07 0 0 1-.68.44 1.13 1.13 0 0 1 .83.47 1.72 1.72 0 0 1 .24.95 2.74 2.74 0 0 1-.08.63 1.41 1.41 0 0 1-.3.59 1.56 1.56 0 0 1-.61.42 2.67 2.67 0 0 1-1 .16 1.68 1.68 0 0 1-1.31-.48 1.93 1.93 0 0 1-.43-1.35h1.17a2 2 0 0 0 .14.8zm5.03-3.62h1.67l.71 3.06.71-3.06h1.67V6h-1.1V2.77L151 6h-1l-.81-3.25V6h-1.1zM154.85 6h-1.12V4.69h1.12z"/></g></g></svg>