<svg xmlns="http://www.w3.org/2000/svg" viewBox="0 0 309.98 52.02"><defs><style>.cls-1{fill:#253678}.cls-2{fill:#fff}.cls-3{fill:#f6ad15}</style></defs><title>9657</title><g id="Слой_2" data-name="Слой 2"><g id="Слой_1-2" data-name="Слой 1"><path class="cls-1" d="M199.98 29.95h110v12h-110zM0 13.67h41.12v5.54H0zm95.4 22.52h95.33v5.54H95.4z"/><path class="cls-1" d="M4.45 16.45h2.27v5.54H4.45zm31.13 9.35h5.54v2.27h-5.54zm0 3.39h5.54v2.28h-5.54zm0-6.71h5.54v2.27h-5.54zm0-3.39h5.54v2.28h-5.54zm54.56 17.1h2.27v5.54h-2.27zm3.4 0h2.28v5.54h-2.28zm-6.71 0h2.27v5.54h-2.27zm111.62.21h2.27v5.54h-2.27zm-3.31 0h2.27v5.54h-2.27zm-3.33 0h2.27v5.54h-2.27zm-108.37-.21h2.27v5.54h-2.27z"/><circle class="cls-1" cx="264.58" cy="41.72" r="9.25"/><path class="cls-2" d="M264.58 51.51a9.79 9.79 0 1 1 9.79-9.79 9.8 9.8 0 0 1-9.79 9.79zm0-18.49a8.7 8.7 0 1 0 8.7 8.7 8.71 8.71 0 0 0-8.7-8.72z"/><circle class="cls-2" cx="264.58" cy="41.72" r="6.01"/><circle class="cls-1" cx="264.58" cy="41.72" r="1.75"/><path class="cls-1" d="M264.58 44a2.3 2.3 0 1 1 2.3-2.3 2.3 2.3 0 0 1-2.3 2.3z"/><circle class="cls-1" cx="286.58" cy="40.72" r="9.25"/><path class="cls-2" d="M286.58 50.51a9.79 9.79 0 1 1 9.79-9.79 9.8 9.8 0 0 1-9.79 9.79zm0-18.49a8.7 8.7 0 1 0 8.7 8.7 8.71 8.71 0 0 0-8.7-8.72z"/><circle class="cls-2" cx="286.58" cy="40.72" r="6.01"/><path class="cls-1" d="M286.58 43a2.3 2.3 0 1 1 2.3-2.3 2.3 2.3 0 0 1-2.3 2.3z"/><circle class="cls-1" cx="242.46" cy="42.23" r="9.25"/><path class="cls-2" d="M242.46 52a9.79 9.79 0 1 1 9.79-9.79 9.8 9.8 0 0 1-9.79 9.79zm0-18.49a8.7 8.7 0 1 0 8.7 8.7 8.71 8.71 0 0 0-8.7-8.68z"/><circle class="cls-2" cx="242.46" cy="42.23" r="6.01"/><circle class="cls-1" cx="242.46" cy="42.23" r="1.75"/><path class="cls-1" d="M242.46 44.52a2.3 2.3 0 1 1 2.3-2.3 2.3 2.3 0 0 1-2.3 2.3z"/><circle class="cls-1" cx="220.34" cy="41.72" r="9.25"/><path class="cls-2" d="M220.34 51.51a9.79 9.79 0 1 1 9.79-9.79 9.8 9.8 0 0 1-9.79 9.79zm0-18.49a8.7 8.7 0 1 0 8.7 8.7 8.71 8.71 0 0 0-8.7-8.72z"/><circle class="cls-2" cx="220.34" cy="41.72" r="6.01"/><circle class="cls-1" cx="220.34" cy="41.72" r="1.75"/><path class="cls-1" d="M220.34 44a2.3 2.3 0 1 1 2.3-2.3 2.3 2.3 0 0 1-2.3 2.3zm-12.06-4.37h2.27v5.54h-2.27zm66.09 0h2.27v5.54h-2.27zm22-.68h2.27v5.54h-2.27zm-66.24.52h2.54v5.54h-2.54zm22.12 0h2.54v5.54h-2.54zM34.98 29.95h50v12h-50z"/><circle class="cls-1" cx="69.53" cy="42.23" r="9.25"/><path class="cls-2" d="M69.53 52a9.79 9.79 0 1 1 9.79-9.79A9.8 9.8 0 0 1 69.53 52zm0-18.49a8.7 8.7 0 1 0 8.7 8.7 8.71 8.71 0 0 0-8.7-8.68z"/><circle class="cls-2" cx="69.53" cy="42.23" r="6.01"/><circle class="cls-1" cx="69.53" cy="42.23" r="1.75"/><path class="cls-1" d="M69.53 44.52a2.3 2.3 0 1 1 2.3-2.3 2.3 2.3 0 0 1-2.3 2.3z"/><circle class="cls-1" cx="47.41" cy="41.72" r="9.25"/><path class="cls-2" d="M47.41 51.51a9.79 9.79 0 1 1 9.79-9.79 9.8 9.8 0 0 1-9.79 9.79zm0-18.49a8.7 8.7 0 1 0 8.7 8.7 8.71 8.71 0 0 0-8.7-8.72z"/><circle class="cls-2" cx="47.41" cy="41.72" r="6.01"/><circle class="cls-1" cx="47.41" cy="41.72" r="1.75"/><path class="cls-1" d="M47.41 44a2.3 2.3 0 1 1 2.3-2.3 2.3 2.3 0 0 1-2.3 2.3zm-12.07-4.37h2.27v5.54h-2.27zm21.86-.16h2.54v5.54H57.2zm22.12 0h2.54v5.54h-2.54z"/><path class="cls-3" d="M137.05 1.66h-1.13V.91h.1a1.65 1.65 0 0 0 .91-.22 1 1 0 0 0 .42-.7h.85v5.67h-1.15zm2.74 1.48a1.05 1.05 0 0 1 .72-.48 1 1 0 0 1-.39-.18 1 1 0 0 1-.39-.59 1.37 1.37 0 0 1 0-.32 1.46 1.46 0 0 1 .44-1.2 2.23 2.23 0 0 1 2.44 0 1.46 1.46 0 0 1 .44 1.2 1.26 1.26 0 0 1 0 .32 1.14 1.14 0 0 1-.14.32 1.07 1.07 0 0 1-.25.27 1 1 0 0 1-.38.18 1.05 1.05 0 0 1 .72.48 1.7 1.7 0 0 1 .24.92 2.74 2.74 0 0 1-.06.54 1.36 1.36 0 0 1-.25.55 1.42 1.42 0 0 1-.55.42 2.76 2.76 0 0 1-1.9 0 1.42 1.42 0 0 1-.55-.42 1.36 1.36 0 0 1-.25-.55 2.74 2.74 0 0 1-.06-.54 1.7 1.7 0 0 1 .17-.92zm.94 1.28a.89.89 0 0 0 .1.31.57.57 0 0 0 .2.21.72.72 0 0 0 .64 0 .57.57 0 0 0 .2-.21.89.89 0 0 0 .1-.31 2.58 2.58 0 0 0 0-.76.89.89 0 0 0-.1-.31.57.57 0 0 0-.2-.21.71.71 0 0 0-.64 0 .56.56 0 0 0-.2.21.89.89 0 0 0-.1.31 2.63 2.63 0 0 0 0 .76zm.22-2.3a.53.53 0 0 0 .82 0 1 1 0 0 0 .15-.6q0-.77-.56-.78t-.56.78a1 1 0 0 0 .2.61zm3.82 3.34a3.47 3.47 0 0 1 0 .56 1.27 1.27 0 0 1-.16.46 1 1 0 0 1-.32.32 1.25 1.25 0 0 1-.52.16V6.4a.44.44 0 0 0 .31-.22.81.81 0 0 0 .1-.41v-.1h-.42V4.42h1.06zm1.88-3.8h-1.13V.91h.1a1.65 1.65 0 0 0 .91-.22A1 1 0 0 0 147 0h.85v5.66h-1.15zM152.7 1a7.45 7.45 0 0 0-.63 1.06 10.56 10.56 0 0 0-.48 1.17 10.82 10.82 0 0 0-.34 1.22q-.14.62-.21 1.22h-1.21q.06-.51.19-1.08a9.63 9.63 0 0 1 .34-1.15 10.19 10.19 0 0 1 .52-1.18 8.68 8.68 0 0 1 .72-1.16h-2.38v-1h3.49zm2.79 2.82h-2.26v-.94h2.26zm.51 1.84a3.11 3.11 0 0 1 .08-.7 2.57 2.57 0 0 1 .23-.62 3.36 3.36 0 0 1 .39-.58 6 6 0 0 1 .55-.57l.46-.43a2.49 2.49 0 0 0 .31-.31 1.32 1.32 0 0 0 .18-.29 1.09 1.09 0 0 0 .08-.31 3.3 3.3 0 0 0 0-.38q0-.7-.56-.7a.58.58 0 0 0-.34.09.57.57 0 0 0-.19.24 1.13 1.13 0 0 0-.09.35 4.2 4.2 0 0 0 0 .42H156v-.23a1.65 1.65 0 0 1 .42-1.22 1.83 1.83 0 0 1 1.32-.42 1.78 1.78 0 0 1 1.26.4 1.51 1.51 0 0 1 .42 1.14 2.54 2.54 0 0 1 0 .51 1.92 1.92 0 0 1-.15.45 2.05 2.05 0 0 1-.27.42 3.85 3.85 0 0 1-.41.42l-.64.59a2.38 2.38 0 0 0-.4.45 1.3 1.3 0 0 0-.18.38h2.14v.9zm5.07-.9a.5.5 0 0 0 .5.26.66.66 0 0 0 .33-.07.5.5 0 0 0 .19-.2.78.78 0 0 0 .09-.29 2.91 2.91 0 0 0 0-.35 2.28 2.28 0 0 0 0-.36.89.89 0 0 0-.11-.31.58.58 0 0 0-.22-.21.79.79 0 0 0-.38-.08h-.38v-.76h.38a.58.58 0 0 0 .31-.08.6.6 0 0 0 .2-.2.93.93 0 0 0 .11-.28 1.53 1.53 0 0 0 0-.34.93.93 0 0 0-.09-.57.51.51 0 0 0-.42-.17.59.59 0 0 0-.3.07.46.46 0 0 0-.18.19.85.85 0 0 0-.08.29 3.16 3.16 0 0 0 0 .37h-1.06a1.69 1.69 0 0 1 .42-1.26 1.71 1.71 0 0 1 1.2-.41 1.85 1.85 0 0 1 1.2.35 1.35 1.35 0 0 1 .43 1.1 1.42 1.42 0 0 1-.23.84 1 1 0 0 1-.64.41 1.07 1.07 0 0 1 .78.44 1.63 1.63 0 0 1 .23.89 2.58 2.58 0 0 1-.07.59 1.32 1.32 0 0 1-.28.55 1.46 1.46 0 0 1-.57.4 2.51 2.51 0 0 1-1 .15 1.58 1.58 0 0 1-1.23-.45 1.82 1.82 0 0 1-.36-1.27h1.1a1.88 1.88 0 0 0 .13.76zm3.93.7a3.47 3.47 0 0 1 0 .54 1.27 1.27 0 0 1-.16.46 1 1 0 0 1-.32.32A1.25 1.25 0 0 1 164 7v-.6a.44.44 0 0 0 .31-.22.81.81 0 0 0 .1-.41v-.1H164V4.42h1zM167.43 0h1.19v3.59h.54v.9h-.54v1.17h-1.06V4.49h-2v-.95zm.12 1.44l-1.1 2.15h1.12V1.44zm5.39-.44a7.43 7.43 0 0 0-.63 1.06 10.56 10.56 0 0 0-.48 1.17 10.82 10.82 0 0 0-.34 1.22q-.14.62-.21 1.22h-1.21q.06-.51.19-1.08a9.65 9.65 0 0 1 .34-1.15 10.19 10.19 0 0 1 .52-1.18 8.66 8.66 0 0 1 .72-1.16h-2.38v-1h3.49zm2.47.36H177l.67 2.88.67-2.88h1.58v4.3h-1V2.61l-.76 3.06h-.91l-.76-3.06v3.05h-1zm6.35 4.3h-1.06V4.42h1.06zm-141.57 0h1v7.99h-1zm268.34.2h1v24.08h-1z"/><path class="cls-3" transform="rotate(-89.93 175.097 8.443)" d="M174.6-125.49h1v267.86h-1z"/><path class="cls-3" d="M46.87 9.49l-6.51-1.17 6.52-1.75-.01 2.92zm255.65.25l6.51-1.17-6.53-1.75.02 2.92z"/></g></g></svg>