<svg xmlns="http://www.w3.org/2000/svg" viewBox="0 0 163.53999 100.45513" height="100.455" width="163.54"><defs><clipPath id="a"><path d="M0 80.364h130.832V0H0v80.364z"/></clipPath></defs><g clip-path="url(#a)" transform="matrix(1.25 0 0 -1.25 0 100.455)"><path d="M5.616 27.383c9.637 19.59 20.93 37.298 36.772 49.787h14.178C41.334 63.906 29.342 47.75 22.093 27.383H5.616zM1.897 37.528c11.959 17.24 25.127 30.864 38.855 42.836h.38c-3.4-3.15-6.95-6.285-10.152-9.642C20.923 60.189 11.503 48.287 2.809 35.084l-.912 2.444z" fill="#3f489b" fill-rule="evenodd"/><path d="M56.433 77.172h.341C40.794 62.496 32.561 45.229 32.782 26.79h-3.286c3.346 21.611 12.835 37.933 26.937 50.382m68.024-49.789C114.82 46.973 103.54 64.68 87.685 77.17H73.517c15.235-13.264 27.228-29.42 34.463-49.787h16.477zm3.721 10.145c-11.96 17.24-25.13 30.864-38.858 42.836h-.38c3.414-3.15 6.95-6.285 10.155-9.642 10.055-10.533 19.475-22.435 28.167-35.638l.916 2.444z" fill="#3f489b" fill-rule="evenodd"/><path d="M73.65 77.172h-.352c15.99-14.676 24.215-31.943 23.99-50.382h3.288C97.23 48.401 87.74 64.723 73.65 77.172" fill="#3f489b" fill-rule="evenodd"/><path d="M4.84 25.39l120.392-.015c3.015-6.175 5.259-12.31 5.6-18.486H0c.058 4.55 1.24 11.814 4.84 18.502" fill="#bec0c2" fill-rule="evenodd"/><path d="M55.6 30.696h-7.345v3.43c.272.17.45.379.534.64.086.253.126.563.126.925v3.184h-2.303v-2.846c0-.56.02-.961.084-1.21.05-.25.24-.477.566-.692v-3.431h-7.344v3.43c.271.17.45.379.536.64.083.253.126.563.126.925v9.308c0 .405-.04.73-.106.978-.08.248-.26.466-.556.647v3.432h7.344v-3.432c-.27-.171-.449-.38-.52-.632a2.978 2.978 0 0 1-.13-.926v-2.421h2.303v2.354c0 .405-.04.73-.119.978-.065.248-.247.466-.54.647v3.432H55.6v-3.432c-.272-.171-.45-.38-.537-.632a3.598 3.598 0 0 1-.112-.926v-9.037c0-.56.018-.961.081-1.21.05-.25.238-.477.568-.692v-3.431zm10.035 13.031v.503c0 .633-.094 1.064-.28 1.295-.198.23-.472.353-.832.353-.464 0-.779-.18-.95-.542-.1-.241-.15-.626-.15-1.151v-8.427c0-.631.092-1.069.28-1.301.183-.231.46-.353.82-.353.474 0 .79.187.948.548.112.237.164.621.164 1.151v2.642h5.823v-6.462c-.777-.645-1.754-1.152-2.899-1.513a12.045 12.045 0 0 0-3.6-.542c-1.334 0-2.51.129-3.545.384-1.033.26-1.84.666-2.43 1.218-.732.696-1.2 1.576-1.415 2.648-.123.599-.18 1.625-.18 3.07v6.728c0 1.055.09 1.89.27 2.512.26.84.72 1.541 1.37 2.099.611.497 1.42.863 2.421 1.106 1.008.243 2.12.362 3.327.362 1.14 0 2.295-.184 3.447-.55a12.996 12.996 0 0 0 3.234-1.549v-5.38h-5.823v1.151zm7.071 6.328h16.69v-8.744h-4.273v3.251c0 .47-.069.82-.226 1.045-.148.227-.423.338-.829.338v-9.917c0-.559.018-.96.067-1.209.065-.249.252-.477.582-.693v-3.43h-7.345v3.43c.27.171.45.38.534.64.086.253.126.563.126.924v10.255c-.404 0-.68-.11-.84-.33-.146-.22-.226-.568-.226-1.053v-3.25h-4.26v8.743zm-46.429-32.36v-2.061c-.21 0-.362-.065-.48-.197-.108-.132-.173-.364-.173-.701v-.338h.653v-2.022h-.653v-.815c0-.298.033-.52.085-.658.096-.238.271-.354.537-.354h.031V8.492c-.607.018-1.143.059-1.606.135-.583.094-1.042.272-1.39.537a2.176 2.176 0 0 0-.826 1.22c-.092.345-.139.853-.139 1.515v2.404c0 1.25.247 2.118.761 2.596.555.529 1.592.797 3.092.797l.108-.001zM21.288 8.67h-4.56v2.13a.7.7 0 0 1 .325.396c.05.16.081.354.081.573v1.98H15.7v-1.766c0-.35.013-.6.047-.755.036-.15.163-.297.361-.428V8.67h-4.56v2.13a.703.703 0 0 1 .325.396c.05.16.081.354.081.573v5.788c0 .25-.029.454-.076.609-.045.156-.15.29-.33.403v2.136h4.56v-2.136c-.17-.106-.278-.233-.326-.392a1.914 1.914 0 0 1-.082-.577v-1.505h1.435v1.462c0 .25-.028.454-.077.609-.045.156-.15.29-.33.403v2.136h4.561v-2.136c-.17-.106-.277-.233-.324-.392a1.877 1.877 0 0 1-.085-.577v-5.616c0-.35.015-.6.051-.755.036-.15.148-.297.358-.428V8.67zm4.99 3.705v2.022h.642v.338c0 .245-.037.433-.097.572-.099.219-.293.326-.546.326v2.06c1.498-.007 2.535-.275 3.117-.795.517-.471.78-1.28.78-2.431v-2.092h-3.896zm0-3.884v2.057c.234.012.404.11.494.31.058.154.097.368.097.659v.326h3.305v-2.22c-.371-.317-.874-.586-1.507-.808a6.112 6.112 0 0 0-1.939-.327c-.16 0-.307.002-.45.004m9.025 9.022v-1.996a2.36 2.36 0 0 1-.28.015h-.265V14.13h.265c.103 0 .195.005.28.022v-1.894c-.084.016-.18.02-.28.02h-.265v-1.627h.265c.1 0 .193.004.28.02V8.672H31.03v1.98c.205.114.313.249.355.408.038.158.05.389.05.7v2.839c0 .237-.014.432-.063.57-.045.14-.164.265-.342.365v1.98h4.272zm0-8.843v2.002c.175.029.31.083.406.17.147.133.223.347.223.632 0 .305-.072.51-.215.626-.094.084-.23.135-.415.158v1.894c.143.025.262.07.348.138.136.109.2.293.2.557 0 .264-.064.445-.2.54a.782.782 0 0 1-.348.13v1.996h.577c1.053 0 1.845-.146 2.344-.45.611-.364.923-.98.923-1.853 0-.495-.133-.905-.384-1.235-.265-.325-.676-.554-1.244-.685.628-.133 1.087-.38 1.381-.74.285-.36.43-.831.43-1.414 0-.86-.33-1.497-.998-1.92-.562-.364-1.366-.546-2.399-.546h-.63zm8.577 5.589v-2.097l-.205-.083c-.327-.164-.48-.384-.48-.647a.67.67 0 0 1 .131-.407.327.327 0 0 1 .35-.14c.062 0 .14.006.203.019V8.81a3.41 3.41 0 0 0-1.491-.322c-.772 0-1.392.226-1.84.676-.452.449-.677 1.064-.677 1.85 0 .807.25 1.426.72 1.869.351.318.968.619 1.84.91l1.448.467zm0 3.432v-2.035c-.187-.022-.317-.103-.387-.237-.106-.16-.15-.366-.15-.631v-.364H40.25v2.179a5.53 5.53 0 0 0 1.809.835 8.377 8.377 0 0 0 1.82.253m23.219-5.933c0-.344.024-.587.06-.722.023-.135.147-.266.346-.385V8.67h-4.035v1.98a.44.44 0 0 1 .254.283c.039.129.07.289.07.488v4.041h-1.244v-4.041c0-.185.027-.344.069-.476a.491.491 0 0 1 .265-.294V8.67h-4.048v1.98c.19.114.312.249.354.408.039.158.054.389.054.7v2.839c0 .237-.033.432-.078.57-.047.14-.153.265-.33.365v1.98h8.669v-1.98a.745.745 0 0 1-.326-.386 1.815 1.815 0 0 1-.08-.55V11.76zm-12.9 5.252v.309c0 .392-.057.662-.178.804-.108.148-.283.219-.508.219-.283 0-.489-.113-.588-.337-.072-.151-.094-.387-.094-.718v-5.234c0-.396.054-.661.173-.81.111-.141.284-.218.51-.218.286 0 .49.11.59.336.062.153.094.394.094.718v1.644h3.631V9.709c-.489-.403-1.1-.718-1.805-.942a7.466 7.466 0 0 0-2.242-.337c-.82 0-1.561.082-2.201.24-.638.16-1.137.41-1.503.755-.47.433-.758.982-.888 1.643-.08.377-.106 1.012-.106 1.912v4.186c0 .654.052 1.174.157 1.557a2.8 2.8 0 0 0 .855 1.307c.387.304.885.538 1.514.685a8.654 8.654 0 0 0 2.053.224 7.1 7.1 0 0 0 2.153-.342 7.834 7.834 0 0 0 2.014-.964v-3.34h-3.631v.718zM43.878 8.81v2.095c.228.04.455.139.697.309v1.22c-.243-.092-.47-.182-.697-.271v2.097l.697.224v.305c0 .258-.046.463-.129.627-.089.16-.233.245-.45.245-.042 0-.08-.001-.118-.004v2.035c.097.003.21.004.31.004.529 0 1.034-.051 1.526-.161.492-.11.904-.29 1.233-.541.43-.325.702-.73.817-1.22.078-.291.117-.775.117-1.461v-2.47c0-.348.013-.596.049-.742.036-.152.146-.304.359-.45v-1.98h-3.6v.674a4.124 4.124 0 0 0-.81-.535m28.442 8.885v-2.061c-.198 0-.363-.065-.468-.197-.121-.132-.171-.364-.171-.701v-.338h.64v-2.022h-.64v-.815c0-.298.03-.52.083-.658.093-.238.272-.354.535-.354h.022V8.492c-.595.018-1.132.059-1.594.135-.582.094-1.042.272-1.394.537a2.184 2.184 0 0 0-.822 1.22c-.106.345-.14.853-.14 1.515v2.404c0 1.25.245 2.118.75 2.596.567.529 1.6.797 3.104.797l.096-.001zm14.027 3.01h10.384V15.27h-2.655v2.018c0 .29-.047.51-.139.649-.093.138-.268.208-.526.208v-6.161c0-.35.026-.6.049-.755.036-.15.158-.297.357-.428V8.67H89.26v2.13a.709.709 0 0 1 .326.396c.048.16.081.354.081.573v6.375c-.26 0-.422-.067-.529-.203-.091-.135-.136-.35-.136-.653V15.27h-2.655v5.435zM77.087 8.67v1.98c.194.114.315.249.356.408.038.158.05.389.05.7v2.839c0 .237-.027.432-.075.57-.046.14-.153.265-.33.365v1.98h4.045v-1.98a.483.483 0 0 1-.261-.304 1.786 1.786 0 0 1-.07-.52v-3.943h1.242v3.944c0 .21-.025.387-.052.52a.507.507 0 0 1-.267.304v1.98h4.033v-1.98a.725.725 0 0 1-.324-.386 1.813 1.813 0 0 1-.082-.55V11.76c0-.33.029-.542.074-.647.094-.212.316-.368.666-.46V6.509h-2.795v1.305c0 .569-.22.857-.665.857h-5.544zm-4.764 3.705v2.022h.654v.338c0 .245-.037.433-.11.572-.098.219-.28.326-.545.326v2.06c1.51-.007 2.548-.275 3.116-.795.527-.471.793-1.28.793-2.431v-2.092h-3.908zm0-3.884v2.057c.247.012.402.11.492.31.072.154.097.368.097.659v.326h3.32v-2.22c-.373-.317-.889-.586-1.52-.808a6.012 6.012 0 0 0-1.94-.327c-.148 0-.294.002-.45.004m28.797 9.022v-1.996c-.18-.032-.32-.081-.413-.156-.144-.122-.22-.313-.22-.584 0-.441.216-.696.633-.777V12.07a.59.59 0 0 1-.307-.188c-.11-.158-.178-.437-.178-.84 0-.721-.01-1.224-.024-1.515a4.576 4.576 0 0 0-.165-.856H96.91v2.007c.177.052.284.16.331.316.045.155.077.336.077.54v.087c0 .436.096.769.292.99.208.215.566.375 1.075.48-.58.12-.996.382-1.25.772-.207.33-.322.767-.322 1.32 0 .439.088.833.268 1.169.175.338.455.598.84.793.373.188.83.299 1.372.326.538.032.95.043 1.246.043h.278zm9.869-5.001l-1.902-3.842H106v1.98c.222.114.42.27.568.477.013.02.17.258.447.727l1.073 1.773-1.167 1.428c-.218.272-.44.43-.665.477v1.98h3.702v-.38c0-.476.028-.815.066-1.017.028-.201.154-.455.374-.766l.589-.84v3.004h3.32V14.51l.59.84c.203.31.333.56.373.756.038.189.054.53.054 1.027v.38h3.716v-1.98c-.225-.047-.447-.205-.666-.477l-1.167-1.428 1.073-1.773c.137-.245.28-.48.425-.718.168-.205.357-.366.579-.485V8.67h-3.07l-1.884 3.842-.022-.754c0-.33.013-.56.049-.691.02-.131.146-.271.357-.416V8.67h-4.133v1.98c.19.146.314.295.354.434.04.138.052.363.052.674v.754zm-9.87-.443V14c.09-.013.192-.024.309-.024h.323v1.557h-.323a2.77 2.77 0 0 1-.308-.015v1.996h4.356v-1.981c-.172-.1-.29-.23-.337-.386a1.775 1.775 0 0 1-.07-.55V11.76c0-.344.015-.587.05-.722.02-.135.148-.266.357-.385V8.67h-4.133v1.98c.174.079.278.2.327.348.06.15.08.334.08.552v.572h-.127c-.198 0-.37-.02-.503-.053M15.75 3.936v-.573a.577.577 0 0 1-.445-.21c-.114-.137-.18-.346-.18-.626 0-.316.07-.548.198-.701a.544.544 0 0 1 .427-.226v-.57a.981.981 0 0 0-.22.07 1.738 1.738 0 0 0-.388.32V0h-.75v3.89h.69v-.416c.09.146.214.26.376.349.092.052.191.092.292.113m-4.332-.045h2.553v-.603h-.902V1.074h-.75v2.214h-.9v.603zM15.75 1.03v.57h.031a.52.52 0 0 1 .425.207c.12.143.173.37.173.687 0 .294-.056.513-.178.657a.552.552 0 0 1-.444.212h-.007v.573c.076.01.14.02.215.02.324 0 .6-.13.827-.383.227-.261.35-.62.35-1.076 0-.47-.124-.835-.352-1.1-.229-.255-.505-.387-.829-.387a.921.921 0 0 0-.21.02m3.026 1.74V2.3c-.166-.042-.29-.078-.344-.118-.108-.07-.159-.157-.159-.264 0-.101.043-.192.125-.272a.43.43 0 0 1 .302-.112c.022 0 .056 0 .076.01V1.05a1 1 0 0 0-.299-.04c-.298 0-.525.075-.696.232a.816.816 0 0 0-.244.602c0 .158.04.297.11.424.076.123.18.223.316.284.135.065.343.126.604.175.07.016.148.027.21.043m0 1.187v-.575h-.003a.58.58 0 0 1-.313-.075c-.065-.05-.12-.147-.18-.274l-.677.12c.081.27.213.474.397.606.18.12.442.188.775.198m8.247-.066h2.507V1.074h-.75v2.214h-1.006V1.074h-.75V3.89zm-.538-.832l-.732-.134a.524.524 0 0 1-.17.333.498.498 0 0 1-.334.109c-.184 0-.343-.062-.446-.192-.106-.131-.169-.341-.169-.646 0-.33.065-.568.17-.705a.567.567 0 0 1 .452-.206c.14 0 .261.04.351.118.091.083.148.22.188.419l.73-.127a1.316 1.316 0 0 0-.429-.763c-.218-.17-.516-.255-.878-.255-.409 0-.736.13-.986.387-.24.263-.366.623-.366 1.08 0 .469.128.83.366 1.087.252.263.582.393 1.008.393.34 0 .61-.078.818-.223.197-.15.352-.376.427-.675m-5.756.832h.741V2.859h1.067V3.89h.743V1.074h-.743v1.18h-1.067v-1.18h-.74V3.89zM18.777 1.05v.494c.11.01.207.055.303.122.09.068.144.152.177.248a1.7 1.7 0 0 1 .034.362v.15a5.095 5.095 0 0 0-.453-.113l-.06-.013v.47c.241.049.401.095.513.139v.079c0 .14-.038.24-.115.303-.064.063-.195.09-.399.09v.576h.061c.33 0 .568-.042.738-.125a.744.744 0 0 0 .346-.295c.061-.12.097-.343.097-.671L20.014 2c0-.248.01-.43.04-.553a1.35 1.35 0 0 1 .12-.373h-.733c-.013.048-.044.12-.076.215-.009.045-.015.079-.02.089a1.47 1.47 0 0 0-.407-.277.633.633 0 0 0-.16-.051m12.838 2.907v-.608a.652.652 0 0 1-.49-.223c-.134-.152-.195-.363-.195-.646 0-.277.061-.494.194-.64.134-.15.3-.222.491-.222V1.01c-.262 0-.5.058-.732.176a1.227 1.227 0 0 0-.534.509c-.126.225-.182.505-.182.827 0 .247.056.489.182.72.125.229.3.407.523.526.211.127.47.189.743.189m0-2.947v.608h.003c.2 0 .357.073.49.223.132.145.204.363.204.649 0 .274-.072.484-.205.636a.631.631 0 0 1-.489.223h-.003v.608c.431 0 .773-.145 1.044-.42.284-.275.407-.627.407-1.045 0-.426-.135-.782-.409-1.06-.273-.283-.613-.422-1.039-.422h-.003zm3.38 2.926v-.573a.581.581 0 0 1-.445-.21c-.114-.137-.18-.346-.18-.626 0-.316.07-.548.196-.701a.552.552 0 0 1 .43-.226v-.57a.981.981 0 0 0-.22.07 1.714 1.714 0 0 0-.388.32V0h-.754v3.89h.692v-.416c.09.146.215.26.377.349.092.052.191.092.292.113m4.542-.045h.74V2.859h1.07V3.89h.752V1.074h-.752v1.18h-1.07v-1.18h-.74V3.89zm-2.968 0h2.555v-.603h-.902V1.074h-.75v2.214h-.903v.603zM34.996 1.03v.57h.031a.52.52 0 0 1 .425.207c.12.143.173.37.173.687 0 .294-.054.513-.18.657a.545.545 0 0 1-.442.212h-.007v.573c.078.01.14.02.215.02.324 0 .6-.13.827-.383.227-.261.346-.62.346-1.076 0-.47-.119-.835-.346-1.1-.23-.255-.506-.387-.829-.387a.928.928 0 0 0-.213.02m9.137 2.927v-.608a.637.637 0 0 1-.494-.223c-.133-.152-.205-.363-.205-.646 0-.277.072-.494.205-.64a.621.621 0 0 1 .494-.222V1.01c-.26 0-.5.058-.746.176a1.146 1.146 0 0 0-.523.509c-.126.225-.182.505-.182.827 0 .247.056.489.182.72.114.229.29.407.512.526.226.127.481.189.756.189h.001zM56.62 3.89h2.495V1.074h-.737v2.214H57.36V1.074h-.739V3.89zm-.535-.832l-.734-.134a.582.582 0 0 1-.17.333.536.536 0 0 1-.347.109.569.569 0 0 1-.448-.192c-.104-.131-.156-.341-.156-.646 0-.33.054-.568.173-.705.104-.137.25-.206.451-.206.14 0 .248.04.34.118.09.083.161.22.2.419l.73-.127c-.08-.337-.225-.59-.443-.763-.218-.17-.503-.255-.864-.255-.413 0-.75.13-.986.387-.24.263-.368.623-.368 1.08 0 .469.127.83.368 1.087.24.263.581.393.995.393.348 0 .621-.078.817-.223.21-.15.352-.376.442-.675m-5.137.832h.75V2.74c.114.01.2.049.251.113.05.058.12.194.184.406.106.277.207.455.315.53.121.08.262.122.447.122.065 0 .163-.01.3-.017l.002-.494c-.193 0-.32-.02-.374-.052-.063-.04-.119-.156-.178-.351-.088-.257-.215-.416-.38-.478.243-.067.436-.27.605-.612.006-.02.011-.04.02-.06l.413-.774h-.792l-.38.814a.946.946 0 0 1-.19.317.375.375 0 0 1-.244.07v-1.2h-.749V3.89zm-2.152-1.17h.798c-.012.222-.075.383-.169.494a.53.53 0 0 1-.404.16.645.645 0 0 1-.314-.084.397.397 0 0 1-.184-.255l-.726.136c.178.52.582.785 1.211.785.447 0 .781-.133 1.023-.4.227-.266.335-.623.335-1.065 0-.473-.11-.844-.352-1.098-.23-.255-.56-.384-1.004-.384-.669 0-1.09.296-1.27.896l.731.135c.07-.305.231-.451.505-.451.178 0 .315.054.424.167.097.113.153.285.182.51h-.786v.454zm-2.714.136h1.47v-.745h-1.47v.745zM44.133 1.01v.608c.19 0 .36.073.491.223.133.145.194.363.194.649 0 .274-.06.484-.194.636a.65.65 0 0 1-.49.223v.608c.418 0 .77-.145 1.043-.42.271-.275.406-.627.406-1.045 0-.426-.139-.782-.409-1.06-.274-.283-.626-.422-1.039-.422h-.002zm16.912 2.947v-.575a.487.487 0 0 1-.402-.18c-.1-.115-.154-.276-.15-.48h.552v-.455h-.576a.787.787 0 0 1 .181-.515.58.58 0 0 1 .395-.182v-.56c-.467.005-.82.163-1.05.478a1.64 1.64 0 0 0-.29.97c0 .469.126.833.38 1.099.237.267.547.4.916.4h.044zm0-1.69v.456h.551c0 .219-.054.38-.157.494a.54.54 0 0 1-.393.165v.575c.403-.013.718-.152.95-.42.248-.275.358-.7.35-1.27h-1.3zm0-1.257v.56l.043-.001a.42.42 0 0 1 .288.093c.082.065.15.164.177.304l.752-.12a1.218 1.218 0 0 0-.45-.626c-.214-.141-.464-.21-.774-.21h-.036zm3.164 2.88v-.613h-.267c-.02-.778-.148-1.312-.366-1.593h.633v-.61h-1.057V.332h-.613v1.352h.31c.128.14.228.363.314.66.083.306.133.816.144 1.547h.902zm8.857 0h.716V2.12l1.141 1.77h.731V1.075h-.718v1.802l-1.154-1.802h-.716V3.89zm-3.356 0h.75V1.673h1.071V3.89h.74V1.67h.298V.332h-.61v.743H69.71V3.89zm-3.334 0h.72V2.12l1.153 1.77h.728V1.075h-.719v1.802l-1.163-1.802h-.719V3.89zM64.21 1.075v.61h.634v1.593h-.634v.614h1.38V1.684h.295V.332h-.603v.742H64.21zm13.498 2.883V3.35a.637.637 0 0 1-.494-.223c-.13-.152-.204-.363-.204-.646 0-.277.073-.494.204-.64a.621.621 0 0 1 .494-.222V1.01c-.26 0-.514.058-.743.176a1.228 1.228 0 0 0-.539.509 1.84 1.84 0 0 0-.182.827c0 .247.07.489.182.72.126.229.302.407.525.526.225.127.47.189.745.189h.012zm5.285-.066h.74V2.859h1.07V3.89h.753V1.074h-.753v1.18h-1.07v-1.18h-.74V3.89zm-3.284 0h.754V2.859h1.057V3.89h.751V1.074h-.75v1.18h-1.058v-1.18h-.754V3.89zm-2-2.881v.608c.19 0 .344.073.48.223.13.145.204.363.204.649 0 .274-.074.484-.205.636a.631.631 0 0 1-.48.223v.608c.42 0 .772-.145 1.042-.42.272-.275.408-.627.408-1.045 0-.426-.137-.782-.408-1.06-.276-.283-.625-.422-1.04-.422h-.002zm9.65 1.76V2.3c-.178-.042-.303-.078-.357-.118a.312.312 0 0 1-.144-.264.37.37 0 0 1 .108-.272.437.437 0 0 1 .393-.102V1.05a1.152 1.152 0 0 0-.314-.04c-.295 0-.524.075-.68.232a.782.782 0 0 0-.257.602c0 .158.038.297.12.424a.681.681 0 0 0 .316.284c.14.065.332.126.593.175.082.016.147.027.222.043m0 1.187v-.575h-.003c-.132 0-.246-.026-.31-.075-.08-.05-.136-.147-.18-.274l-.677.12c.065.27.198.474.382.606.18.12.442.188.788.198m0-2.907v.494a.622.622 0 0 1 .29.122.446.446 0 0 1 .18.248c.026.065.031.183.031.362v.15a4.206 4.206 0 0 0-.452-.113l-.049-.013v.47c.23.049.4.095.501.139v.079c0 .14-.037.24-.102.303-.074.063-.208.09-.399.09v.576h.05c.325 0 .581-.042.735-.125a.742.742 0 0 0 .347-.295c.062-.12.098-.343.098-.671L88.584 2c0-.248.006-.43.038-.553a1.13 1.13 0 0 1 .133-.373h-.744c-.016.048-.045.12-.065.215a.3.3 0 0 1-.033.089 1.516 1.516 0 0 0-.407-.277.722.722 0 0 0-.148-.051m3.11 2.84v-.482c-.204 0-.34-.027-.41-.08-.082-.06-.125-.15-.125-.281 0-.125.045-.217.135-.278a.868.868 0 0 1 .4-.086v-.591a1.547 1.547 0 0 1-.139-.176l-.045-.053-.492-.79h-.864l.523.817c.161.23.298.367.41.404a.703.703 0 0 0-.502.234c-.133.15-.192.334-.192.56a.81.81 0 0 0 .131.468.664.664 0 0 0 .334.266c.138.046.355.069.634.069h.202zm3.512 0h.738V2.74c.126.01.214.05.267.114.046.058.104.194.182.406.091.277.196.455.313.53a.78.78 0 0 0 .447.122c.053 0 .15-.01.287-.017l.016-.494c-.205 0-.333-.02-.386-.052-.052-.04-.106-.156-.178-.351-.087-.257-.213-.416-.37-.478.231-.067.428-.27.594-.612.007-.02.014-.04.034-.06l.415-.774h-.804l-.37.814c-.08.162-.14.27-.193.317a.404.404 0 0 1-.254.07V1.074h-.738V3.89zm-3.512-1.798v.59h.537v.726h-.537v.483h1.271V1.074h-.735v1.17h-.074c-.168 0-.278-.021-.357-.062-.038-.021-.063-.05-.105-.09m7.461 1.865v-.608a.607.607 0 0 1-.48-.223c-.133-.152-.207-.363-.207-.646 0-.277.074-.494.207-.64a.592.592 0 0 1 .48-.222V1.01c-.249 0-.5.058-.732.176a1.2 1.2 0 0 0-.534.509 1.813 1.813 0 0 0-.186.827c0 .247.071.489.186.72.124.229.297.407.523.526.225.127.467.189.741.189h.002zm5.966-.066h2.497V1.074h-.74v2.214h-1.018V1.074h-.739V3.89zm-3.969 0h.92l.705-1.962.7 1.962h.924V1.074h-.63v1.853l-.699-1.853h-.632l-.653 1.853V1.074h-.635V3.89zM97.93 1.01v.608a.62.62 0 0 1 .492.223c.133.145.205.363.205.649 0 .274-.072.484-.205.636a.636.636 0 0 1-.492.223v.608c.431 0 .784-.144 1.054-.42.274-.275.41-.627.41-1.045 0-.426-.136-.782-.41-1.06a1.409 1.409 0 0 0-1.04-.422h-.014zm10.32 1.76V2.3a1.349 1.349 0 0 1-.356-.118.312.312 0 0 1-.144-.264c0-.101.04-.192.121-.272a.421.421 0 0 1 .29-.112c.034 0 .07 0 .09.01V1.05a1.036 1.036 0 0 0-.312-.04c-.286 0-.513.075-.685.232a.82.82 0 0 0-.243.602c0 .158.04.297.108.424a.75.75 0 0 0 .317.284c.137.065.343.126.594.175.081.016.158.027.22.043m0 1.187v-.575h-.002a.58.58 0 0 1-.314-.075.608.608 0 0 1-.178-.274l-.678.12c.081.27.212.474.396.606.18.12.442.188.776.198m5.233-.066h.716V2.12l1.154 1.77h.728V1.075h-.717v1.802l-1.165-1.802h-.716V3.89zm-3.294 0h.754V2.859h1.071V3.89h.74V1.074h-.74v1.18h-1.07v-1.18h-.755V3.89zM108.25 1.05v.494a.63.63 0 0 1 .302.122.493.493 0 0 1 .177.248c.015.065.033.183.033.362v.15a4.315 4.315 0 0 0-.465-.113l-.047-.013v.47c.23.049.402.095.512.139v.079c0 .14-.036.24-.114.303-.063.063-.195.09-.398.09v.576h.047c.342 0 .584-.042.751-.125a.734.734 0 0 0 .346-.295c.063-.12.1-.343.1-.671L109.485 2c0-.248.01-.43.027-.553.031-.116.076-.238.134-.373h-.732c-.015.048-.043.12-.078.215-.009.045-.014.079-.02.089a1.485 1.485 0 0 0-.407-.277.601.601 0 0 0-.16-.051m9.733 2.84v-.482c-.19 0-.326-.027-.412-.08-.082-.06-.12-.15-.12-.281 0-.125.04-.217.134-.278a.855.855 0 0 1 .398-.086v-.591a1.663 1.663 0 0 1-.14-.176l-.045-.053-.49-.79h-.866l.536.817c.147.23.286.367.412.404a.687.687 0 0 0-.504.234.806.806 0 0 0-.202.56.81.81 0 0 0 .13.468.688.688 0 0 0 .347.266c.14.046.356.069.633.069h.19zm0-1.798v.59h.537v.726h-.537v.483h1.284V1.074h-.748v1.17h-.063c-.166 0-.289-.021-.353-.062a.495.495 0 0 1-.12-.09" fill="#3f489b"/></g></svg>