<svg xmlns="http://www.w3.org/2000/svg" viewBox="0 0 217.52 45.33"><title>8285</title><g id="6c586937-bdf0-4efc-9f64-27d5eab60aa8" data-name="Слой 2"><g id="c904e11c-6d92-4fb0-9b2d-7b24a1cc56a8" data-name="Слой 1"><path d="M215.06,25.37c.62,0,1.11.88,1.11,1.5h0c0,.61-.5,1.5-1.11,1.5h-2.15c-.62,0-1.11-.89-1.11-1.5h0c0-.62.5-1.5,1.11-1.5Z" fill="#fff"/><rect x="35.58" y="26.23" width="5.54" height="2.27" fill="#253678"/><rect x="35.58" y="22.92" width="5.54" height="2.28" fill="#253678"/><polygon points="0 14.11 0 19.66 4.45 19.66 4.45 22.43 6.73 22.43 6.73 19.66 35.58 19.66 35.58 21.81 41.12 21.81 41.12 19.66 41.12 19.53 41.12 14.11 0 14.11" fill="#253678"/><path d="M201.24,27.43a8.7,8.7,0,1,0,8.7,8.7A8.71,8.71,0,0,0,201.24,27.43Zm0,14.71a6,6,0,1,1,6-6A6,6,0,0,1,201.24,42.14Z" fill="#253678"/><circle cx="201.24" cy="36.13" r="1.75" fill="#253678"/><path d="M201.24,38.43a2.3,2.3,0,1,1,2.3-2.3A2.3,2.3,0,0,1,201.24,38.43Z" fill="#253678"/><path d="M179.12,27.93a8.7,8.7,0,1,0,8.7,8.7A8.71,8.71,0,0,0,179.12,27.93Zm0,14.71a6,6,0,1,1,6-6A6,6,0,0,1,179.12,42.64Z" fill="#253678"/><circle cx="179.12" cy="36.63" r="1.75" fill="#253678"/><path d="M179.12,38.93a2.3,2.3,0,1,1,2.3-2.3A2.3,2.3,0,0,1,179.12,38.93Z" fill="#253678"/><path d="M157,27.43a8.7,8.7,0,1,0,8.7,8.7A8.71,8.71,0,0,0,157,27.43Zm0,14.71a6,6,0,1,1,6-6A6,6,0,0,1,157,42.14Z" fill="#253678"/><circle cx="157" cy="36.13" r="1.75" fill="#253678"/><path d="M157,38.43a2.3,2.3,0,1,1,2.3-2.3A2.3,2.3,0,0,1,157,38.43Z" fill="#253678"/><path d="M145.53,24.83V30.6H41.12v-1H35.58v6.51H144.93v3.44h2.27V35.48h0a9.78,9.78,0,0,1,19.51,0h0v3.94h2.54V35.48h.07a9.78,9.78,0,0,1,19.43,0h.07v3.94h2.54V35.48h0a9.78,9.78,0,0,1,19.51,0h0v4.11h2.27V35.48h4.09V24.83Z" fill="#253678"/><rect x="40.18" y="6.12" width="1" height="7.99" fill="#f6ad15"/><rect x="216.52" y="6.31" width="1" height="18.52" fill="#f6ad15"/><rect x="145.58" y="6.31" width="1" height="18.52" fill="#f6ad15"/><rect x="128.09" y="-79.53" width="1" height="176.86" transform="translate(119.46 137.47) rotate(-89.89)" fill="#f6ad15"/><polygon points="46.86 9.94 40.36 8.78 46.88 7.02 46.86 9.94" fill="#f6ad15"/><polygon points="210.52 10.19 217.02 9.03 210.5 7.27 210.52 10.19" fill="#f6ad15"/><polygon points="151.59 10.06 145.08 8.9 151.6 7.15 151.59 10.06" fill="#f6ad15"/><polygon points="140.08 10.06 146.58 8.9 140.06 7.15 140.08 10.06" fill="#f6ad15"/><path d="M83.89,1A.48.48,0,0,0,83.46.8a.61.61,0,0,0-.39.11.73.73,0,0,0-.23.32,1.74,1.74,0,0,0-.11.48q0,.28,0,.61v.3h0a1.07,1.07,0,0,1,.44-.38,1.56,1.56,0,0,1,.69-.14,1.51,1.51,0,0,1,.68.14,1.19,1.19,0,0,1,.45.39,1.73,1.73,0,0,1,.26.6,3.3,3.3,0,0,1,.08.75,2.38,2.38,0,0,1-.46,1.59,1.86,1.86,0,0,1-1.48.54,2,2,0,0,1-1-.22,1.48,1.48,0,0,1-.57-.61,2.59,2.59,0,0,1-.26-.9,9.1,9.1,0,0,1-.06-1.06q0-.64,0-1.24A3.33,3.33,0,0,1,81.76,1a1.65,1.65,0,0,1,.6-.74A2,2,0,0,1,83.52,0a2.55,2.55,0,0,1,.63.08,1.43,1.43,0,0,1,.53.26A1.3,1.3,0,0,1,85,.8a1.76,1.76,0,0,1,.15.73H84A1,1,0,0,0,83.89,1ZM82.8,4.63a1.26,1.26,0,0,0,.1.38.58.58,0,0,0,.2.25.6.6,0,0,0,.34.09.62.62,0,0,0,.35-.09A.56.56,0,0,0,84,5a1.3,1.3,0,0,0,.09-.38q0-.22,0-.47A1.85,1.85,0,0,0,84,3.27.54.54,0,0,0,83.45,3a.55.55,0,0,0-.52.26,1.84,1.84,0,0,0-.15.88A4.15,4.15,0,0,0,82.8,4.63Z" fill="#f6ad15"/><path d="M87,5.8a3.74,3.74,0,0,1,0,.6,1.36,1.36,0,0,1-.17.49,1,1,0,0,1-.34.34,1.32,1.32,0,0,1-.56.17V6.8a.46.46,0,0,0,.33-.24.87.87,0,0,0,.11-.43V6h-.44V4.69H87Z" fill="#f6ad15"/><path d="M88.89,1.07l-.13,1.37h0a1,1,0,0,1,.44-.34A1.83,1.83,0,0,1,89.89,2a1.41,1.41,0,0,1,.72.17,1.25,1.25,0,0,1,.45.44,1.86,1.86,0,0,1,.23.62,3.61,3.61,0,0,1,.07.7,4.47,4.47,0,0,1-.08.91,1.77,1.77,0,0,1-.3.7,1.32,1.32,0,0,1-.59.44,2.6,2.6,0,0,1-1,.15A2.35,2.35,0,0,1,88.5,6a1.3,1.3,0,0,1-.54-.4A1.4,1.4,0,0,1,87.71,5a2.6,2.6,0,0,1-.06-.55V4.3h1.17c0,.1,0,.21,0,.32a1.07,1.07,0,0,0,.08.32.64.64,0,0,0,.18.25.48.48,0,0,0,.31.1A.58.58,0,0,0,90,5a1.84,1.84,0,0,0,.17-.88,4.74,4.74,0,0,0,0-.62A1.13,1.13,0,0,0,90,3.1a.46.46,0,0,0-.22-.2.85.85,0,0,0-.34-.06A.53.53,0,0,0,89,3a.71.71,0,0,0-.17.4h-1.1L88,.12h3.14v1Z" fill="#f6ad15"/><path d="M94,1.45h1.68l.71,3.06.71-3.06h1.68V6h-1.1V2.77L96.88,6h-1l-.81-3.25V6H94Z" fill="#f6ad15"/><path d="M100.76,6H99.64V4.69h1.12Z" fill="#f6ad15"/><path d="M175.16.29h1.27V4.11H177v1h-.58V6.31H175.3V5.06h-2.14v-1Zm.13,1.53-1.17,2.29h1.19V1.82Z" fill="#f6ad15"/><path d="M179.55,1.74h1.68l.71,3.06.71-3.06h1.68V6.31h-1.1V3.06l-.81,3.25h-1l-.81-3.25V6.31h-1.1Z" fill="#f6ad15"/><path d="M186.31,6.31h-1.12V5h1.12Z" fill="#f6ad15"/></g></g></svg>