<svg xmlns="http://www.w3.org/2000/svg" xmlns:xlink="http://www.w3.org/1999/xlink" viewBox="0 0 217.52342 44.676592" height="59.569" width="290.031"><defs><symbol id="e" overflow="visible"><path d="M1.453 0H2.61v-5.656h-.843c-.063.312-.204.543-.422.687-.219.149-.524.219-.907.219H.329V-4h1.125zm0 0"/></symbol><symbol id="d" overflow="visible"><path d="M2.61-2.781H.36v.937h2.25zm0 0"/></symbol><symbol id="g" overflow="visible"><path d="M.375-4.297h1.563l.671 2.875.672-2.875H4.86V0H3.83v-3.063L3.078 0h-.923l-.75-3.063V0H.375zm0 0"/></symbol><symbol id="h" overflow="visible"><path d="M1.484-1.25H.438V0h1.046zm0 0"/></symbol><symbol id="a" overflow="visible"><path d="M1.313-1.766c0-.382.046-.656.14-.812.102-.164.27-.25.5-.25.219 0 .375.086.469.25.101.156.156.43.156.812 0 .168-.012.32-.031.454a1.32 1.32 0 0 1-.078.359.61.61 0 0 1-.188.234.601.601 0 0 1-.328.078.584.584 0 0 1-.328-.078.545.545 0 0 1-.188-.234 1.458 1.458 0 0 1-.093-.36 2.662 2.662 0 0 1-.032-.453zm1.171-2.453h1.11a1.71 1.71 0 0 0-.156-.687 1.083 1.083 0 0 0-.344-.438 1.164 1.164 0 0 0-.5-.234 2.218 2.218 0 0 0-.578-.078c-.47 0-.836.09-1.094.265-.25.168-.438.399-.563.688a3.454 3.454 0 0 0-.218 1c-.024.375-.032.765-.032 1.172 0 .344.016.68.047 1 .04.312.125.593.25.843.125.243.301.434.531.579.239.132.555.203.954.203.644 0 1.113-.164 1.406-.5.289-.344.437-.844.437-1.5a2.99 2.99 0 0 0-.078-.703 1.612 1.612 0 0 0-.25-.563 1.03 1.03 0 0 0-.422-.375 1.36 1.36 0 0 0-.64-.14c-.262 0-.48.046-.656.14a.915.915 0 0 0-.407.36h-.015v-.282c0-.207.004-.398.015-.578.02-.176.055-.328.11-.453a.606.606 0 0 1 .218-.297.582.582 0 0 1 .36-.11c.187 0 .316.06.39.173.082.117.125.289.125.515zm0 0"/></symbol><symbol id="b" overflow="visible"><path d="M1.484-1.25H.438V0h.406v.11a.83.83 0 0 1-.11.406.39.39 0 0 1-.296.218v.563c.207-.024.378-.074.515-.156.133-.086.242-.196.328-.329.082-.125.133-.277.157-.453.03-.18.046-.363.046-.562zm0 0"/></symbol><symbol id="c" overflow="visible"><path d="M3.406-4.656v-.89H.453L.234-2.47h1.032c.02-.164.07-.289.156-.375a.526.526 0 0 1 .39-.14c.133 0 .243.023.329.062a.406.406 0 0 1 .203.188c.05.086.086.203.11.359.019.156.03.352.03.578 0 .375-.054.656-.156.844-.105.18-.277.265-.515.265a.436.436 0 0 1-.297-.093.61.61 0 0 1-.172-.235.856.856 0 0 1-.078-.296 2.61 2.61 0 0 1-.016-.297H.14v.14c0 .168.02.344.063.532a1.275 1.275 0 0 0 .734.89c.227.094.52.14.875.14.364 0 .66-.046.891-.14a1.24 1.24 0 0 0 .563-.422c.132-.187.226-.406.28-.656.052-.258.079-.547.079-.86 0-.218-.023-.437-.063-.656a1.762 1.762 0 0 0-.218-.578 1.212 1.212 0 0 0-.422-.422 1.346 1.346 0 0 0-.672-.156c-.25 0-.46.04-.625.11a.951.951 0 0 0-.422.312h-.016l.125-1.281zm0 0"/></symbol><symbol id="f" overflow="visible"><path d="M.14-2.64c0 .5.024.93.079 1.28.062.344.16.626.297.844.132.22.316.375.546.47.227.093.516.14.86.14.414 0 .742-.078.984-.235a1.49 1.49 0 0 0 .531-.671c.114-.282.188-.598.22-.954.03-.363.046-.742.046-1.14 0-.5-.031-.926-.094-1.281-.054-.352-.148-.641-.28-.86a1.156 1.156 0 0 0-.548-.469c-.23-.093-.515-.14-.86-.14-.429 0-.76.086-1 .25-.23.168-.405.39-.53.672a3.239 3.239 0 0 0-.22.968c-.023.356-.03.73-.03 1.125zm1.157.25v-.626c0-.351.008-.648.031-.89.02-.25.05-.446.094-.594.039-.156.101-.258.187-.313a.504.504 0 0 1 .313-.093c.125 0 .223.027.297.078.082.043.144.133.187.266.051.125.086.304.11.53.02.22.03.512.03.876v.61c0 .366-.01.671-.03.921a3.634 3.634 0 0 1-.094.578.578.578 0 0 1-.188.313.512.512 0 0 1-.312.093.675.675 0 0 1-.313-.062.574.574 0 0 1-.187-.266 2.559 2.559 0 0 1-.094-.547 9.015 9.015 0 0 1-.031-.875zm0 0"/></symbol></defs><path d="M215.062 24.716c.618 0 1.114.886 1.114 1.5 0 .613-.496 1.5-1.114 1.5h-2.148c-.617 0-1.113-.887-1.113-1.5 0-.614.496-1.5 1.113-1.5zm0 0" fill="#fff"/><path d="M35.578 25.579h5.543v2.273h-5.543zm0-3.316h5.543v2.273h-5.543zM0 13.454v5.543h4.45v2.773h2.277v-2.773h28.851v2.152h5.543v-7.695zm201.238 28.023a6.003 6.003 0 0 1-6.004-6.004 6.004 6.004 0 0 1 6.004-6.007 6.005 6.005 0 0 1 6.008 6.007 6.004 6.004 0 0 1-6.008 6.004m0-14.707c-4.797 0-8.699 3.903-8.699 8.703 0 4.797 3.902 8.7 8.7 8.7 4.796 0 8.702-3.903 8.702-8.7 0-4.8-3.902-8.703-8.703-8.703" fill="#303d7a"/><path d="M202.996 35.473c0 .97-.789 1.75-1.758 1.75a1.75 1.75 0 0 1-1.754-1.75c0-.968.785-1.757 1.754-1.757s1.758.789 1.758 1.757" fill="#303d7a"/><path d="M201.238 37.77a2.3 2.3 0 0 1-2.297-2.297c0-1.27 1.032-2.3 2.297-2.3 1.27 0 2.301 1.03 2.301 2.3a2.301 2.301 0 0 1-2.3 2.297m-22.118 4.211a6.007 6.007 0 0 1 0-12.012 6.007 6.007 0 1 1 0 12.012m0-14.707c-4.8 0-8.703 3.903-8.703 8.7 0 4.8 3.902 8.703 8.703 8.703 4.797 0 8.7-3.903 8.7-8.704 0-4.796-3.903-8.699-8.7-8.699" fill="#303d7a"/><path d="M180.875 35.973a1.757 1.757 0 0 1-3.512 0c0-.968.79-1.753 1.758-1.753.969 0 1.754.785 1.754 1.753" fill="#303d7a"/><path d="M179.121 38.274c-1.27 0-2.3-1.031-2.3-2.3a2.301 2.301 0 0 1 2.3-2.297 2.3 2.3 0 0 1 2.297 2.296 2.301 2.301 0 0 1-2.297 2.301M157 41.477a6.007 6.007 0 1 1 0-12.011 6.007 6.007 0 0 1 0 12.012m0-14.708c-4.797 0-8.7 3.903-8.7 8.703 0 4.797 3.903 8.7 8.7 8.7 4.797 0 8.7-3.903 8.7-8.7 0-4.8-3.9-8.703-8.7-8.703" fill="#303d7a"/><path d="M158.754 35.473a1.75 1.75 0 0 1-1.754 1.75 1.75 1.75 0 0 1-1.754-1.75c0-.968.785-1.757 1.754-1.757s1.754.789 1.754 1.757" fill="#303d7a"/><path d="M157 37.77a2.3 2.3 0 1 1 2.3-2.297 2.301 2.301 0 0 1-2.3 2.297" fill="#303d7a"/><path d="M145.535 24.173v5.77H41.121v-.973h-5.543v6.515h109.356v3.442h2.277V34.82h.031c.34-5.098 4.578-9.14 9.758-9.14 5.18 0 9.418 4.042 9.758 9.14h.03v3.938h2.54V34.82h.074c.574-4.855 4.711-8.637 9.719-8.637 5.008 0 9.14 3.782 9.715 8.637h.074v3.938h2.539V34.82h.031c.34-5.098 4.582-9.14 9.758-9.14 5.18 0 9.422 4.042 9.758 9.14h.035v4.106h2.273V34.82h4.094V24.173zm0 0" fill="#303d7a"/><path d="M40.68 5.458v7.996m176.343-7.797v18.516M40.164 8.071l176.86.336" fill="none" stroke="#f5ae23" stroke-miterlimit="10"/><path d="M46.86 9.282l-6.505-1.164 6.524-1.754zm163.66.25l6.503-1.164-6.523-1.754zm0 0" fill="#f5ae23"/><g transform="translate(-109.027 -101.284)" fill="#f5ae23"><use xlink:href="#a" x="219.55" y="106.941" width="100%" height="100%"/><use xlink:href="#b" x="223.39" y="106.941" width="100%" height="100%"/><use xlink:href="#c" x="225.31" y="106.941" width="100%" height="100%"/><use xlink:href="#d" x="229.15" y="106.941" width="100%" height="100%"/><use xlink:href="#e" x="232.11" y="106.941" width="100%" height="100%"/><use xlink:href="#f" x="235.95" y="106.941" width="100%" height="100%"/><use xlink:href="#b" x="239.79" y="106.941" width="100%" height="100%"/><use xlink:href="#c" x="241.71" y="106.941" width="100%" height="100%"/><use xlink:href="#g" x="245.55" y="106.941" width="100%" height="100%"/><use xlink:href="#g" x="247.47" y="106.941" width="100%" height="100%"/><use xlink:href="#h" x="252.702" y="106.941" width="100%" height="100%"/></g></svg>