<svg xmlns="http://www.w3.org/2000/svg" xmlns:xlink="http://www.w3.org/1999/xlink" viewBox="0 0 271.90427 49.023441" height="52.292" width="290.031"><path d="M268.828 24.072c.772 0 1.392 1.109 1.392 1.875 0 .767-.62 1.875-1.392 1.875h-2.685c-.772 0-1.392-1.108-1.392-1.875 0-.766.62-1.875 1.392-1.875zm0 0" fill="#fff"/><path d="M44.473 25.151H51.4v2.842h-6.928zm0 0M44.473 21.006H51.4v2.842h-6.928zm0 0M0 9.995v6.929h5.562v3.467h2.846v-3.467h36.065v2.69H51.4V9.995zm0 0M251.548 45.024a7.504 7.504 0 0 1-7.505-7.504c0-4.15 3.36-7.51 7.505-7.51 4.15 0 7.51 3.36 7.51 7.51a7.505 7.505 0 0 1-7.51 7.504m0-18.383c-5.996 0-10.874 4.878-10.874 10.879 0 5.996 4.878 10.874 10.874 10.874s10.879-4.878 10.879-10.874c0-6.001-4.878-10.88-10.88-10.88" fill="#303d7a"/><path d="M253.745 37.52c0 1.21-.986 2.187-2.197 2.187a2.188 2.188 0 0 1-2.193-2.187c0-1.211.982-2.198 2.193-2.198a2.2 2.2 0 0 1 2.197 2.198" fill="#303d7a"/><path d="M251.548 40.39a2.876 2.876 0 0 1-2.871-2.87 2.877 2.877 0 0 1 2.87-2.876 2.878 2.878 0 0 1 2.877 2.876 2.877 2.877 0 0 1-2.876 2.87M223.901 45.654a7.512 7.512 0 0 1-7.51-7.51 7.508 7.508 0 0 1 7.51-7.504c4.146 0 7.51 3.359 7.51 7.505a7.512 7.512 0 0 1-7.51 7.51m0-18.384c-6 0-10.879 4.877-10.879 10.874 0 6 4.878 10.878 10.88 10.878 5.995 0 10.873-4.878 10.873-10.878 0-5.997-4.878-10.874-10.874-10.874" fill="#303d7a"/><path d="M226.094 38.145c0 1.21-.982 2.192-2.193 2.192a2.196 2.196 0 0 1-2.197-2.192c0-1.211.986-2.193 2.197-2.193s2.193.982 2.193 2.193" fill="#303d7a"/><path d="M223.901 41.02a2.878 2.878 0 0 1-2.876-2.875 2.877 2.877 0 0 1 2.876-2.872 2.876 2.876 0 0 1 2.871 2.872 2.877 2.877 0 0 1-2.87 2.875M196.25 45.024a7.508 7.508 0 1 1 0-15.014 7.508 7.508 0 0 1 0 15.015m0-18.384c-5.996 0-10.874 4.878-10.874 10.879 0 5.996 4.878 10.874 10.874 10.874s10.874-4.878 10.874-10.874c0-6.001-4.873-10.88-10.874-10.88" fill="#303d7a"/><path d="M198.442 37.52c0 1.21-.981 2.187-2.192 2.187a2.188 2.188 0 0 1-2.192-2.187c0-1.211.981-2.198 2.192-2.198 1.21 0 2.192.987 2.192 2.198" fill="#303d7a"/><path d="M196.25 40.39a2.877 2.877 0 0 1-2.876-2.87 2.878 2.878 0 0 1 2.876-2.876 2.878 2.878 0 0 1 2.876 2.876 2.877 2.877 0 0 1-2.876 2.87" fill="#303d7a"/><path d="M181.919 23.394v7.211H51.4V29.39h-6.928v8.144h136.694v4.302h2.847v-5.132h.039c.424-6.372 5.722-11.426 12.197-11.426 6.475 0 11.772 5.054 12.197 11.426h.04v4.922h3.173v-4.922h.093c.717-6.07 5.888-10.796 12.148-10.796s11.426 4.727 12.144 10.796h.092v4.922h3.174v-4.922h.04c.424-6.372 5.727-11.426 12.196-11.426 6.475 0 11.778 5.054 12.198 11.426h.044v5.132h2.841v-5.132h5.118v-13.31zm0 0" fill="#303d7a"/><path d="M50.85 0v9.995M271.28.249v23.145M50.205 3.267l221.074.42" fill="none" stroke="#f5ae23" stroke-width="1.25" stroke-miterlimit="10"/><path d="M58.574 4.78l-8.13-1.455L58.6 1.133zm0 0M263.15 5.093l8.13-1.455-8.155-2.193zm0 0" fill="#f5ae23"/><g transform="matrix(1.25 0 0 1.25 -136.284 -133.428)" fill="#f5ae23"><use xlink:href="#glyph0-7" x="219.55" y="106.941" width="100%" height="100%"/><use xlink:href="#glyph0-8" x="223.39" y="106.941" width="100%" height="100%"/><use xlink:href="#glyph0-9" x="225.31" y="106.941" width="100%" height="100%"/><use xlink:href="#glyph0-2" x="229.15" y="106.941" width="100%" height="100%"/><use xlink:href="#glyph0-1" x="232.11" y="106.941" width="100%" height="100%"/><use xlink:href="#glyph0-10" x="235.95" y="106.941" width="100%" height="100%"/><use xlink:href="#glyph0-8" x="239.79" y="106.941" width="100%" height="100%"/><use xlink:href="#glyph0-9" x="241.71" y="106.941" width="100%" height="100%"/><use xlink:href="#glyph0-4" x="245.55" y="106.941" width="100%" height="100%"/><use xlink:href="#glyph0-5" x="247.47" y="106.941" width="100%" height="100%"/><use xlink:href="#glyph0-6" x="252.702" y="106.941" width="100%" height="100%"/></g></svg>