<svg xmlns="http://www.w3.org/2000/svg" viewBox="0 0 217.52 45.33"><defs><style>.cls-1{fill:#fff}.cls-2{fill:#253678}.cls-3{fill:#f6ad15}</style></defs><title>8285</title><g id="Слой_2" data-name="Слой 2"><g id="Слой_1-2" data-name="Слой 1"><path class="cls-1" d="M215.06 25.37c.62 0 1.11.88 1.11 1.5 0 .61-.5 1.5-1.11 1.5h-2.15c-.62 0-1.11-.89-1.11-1.5 0-.62.5-1.5 1.11-1.5z"/><path class="cls-2" d="M35.58 26.23h5.54v2.27h-5.54zm0-3.31h5.54v2.28h-5.54zM0 14.11v5.54h4.45v2.77h2.28v-2.77h28.85v2.15h5.54v-7.69H0zm201.24 13.32a8.7 8.7 0 1 0 8.7 8.7 8.71 8.71 0 0 0-8.7-8.7zm0 14.71a6 6 0 1 1 6-6 6 6 0 0 1-6 5.99z"/><circle class="cls-2" cx="201.24" cy="36.13" r="1.75"/><path class="cls-2" d="M201.24 38.42a2.3 2.3 0 1 1 2.3-2.3 2.3 2.3 0 0 1-2.3 2.3zm-22.12-10.49a8.7 8.7 0 1 0 8.7 8.7 8.71 8.71 0 0 0-8.7-8.7zm0 14.71a6 6 0 1 1 6-6 6 6 0 0 1-6 5.99z"/><circle class="cls-2" cx="179.12" cy="36.63" r="1.75"/><path class="cls-2" d="M179.12 38.93a2.3 2.3 0 1 1 2.3-2.3 2.3 2.3 0 0 1-2.3 2.3zM157 27.43a8.7 8.7 0 1 0 8.7 8.7 8.71 8.71 0 0 0-8.7-8.7zm0 14.71a6 6 0 1 1 6-6 6 6 0 0 1-6 5.99z"/><circle class="cls-2" cx="157" cy="36.13" r="1.75"/><path class="cls-2" d="M157 38.42a2.3 2.3 0 1 1 2.3-2.3 2.3 2.3 0 0 1-2.3 2.3z"/><path class="cls-2" d="M145.53 24.83v5.77H41.12v-1h-5.54v6.51h109.35v3.44h2.27v-4.08a9.78 9.78 0 0 1 19.51 0v3.94h2.54v-3.94h.07a9.78 9.78 0 0 1 19.43 0h.07v3.94h2.54v-3.94a9.78 9.78 0 0 1 19.51 0v4.11h2.27v-4.11h4.09V24.83z"/><path class="cls-3" d="M40.18 6.11h1v7.99h-1zm176.34.2h1v18.52h-1zm-70.94 0h1v18.52h-1z"/><path class="cls-3" transform="rotate(-89.89 128.597 8.89)" d="M128.09-79.54h1V97.32h-1z"/><path class="cls-3" d="M46.86 9.94l-6.5-1.17 6.52-1.75-.02 2.92zm163.66.25l6.5-1.17-6.52-1.75.02 2.92zm-58.93-.13l-6.51-1.16 6.52-1.76-.01 2.92z"/><path class="cls-3" d="M140.08 10.06l6.5-1.16-6.52-1.76.02 2.92zM84 1.53a1 1 0 0 0-.11-.53.47.47 0 0 0-.43-.2.61.61 0 0 0-.39.11.73.73 0 0 0-.23.32 1.76 1.76 0 0 0-.11.48v.91a1.07 1.07 0 0 1 .44-.38 1.56 1.56 0 0 1 .69-.14 1.51 1.51 0 0 1 .68.14 1.2 1.2 0 0 1 .45.39 1.71 1.71 0 0 1 .25.59 3.3 3.3 0 0 1 .08.75 2.37 2.37 0 0 1-.46 1.58 1.85 1.85 0 0 1-1.48.54 2 2 0 0 1-1-.22 1.49 1.49 0 0 1-.57-.61 2.6 2.6 0 0 1-.26-.9 9.09 9.09 0 0 1-.06-1.06V2.06A3.33 3.33 0 0 1 81.76 1a1.64 1.64 0 0 1 .6-.74A2 2 0 0 1 83.51 0a2.55 2.55 0 0 1 .63.08 1.43 1.43 0 0 1 .53.25A1.3 1.3 0 0 1 85 .8a1.76 1.76 0 0 1 .15.73zm-1.23 2.62a4.13 4.13 0 0 0 0 .48 1.26 1.26 0 0 0 .1.38.59.59 0 0 0 .2.25.6.6 0 0 0 .34.09.62.62 0 0 0 .35-.09A.56.56 0 0 0 84 5a1.31 1.31 0 0 0 .09-.38v-.47a1.85 1.85 0 0 0-.09-.88.54.54 0 0 0-.55-.27.55.55 0 0 0-.52.26 1.84 1.84 0 0 0-.16.89zm4.23.54V5.8a3.69 3.69 0 0 1 0 .6 1.36 1.36 0 0 1-.17.49 1 1 0 0 1-.34.34 1.32 1.32 0 0 1-.56.17v-.6a.46.46 0 0 0 .33-.24.87.87 0 0 0 .11-.43V6h-.44V4.69zm4.11-3.62h-2.22l-.13 1.37a1 1 0 0 1 .44-.34 1.83 1.83 0 0 1 .68-.1 1.41 1.41 0 0 1 .72.17 1.26 1.26 0 0 1 .45.44 1.88 1.88 0 0 1 .23.62 3.6 3.6 0 0 1 .07.7 4.47 4.47 0 0 1-.08.91 1.77 1.77 0 0 1-.3.7 1.32 1.32 0 0 1-.59.44 2.6 2.6 0 0 1-1 .15A2.34 2.34 0 0 1 88.5 6a1.3 1.3 0 0 1-.54-.4 1.4 1.4 0 0 1-.25-.6 2.59 2.59 0 0 1-.06-.55V4.3h1.17v.32a1.06 1.06 0 0 0 .08.32.64.64 0 0 0 .18.25.48.48 0 0 0 .31.1A.58.58 0 0 0 90 5a1.84 1.84 0 0 0 .17-.88 4.63 4.63 0 0 0 0-.62 1.11 1.11 0 0 0-.17-.4.45.45 0 0 0-.22-.2.85.85 0 0 0-.34-.06A.53.53 0 0 0 89 3a.71.71 0 0 0-.17.4h-1.1L88 .12h3.14zm4.57.37l.72 3.06.71-3.06h1.67V6h-1.1V2.77L96.88 6h-1l-.81-3.25V6H94V1.44zm5.08 3.25V6h-1.12V4.69zm72.4-.63l2-3.77h1.27v3.82h.57v1h-.58v1.2h-1.12V5.06h-2.14zm2.14-2.23l-1.17 2.29h1.19zm5.93-.09l.71 3.06.71-3.06h1.67v4.57h-1.1V3.06l-.81 3.25h-1l-.81-3.25v3.25h-1.1V1.74zM186.31 5v1.31h-1.12V5z"/></g></g></svg>