<svg xmlns="http://www.w3.org/2000/svg" viewBox="0 0 357.48044 64.775217" height="69.094" width="381.312"><path d="M357.48 52.187h-107.5v-15h107.5zm0 0M51.401 23.78H0v-6.93h51.401zm0 0" fill="#303d7a"/><path d="M265.991 51.924H119.253v-6.93H265.99zm0 0M8.408 27.241H5.566v-6.929h2.842zm0 0M44.473 32.002H51.4v2.842h-6.928zm0 0M44.473 36.24H51.4v2.847h-6.928zm0 0M44.473 27.856H51.4v2.842h-6.928zm0 0M44.473 23.623H51.4v2.842h-6.928zm0 0M112.68 44.995h2.842v6.929h-2.841zm0 0" fill="#303d7a"/><path d="M116.924 44.995h2.842v6.929h-2.842zm0 0M108.535 44.995h2.847v6.929h-2.847zm0 0M104.302 44.995h2.846v6.929h-2.846zm0 0M342.29 51.909c0 6.382-5.176 11.558-11.562 11.558-6.382 0-11.553-5.176-11.553-11.558s5.17-11.553 11.553-11.553c6.386 0 11.562 5.171 11.562 11.553" fill="#303d7a"/><path d="M330.728 41.035c-5.997 0-10.875 4.878-10.875 10.874s4.878 10.879 10.875 10.879c6 0 10.878-4.883 10.878-10.879 0-5.996-4.878-10.874-10.878-10.874m0 23.11c-6.749 0-12.237-5.488-12.237-12.236s5.488-12.236 12.237-12.236c6.748 0 12.24 5.488 12.24 12.236s-5.492 12.236-12.24 12.236" fill="#fff"/><path d="M338.237 51.909a7.508 7.508 0 1 1-15.016.003 7.508 7.508 0 0 1 15.016-.003" fill="#fff"/><path d="M332.925 51.909a2.192 2.192 0 0 1-2.193 2.192 2.193 2.193 0 0 1-2.197-2.192 2.195 2.195 0 0 1 4.39 0" fill="#303d7a"/><path d="M330.728 54.785a2.877 2.877 0 0 1 0-5.752 2.881 2.881 0 0 1 2.875 2.876 2.878 2.878 0 0 1-2.875 2.876M314.639 52.539c0 6.382-5.176 11.558-11.558 11.558s-11.558-5.176-11.558-11.558S296.7 40.98 303.081 40.98s11.558 5.176 11.558 11.558" fill="#303d7a"/><path d="M303.081 41.665c-5.996 0-10.879 4.873-10.879 10.874 0 5.996 4.883 10.874 10.879 10.874 5.996 0 10.874-4.878 10.874-10.874 0-6.001-4.878-10.874-10.874-10.874m0 23.11c-6.748 0-12.241-5.488-12.241-12.236s5.493-12.236 12.241-12.236c6.748 0 12.236 5.488 12.236 12.236s-5.488 12.236-12.236 12.236" fill="#fff"/><path d="M310.59 52.539a7.512 7.512 0 0 1-7.509 7.51 7.512 7.512 0 0 1-7.51-7.51 7.512 7.512 0 0 1 7.51-7.51 7.512 7.512 0 0 1 7.51 7.51" fill="#fff"/><path d="M305.273 52.539a2.192 2.192 0 1 1-4.384 0 2.192 2.192 0 0 1 4.384 0" fill="#303d7a"/><path d="M303.081 55.41a2.874 2.874 0 0 1-2.876-2.871 2.881 2.881 0 0 1 2.876-2.876 2.877 2.877 0 0 1 2.871 2.876 2.87 2.87 0 0 1-2.871 2.871M286.987 51.909c0 6.382-5.17 11.558-11.557 11.558-6.382 0-11.558-5.176-11.558-11.558s5.176-11.553 11.558-11.553c6.386 0 11.557 5.171 11.557 11.553" fill="#303d7a"/><path d="M275.43 41.035c-5.996 0-10.874 4.878-10.874 10.874s4.878 10.879 10.874 10.879 10.879-4.883 10.879-10.879c0-5.996-4.883-10.874-10.88-10.874m0 23.11c-6.747 0-12.236-5.488-12.236-12.236s5.489-12.236 12.237-12.236 12.24 5.488 12.24 12.236-5.492 12.236-12.24 12.236" fill="#fff"/><path d="M282.94 51.909a7.512 7.512 0 0 1-7.51 7.51 7.508 7.508 0 1 1 7.51-7.51" fill="#fff"/><path d="M277.622 51.909a2.19 2.19 0 0 1-2.192 2.192 2.192 2.192 0 1 1 2.192-2.192" fill="#303d7a"/><path d="M275.43 54.785a2.881 2.881 0 0 1-2.876-2.876 2.884 2.884 0 0 1 2.876-2.876 2.881 2.881 0 0 1 2.876 2.876 2.878 2.878 0 0 1-2.876 2.876M263.193 56.23h-2.846v-6.928h2.846zm0 0M345.81 56.23h-2.841v-6.928h2.842zm0 0M290.84 56.02h-3.174v-6.928h3.174zm0 0M318.491 56.02h-3.174v-6.928h3.174zm0 0M106.23 52.187h-62.5v-15h62.5zm0 0" fill="#303d7a"/><path d="M98.467 52.539c0 6.382-5.176 11.558-11.558 11.558S75.352 58.92 75.352 52.539 80.527 40.98 86.909 40.98c6.382 0 11.558 5.176 11.558 11.558" fill="#303d7a"/><path d="M86.91 41.665c-5.997 0-10.88 4.873-10.88 10.874 0 5.996 4.883 10.874 10.88 10.874 5.995 0 10.873-4.878 10.873-10.874 0-6.001-4.878-10.874-10.874-10.874m0 23.11c-6.748 0-12.241-5.488-12.241-12.236s5.493-12.236 12.241-12.236c6.748 0 12.236 5.488 12.236 12.236S93.657 64.775 86.91 64.775" fill="#fff"/><path d="M94.414 52.539c0 4.145-3.36 7.51-7.505 7.51a7.512 7.512 0 0 1-7.51-7.51 7.512 7.512 0 0 1 7.51-7.51 7.508 7.508 0 0 1 7.505 7.51" fill="#fff"/><path d="M89.102 52.539a2.192 2.192 0 1 1-4.385 0 2.192 2.192 0 0 1 4.385 0" fill="#303d7a"/><path d="M86.91 55.41a2.874 2.874 0 0 1-2.877-2.871 2.881 2.881 0 0 1 2.876-2.876 2.873 2.873 0 1 1 0 5.747M70.815 51.909c0 6.382-5.175 11.558-11.557 11.558-6.382 0-11.558-5.176-11.558-11.558s5.176-11.553 11.558-11.553 11.557 5.171 11.557 11.553" fill="#303d7a"/><path d="M59.258 41.035c-5.996 0-10.874 4.878-10.874 10.874s4.878 10.879 10.874 10.879 10.879-4.883 10.879-10.879c0-5.996-4.883-10.874-10.88-10.874m0 23.11c-6.747 0-12.236-5.488-12.236-12.236s5.489-12.236 12.237-12.236 12.241 5.488 12.241 12.236-5.493 12.236-12.241 12.236" fill="#fff"/><path d="M66.768 51.909a7.512 7.512 0 0 1-7.51 7.51 7.512 7.512 0 0 1-7.51-7.51 7.508 7.508 0 0 1 7.51-7.505c4.145 0 7.51 3.36 7.51 7.505" fill="#fff"/><path d="M61.45 51.909a2.19 2.19 0 0 1-2.192 2.192 2.192 2.192 0 1 1 2.192-2.192" fill="#303d7a"/><path d="M59.258 54.785a2.877 2.877 0 0 1 0-5.752 2.881 2.881 0 0 1 2.876 2.876 2.878 2.878 0 0 1-2.876 2.876M47.021 56.23h-2.846v-6.928h2.846zm0 0M74.673 56.02h-3.174v-6.928h3.174zm0 0M102.32 56.02h-3.175v-6.928h3.174zm0 0" fill="#303d7a"/><path d="M51.484 16.83h-1.25V6.837h1.25zm0 0M356.91 37.187h-1.25V7.08h1.25zm0 0" fill="#f5ae23"/><path d="M356.284 11.147l-304.824-.42.005-1.25 304.82.42zm0 0" fill="#f5ae23"/><path d="M58.584 11.616l-8.13-1.455 8.154-2.192zm0 0M348.154 11.929l8.13-1.456-8.154-2.192zm0 0M162.74 1.245c-.294.41-.553.854-.787 1.328-.23.469-.43.962-.6 1.46a12.59 12.59 0 0 0-.43 1.523c-.117.518-.2 1.026-.264 1.529h-1.509c.054-.43.132-.88.24-1.348a12.446 12.446 0 0 1 1.069-2.905c.254-.493.557-.977.903-1.45h-2.983V.142h4.36zm0 0M164.82 6.821a4.6 4.6 0 0 1-.054.703c-.04.225-.108.42-.206.581a1.178 1.178 0 0 1-.405.4c-.17.108-.39.167-.654.196v-.698a.56.56 0 0 0 .39-.279c.088-.156.127-.327.127-.512v-.127h-.517V5.522h1.318zm0 0M167.251 2.661c.127.161.298.24.508.24a.617.617 0 0 0 .512-.24c.127-.156.19-.41.19-.752 0-.645-.233-.967-.702-.967-.464 0-.698.322-.698.967 0 .342.063.596.19.752m-.273 2.876c.019.151.063.278.126.39a.681.681 0 0 0 .254.26.783.783 0 0 0 .4.092c.162 0 .294-.03.401-.093a.681.681 0 0 0 .254-.258c.064-.113.107-.24.132-.391.024-.151.034-.308.034-.474 0-.175-.01-.337-.034-.478a1.125 1.125 0 0 0-.132-.386.694.694 0 0 0-.254-.264.822.822 0 0 0-.4-.092.835.835 0 0 0-.4.092.694.694 0 0 0-.255.264c-.063.107-.107.24-.126.386a2.954 2.954 0 0 0 0 .952M165.8 3.93c.2-.317.498-.517.898-.595V3.31a1.224 1.224 0 0 1-.483-.22 1.238 1.238 0 0 1-.318-.341 1.22 1.22 0 0 1-.166-.396 1.712 1.712 0 0 1-.053-.4c0-.693.185-1.191.556-1.5.371-.297.88-.448 1.524-.448.65 0 1.157.151 1.528.449.366.308.552.806.552 1.499 0 .127-.02.259-.054.4a1.24 1.24 0 0 1-.176.396 1.22 1.22 0 0 1-.312.342 1.202 1.202 0 0 1-.479.22v.024c.4.078.703.278.903.595.2.323.298.709.298 1.153 0 .205-.024.43-.073.679a1.67 1.67 0 0 1-.317.688c-.157.215-.386.39-.684.532-.298.137-.693.21-1.186.21s-.889-.073-1.182-.21c-.298-.141-.527-.317-.688-.532a1.723 1.723 0 0 1-.313-.688 3.57 3.57 0 0 1-.078-.68c0-.443.102-.83.303-1.152M173.418 4.78H170.6V3.603h2.817zm0 0M175.679 2.085h-1.411v-.943h.131c.479 0 .86-.087 1.138-.273.274-.176.45-.469.523-.864h1.06v7.08h-1.441zm0 0M180.405 5.957c.103.22.313.327.625.327.171 0 .313-.034.415-.093a.606.606 0 0 0 .24-.244c.058-.102.092-.224.112-.366.014-.137.024-.283.024-.44 0-.16-.014-.312-.034-.454a1.207 1.207 0 0 0-.137-.385.773.773 0 0 0-.278-.269.987.987 0 0 0-.483-.102h-.479v-.938h.469a.729.729 0 0 0 .386-.097.716.716 0 0 0 .249-.25c.063-.102.112-.22.141-.356.03-.132.044-.269.044-.42 0-.337-.053-.576-.17-.718-.113-.141-.289-.21-.518-.21a.766.766 0 0 0-.376.083.574.574 0 0 0-.225.245 1.119 1.119 0 0 0-.107.36 4.432 4.432 0 0 0-.025.46h-1.318c0-.703.176-1.23.527-1.572.357-.342.874-.518 1.553-.518.645 0 1.148.151 1.504.444.356.288.537.752.537 1.377 0 .425-.097.777-.288 1.045-.19.274-.454.445-.791.513v.024c.459.074.781.26.972.552.19.298.288.669.288 1.118 0 .24-.034.489-.093.738a1.643 1.643 0 0 1-.351.693c-.171.205-.41.371-.713.498s-.703.19-1.197.19c-.683 0-1.196-.185-1.538-.561-.342-.371-.512-.903-.512-1.587v-.03h1.381c.005.41.064.728.166.943M185.317 6.821c0 .244-.014.484-.053.703a1.49 1.49 0 0 1-.206.581 1.137 1.137 0 0 1-.405.4c-.17.108-.386.167-.654.196v-.698a.55.55 0 0 0 .39-.279c.088-.156.132-.327.132-.512v-.127H184V5.522h1.318zm0 0M187.68 2.085h-1.41v-.943h.131c.479 0 .855-.087 1.133-.273.278-.176.45-.469.528-.864h1.06v7.08h-1.441zm0 0M193.92 4.78H191.1V3.603h2.822zm0 0M196.182 2.085h-1.412v-.943h.127c.484 0 .86-.087 1.138-.273.274-.176.45-.469.523-.864h1.06v7.08h-1.436zm0 0M200.918 3.374c.122.205.322.307.6.307.289 0 .489-.102.61-.307.123-.21.182-.552.182-1.03 0-.2-.01-.386-.03-.562a1.407 1.407 0 0 0-.117-.444.669.669 0 0 0-.239-.288.686.686 0 0 0-.405-.108c-.171 0-.313.034-.415.108a.642.642 0 0 0-.235.293 1.45 1.45 0 0 0-.102.444c-.02.17-.03.356-.03.557 0 .478.064.82.181 1.03m.078 2.68c.093.152.264.23.503.23.196 0 .347-.044.46-.137a.955.955 0 0 0 .268-.376c.058-.156.102-.346.122-.566.02-.225.03-.464.03-.723V4.14h-.02c-.117.181-.293.328-.513.44a1.883 1.883 0 0 1-.815.161c-.313 0-.582-.054-.801-.161-.22-.112-.4-.264-.537-.464a2.014 2.014 0 0 1-.298-.698 3.888 3.888 0 0 1-.098-.884c0-.82.186-1.45.547-1.88.366-.434.947-.65 1.743-.65.498 0 .889.089 1.182.274.293.18.517.425.674.728.156.307.258.659.307 1.054.044.4.069.816.069 1.25 0 .508-.015.996-.044 1.465a3.9 3.9 0 0 1-.269 1.245c-.151.362-.39.65-.713.86-.322.21-.771.312-1.352.312a3.66 3.66 0 0 1-.737-.073 1.623 1.623 0 0 1-.625-.283 1.481 1.481 0 0 1-.435-.547 2.2 2.2 0 0 1-.176-.86h1.382c0 .269.049.479.146.625M206.816 1.704h1.973l.84 3.599.84-3.6h1.967v5.382h-1.289V3.262l-.947 3.823h-1.142l-.948-3.823v3.823h-1.294zm0 0M214.756 7.08h-1.319V5.522h1.319zm0 0" fill="#f5ae23"/></svg>