<svg xmlns="http://www.w3.org/2000/svg" viewBox="0 0 285.98434 51.820238" height="69.094" width="381.312"><path d="M285.984 41.75h-86v-12h86zM41.121 19.023H0V13.48h41.121zm0 0" fill="#303d7a"/><path d="M212.793 41.539H95.403v-5.543h117.39zM6.727 21.793H4.453V16.25h2.274zm28.851 3.808h5.543v2.274h-5.543zm0 3.391h5.543v2.277h-5.543zm0-6.707h5.543v2.274h-5.543zm0-3.387h5.543v2.274h-5.543zm54.566 17.098h2.274v5.543h-2.274zm0 0" fill="#303d7a"/><path d="M93.539 35.996h2.273v5.543H93.54zm-6.711 0h2.277v5.543h-2.277zm-3.387 0h2.278v5.543H83.44zm190.391 5.531c0 5.106-4.14 9.246-9.25 9.246-5.105 0-9.242-4.14-9.242-9.246a9.24 9.24 0 0 1 9.242-9.242c5.11 0 9.25 4.137 9.25 9.242" fill="#303d7a"/><path d="M264.582 32.828c-4.797 0-8.7 3.902-8.7 8.7 0 4.796 3.903 8.702 8.7 8.702 4.8 0 8.703-3.906 8.703-8.703 0-4.797-3.902-8.699-8.703-8.699m0 18.488c-5.398 0-9.79-4.39-9.79-9.789 0-5.398 4.392-9.789 9.79-9.789 5.398 0 9.793 4.39 9.793 9.79 0 5.398-4.395 9.788-9.793 9.788" fill="#fff"/><path d="M270.59 41.527a6.007 6.007 0 1 1-12.013.003 6.007 6.007 0 0 1 12.013-.003" fill="#fff"/><path d="M266.34 41.527c0 .973-.79 1.754-1.754 1.754a1.755 1.755 0 1 1 1.754-1.754" fill="#303d7a"/><path d="M264.582 43.828a2.301 2.301 0 0 1 0-4.602 2.301 2.301 0 0 1 0 4.602m-12.872-1.797a9.247 9.247 0 0 1-9.245 9.246 9.247 9.247 0 0 1-9.246-9.246 9.247 9.247 0 0 1 9.246-9.246 9.247 9.247 0 0 1 9.246 9.246" fill="#303d7a"/><path d="M242.465 33.332c-4.797 0-8.703 3.898-8.703 8.7 0 4.796 3.906 8.698 8.703 8.698 4.797 0 8.699-3.902 8.699-8.699 0-4.8-3.902-8.699-8.7-8.699m0 18.488c-5.398 0-9.792-4.39-9.792-9.789 0-5.398 4.394-9.789 9.793-9.789 5.398 0 9.789 4.39 9.789 9.79 0 5.398-4.39 9.788-9.79 9.788" fill="#fff"/><path d="M248.473 42.031a6.01 6.01 0 0 1-6.008 6.008 6.01 6.01 0 0 1-6.008-6.008 6.01 6.01 0 0 1 6.008-6.008 6.01 6.01 0 0 1 6.008 6.008" fill="#fff"/><path d="M244.219 42.031a1.754 1.754 0 1 1-3.508 0 1.754 1.754 0 0 1 3.508 0" fill="#303d7a"/><path d="M242.465 44.328a2.299 2.299 0 1 1-.001-4.597 2.301 2.301 0 0 1 2.298 2.3 2.296 2.296 0 0 1-2.297 2.297m-12.875-2.801a9.245 9.245 0 0 1-9.246 9.246 9.247 9.247 0 0 1-9.246-9.246c0-5.105 4.14-9.242 9.246-9.242a9.242 9.242 0 0 1 9.246 9.242" fill="#303d7a"/><path d="M220.344 32.828c-4.797 0-8.7 3.902-8.7 8.7 0 4.796 3.903 8.702 8.7 8.702 4.797 0 8.703-3.906 8.703-8.703 0-4.797-3.906-8.699-8.703-8.699m0 18.488c-5.399 0-9.79-4.39-9.79-9.789 0-5.398 4.391-9.789 9.79-9.789 5.398 0 9.793 4.39 9.793 9.79 0 5.398-4.395 9.788-9.793 9.788" fill="#fff"/><path d="M226.352 41.527a6.007 6.007 0 1 1-12.01.003 6.007 6.007 0 0 1 12.01-.003" fill="#fff"/><path d="M222.098 41.527c0 .973-.786 1.754-1.754 1.754a1.754 1.754 0 1 1 1.754-1.754" fill="#303d7a"/><path d="M220.344 43.828a2.305 2.305 0 0 1-2.301-2.3 2.308 2.308 0 0 1 2.3-2.302 2.301 2.301 0 0 1 .001 4.602m-9.789 1.156h-2.278v-5.543h2.278zm66.093 0h-2.273v-5.543h2.273zm-43.976-.168h-2.54v-5.543h2.54zm22.121 0h-2.54v-5.543h2.54zM84.984 41.75h-50v-12h50zm0 0" fill="#303d7a"/><path d="M78.773 42.031a9.247 9.247 0 0 1-9.246 9.246 9.247 9.247 0 0 1-9.246-9.246 9.247 9.247 0 0 1 9.246-9.246 9.247 9.247 0 0 1 9.246 9.246" fill="#303d7a"/><path d="M69.527 33.332c-4.797 0-8.703 3.898-8.703 8.7 0 4.796 3.906 8.698 8.703 8.698 4.797 0 8.7-3.902 8.7-8.699 0-4.8-3.903-8.699-8.7-8.699m0 18.488c-5.398 0-9.793-4.39-9.793-9.789 0-5.398 4.395-9.789 9.793-9.789 5.399 0 9.79 4.39 9.79 9.79 0 5.398-4.391 9.788-9.79 9.788" fill="#fff"/><path d="M75.531 42.031a6.007 6.007 0 1 1-12.012 0 6.007 6.007 0 0 1 12.012 0" fill="#fff"/><path d="M71.281 42.031a1.754 1.754 0 1 1-3.507 0 1.754 1.754 0 0 1 3.507 0" fill="#303d7a"/><path d="M69.527 44.328a2.298 2.298 0 1 1 0-4.597 2.298 2.298 0 1 1 0 4.598m-12.875-2.802a9.247 9.247 0 0 1-9.246 9.246 9.247 9.247 0 0 1-9.246-9.246c0-5.105 4.14-9.242 9.246-9.242 5.106 0 9.246 4.137 9.246 9.242" fill="#303d7a"/><path d="M47.406 32.828c-4.797 0-8.699 3.902-8.699 8.7 0 4.796 3.902 8.702 8.7 8.702 4.796 0 8.702-3.906 8.702-8.703 0-4.797-3.906-8.699-8.703-8.699m0 18.488c-5.398 0-9.789-4.39-9.789-9.789 0-5.398 4.39-9.789 9.79-9.789 5.398 0 9.792 4.39 9.792 9.79 0 5.398-4.394 9.788-9.793 9.788" fill="#fff"/><path d="M53.414 41.527a6.01 6.01 0 0 1-6.008 6.008 6.007 6.007 0 0 1 0-12.012 6.007 6.007 0 0 1 6.008 6.004" fill="#fff"/><path d="M49.16 41.527c0 .973-.785 1.754-1.754 1.754a1.754 1.754 0 1 1 1.754-1.754" fill="#303d7a"/><path d="M47.406 43.828a2.301 2.301 0 0 1 0-4.602 2.305 2.305 0 0 1 2.301 2.301 2.302 2.302 0 0 1-2.3 2.301m-9.79 1.156H35.34v-5.543h2.277zm22.121-.168H57.2v-5.543h2.54zm22.117 0h-2.539v-5.543h2.54zm0 0" fill="#303d7a"/><path d="M41.187 13.465h-1V5.469h1zm244.34 16.285h-1V5.664h1zm0 0" fill="#f5ae23"/><path d="M285.027 8.918l-243.86-.336.005-1 243.855.336zm0 0" fill="#f5ae23"/><path d="M46.867 9.293l-6.504-1.164 6.524-1.754zm231.656.25l6.504-1.164-6.523-1.754zM130.191.996a7.687 7.687 0 0 0-.629 1.063c-.183.375-.343.769-.48 1.167-.14.399-.254.805-.344 1.22-.093.413-.16.82-.21 1.222h-1.208c.043-.344.106-.703.192-1.078a9.955 9.955 0 0 1 .855-2.324 8.75 8.75 0 0 1 .723-1.16h-2.387V.112h3.488zm1.664 4.461a3.6 3.6 0 0 1-.043.562c-.03.18-.085.336-.164.465a.942.942 0 0 1-.324.32c-.137.087-.312.133-.523.157v-.559a.449.449 0 0 0 .312-.222.82.82 0 0 0 .102-.41v-.102h-.414v-1.25h1.054zm1.945-3.328a.491.491 0 0 0 .407.191.493.493 0 0 0 .41-.191c.102-.125.152-.328.152-.602 0-.515-.187-.773-.562-.773-.371 0-.559.258-.559.773 0 .274.051.477.153.602m-.219 2.3c.016.122.05.223.102.313.05.09.117.156.203.207.086.05.195.074.32.074a.617.617 0 0 0 .32-.074.545.545 0 0 0 .203-.207.922.922 0 0 0 .106-.312 2.32 2.32 0 0 0 .027-.38c0-.14-.008-.269-.027-.382a.899.899 0 0 0-.106-.309.555.555 0 0 0-.203-.21.658.658 0 0 0-.32-.075.669.669 0 0 0-.32.074.555.555 0 0 0-.203.211.822.822 0 0 0-.102.309 2.269 2.269 0 0 0 0 .762m-.941-1.286c.16-.253.398-.414.718-.476v-.02a.98.98 0 0 1-.386-.175.991.991 0 0 1-.254-.274.976.976 0 0 1-.133-.316 1.369 1.369 0 0 1-.043-.32c0-.555.148-.954.445-1.2.297-.238.703-.36 1.219-.36.52 0 .926.122 1.223.36.293.246.441.645.441 1.2 0 .101-.016.206-.043.32a.994.994 0 0 1-.14.316.976.976 0 0 1-.25.274.962.962 0 0 1-.383.175v.02c.32.062.562.223.722.476.16.258.239.567.239.922 0 .164-.02.344-.06.543-.038.2-.124.38-.253.551a1.4 1.4 0 0 1-.547.426c-.238.11-.554.168-.949.168-.394 0-.71-.059-.945-.168a1.444 1.444 0 0 1-.551-.426 1.378 1.378 0 0 1-.25-.55c-.04-.2-.063-.38-.063-.544 0-.355.082-.664.243-.922m6.093.68h-2.254v-.941h2.254zm1.809-2.156h-1.129V.914h.105c.383 0 .688-.07.91-.219.22-.14.36-.375.419-.691h.847v5.664h-1.152zm3.781 3.098c.082.175.25.261.5.261.137 0 .25-.027.332-.074a.485.485 0 0 0 .192-.195.806.806 0 0 0 .09-.293 2.646 2.646 0 0 0-.008-.715.964.964 0 0 0-.11-.309.618.618 0 0 0-.222-.214.79.79 0 0 0-.387-.082h-.383v-.75h.375a.583.583 0 0 0 .309-.079.573.573 0 0 0 .199-.199.89.89 0 0 0 .113-.285 1.53 1.53 0 0 0 .035-.336c0-.27-.043-.46-.136-.574-.09-.113-.23-.168-.414-.168a.612.612 0 0 0-.301.066.459.459 0 0 0-.18.196.894.894 0 0 0-.086.289 3.54 3.54 0 0 0-.02.367h-1.054c0-.563.14-.985.422-1.258.285-.273.7-.414 1.242-.414.516 0 .918.121 1.203.355.285.23.43.602.43 1.102 0 .34-.078.621-.23.836a.979.979 0 0 1-.633.41v.02c.367.058.625.207.777.441.152.238.23.535.23.895 0 .191-.027.39-.074.59-.047.203-.14.386-.281.554a1.462 1.462 0 0 1-.57.399c-.243.101-.563.152-.957.152-.547 0-.957-.149-1.23-.45-.274-.296-.411-.722-.411-1.269v-.023h1.105c.004.328.051.582.133.754m3.93.691c0 .195-.012.387-.043.562-.027.18-.082.336-.164.465a.91.91 0 0 1-.324.32c-.137.087-.309.133-.524.157v-.559a.44.44 0 0 0 .313-.222.823.823 0 0 0 .105-.41v-.102h-.418v-1.25h1.055zm1.89-3.789h-1.128V.914h.105c.383 0 .684-.07.906-.219.223-.14.36-.375.422-.691h.848v5.664h-1.153zm4.993 2.156h-2.258v-.941h2.258zm1.808-2.156h-1.129V.914h.102c.387 0 .687-.07.91-.219.219-.14.36-.375.418-.691h.848v5.664h-1.149zm3.789 1.032c.098.163.258.245.48.245.231 0 .391-.082.49-.246.097-.168.144-.441.144-.824 0-.16-.008-.309-.024-.45a1.126 1.126 0 0 0-.093-.355.535.535 0 0 0-.192-.23.548.548 0 0 0-.324-.086.566.566 0 0 0-.332.086.513.513 0 0 0-.188.234c-.043.102-.07.219-.082.356a3.94 3.94 0 0 0-.023.445c0 .383.05.656.145.824m.062 2.145c.074.12.211.183.402.183a.556.556 0 0 0 .368-.11.764.764 0 0 0 .214-.3c.047-.125.082-.277.098-.453a6.68 6.68 0 0 0 .023-.578v-.274h-.015a1.041 1.041 0 0 1-.41.352c-.18.086-.399.129-.653.129a1.45 1.45 0 0 1-.64-.129 1.13 1.13 0 0 1-.43-.371 1.61 1.61 0 0 1-.238-.559 3.11 3.11 0 0 1-.078-.707c0-.656.148-1.16.437-1.504.293-.347.758-.52 1.395-.52.398 0 .71.071.945.22.234.144.414.34.54.582.124.246.206.527.245.843.035.32.055.653.055 1 0 .407-.012.797-.035 1.172a3.12 3.12 0 0 1-.215.996c-.121.29-.313.52-.57.688-.258.168-.618.25-1.082.25a2.93 2.93 0 0 1-.59-.059 1.299 1.299 0 0 1-.5-.226 1.185 1.185 0 0 1-.348-.438 1.76 1.76 0 0 1-.14-.687h1.105c0 .215.039.382.117.5m4.656-3.481h1.578l.672 2.88.672-2.88h1.574v4.305h-1.031V2.609l-.758 3.059h-.914l-.758-3.059v3.059h-1.035zm6.352 4.301h-1.055V4.418h1.055zm0 0" fill="#f5ae23"/></svg>