<svg xmlns="http://www.w3.org/2000/svg" viewBox="0 0 309.98 57.02"><title>9657</title><g id="d274d237-ea7f-438c-ad2c-4345022ff056" data-name="Слой 2"><g id="0c601b98-f13f-4dd4-b68b-1d9a5b382bd6" data-name="Слой 1"><path d="M155.49,3.82h-2.26V2.88h2.26Z" fill="#f6ad15"/><rect x="199.98" y="34.95" width="110" height="12" fill="#253678"/><rect y="18.67" width="41.12" height="5.54" fill="#253678"/><polygon points="198.46 41.4 198.46 46.95 95.4 46.73 95.4 41.19 198.46 41.4" fill="#253678"/><rect x="4.45" y="21.45" width="2.27" height="5.54" fill="#253678"/><rect x="35.58" y="30.8" width="5.54" height="2.27" fill="#253678"/><rect x="35.58" y="34.19" width="5.54" height="2.28" fill="#253678"/><rect x="35.58" y="27.48" width="5.54" height="2.27" fill="#253678"/><rect x="35.58" y="24.09" width="5.54" height="2.28" fill="#253678"/><rect x="90.14" y="41.19" width="2.27" height="5.54" fill="#253678"/><rect x="93.54" y="41.19" width="2.28" height="5.54" fill="#253678"/><rect x="86.83" y="41.19" width="2.27" height="5.54" fill="#253678"/><rect x="198.45" y="41.4" width="2.27" height="5.54" fill="#253678"/><rect x="83.44" y="41.19" width="2.27" height="5.54" fill="#253678"/><circle cx="264.58" cy="46.72" r="9.25" fill="#253678"/><path d="M264.58,56.51a9.79,9.79,0,1,1,9.79-9.79A9.8,9.8,0,0,1,264.58,56.51Zm0-18.49a8.7,8.7,0,1,0,8.7,8.7A8.71,8.71,0,0,0,264.58,38Z" fill="#fff"/><circle cx="264.58" cy="46.72" r="6.01" fill="#fff"/><circle cx="264.58" cy="46.72" r="1.75" fill="#253678"/><path d="M264.58,49a2.3,2.3,0,1,1,2.3-2.3A2.3,2.3,0,0,1,264.58,49Z" fill="#253678"/><circle cx="286.58" cy="45.72" r="9.25" fill="#253678"/><path d="M286.58,55.51a9.79,9.79,0,1,1,9.79-9.79A9.8,9.8,0,0,1,286.58,55.51Zm0-18.49a8.7,8.7,0,1,0,8.7,8.7A8.71,8.71,0,0,0,286.58,37Z" fill="#fff"/><circle cx="286.58" cy="45.72" r="6.01" fill="#fff"/><path d="M286.58,48a2.3,2.3,0,1,1,2.3-2.3A2.3,2.3,0,0,1,286.58,48Z" fill="#253678"/><circle cx="242.46" cy="47.23" r="9.25" fill="#253678"/><path d="M242.46,57a9.79,9.79,0,1,1,9.79-9.79A9.8,9.8,0,0,1,242.46,57Zm0-18.49a8.7,8.7,0,1,0,8.7,8.7A8.71,8.71,0,0,0,242.46,38.53Z" fill="#fff"/><circle cx="242.46" cy="47.23" r="6.01" fill="#fff"/><circle cx="242.46" cy="47.23" r="1.75" fill="#253678"/><path d="M242.46,49.52a2.3,2.3,0,1,1,2.3-2.3A2.3,2.3,0,0,1,242.46,49.52Z" fill="#253678"/><circle cx="220.34" cy="46.72" r="9.25" fill="#253678"/><path d="M220.34,56.51a9.79,9.79,0,1,1,9.79-9.79A9.8,9.8,0,0,1,220.34,56.51Zm0-18.49a8.7,8.7,0,1,0,8.7,8.7A8.71,8.71,0,0,0,220.34,38Z" fill="#fff"/><circle cx="220.34" cy="46.72" r="6.01" fill="#fff"/><circle cx="220.34" cy="46.72" r="1.75" fill="#253678"/><path d="M220.34,49a2.3,2.3,0,1,1,2.3-2.3A2.3,2.3,0,0,1,220.34,49Z" fill="#253678"/><rect x="208.28" y="44.63" width="2.27" height="5.54" fill="#253678"/><rect x="274.37" y="44.63" width="2.27" height="5.54" fill="#253678"/><rect x="296.37" y="43.95" width="2.27" height="5.54" fill="#253678"/><rect x="230.13" y="44.47" width="2.54" height="5.54" fill="#253678"/><rect x="252.25" y="44.47" width="2.54" height="5.54" fill="#253678"/><rect x="34.98" y="34.95" width="50" height="12" fill="#253678"/><circle cx="69.53" cy="47.23" r="9.25" fill="#253678"/><path d="M69.53,57a9.79,9.79,0,1,1,9.79-9.79A9.8,9.8,0,0,1,69.53,57Zm0-18.49a8.7,8.7,0,1,0,8.7,8.7A8.71,8.71,0,0,0,69.53,38.53Z" fill="#fff"/><circle cx="69.53" cy="47.23" r="6.01" fill="#fff"/><circle cx="69.53" cy="47.23" r="1.75" fill="#253678"/><path d="M69.53,49.52a2.3,2.3,0,1,1,2.3-2.3A2.3,2.3,0,0,1,69.53,49.52Z" fill="#253678"/><circle cx="47.41" cy="46.72" r="9.25" fill="#253678"/><path d="M47.41,56.51a9.79,9.79,0,1,1,9.79-9.79A9.8,9.8,0,0,1,47.41,56.51Zm0-18.49a8.7,8.7,0,1,0,8.7,8.7A8.71,8.71,0,0,0,47.41,38Z" fill="#fff"/><circle cx="47.41" cy="46.72" r="6.01" fill="#fff"/><circle cx="47.41" cy="46.72" r="1.75" fill="#253678"/><path d="M47.41,49a2.3,2.3,0,1,1,2.3-2.3A2.3,2.3,0,0,1,47.41,49Z" fill="#253678"/><rect x="35.34" y="44.63" width="2.27" height="5.54" fill="#253678"/><rect x="57.2" y="44.47" width="2.54" height="5.54" fill="#253678"/><rect x="79.32" y="44.47" width="2.54" height="5.54" fill="#253678"/><path d="M137.05,1.66h-1.13V.91h.1a1.65,1.65,0,0,0,.91-.22,1,1,0,0,0,.42-.7h.85V5.66h-1.15Z" fill="#f6ad15"/><path d="M139.79,3.14a1.05,1.05,0,0,1,.72-.48v0a1,1,0,0,1-.39-.18,1,1,0,0,1-.39-.59,1.37,1.37,0,0,1,0-.32,1.46,1.46,0,0,1,.44-1.2,2.23,2.23,0,0,1,2.44,0,1.46,1.46,0,0,1,.44,1.2,1.26,1.26,0,0,1,0,.32,1.14,1.14,0,0,1-.14.32,1.07,1.07,0,0,1-.25.27,1,1,0,0,1-.38.18v0a1.05,1.05,0,0,1,.72.48,1.7,1.7,0,0,1,.24.92,2.74,2.74,0,0,1-.06.54,1.36,1.36,0,0,1-.25.55,1.42,1.42,0,0,1-.55.42,2.76,2.76,0,0,1-1.9,0,1.42,1.42,0,0,1-.55-.42,1.36,1.36,0,0,1-.25-.55,2.74,2.74,0,0,1-.06-.54A1.7,1.7,0,0,1,139.79,3.14Zm.94,1.28a.89.89,0,0,0,.1.31.57.57,0,0,0,.2.21.72.72,0,0,0,.64,0,.57.57,0,0,0,.2-.21.89.89,0,0,0,.1-.31,2.58,2.58,0,0,0,0-.76.89.89,0,0,0-.1-.31.57.57,0,0,0-.2-.21.71.71,0,0,0-.64,0,.56.56,0,0,0-.2.21.89.89,0,0,0-.1.31,2.63,2.63,0,0,0,0,.76Zm.22-2.3a.53.53,0,0,0,.82,0,1,1,0,0,0,.15-.6q0-.77-.56-.78t-.56.78A1,1,0,0,0,141,2.13Z" fill="#f6ad15"/><path d="M144.77,5.46a3.47,3.47,0,0,1,0,.56,1.27,1.27,0,0,1-.16.46,1,1,0,0,1-.32.32,1.25,1.25,0,0,1-.52.16V6.4a.44.44,0,0,0,.31-.22.81.81,0,0,0,.1-.41v-.1h-.42V4.42h1.06Z" fill="#f6ad15"/><path d="M146.65,1.66h-1.13V.91h.1a1.65,1.65,0,0,0,.91-.22A1,1,0,0,0,147,0h.85V5.66h-1.15Z" fill="#f6ad15"/><path d="M152.7,1a7.45,7.45,0,0,0-.63,1.06,10.56,10.56,0,0,0-.48,1.17,10.82,10.82,0,0,0-.34,1.22q-.14.62-.21,1.22h-1.21q.06-.51.19-1.08a9.63,9.63,0,0,1,.34-1.15,10.19,10.19,0,0,1,.52-1.18,8.68,8.68,0,0,1,.72-1.16h-2.38v-1h3.49Z" fill="#f6ad15"/><path d="M156,5.66a3.11,3.11,0,0,1,.08-.7,2.57,2.57,0,0,1,.23-.62,3.36,3.36,0,0,1,.39-.58,6,6,0,0,1,.55-.57l.46-.43a2.49,2.49,0,0,0,.31-.31,1.32,1.32,0,0,0,.18-.29,1.09,1.09,0,0,0,.08-.31,3.3,3.3,0,0,0,0-.38q0-.7-.56-.7a.58.58,0,0,0-.34.09.57.57,0,0,0-.19.24,1.13,1.13,0,0,0-.09.35,4.2,4.2,0,0,0,0,.42H156V1.64a1.65,1.65,0,0,1,.42-1.22A1.83,1.83,0,0,1,157.74,0,1.78,1.78,0,0,1,159,.4a1.51,1.51,0,0,1,.42,1.14,2.54,2.54,0,0,1,0,.51,1.92,1.92,0,0,1-.15.45,2.05,2.05,0,0,1-.27.42,3.85,3.85,0,0,1-.41.42l-.64.59a2.38,2.38,0,0,0-.4.45,1.3,1.3,0,0,0-.18.38h2.14v.9Z" fill="#f6ad15"/><path d="M161.07,4.76a.5.5,0,0,0,.5.26.66.66,0,0,0,.33-.07.5.5,0,0,0,.19-.2.78.78,0,0,0,.09-.29,2.91,2.91,0,0,0,0-.35,2.28,2.28,0,0,0,0-.36.89.89,0,0,0-.11-.31.58.58,0,0,0-.22-.21.79.79,0,0,0-.38-.08h-.38V2.39h.38a.58.58,0,0,0,.31-.08.6.6,0,0,0,.2-.2.93.93,0,0,0,.11-.28,1.53,1.53,0,0,0,0-.34A.93.93,0,0,0,162,.92a.51.51,0,0,0-.42-.17.59.59,0,0,0-.3.07.46.46,0,0,0-.18.19.85.85,0,0,0-.08.29,3.16,3.16,0,0,0,0,.37h-1.06a1.69,1.69,0,0,1,.42-1.26A1.71,1.71,0,0,1,161.58,0a1.85,1.85,0,0,1,1.2.35,1.35,1.35,0,0,1,.43,1.1,1.42,1.42,0,0,1-.23.84,1,1,0,0,1-.64.41v0a1.07,1.07,0,0,1,.78.44,1.63,1.63,0,0,1,.23.89,2.58,2.58,0,0,1-.07.59,1.32,1.32,0,0,1-.28.55,1.46,1.46,0,0,1-.57.4,2.51,2.51,0,0,1-1,.15,1.58,1.58,0,0,1-1.23-.45A1.82,1.82,0,0,1,159.84,4V4h1.1A1.88,1.88,0,0,0,161.07,4.76Z" fill="#f6ad15"/><path d="M165,5.46A3.47,3.47,0,0,1,165,6a1.27,1.27,0,0,1-.16.46,1,1,0,0,1-.32.32A1.25,1.25,0,0,1,164,7V6.4a.44.44,0,0,0,.31-.22.81.81,0,0,0,.1-.41v-.1H164V4.42H165Z" fill="#f6ad15"/><path d="M167.43,0h1.19V3.59h.54v.9h-.54V5.66h-1.06V4.49h-2V3.54Zm.12,1.44-1.1,2.15h1.12V1.44Z" fill="#f6ad15"/><path d="M172.94,1a7.43,7.43,0,0,0-.63,1.06,10.56,10.56,0,0,0-.48,1.17,10.82,10.82,0,0,0-.34,1.22q-.14.62-.21,1.22h-1.21q.06-.51.19-1.08a9.65,9.65,0,0,1,.34-1.15,10.19,10.19,0,0,1,.52-1.18,8.66,8.66,0,0,1,.72-1.16h-2.38v-1h3.49Z" fill="#f6ad15"/><path d="M175.41,1.36H177l.67,2.88.67-2.88h1.58v4.3h-1V2.61l-.76,3.06h-.91l-.76-3.06V5.66h-1Z" fill="#f6ad15"/><path d="M181.76,5.66H180.7V4.42h1.06Z" fill="#f6ad15"/><rect x="40.19" y="5.66" width="1" height="7.99" fill="#f6ad15"/><rect x="308.53" y="5.86" width="1" height="24.08" fill="#f6ad15"/><rect x="174.6" y="-125.49" width="1" height="267.86" transform="translate(166.44 183.53) rotate(-89.93)" fill="#f6ad15"/><polygon points="46.87 9.49 40.36 8.32 46.88 6.57 46.87 9.49" fill="#f6ad15"/><polygon points="302.52 9.74 309.03 8.57 302.5 6.82 302.52 9.74" fill="#f6ad15"/></g></g></svg>