<svg xmlns="http://www.w3.org/2000/svg" viewBox="0 0 257.71 48.24"><defs><style>.cls-1{fill:#fff}.cls-2{fill:#253678}.cls-3{fill:#f6ad15}</style></defs><title>Ресурс 21</title><g id="Слой_2" data-name="Слой 2"><g id="Слой_1-2" data-name="Слой 1"><path class="cls-1" d="M244.22 29a1 1 0 0 1 1.11 1 1 1 0 0 1-1.11 1h-2.15a1 1 0 0 1-1.07-1 1 1 0 0 1 1.11-1z"/><path class="cls-2" d="M40.77 13.53H0v5.54h4.45v2.77h2.28v-2.77h28.91v11.88h5.42V13.53h-.29zM230.4 30.34a8.7 8.7 0 1 0 8.7 8.7 8.71 8.71 0 0 0-8.7-8.7zm0 14.71a6 6 0 1 1 6-6 6 6 0 0 1-6 5.95z"/><circle class="cls-2" cx="230.4" cy="39.04" r="1.75"/><path class="cls-2" d="M230.4 41.34a2.3 2.3 0 1 1 2.3-2.3 2.3 2.3 0 0 1-2.3 2.3zm-22.12-10.5a8.7 8.7 0 1 0 8.7 8.7 8.71 8.71 0 0 0-8.7-8.7zm0 14.71a6 6 0 1 1 6-6 6 6 0 0 1-6 6z"/><circle class="cls-2" cx="208.28" cy="39.54" r="1.75"/><path class="cls-2" d="M208.28 41.84a2.3 2.3 0 1 1 2.3-2.3 2.3 2.3 0 0 1-2.3 2.3zm-22.12-11.5a8.7 8.7 0 1 0 8.7 8.7 8.71 8.71 0 0 0-8.7-8.7zm0 14.71a6 6 0 1 1 6-6 6 6 0 0 1-6 5.95z"/><circle class="cls-2" cx="186.16" cy="39.04" r="1.75"/><path class="cls-2" d="M186.16 41.34a2.3 2.3 0 1 1 2.3-2.3 2.3 2.3 0 0 1-2.3 2.3z"/><path class="cls-2" d="M35.58 34.24h138.25v8.26h2.37V39a9.81 9.81 0 0 1 19.61 0v3.34h2.54V39A9.8 9.8 0 0 1 218 39v3.34h2.54V39a9.81 9.81 0 0 1 19.61 0v3.51h2.28V39h15.27l-11.05-10.6-211.07.13"/><path class="cls-3" d="M40.18 5.47h1v7.99h-1zm205.34.19h1v22.52h-1z"/><path class="cls-3" transform="rotate(-89.91 143.59 8.254)" d="M143.09-94.18h1v204.86h-1z"/><path class="cls-3" d="M46.86 9.29l-6.5-1.16 6.52-1.76-.02 2.92zm192.66.25l6.5-1.16-6.52-1.76.02 2.92zM114.19 1a7.46 7.46 0 0 0-.63 1.06 10.61 10.61 0 0 0-.48 1.17 10.78 10.78 0 0 0-.34 1.22q-.14.62-.21 1.22h-1.21q.06-.51.19-1.08a9.56 9.56 0 0 1 .34-1.15 10.15 10.15 0 0 1 .52-1.18 8.68 8.68 0 0 1 .72-1.16h-2.39v-1h3.49zm1.66 4.46a3.49 3.49 0 0 1 0 .56 1.27 1.27 0 0 1-.16.46 1 1 0 0 1-.32.32 1.25 1.25 0 0 1-.52.16V6.4a.44.44 0 0 0 .31-.22.82.82 0 0 0 .1-.41v-.1h-.42V4.42h1.06zm4.1-4.46a7.47 7.47 0 0 0-.63 1.06 10.63 10.63 0 0 0-.48 1.17 10.78 10.78 0 0 0-.34 1.22q-.14.62-.21 1.22h-1.21q.06-.51.19-1.08a9.58 9.58 0 0 1 .34-1.15 10.15 10.15 0 0 1 .52-1.18 8.68 8.68 0 0 1 .72-1.16h-2.38v-1h3.49zm2.78 2.82h-2.26v-.94h2.26zm1.81-2.16h-1.13V.91h.1a1.65 1.65 0 0 0 .91-.22 1 1 0 0 0 .42-.7h.85v5.67h-1.15zm3.78 3.1a.5.5 0 0 0 .5.26.66.66 0 0 0 .33-.07.5.5 0 0 0 .19-.2.79.79 0 0 0 .09-.29 2.89 2.89 0 0 0 0-.35 2.27 2.27 0 0 0 0-.36.88.88 0 0 0-.11-.31.58.58 0 0 0-.22-.22.79.79 0 0 0-.38-.08h-.38v-.75h.38a.58.58 0 0 0 .31-.08.6.6 0 0 0 .2-.2.94.94 0 0 0 .11-.28 1.53 1.53 0 0 0 0-.34.93.93 0 0 0-.14-.58.5.5 0 0 0-.42-.17.59.59 0 0 0-.3.07.46.46 0 0 0-.18.19.85.85 0 0 0-.08.29 3.15 3.15 0 0 0 0 .37h-1.06a1.69 1.69 0 0 1 .42-1.26 1.71 1.71 0 0 1 1.25-.4 1.85 1.85 0 0 1 1.2.35 1.35 1.35 0 0 1 .43 1.1 1.42 1.42 0 0 1-.23.84 1 1 0 0 1-.64.41 1.07 1.07 0 0 1 .78.44 1.63 1.63 0 0 1 .23.89 2.57 2.57 0 0 1-.07.59 1.32 1.32 0 0 1-.28.55 1.47 1.47 0 0 1-.57.4 2.52 2.52 0 0 1-1 .15 1.58 1.58 0 0 1-1.23-.45 1.82 1.82 0 0 1-.37-1.27h1.1a1.88 1.88 0 0 0 .14.76zm3.93.7a3.48 3.48 0 0 1 0 .56 1.27 1.27 0 0 1-.16.46 1 1 0 0 1-.32.32 1.25 1.25 0 0 1-.52.16V6.4a.44.44 0 0 0 .31-.22.82.82 0 0 0 .1-.41v-.1h-.42V4.42h1.06zM134.67 0h1.19v3.59h.54v.9h-.54v1.17h-1.06V4.49h-2v-.95zm.12 1.44l-1.1 2.15h1.12V1.44zm4.02-.08h1.58l.67 2.88.67-2.88h1.58v4.3h-1V2.61l-.76 3.06h-.91l-.76-3.06v3.05h-1zm6.35 4.3h-1.06V4.42h1.06z"/></g></g></svg>