<svg xmlns="http://www.w3.org/2000/svg" viewBox="0 0 322.13774 54.39773" height="58.024" width="343.614"><defs><clipPath id="a"><path d="M0 1190.55h841.89V0H0v1190.55z"/></clipPath></defs><path d="M305.276 30.323c.77 0 1.393.482 1.393 1.25s-.623 1.25-1.393 1.25h-2.685c-.77 0-1.393-.482-1.393-1.25s.623-1.25 1.393-1.25h2.685z" fill="#fff"/><path d="M50.96 17.25H0v6.928h5.564v3.466h2.844v-3.466H44.55v14.849h6.775V17.249h-.365zM287.998 50.4A7.509 7.509 0 1 1 288 35.385a7.509 7.509 0 0 1-.002 15.015m0-18.383c-5.998 0-10.876 4.88-10.876 10.876 0 5.997 4.878 10.876 10.876 10.876 5.996 0 10.876-4.879 10.876-10.876 0-5.996-4.879-10.876-10.876-10.876" fill="#313f7b"/><path d="M290.192 42.893a2.193 2.193 0 1 1-4.386-.001 2.193 2.193 0 0 1 4.386.001" fill="#313f7b"/><path d="M287.998 45.766a2.876 2.876 0 0 1-2.875-2.873 2.879 2.879 0 0 1 2.875-2.875 2.875 2.875 0 0 1 0 5.748M260.348 51.029a7.509 7.509 0 1 1 .002-15.015 7.509 7.509 0 0 1-.002 15.015m0-18.384c-5.998 0-10.875 4.879-10.875 10.876 0 5.998 4.877 10.877 10.875 10.877 5.996 0 10.876-4.879 10.876-10.877 0-5.997-4.879-10.876-10.876-10.876" fill="#313f7b"/><path d="M262.542 43.522a2.193 2.193 0 1 1-4.386-.001 2.193 2.193 0 0 1 4.386 0" fill="#313f7b"/><path d="M260.348 46.395a2.876 2.876 0 0 1-2.875-2.873 2.879 2.879 0 0 1 2.875-2.875 2.875 2.875 0 0 1 0 5.748M232.698 50.4a7.509 7.509 0 1 1 .002-15.015 7.509 7.509 0 0 1-.002 15.015m0-18.383c-5.997 0-10.876 4.88-10.876 10.876 0 5.997 4.879 10.876 10.876 10.876 5.996 0 10.876-4.879 10.876-10.876 0-5.996-4.878-10.876-10.876-10.876" fill="#313f7b"/><path d="M234.893 42.893a2.194 2.194 0 1 1-4.388-.003 2.194 2.194 0 0 1 4.388.003" fill="#313f7b"/><path d="M232.698 45.766a2.876 2.876 0 0 1-2.875-2.873 2.879 2.879 0 0 1 2.875-2.875 2.878 2.878 0 0 1 2.874 2.875 2.875 2.875 0 0 1-2.874 2.873" fill="#313f7b"/><path d="M44.595 47.21H220.27v-4.387h.004c.037-6.715 5.52-12.167 12.257-12.167 6.736 0 12.219 5.452 12.258 12.167h.002v4.179h3.181v-4.179h.035c.365-6.422 5.702-11.54 12.225-11.54 6.525 0 11.86 5.118 12.227 11.54h.035v4.179h3.179v-4.179h.003c.039-6.715 5.521-12.167 12.259-12.167 6.737 0 12.219 5.452 12.257 12.167h.004v4.388h2.849v-4.388h19.094l-13.816-13.247v-.062H44.478" fill="#313f7b"/><g clip-path="url(#a)" transform="matrix(1.25 0 0 -1.25 -136.284 1279.76)"><path d="M149.708 1018.067v-7.995M355.05 1017.87v-17.517M150.192 1015.454l204.859-.333" fill="none" stroke="#f6af26" stroke-miterlimit="10"/><path d="M155.888 1014.244l-6.504 1.165 6.523 1.754-.019-2.919zM348.546 1013.994l6.504 1.165-6.523 1.754.02-2.919z" fill="#f6af26"/></g><text style="-inkscape-font-specification:HelveticaNeueBoldCondensed" x="365.657" y="464.014" font-weight="700" font-stretch="condensed" font-size="10" font-family="Helvetica Neue" fill="#f6af26" transform="translate(-227.503 -456.592)"><tspan y="464.014" x="365.6568 370.45682 372.85681 377.6568 381.35681 386.1568 390.95682 393.35681 398.1568 400.55679 407.0968">7,7-13,4 м.</tspan></text></svg>