<svg xmlns="http://www.w3.org/2000/svg" xmlns:xlink="http://www.w3.org/1999/xlink" viewBox="0 0 257.71121 43.235167" height="57.647" width="343.615"><defs><symbol id="d" overflow="visible"><path d="M1.453 0H2.61v-5.656h-.843c-.063.312-.204.543-.422.687-.219.149-.524.219-.907.219H.329V-4h1.125zm0 0"/></symbol><symbol id="c" overflow="visible"><path d="M2.61-2.781H.36v.937h2.25zm0 0"/></symbol><symbol id="g" overflow="visible"><path d="M.375-4.297h1.563l.671 2.875.672-2.875H4.86V0H3.83v-3.063L3.078 0h-.923l-.75-3.063V0H.375zm0 0"/></symbol><symbol id="h" overflow="visible"><path d="M1.484-1.25H.438V0h1.046zm0 0"/></symbol><symbol id="b" overflow="visible"><path d="M1.484-1.25H.438V0h.406v.11a.83.83 0 0 1-.11.406.39.39 0 0 1-.296.218v.563c.207-.024.378-.074.515-.156.133-.086.242-.196.328-.329.082-.125.133-.277.157-.453.03-.18.046-.363.046-.562zm0 0"/></symbol><symbol id="a" overflow="visible"><path d="M3.656-5.547H.172v.984h2.39a9.52 9.52 0 0 0-.734 1.172c-.2.387-.371.778-.516 1.172a9.528 9.528 0 0 0-.328 1.14A9.778 9.778 0 0 0 .797 0H2c.05-.395.117-.8.203-1.219.094-.414.207-.82.344-1.218.144-.407.305-.797.484-1.172.188-.375.395-.727.625-1.063zm0 0"/></symbol><symbol id="e" overflow="visible"><path d="M1.266-1.656H.156v.031c0 .543.133.965.406 1.266.27.304.68.453 1.235.453.394 0 .71-.055.953-.157.25-.101.441-.238.578-.406a1.49 1.49 0 0 0 .281-.547 2.36 2.36 0 0 0 .079-.593c0-.352-.079-.649-.235-.891-.156-.238-.418-.383-.781-.438v-.015a.998.998 0 0 0 .625-.422c.156-.219.234-.492.234-.828 0-.5-.14-.863-.422-1.094-.28-.238-.683-.36-1.203-.36-.543 0-.96.137-1.25.407-.281.273-.422.695-.422 1.266h1.063a3.8 3.8 0 0 1 .016-.375c.019-.114.05-.211.093-.297a.422.422 0 0 1 .172-.188.68.68 0 0 1 .297-.062c.188 0 .328.058.422.172.094.105.14.293.14.562 0 .125-.015.242-.046.344a.899.899 0 0 1-.11.281.63.63 0 0 1-.203.203.536.536 0 0 1-.297.078h-.375v.75h.375c.164 0 .297.028.39.079a.588.588 0 0 1 .22.218c.05.086.086.184.109.297a2.009 2.009 0 0 1 0 .719.89.89 0 0 1-.078.297.495.495 0 0 1-.188.203.773.773 0 0 1-.343.062c-.25 0-.418-.082-.5-.25-.086-.175-.125-.43-.125-.765zm0 0"/></symbol><symbol id="f" overflow="visible"><path d="M.11-2.125v.953h2.015V0h1.063v-1.172h.546v-.906h-.546v-3.578H1.984zm2.015-2.094v2.14h-1.11l1.094-2.14zm0 0"/></symbol></defs><path d="M244.219 23.977c.617 0 1.117.387 1.117 1 0 .614-.5 1-1.117 1h-2.145c-.617 0-1.117-.386-1.117-1 0-.613.5-1 1.117-1zm0 0" fill="#fff"/><path d="M40.766 13.516H0v5.543h4.45v2.774h2.277v-2.774H35.64v11.88h5.418V13.515zM230.398 40.04a6.01 6.01 0 0 1-6.007-6.008 6.01 6.01 0 0 1 6.007-6.008 6.01 6.01 0 0 1 6.008 6.008 6.01 6.01 0 0 1-6.008 6.008m0-14.707c-4.796 0-8.703 3.902-8.703 8.7 0 4.8 3.907 8.702 8.703 8.702 4.797 0 8.7-3.902 8.7-8.703 0-4.797-3.903-8.7-8.7-8.7" fill="#303d7a"/><path d="M232.152 34.032a1.754 1.754 0 1 1-3.507 0 1.754 1.754 0 0 1 3.507 0" fill="#303d7a"/><path d="M230.398 36.333c-1.27 0-2.3-1.031-2.3-2.3a2.298 2.298 0 1 1 2.3 2.3m-22.121 4.211a6.007 6.007 0 0 1-6.004-6.008 6.007 6.007 0 1 1 12.012 0 6.007 6.007 0 0 1-6.008 6.008m0-14.707c-4.797 0-8.699 3.902-8.699 8.699s3.902 8.7 8.7 8.7c4.796 0 8.702-3.903 8.702-8.7 0-4.797-3.906-8.7-8.703-8.7" fill="#303d7a"/><path d="M210.031 34.536a1.754 1.754 0 1 1-3.507 0 1.754 1.754 0 0 1 3.507 0" fill="#303d7a"/><path d="M208.277 36.833a2.301 2.301 0 0 1-2.3-2.297c0-1.266 1.035-2.3 2.3-2.3a2.304 2.304 0 0 1 2.301 2.3 2.299 2.299 0 0 1-2.3 2.297m-22.122 3.207a6.007 6.007 0 0 1-6.004-6.008 6.007 6.007 0 1 1 12.012 0 6.007 6.007 0 0 1-6.008 6.008m0-14.707c-4.797 0-8.699 3.902-8.699 8.7 0 4.8 3.902 8.702 8.7 8.702 4.8 0 8.702-3.902 8.702-8.703 0-4.797-3.902-8.7-8.703-8.7" fill="#303d7a"/><path d="M187.914 34.032a1.756 1.756 0 0 1-3.512 0 1.756 1.756 0 0 1 3.512 0" fill="#303d7a"/><path d="M186.156 36.333a2.301 2.301 0 0 1-2.297-2.3 2.3 2.3 0 0 1 2.297-2.298 2.301 2.301 0 0 1 2.301 2.297c0 1.27-1.031 2.3-2.3 2.3" fill="#303d7a"/><path d="M35.676 37.49h140.539v-3.513h.004c.027-5.37 4.414-9.734 9.805-9.734 5.39 0 9.773 4.363 9.804 9.734h.004v3.344h2.543v-3.344h.031c.29-5.136 4.559-9.23 9.778-9.23 5.222 0 9.488 4.094 9.781 9.23h.027v3.344h2.543v-3.344h.004c.031-5.37 4.418-9.734 9.809-9.734 5.39 0 9.773 4.363 9.805 9.734h.004v3.512h2.277v-3.512h15.277L246.657 23.38v-.051H35.582" fill="#303d7a"/><path d="M40.68 5.462v7.992m205.343-7.797v17.52M41.164 8.075l204.86.332" fill="none" stroke="#f5ae23" stroke-miterlimit="10"/><path d="M46.86 9.282l-6.505-1.164 6.524-1.754zm192.66.25l6.503-1.164-6.523-1.754zm0 0" fill="#f5ae23"/><g transform="translate(-109.027 -167.023)" fill="#f5ae23"><use xlink:href="#a" x="219.55" y="172.679" width="100%" height="100%"/><use xlink:href="#b" x="223.39" y="172.679" width="100%" height="100%"/><use xlink:href="#a" x="225.31" y="172.679" width="100%" height="100%"/><use xlink:href="#c" x="229.15" y="172.679" width="100%" height="100%"/><use xlink:href="#d" x="232.11" y="172.679" width="100%" height="100%"/><use xlink:href="#e" x="235.95" y="172.679" width="100%" height="100%"/><use xlink:href="#b" x="239.79" y="172.679" width="100%" height="100%"/><use xlink:href="#f" x="241.71" y="172.679" width="100%" height="100%"/><use xlink:href="#g" x="245.55" y="172.679" width="100%" height="100%"/><use xlink:href="#g" x="247.47" y="172.679" width="100%" height="100%"/><use xlink:href="#h" x="252.702" y="172.679" width="100%" height="100%"/></g></svg>