<svg xmlns="http://www.w3.org/2000/svg" viewBox="0 0 257.71 48.24"><title>0916</title><g id="a24d8813-8f7f-4362-867e-e3a98e8e63d4" data-name="Слой 2"><g id="b3fc2f4c-8202-4020-b1ef-5e70b76a9bd8" data-name="Слой 1"><path d="M244.22,29a1,1,0,0,1,1.11,1h0a1,1,0,0,1-1.11,1h-2.15A1,1,0,0,1,241,30h0a1,1,0,0,1,1.11-1Z" fill="#fff"/><polygon points="40.77 13.53 35.64 13.53 0 13.53 0 19.07 4.45 19.07 4.45 21.84 6.73 21.84 6.73 19.07 35.64 19.07 35.64 30.95 41.06 30.95 41.06 13.53 40.77 13.53" fill="#253678"/><path d="M230.4,30.34a8.7,8.7,0,1,0,8.7,8.7A8.71,8.71,0,0,0,230.4,30.34Zm0,14.71a6,6,0,1,1,6-6A6,6,0,0,1,230.4,45Z" fill="#253678"/><circle cx="230.4" cy="39.04" r="1.75" fill="#253678"/><path d="M230.4,41.34a2.3,2.3,0,1,1,2.3-2.3A2.3,2.3,0,0,1,230.4,41.34Z" fill="#253678"/><path d="M208.28,30.84a8.7,8.7,0,1,0,8.7,8.7A8.71,8.71,0,0,0,208.28,30.84Zm0,14.71a6,6,0,1,1,6-6A6,6,0,0,1,208.28,45.55Z" fill="#253678"/><circle cx="208.28" cy="39.54" r="1.75" fill="#253678"/><path d="M208.28,41.84a2.3,2.3,0,1,1,2.3-2.3A2.3,2.3,0,0,1,208.28,41.84Z" fill="#253678"/><path d="M186.16,30.34a8.7,8.7,0,1,0,8.7,8.7A8.71,8.71,0,0,0,186.16,30.34Zm0,14.71a6,6,0,1,1,6-6A6,6,0,0,1,186.16,45Z" fill="#253678"/><circle cx="186.16" cy="39.04" r="1.75" fill="#253678"/><path d="M186.16,41.34a2.3,2.3,0,1,1,2.3-2.3A2.3,2.3,0,0,1,186.16,41.34Z" fill="#253678"/><path d="M63.58,34.24H173.83l0,8.26h2.37V39h0a9.81,9.81,0,0,1,19.61,0h0v3.34h2.54V39h0A9.8,9.8,0,0,1,218,39h0v3.34h2.54V39h0a9.81,9.81,0,0,1,19.61,0h0v3.51h2.28V39h15.27l-11.05-10.6v0l-183.07.13" fill="#253678"/><rect x="60.33" y="28.34" width="2.27" height="5.54" fill="#253678"/><rect x="35.58" y="28.34" width="20.71" height="5.54" fill="#253678"/><rect x="57.14" y="28.34" width="2.28" height="5.54" fill="#253678"/><rect x="40.18" y="5.47" width="1" height="7.99" fill="#f6ad15"/><rect x="245.52" y="5.66" width="1" height="22.52" fill="#f6ad15"/><rect x="143.09" y="-94.18" width="1" height="204.86" transform="translate(135.11 151.83) rotate(-89.91)" fill="#f6ad15"/><polygon points="46.86 9.29 40.36 8.13 46.88 6.37 46.86 9.29" fill="#f6ad15"/><polygon points="239.52 9.54 246.02 8.38 239.5 6.62 239.52 9.54" fill="#f6ad15"/><path d="M114.19,1a7.46,7.46,0,0,0-.63,1.06,10.61,10.61,0,0,0-.48,1.17,10.78,10.78,0,0,0-.34,1.22q-.14.62-.21,1.22h-1.21q.06-.51.19-1.08a9.56,9.56,0,0,1,.34-1.15,10.15,10.15,0,0,1,.52-1.18,8.68,8.68,0,0,1,.72-1.16H110.7v-1h3.49Z" fill="#f6ad15"/><path d="M115.85,5.46a3.49,3.49,0,0,1,0,.56,1.27,1.27,0,0,1-.16.46,1,1,0,0,1-.32.32,1.25,1.25,0,0,1-.52.16V6.4a.44.44,0,0,0,.31-.22.82.82,0,0,0,.1-.41v-.1h-.42V4.42h1.06Z" fill="#f6ad15"/><path d="M119.95,1a7.47,7.47,0,0,0-.63,1.06,10.63,10.63,0,0,0-.48,1.17,10.78,10.78,0,0,0-.34,1.22q-.14.62-.21,1.22h-1.21q.06-.51.19-1.08a9.58,9.58,0,0,1,.34-1.15,10.15,10.15,0,0,1,.52-1.18,8.68,8.68,0,0,1,.72-1.16h-2.38v-1h3.49Z" fill="#f6ad15"/><path d="M122.73,3.82h-2.26V2.88h2.26Z" fill="#f6ad15"/><path d="M124.54,1.66h-1.13V.91h.1a1.65,1.65,0,0,0,.91-.22,1,1,0,0,0,.42-.7h.85V5.66h-1.15Z" fill="#f6ad15"/><path d="M128.32,4.76a.5.5,0,0,0,.5.26.66.66,0,0,0,.33-.07.5.5,0,0,0,.19-.2.79.79,0,0,0,.09-.29,2.89,2.89,0,0,0,0-.35,2.27,2.27,0,0,0,0-.36.88.88,0,0,0-.11-.31.58.58,0,0,0-.22-.22.79.79,0,0,0-.38-.08h-.38V2.39h.38a.58.58,0,0,0,.31-.08.6.6,0,0,0,.2-.2.94.94,0,0,0,.11-.28,1.53,1.53,0,0,0,0-.34.93.93,0,0,0-.14-.58.5.5,0,0,0-.42-.17.59.59,0,0,0-.3.07.46.46,0,0,0-.18.19.85.85,0,0,0-.08.29,3.15,3.15,0,0,0,0,.37h-1.06a1.69,1.69,0,0,1,.42-1.26A1.71,1.71,0,0,1,128.83,0a1.85,1.85,0,0,1,1.2.35,1.35,1.35,0,0,1,.43,1.1,1.42,1.42,0,0,1-.23.84,1,1,0,0,1-.64.41v0a1.07,1.07,0,0,1,.78.44,1.63,1.63,0,0,1,.23.89,2.57,2.57,0,0,1-.07.59,1.32,1.32,0,0,1-.28.55,1.47,1.47,0,0,1-.57.4,2.52,2.52,0,0,1-1,.15,1.58,1.58,0,0,1-1.23-.45A1.82,1.82,0,0,1,127.08,4V4h1.1A1.88,1.88,0,0,0,128.32,4.76Z" fill="#f6ad15"/><path d="M132.25,5.46a3.48,3.48,0,0,1,0,.56,1.27,1.27,0,0,1-.16.46,1,1,0,0,1-.32.32,1.25,1.25,0,0,1-.52.16V6.4a.44.44,0,0,0,.31-.22.82.82,0,0,0,.1-.41v-.1h-.42V4.42h1.06Z" fill="#f6ad15"/><path d="M134.67,0h1.19V3.59h.54v.9h-.54V5.66h-1.06V4.49h-2V3.54Zm.12,1.44-1.1,2.15h1.12V1.44Z" fill="#f6ad15"/><path d="M138.81,1.36h1.58l.67,2.88.67-2.88h1.58v4.3h-1V2.61l-.76,3.06h-.91l-.76-3.06V5.66h-1Z" fill="#f6ad15"/><path d="M145.16,5.66h-1.06V4.42h1.06Z" fill="#f6ad15"/></g></g></svg>