<svg xmlns="http://www.w3.org/2000/svg" viewBox="0 0 232.02 55.04"><title>9328</title><g id="8dd2f18c-7e8d-42df-b67a-3b0e1fc1a584" data-name="Слой 2"><g id="47b3d81e-70d2-496f-96ef-67b3ce521d4d" data-name="Слой 1"><path d="M200,34.76a1,1,0,0,1,1.11,1h0a1,1,0,0,1-1.11,1h-2.15a1,1,0,0,1-1.11-1h0a1,1,0,0,1,1.11-1Z" fill="#fff"/><rect x="35.58" y="40.31" width="95.04" height="5.54" fill="#253678"/><path d="M229.64,34.76c.62,0,1.11.88,1.11,1.5h0c0,.61-.5,1.5-1.11,1.5h-2.15c-.62,0-1.11-.89-1.11-1.5h0c0-.62.5-1.5,1.11-1.5Z" fill="#fff"/><path d="M184.65,37.14a8.7,8.7,0,1,0,8.7,8.7A8.71,8.71,0,0,0,184.65,37.14Zm0,14.71a6,6,0,1,1,6-6A6,6,0,0,1,184.65,51.84Z" fill="#253678"/><circle cx="184.65" cy="45.84" r="1.75" fill="#253678"/><path d="M184.65,48.14a2.3,2.3,0,1,1,2.3-2.3A2.3,2.3,0,0,1,184.65,48.14Z" fill="#253678"/><path d="M216.82,36.63a8.7,8.7,0,1,0,8.7,8.7A8.71,8.71,0,0,0,216.82,36.63Zm0,14.71a6,6,0,1,1,6-6A6,6,0,0,1,216.82,51.34Z" fill="#253678"/><circle cx="216.82" cy="45.33" r="1.75" fill="#253678"/><path d="M216.82,47.63a2.3,2.3,0,1,1,2.3-2.3A2.3,2.3,0,0,1,216.82,47.63Z" fill="#253678"/><path d="M196.8,20.94V18.17h-2.54v2.77h0c0,.17,0,.34,0,.51a9.79,9.79,0,0,1-19.58,0c0-.17,0-.34,0-.51h0V18.17h-2.54v2.77h-2.87V32.5h30.57V20.94Z" fill="#7d8bb2"/><path d="M184.47,12.75a8.7,8.7,0,1,0,8.7,8.7A8.71,8.71,0,0,0,184.47,12.75Zm0,14.71a6,6,0,1,1,6-6A6,6,0,0,1,184.47,27.46Z" fill="#7d8bb2"/><circle cx="184.47" cy="21.45" r="1.75" fill="#253678"/><path d="M184.47,19.16a2.3,2.3,0,1,1-2.3,2.3A2.3,2.3,0,0,1,184.47,19.16Z" fill="#7d8bb2"/><path d="M162.53,37.64a8.7,8.7,0,1,0,8.7,8.7A8.71,8.71,0,0,0,162.53,37.64Zm0,14.71a6,6,0,1,1,6-6A6,6,0,0,1,162.53,52.35Z" fill="#253678"/><circle cx="162.53" cy="46.34" r="1.75" fill="#253678"/><path d="M162.53,48.64a2.3,2.3,0,1,1,2.3-2.3A2.3,2.3,0,0,1,162.53,48.64Z" fill="#253678"/><path d="M140.41,37.14a8.7,8.7,0,1,0,8.7,8.7A8.71,8.71,0,0,0,140.41,37.14Zm0,14.71a6,6,0,1,1,6-6A6,6,0,0,1,140.41,51.84Z" fill="#253678"/><circle cx="140.41" cy="45.84" r="1.75" fill="#253678"/><path d="M140.41,48.14a2.3,2.3,0,1,1,2.3-2.3A2.3,2.3,0,0,1,140.41,48.14Z" fill="#253678"/><path d="M198.91,34.29H128.46v9.46h-.11v5.54h2.27V45.85h0a9.79,9.79,0,0,1,19.58,0h0v3.27h2.54V45.85h0a9.78,9.78,0,0,1,19.53,0h0v3.27h2.54V45.85h0a9.79,9.79,0,0,1,19.58,0h0v2.44H197V45.85h1.93Z" fill="#253678"/><path d="M206.88,26.52a8.65,8.65,0,0,0-5.32-1.83h-.3V27.4h.3a6,6,0,0,1,3.34,1Z" fill="#7d8bb2"/><path d="M208.65,28.35l-2,1.88a6,6,0,0,1,.91,3.16h2.69A8.64,8.64,0,0,0,208.65,28.35Z" fill="#7d8bb2"/><path d="M203.36,34.29h-5.54v2.54h3.63v9h3v2.77H207V45.85h0c0-.17,0-.34,0-.51a9.79,9.79,0,1,1,19.58,0c0,.17,0,.34,0,.51h0v2.77h2.54V45.85H232V34.29Z" fill="#253678"/><rect x="35.58" y="35.78" width="5.54" height="2.27" fill="#253678"/><rect x="35.58" y="39.08" width="5.54" height="2.27" fill="#253678"/><rect x="35.58" y="32.46" width="5.54" height="2.28" fill="#253678"/><polygon points="0 23.65 0 29.2 4.45 29.2 4.45 31.97 6.73 31.97 6.73 29.2 35.58 29.2 35.58 31.35 41.12 31.35 41.12 29.2 41.12 29.07 41.12 23.65 0 23.65" fill="#253678"/><rect x="40.24" y="6.02" width="1" height="17.99" fill="#f6ad15"/><rect x="230.91" y="6.18" width="1" height="28.11" fill="#f6ad15"/><rect x="128.55" y="6.18" width="1" height="28.11" fill="#f6ad15"/><rect x="135.76" y="-86.38" width="1" height="190.29" transform="translate(127.27 145.01) rotate(-89.9)" fill="#f6ad15"/><polygon points="47.24 9.8 40.74 8.64 47.26 6.88 47.24 9.8" fill="#f6ad15"/><polygon points="224.9 10.05 231.41 8.89 224.88 7.13 224.9 10.05" fill="#f6ad15"/><polygon points="122.13 10.22 128.64 9.05 122.11 7.3 122.13 10.22" fill="#f6ad15"/><polygon points="136.22 10.05 129.71 8.89 136.24 7.13 136.22 10.05" fill="#f6ad15"/><path d="M172.43,1.23l-.13,1.37h0a1,1,0,0,1,.44-.34,1.83,1.83,0,0,1,.66-.11,1.41,1.41,0,0,1,.72.17,1.26,1.26,0,0,1,.45.44,1.87,1.87,0,0,1,.23.62,3.61,3.61,0,0,1,.07.7,4.48,4.48,0,0,1-.08.91,1.77,1.77,0,0,1-.3.7,1.32,1.32,0,0,1-.59.44,2.6,2.6,0,0,1-1,.15,2.35,2.35,0,0,1-.92-.15,1.3,1.3,0,0,1-.54-.4,1.4,1.4,0,0,1-.25-.54,2.59,2.59,0,0,1-.06-.55V4.46h1.17c0,.1,0,.21,0,.32a1.07,1.07,0,0,0,.08.32.64.64,0,0,0,.18.25.48.48,0,0,0,.31.1.58.58,0,0,0,.55-.29,1.84,1.84,0,0,0,.17-.88,4.72,4.72,0,0,0,0-.62,1.13,1.13,0,0,0-.11-.39.46.46,0,0,0-.22-.2A.85.85,0,0,0,173,3a.53.53,0,0,0-.4.15.71.71,0,0,0-.17.4h-1.1l.22-3.27h3.14v1Z" fill="#f6ad15"/><path d="M176.7,6a3.74,3.74,0,0,1,0,.6,1.36,1.36,0,0,1-.17.49,1,1,0,0,1-.34.34,1.32,1.32,0,0,1-.56.17V7a.47.47,0,0,0,.33-.24.87.87,0,0,0,.11-.43V6.18h-.44V4.85h1.12Z" fill="#f6ad15"/><path d="M178.56,1.23l-.13,1.37h0a1,1,0,0,1,.44-.34,1.83,1.83,0,0,1,.66-.11,1.41,1.41,0,0,1,.72.17,1.26,1.26,0,0,1,.45.44,1.86,1.86,0,0,1,.23.62,3.61,3.61,0,0,1,.07.7,4.47,4.47,0,0,1-.09.91,1.77,1.77,0,0,1-.3.7,1.32,1.32,0,0,1-.59.44,2.6,2.6,0,0,1-1,.15,2.35,2.35,0,0,1-.92-.15,1.3,1.3,0,0,1-.54-.4,1.4,1.4,0,0,1-.25-.54,2.59,2.59,0,0,1-.06-.55V4.46h1.17c0,.1,0,.21,0,.32a1.07,1.07,0,0,0,.08.32.64.64,0,0,0,.18.25.48.48,0,0,0,.31.1.58.58,0,0,0,.55-.29,1.84,1.84,0,0,0,.17-.88,4.72,4.72,0,0,0,0-.62,1.13,1.13,0,0,0-.11-.39.46.46,0,0,0-.22-.2.85.85,0,0,0-.34-.06.53.53,0,0,0-.4.15.71.71,0,0,0-.17.4h-1.1l.22-3.27h3.14v1Z" fill="#f6ad15"/><path d="M183.68,1.6h1.68l.71,3.06.71-3.06h1.68V6.18h-1.1V2.93l-.81,3.25h-1l-.81-3.25V6.18h-1.1Z" fill="#f6ad15"/><path d="M190.43,6.18h-1.12V4.85h1.12Z" fill="#f6ad15"/><path d="M78.93,1.05a8,8,0,0,0-.67,1.13,11.41,11.41,0,0,0-.88,2.54q-.14.66-.22,1.3H75.88q.07-.54.2-1.14a10.2,10.2,0,0,1,.36-1.22A10.8,10.8,0,0,1,77,2.41a9.22,9.22,0,0,1,.77-1.23H75.23V.12h3.71Z" fill="#f6ad15"/><path d="M80.7,5.8a3.74,3.74,0,0,1,0,.6,1.36,1.36,0,0,1-.17.49,1,1,0,0,1-.34.34,1.32,1.32,0,0,1-.56.17V6.8a.47.47,0,0,0,.33-.24A.87.87,0,0,0,80,6.13V6h-.44V4.69H80.7Z" fill="#f6ad15"/><path d="M82.65,5.06a.53.53,0,0,0,.53.28.7.7,0,0,0,.35-.08.54.54,0,0,0,.2-.21.86.86,0,0,0,.09-.31,3.17,3.17,0,0,0,0-.37,2.44,2.44,0,0,0,0-.39.94.94,0,0,0-.11-.33.62.62,0,0,0-.24-.23.84.84,0,0,0-.41-.08h-.41v-.8h.4a.62.62,0,0,0,.33-.08.63.63,0,0,0,.21-.21,1,1,0,0,0,.12-.3,1.6,1.6,0,0,0,0-.36A1,1,0,0,0,83.6,1,.54.54,0,0,0,83.16.8a.62.62,0,0,0-.32.07.49.49,0,0,0-.19.2.9.9,0,0,0-.09.31,3.32,3.32,0,0,0,0,.39H81.42A1.79,1.79,0,0,1,81.87.44,1.82,1.82,0,0,1,83.19,0a2,2,0,0,1,1.28.37,1.43,1.43,0,0,1,.45,1.17,1.51,1.51,0,0,1-.24.89,1.07,1.07,0,0,1-.68.44v0a1.14,1.14,0,0,1,.83.47,1.73,1.73,0,0,1,.24.95,2.71,2.71,0,0,1-.08.63,1.41,1.41,0,0,1-.3.59,1.57,1.57,0,0,1-.61.43,2.68,2.68,0,0,1-1,.16,1.68,1.68,0,0,1-1.31-.48,1.94,1.94,0,0,1-.43-1.35v0h1.17A2,2,0,0,0,82.65,5.06Z" fill="#f6ad15"/><path d="M87.68,1.45h1.68l.71,3.06.71-3.06h1.68V6h-1.1V2.77L90.55,6h-1l-.81-3.25V6h-1.1Z" fill="#f6ad15"/><path d="M94.43,6H93.31V4.69h1.12Z" fill="#f6ad15"/></g></g></svg>