<svg xmlns="http://www.w3.org/2000/svg" viewBox="0 0 232.01951 54.527368" height="72.703" width="309.359"><path d="M199.98 34.25c.618 0 1.114.383 1.114 1 0 .613-.496 1-1.114 1h-2.148c-.617 0-1.113-.387-1.113-1 0-.617.496-1 1.113-1zm0 0" fill="#fff"/><path d="M130.621 45.34H35.578v-5.547h95.043zm0 0" fill="#303d7a"/><path d="M229.64 34.25c.618 0 1.118.883 1.118 1.5 0 .613-.5 1.5-1.117 1.5h-2.149c-.613 0-1.113-.887-1.113-1.5 0-.617.5-1.5 1.113-1.5zm0 0" fill="#fff"/><path d="M184.648 51.332a6.007 6.007 0 1 1 .006-12.013 6.007 6.007 0 0 1-.006 12.013m0-14.707c-4.796 0-8.699 3.902-8.699 8.7 0 4.796 3.903 8.702 8.7 8.702 4.796 0 8.703-3.906 8.703-8.703 0-4.797-3.903-8.699-8.704-8.699" fill="#303d7a"/><path d="M186.406 45.324a1.756 1.756 0 0 1-3.512 0 1.756 1.756 0 0 1 3.512 0" fill="#303d7a"/><path d="M184.648 47.625a2.301 2.301 0 0 1 0-4.602 2.305 2.305 0 0 1 2.301 2.301 2.302 2.302 0 0 1-2.3 2.301m32.175 3.203a6.007 6.007 0 1 1 0-12.012 6.007 6.007 0 0 1 0 12.012m0-14.707c-4.797 0-8.699 3.902-8.699 8.703 0 4.797 3.902 8.7 8.7 8.7 4.796 0 8.702-3.903 8.702-8.7 0-4.8-3.906-8.703-8.703-8.703" fill="#303d7a"/><path d="M218.578 44.824c0 .965-.785 1.75-1.754 1.75a1.753 1.753 0 1 1 1.754-1.75" fill="#303d7a"/><path d="M216.824 47.121a2.304 2.304 0 0 1-2.3-2.297 2.301 2.301 0 0 1 4.601 0 2.301 2.301 0 0 1-2.3 2.297" fill="#303d7a"/><path d="M196.797 20.426v-2.77h-2.54v2.77h-.023c.008.172.024.344.024.515 0 5.399-4.39 9.79-9.79 9.79-5.398 0-9.788-4.391-9.788-9.79 0-.171.015-.343.023-.515h-.023v-2.77h-2.54v2.77h-2.867v11.566h30.575V20.426zm0 0" fill="#7f8cb3"/><path d="M184.469 26.95a6.005 6.005 0 0 1-6.008-6.009 6.004 6.004 0 0 1 6.008-6.003 6.007 6.007 0 1 1 0 12.011m0-14.707c-4.797 0-8.703 3.903-8.703 8.7 0 4.8 3.902 8.703 8.703 8.703 4.797 0 8.699-3.903 8.699-8.704 0-4.796-3.902-8.699-8.7-8.699" fill="#7f8cb3"/><path d="M182.71 20.941a1.758 1.758 0 0 1 3.513 0c0 .97-.786 1.758-1.754 1.758a1.76 1.76 0 0 1-1.758-1.758" fill="#303d7a"/><path d="M184.469 18.645c1.265 0 2.3 1.03 2.3 2.296a2.304 2.304 0 0 1-2.3 2.301 2.302 2.302 0 0 1-2.301-2.3 2.301 2.301 0 0 1 2.3-2.297" fill="#7f8cb3"/><path d="M162.531 51.836a6.01 6.01 0 0 1-6.008-6.008 6.007 6.007 0 0 1 12.012 0 6.007 6.007 0 0 1-6.004 6.008m0-14.711c-4.797 0-8.703 3.902-8.703 8.703 0 4.797 3.906 8.7 8.703 8.7 4.797 0 8.7-3.903 8.7-8.7 0-4.8-3.903-8.703-8.7-8.703" fill="#303d7a"/><path d="M164.285 45.828a1.757 1.757 0 0 1-3.512 0c0-.969.79-1.754 1.758-1.754.969 0 1.754.785 1.754 1.754" fill="#303d7a"/><path d="M162.531 48.125a2.3 2.3 0 0 1-2.3-2.297c0-1.265 1.03-2.3 2.3-2.3a2.304 2.304 0 0 1 2.297 2.3 2.3 2.3 0 0 1-2.297 2.297m-22.121 3.207a6.007 6.007 0 0 1 0-12.012 6.007 6.007 0 1 1 0 12.012m0-14.707c-4.797 0-8.7 3.902-8.7 8.7 0 4.796 3.903 8.702 8.7 8.702 4.797 0 8.7-3.906 8.7-8.703 0-4.797-3.903-8.699-8.7-8.699" fill="#303d7a"/><path d="M142.164 45.324a1.754 1.754 0 1 1-3.508 0 1.754 1.754 0 0 1 3.508 0" fill="#303d7a"/><path d="M140.41 47.625a2.301 2.301 0 0 1 0-4.602 2.301 2.301 0 0 1 0 4.602" fill="#303d7a"/><path d="M198.906 33.773h-70.445v9.461h-.117v5.547h2.277v-3.457c0-5.398 4.39-9.789 9.79-9.789 5.398 0 9.788 4.39 9.788 9.79v3.283h2.543v-3.273h.024c.257-5.168 4.53-9.297 9.765-9.297 5.23 0 9.508 4.129 9.766 9.297h.023v3.273h2.54v-3.285c0-5.398 4.39-9.789 9.788-9.789 5.399 0 9.793 4.39 9.793 9.79 0 .003-.004.007-.004.011h.004v2.437h2.54v-2.437h1.925zm0 0" fill="#303d7a"/><path d="M206.883 26.012a8.619 8.619 0 0 0-5.317-1.828c-.101 0-.203.011-.304.011v2.696c.101-.004.203-.016.304-.016a5.96 5.96 0 0 1 3.344 1.02zm1.761 1.828l-1.976 1.883c.57.918.906 2 .906 3.16h2.692a8.665 8.665 0 0 0-1.622-5.043" fill="#7f8cb3"/><path d="M203.355 33.773v-.011h-5.543V36.3h3.633v9.035h3.051v2.773h2.54v-2.773h.023c-.008-.172-.024-.34-.024-.512 0-5.402 4.39-9.793 9.79-9.793 5.398 0 9.788 4.39 9.788 9.793 0 .172-.015.34-.023.512h.023v2.773h2.54v-2.773h2.866V33.773zM35.578 35.266h5.543v2.273h-5.543zm0 3.297h5.543v2.277h-5.543zm0-6.613h5.543v2.273h-5.543zM0 23.14v5.544h4.45v2.773h2.277v-2.773h28.851v2.152h5.543v-7.695zm0 0" fill="#303d7a"/><path d="M41.238 23.504h-1V5.508h1zm190.668 10.269h-1V5.664h1zm0 0" fill="#f5ae23"/><path d="M231.406 8.914L41.121 8.582v-1l190.285.332zm0 0" fill="#f5ae23"/><path d="M47.246 9.29l-6.508-1.165 6.524-1.754zm177.656.25l6.504-1.165-6.523-1.754zM113.25 4.352c.016.14.047.257.094.355a.535.535 0 0 0 .191.234.578.578 0 0 0 .324.082c.137 0 .25-.027.332-.082a.546.546 0 0 0 .188-.238c.043-.101.07-.219.082-.355.015-.137.023-.285.023-.446 0-.382-.05-.656-.144-.82-.098-.168-.258-.25-.48-.25-.231 0-.395.082-.49.25-.097.164-.144.438-.144.82 0 .16.008.313.024.45M114.277.93c-.078-.117-.21-.176-.402-.176a.581.581 0 0 0-.363.105.7.7 0 0 0-.22.301c-.05.13-.081.281-.097.457a6.523 6.523 0 0 0-.023.574v.282h.015a.967.967 0 0 1 .41-.356c.18-.09.399-.133.653-.133.25 0 .465.043.64.133.176.086.317.211.43.367.106.157.188.344.238.559.051.219.075.453.075.71 0 .653-.145 1.153-.434 1.493-.293.336-.758.508-1.398.508-.395 0-.707-.07-.942-.211a1.38 1.38 0 0 1-.539-.57 2.397 2.397 0 0 1-.246-.844 9.128 9.128 0 0 1-.055-1c0-.402.012-.79.036-1.164.023-.375.097-.711.214-1 .121-.293.309-.524.567-.7.254-.175.617-.265 1.086-.265.203 0 .398.023.59.07.187.051.355.13.5.243.144.113.257.257.347.445.086.183.133.41.14.683h-1.105c0-.226-.039-.394-.117-.511m2.957 4.527c0 .195-.015.383-.043.563-.03.18-.086.332-.164.464a.977.977 0 0 1-.324.32 1.294 1.294 0 0 1-.523.157v-.563a.414.414 0 0 0 .308-.222.798.798 0 0 0 .106-.406v-.106h-.414V4.418h1.054zm4.094-4.465a7.512 7.512 0 0 0-.625 1.063 10.502 10.502 0 0 0-.828 2.39c-.094.41-.16.82-.207 1.22h-1.211c.043-.34.105-.7.191-1.075.086-.379.2-.762.34-1.149.145-.39.317-.78.52-1.175a8.17 8.17 0 0 1 .719-1.16h-2.383V.112h3.484zm2.785 2.832h-2.254V2.88h2.254zm1.809-2.16h-1.13v-.75h.106c.383 0 .688-.074.907-.219.222-.144.363-.375.422-.695h.847v5.664h-1.152zm2.528 4c0-.25.026-.484.077-.703.047-.219.125-.426.23-.625a3.5 3.5 0 0 1 .391-.578c.16-.192.34-.383.551-.574l.461-.43c.129-.113.23-.219.309-.313.078-.097.136-.191.18-.289.042-.097.074-.199.085-.312a3.58 3.58 0 0 0 .02-.383c0-.469-.188-.703-.559-.703a.576.576 0 0 0-.34.086.573.573 0 0 0-.195.242 1.159 1.159 0 0 0-.086.352c-.016.132-.02.273-.02.421h-1.105v-.214c0-.528.14-.934.426-1.215C129.156.14 129.6 0 130.21 0c.574 0 1 .133 1.277.398.278.27.418.649.418 1.145 0 .184-.015.352-.047.508-.035.16-.086.308-.152.453-.07.144-.16.285-.274.422a4.444 4.444 0 0 1-.406.418l-.64.594a2.419 2.419 0 0 0-.403.449 1.444 1.444 0 0 0-.183.383h2.136v.894zm5.183-.207c0 .195-.016.383-.043.563-.031.18-.086.332-.164.464a.942.942 0 0 1-.325.32 1.294 1.294 0 0 1-.523.157v-.563a.428.428 0 0 0 .313-.222.795.795 0 0 0 .101-.406v-.106h-.414V4.418h1.055zm.577.207c0-.25.024-.484.075-.703a2.73 2.73 0 0 1 .23-.625c.106-.195.235-.39.395-.578.156-.192.34-.383.547-.574l.465-.43c.129-.113.23-.219.308-.313a1.46 1.46 0 0 0 .18-.289c.043-.097.07-.199.082-.312.016-.113.02-.238.02-.383 0-.469-.184-.703-.559-.703a.576.576 0 0 0-.34.086.565.565 0 0 0-.191.242 1.158 1.158 0 0 0-.09.352 4.79 4.79 0 0 0-.02.421h-1.101v-.214c0-.528.14-.934.422-1.215.285-.285.73-.426 1.336-.426.578 0 1.004.133 1.281.398.277.27.414.649.414 1.145 0 .184-.016.352-.047.508a1.83 1.83 0 0 1-.152.453c-.07.144-.16.285-.27.422a4.52 4.52 0 0 1-.41.418l-.64.594a2.255 2.255 0 0 0-.399.449c-.098.148-.16.277-.184.383h2.137v.894zm5.981-4.304h1.578l.672 2.878.672-2.879h1.574v4.305h-1.03V2.61l-.759 3.055h-.914l-.757-3.055v3.055h-1.036zm6.352 4.304h-1.055v-1.25h1.055zm0 0" fill="#f5ae23"/></svg>