<svg xmlns="http://www.w3.org/2000/svg" viewBox="0 0 290.02438 68.159217" height="72.703" width="309.359"><path d="M249.976 42.813c.771 0 1.391.478 1.391 1.25 0 .766-.62 1.25-1.391 1.25h-2.686c-.771 0-1.392-.484-1.392-1.25 0-.772.62-1.25 1.392-1.25zm0 0" fill="#fff"/><path d="M163.276 56.675H44.473V49.74h118.803zm0 0" fill="#303d7a"/><path d="M287.05 42.813c.772 0 1.397 1.103 1.397 1.875 0 .766-.625 1.875-1.396 1.875h-2.686c-.766 0-1.391-1.109-1.391-1.875 0-.772.625-1.875 1.391-1.875zm0 0" fill="#fff"/><path d="M230.81 64.165a7.508 7.508 0 1 1 .007-15.016 7.508 7.508 0 0 1-.006 15.016m0-18.384c-5.997 0-10.874 4.878-10.874 10.874s4.877 10.88 10.874 10.88c5.996 0 10.878-4.884 10.878-10.88s-4.877-10.874-10.878-10.874" fill="#303d7a"/><path d="M233.008 56.655a2.195 2.195 0 0 1-4.39 0 2.195 2.195 0 0 1 4.39 0" fill="#303d7a"/><path d="M230.81 59.531a2.877 2.877 0 0 1 0-5.752 2.881 2.881 0 0 1 2.877 2.876 2.878 2.878 0 0 1-2.876 2.876M271.03 63.535a7.508 7.508 0 1 1 0-15.014 7.508 7.508 0 0 1 0 15.015m0-18.385c-5.996 0-10.874 4.878-10.874 10.88 0 5.995 4.878 10.873 10.874 10.873s10.88-4.878 10.88-10.874c0-6-4.884-10.879-10.88-10.879" fill="#303d7a"/><path d="M273.223 56.03a2.191 2.191 0 0 1-2.193 2.188 2.191 2.191 0 1 1 0-4.385c1.211 0 2.193.986 2.193 2.197" fill="#303d7a"/><path d="M271.03 58.901a2.88 2.88 0 0 1-2.876-2.87 2.881 2.881 0 0 1 2.876-2.877 2.878 2.878 0 0 1 2.876 2.876 2.877 2.877 0 0 1-2.876 2.871" fill="#303d7a"/><path d="M245.996 25.532V22.07h-3.174v3.462h-.029c.01.215.03.43.03.645 0 6.748-5.489 12.236-12.237 12.236s-12.236-5.488-12.236-12.236c0-.215.02-.43.029-.645h-.03V22.07h-3.173v3.462h-3.584V39.99h38.218V25.532zm0 0" fill="#7f8cb3"/><path d="M230.586 33.687c-4.15 0-7.51-3.36-7.51-7.51a7.505 7.505 0 0 1 7.51-7.505 7.508 7.508 0 1 1 0 15.015m0-18.384c-5.996 0-10.879 4.878-10.879 10.874 0 6 4.878 10.879 10.879 10.879 5.996 0 10.874-4.878 10.874-10.88 0-5.995-4.878-10.873-10.874-10.873" fill="#7f8cb3"/><path d="M228.389 26.177c0-1.211.986-2.193 2.197-2.193 1.21 0 2.192.982 2.192 2.193 0 1.21-.981 2.197-2.192 2.197a2.2 2.2 0 0 1-2.197-2.197" fill="#303d7a"/><path d="M230.586 23.306a2.88 2.88 0 0 1 2.876 2.87 2.881 2.881 0 0 1-2.876 2.877 2.878 2.878 0 0 1-2.876-2.876 2.877 2.877 0 0 1 2.876-2.871" fill="#7f8cb3"/><path d="M203.164 64.795a7.512 7.512 0 0 1-7.51-7.51 7.512 7.512 0 0 1 7.51-7.51 7.508 7.508 0 0 1 7.505 7.51c0 4.146-3.36 7.51-7.505 7.51m0-18.389c-5.996 0-10.879 4.878-10.879 10.88 0 5.995 4.883 10.873 10.879 10.873 5.996 0 10.874-4.878 10.874-10.874 0-6-4.878-10.879-10.874-10.879" fill="#303d7a"/><path d="M205.356 57.285c0 1.211-.981 2.193-2.192 2.193a2.196 2.196 0 0 1-2.197-2.193c0-1.21.986-2.192 2.197-2.192s2.192.981 2.192 2.192" fill="#303d7a"/><path d="M203.164 60.156a2.877 2.877 0 0 1-2.876-2.87 2.881 2.881 0 0 1 2.876-2.877 2.88 2.88 0 0 1 2.871 2.876 2.876 2.876 0 0 1-2.871 2.871M175.513 64.165a7.512 7.512 0 0 1-7.51-7.51 7.508 7.508 0 0 1 7.51-7.505c4.145 0 7.51 3.36 7.51 7.505a7.512 7.512 0 0 1-7.51 7.51m0-18.384c-5.996 0-10.874 4.878-10.874 10.874s4.878 10.88 10.874 10.88 10.874-4.884 10.874-10.88-4.878-10.874-10.874-10.874" fill="#303d7a"/><path d="M177.705 56.655a2.192 2.192 0 1 1-4.384 0 2.192 2.192 0 0 1 4.384 0" fill="#303d7a"/><path d="M175.513 59.531a2.878 2.878 0 0 1-2.876-2.876 2.881 2.881 0 0 1 2.876-2.876 2.881 2.881 0 0 1 2.876 2.876 2.878 2.878 0 0 1-2.876 2.876" fill="#303d7a"/><path d="M248.633 42.217h-88.057v11.826h-.146v6.934h2.846V56.67v-.015c0-6.748 5.489-12.236 12.237-12.236s12.236 5.488 12.236 12.236V60.762h3.179V56.67h.029c.322-6.46 5.664-11.621 12.207-11.621 6.538 0 11.885 5.161 12.207 11.621h.03v4.092h3.173V56.67v-.015c0-6.748 5.488-12.236 12.237-12.236 6.748 0 12.24 5.488 12.24 12.236 0 .005-.004.01-.004.015h.005v3.047h3.174V56.67h2.407zm0 0" fill="#303d7a"/><path d="M258.603 32.515a10.773 10.773 0 0 0-6.645-2.285c-.127 0-.254.014-.38.014v3.37c.126-.006.253-.02.38-.02a7.45 7.45 0 0 1 4.18 1.274zm0 0M260.806 34.8l-2.471 2.353a7.465 7.465 0 0 1 1.133 3.95h3.364c0-2.348-.757-4.52-2.026-6.303" fill="#7f8cb3"/><path d="M254.194 42.217v-.015h-6.928v3.174h4.54V56.67h3.814v3.467h3.174V56.67h.03c-.01-.215-.03-.425-.03-.64 0-6.753 5.488-12.24 12.236-12.24s12.237 5.487 12.237 12.24c0 .215-.02.425-.03.64h.03v3.467h3.173V56.67h3.584V42.217zm0 0M44.473 44.082H51.4v2.842h-6.928zm0 0M44.473 48.203H51.4v2.847h-6.928zm0 0M44.473 39.937H51.4v2.841h-6.928zm0 0M0 28.926v6.929h5.562v3.466h2.846v-3.466h36.065v2.69H51.4v-9.62zm0 0" fill="#303d7a"/><path d="M51.548 29.38h-1.25V6.885h1.25zm0 0M289.883 42.217h-1.25V7.08h1.25zm0 0" fill="#f5ae23"/><path d="M289.258 11.143L51.4 10.728v-1.25l237.857.415zm0 0" fill="#f5ae23"/><path d="M59.058 11.611l-8.135-1.455 8.154-2.192zm0 0M281.128 11.924l8.13-1.455-8.155-2.193zm0 0M141.562 5.44c.02.175.06.322.118.444.053.127.136.22.239.293.102.068.24.102.405.102.171 0 .313-.034.415-.102a.682.682 0 0 0 .235-.298c.053-.127.087-.273.102-.444.02-.171.03-.357.03-.557 0-.479-.064-.82-.181-1.025-.123-.21-.323-.313-.601-.313-.288 0-.493.103-.61.313-.122.205-.181.546-.181 1.025 0 .2.01.39.03.561m1.283-4.277c-.097-.146-.263-.22-.502-.22a.727.727 0 0 0-.455.132.876.876 0 0 0-.273.376 2.065 2.065 0 0 0-.122.572c-.02.22-.03.459-.03.717v.352h.02c.117-.186.288-.337.513-.444.224-.113.498-.166.815-.166.313 0 .581.053.801.166.22.107.396.263.537.459.132.195.235.43.298.698.064.273.093.566.093.888 0 .816-.18 1.44-.542 1.866-.366.42-.947.634-1.748.634-.493 0-.884-.087-1.177-.263a1.725 1.725 0 0 1-.674-.713 2.997 2.997 0 0 1-.307-1.055 11.41 11.41 0 0 1-.069-1.25c0-.503.015-.986.044-1.455a3.99 3.99 0 0 1 .269-1.25c.151-.366.385-.654.708-.874.317-.22.771-.332 1.357-.332.254 0 .498.03.737.088.235.063.445.161.625.303.181.141.323.322.435.556.107.23.166.513.176.855h-1.382c0-.283-.049-.493-.147-.64M146.543 6.821c0 .244-.02.479-.054.703a1.701 1.701 0 0 1-.205.582c-.102.166-.24.297-.405.4-.171.102-.39.166-.654.195v-.703a.518.518 0 0 0 .385-.278.998.998 0 0 0 .132-.508V7.08h-.517V5.523h1.318zm0 0M151.66 1.24a9.39 9.39 0 0 0-.781 1.328c-.23.474-.435.962-.606 1.46-.175.503-.317 1.011-.43 1.529-.116.512-.2 1.025-.258 1.523h-1.514c.054-.425.132-.874.24-1.343a11.9 11.9 0 0 1 .424-1.435c.181-.488.396-.977.65-1.47.249-.493.552-.976.898-1.45h-2.978V.142h4.355zm0 0M155.142 4.78h-2.818V3.6h2.818zm0 0M157.402 2.08h-1.41v-.937h.131c.479 0 .86-.093 1.133-.274.278-.18.454-.469.527-.869h1.06v7.08h-1.44zm0 0M160.562 7.08c0-.312.034-.605.097-.879a3.01 3.01 0 0 1 .288-.781c.132-.244.293-.488.488-.723a7.2 7.2 0 0 1 .689-.717l.576-.538c.161-.141.288-.273.386-.39.097-.122.17-.24.224-.362a1.28 1.28 0 0 0 .108-.39c.014-.142.024-.298.024-.479 0-.586-.234-.879-.698-.879-.18 0-.322.035-.425.108a.717.717 0 0 0-.244.303 1.448 1.448 0 0 0-.107.439c-.02.166-.025.342-.025.527h-1.382v-.268c0-.66.176-1.167.533-1.519.351-.356.908-.532 1.67-.532.717 0 1.25.166 1.596.498.347.337.523.81.523 1.43 0 .23-.02.44-.059.635a2.76 2.76 0 0 1-.19.567c-.088.18-.2.356-.342.527a5.554 5.554 0 0 1-.508.523l-.8.742c-.216.19-.382.38-.504.561a1.805 1.805 0 0 0-.23.479h2.672V7.08zm0 0M167.041 6.821c0 .244-.02.479-.054.703a1.701 1.701 0 0 1-.205.582 1.178 1.178 0 0 1-.405.4c-.171.102-.39.166-.654.195v-.703a.534.534 0 0 0 .39-.278.993.993 0 0 0 .127-.508V7.08h-.517V5.523h1.318zm0 0M167.764 7.08c0-.312.029-.605.092-.879.064-.273.162-.532.289-.781.131-.244.293-.488.493-.723.195-.239.425-.478.683-.717l.581-.538c.161-.141.288-.273.386-.39.093-.122.171-.24.225-.362.053-.122.088-.249.102-.39.02-.142.025-.298.025-.479 0-.586-.23-.879-.699-.879-.18 0-.322.035-.424.108a.707.707 0 0 0-.24.303 1.45 1.45 0 0 0-.112.439 5.997 5.997 0 0 0-.024.527h-1.377v-.268c0-.66.175-1.167.527-1.519.356-.356.913-.532 1.67-.532.723 0 1.255.166 1.601.498.347.337.518.81.518 1.43 0 .23-.02.44-.059.635-.039.2-.102.386-.19.567-.088.18-.2.356-.337.527a5.65 5.65 0 0 1-.513.523l-.8.742c-.215.19-.381.38-.498.561a1.54 1.54 0 0 0-.23.479h2.671V7.08zm0 0M175.24 1.7h1.972l.84 3.598.84-3.599h1.967V7.08h-1.289V3.262l-.947 3.818h-1.143l-.947-3.818V7.08h-1.294zm0 0M183.179 7.08h-1.319V5.518h1.319zm0 0" fill="#f5ae23"/></svg>