<svg version="1" xmlns="http://www.w3.org/2000/svg" width="908" height="908" viewBox="0 0 681.000000 681.000000"><path d="M193.5 147.2c-21.9 19.7-75.4 73-93.2 92.8-31 34.7-58.1 68.4-83.3 103.8l-7.3 10.4 1.8 5.1c1 2.9 2.1 5.8 2.5 6.6.5 1 3.7-2.9 10.1-12.5C75 277.3 137.7 201.9 191 152.7c10.7-9.9 20.4-18.8 21.5-19.8 1.5-1.4 1.6-1.9.5-1.9-.8 0-9.6 7.3-19.5 16.2zM470.5 138.2c35 32.1 50.9 48.3 79.9 81.4 34.5 39.2 72.4 88.7 101.6 132.3 7 10.6 10.5 15 11 14 .4-.8 1.5-3.7 2.5-6.5l1.8-5.2-6.8-9.8c-22.2-31.8-54.3-71.7-86.4-107.4-25.8-28.7-104.9-104.8-109.9-105.8-.9-.2 1.9 2.9 6.3 7zM214.9 152.1c-21.1 16.8-48.7 44.2-69.6 69.3-37.3 44.5-70 95.4-105.3 163.8L28.8 407H115l1-2.3c.5-1.2 4.1-10.5 8.1-20.6 20.7-52.3 53-107.3 90.3-153.6 10-12.4 29.6-34.3 36.6-41l5.3-5-6.4 7.5c-33.7 39.2-60.5 87.4-77.8 139.8-8.2 24.8-20.1 76.3-18.1 78.5.4.4 4.2.7 8.6.5l7.9-.3.7-16.3c3.5-84 40.5-162.7 109.1-231.5 8.1-8.2 14.7-15 14.7-15.3 0-.2-16.6-.4-36.9-.4h-36.8l-6.4 5.1zm45.1 28.3c0 .2-.8 1-1.7 1.7-1.6 1.3-1.7 1.2-.4-.4 1.3-1.6 2.1-2.1 2.1-1.3zM382 147.4c0 .2 6.6 7.1 14.8 15.3 68.8 69.2 105.5 147 109 231.3l.7 16.5 7.4.3c4.1.2 8 .1 8.6-.2 1-.3.8-2.9-.7-11.3-13.9-78.4-43.9-145.8-89.4-200.8-14.6-17.7-14.9-18.2-4-6.8 56.1 58.8 95.9 120.6 125.7 195.3l7.8 19.5 43.1.3 43.2.2-11.6-22.5C582 278.3 525.5 203.1 461.7 151.7l-5.8-4.7H419c-20.4 0-37 .2-37 .4z"/><path d="M208 298.4c0 7.1.4 9.7 1.5 10.6 2.2 1.8 2.2 57.6 0 60.6-1 1.3-1.4 4.6-1.5 11.1v9.3h38v-9.1c0-6.7-.4-9.4-1.5-10.5-1.1-1.2-1.5-4-1.5-12V348h11v10.3c0 7.5-.4 10.8-1.5 12.3-1 1.3-1.4 4.5-1.5 10.6v8.8h39v-8.5c0-7.1-.4-9.1-2-11.3-2-2.7-2.1-3.9-1.8-31.4.3-25.6.5-28.8 2.1-30.5 1.3-1.6 1.7-3.8 1.7-10.6V289h-39v8.7c.1 6.2.5 9.4 1.5 10.7 1 1.4 1.5 4.5 1.5 10.3v8.3h-11v-8.4c0-6.2.4-8.9 1.5-10 1.1-1.1 1.5-3.8 1.5-10.5V289h-38v9.4zM320.8 290.5c-11.3 2.8-16.1 6.5-19.9 15-2 4.5-2.3 7.1-2.7 26.5-.5 25.3.7 41 3.6 46.6 3 5.8 8.1 10.1 14.8 12.6 5.1 1.9 7.9 2.2 20.4 2.2 15.6 0 20.9-1.2 30.7-6.9l4.3-2.6v-35l-15.2.3-15.3.3-.5 10.3c-.5 10.8-1.1 12.2-5.6 12.2-4.6 0-4.9-1.7-5.2-29.4-.3-28.5.1-30.8 4.9-31.4 4.4-.5 5.9 2 5.9 9.9v6.9h31V299.3l-5.2-2.6c-10.9-5.5-16.7-6.9-28.8-7.3-7.8-.2-13.3.1-17.2 1.1zM378 312v23h23v-10.8c0-10.7.7-13.2 3.7-13.2 1 0 1.3 5.8 1.3 28.4 0 26.8-.1 28.5-2 30.9-1.6 2.1-2 4-2 11.1v8.6h39v-8.8c-.1-6.1-.5-9.3-1.5-10.6-2.2-2.9-2.2-59.6 0-59.6 2.6 0 3.5 3.7 3.5 14v10.1l11.3-.3 11.2-.3.3-22.8.2-22.7h-88v23zM271.1 441c-7.3 1.6-11.4 4.2-13.8 9-2.1 4.1-2.3 5.7-2.3 22.3 0 10.9.5 19.5 1.2 21.9 1.4 4.8 6.4 9.3 12 10.9 7 1.9 18.5 1.4 24.9-1 8.6-3.3 9-4.1 8.7-15.7l-.3-9.9-9.7-.3-9.8-.3v4.8c0 6.7-.9 9.3-3.1 9.3-3 0-3.9-4-3.9-17.9 0-16.3.5-19.1 3.5-19.1 2.5 0 3.5 2.2 3.5 7.8v3.3l9.8-.3 9.7-.3.3-8.7c.3-8.3.2-8.8-2.2-10.3-7.4-4.9-20-7.3-28.5-5.5zM60.5 448.7c.4 3.8.7 14.9.7 24.8s-.3 21-.7 24.7l-.7 6.8H84v-5.9c0-3.3-.4-6.3-1-6.6-.5-.3-1-3.5-1-7.1V479h7.2l-.6 6.5c-.3 3.6-.9 9.4-1.2 13l-.6 6.5H111v-5.9c0-3.3-.4-6.3-1-6.6-.6-.4-1-7.8-1-19s.4-18.6 1-19c.6-.3 1-3.3 1-6.6V442H86.8l.6 6.2c.3 3.5.8 8.9 1.2 12l.6 5.8h-7.4l.6-5.8c.4-3.1.9-8.5 1.2-12l.6-6.2H59.8l.7 6.7zM449 456.5V471h15v-7.5c0-4.3.4-7.5 1-7.5s1 6.6 1 17.9c0 10.9-.4 18.2-1 18.6-.5.3-1 3.3-1 6.6v5.9h25v-5.9c0-3.3-.4-6.3-1-6.6-.6-.4-1-7.7-1-18.6 0-11.8.3-17.8 1-17.4.6.3 1 3.7 1 7.6v6.9h15v-29h-55v14.5zM126.7 458.4c-9.5 2.6-11 6.2-10.5 25.8.3 13.5.3 13.7 3.2 16.7 5.6 5.9 23.3 7 33.1 2.1l5-2.5v-12h-18l-.3 2.7c-.3 2.2-.9 2.8-2.8 2.8-2.1 0-2.4-.4-2.4-4v-3.9l11.8-.3 11.7-.3.3-4.7c.5-8.2-1.4-16-4.7-18.9-4.9-4.5-16.7-6.1-26.4-3.5zm12.7 12.2c1.1 2.8.7 3.4-2.4 3.4-2.2 0-3-.5-3-1.8 0-1 .3-2.2.7-2.5 1.2-1.3 4.1-.7 4.7.9zM221.3 458c-2.2.5-6 1.8-8.2 3l-4.1 2v12h16.9l.3-2.8c.4-3.6 4.3-4.4 5.1-1 .8 2.9.5 3.2-7.9 5.6-3.8 1.2-8.6 3.2-10.5 4.5-6.6 4.4-7.6 14.6-2 20.9 2.3 2.6 3.7 3.2 8.3 3.6 4 .3 6.4-.1 8.8-1.3 2.3-1.2 3.5-1.4 3.8-.6.2.7 3.8 1.1 10.3 1.1h9.9v-5.3c0-2.9-.4-5.7-.9-6.3-.5-.5-1.1-6.6-1.3-13.6-.3-14.2-1.4-16.8-8-20.1-4.2-2.1-14.6-3-20.5-1.7zm10.7 30.5c0 3-4.3 5.6-6.2 3.7-1.5-1.5-.3-4.1 2.4-5.2 3.5-1.3 3.8-1.2 3.8 1.5zM367.7 457.9c-2.1.4-5 1.7-6.5 2.8-4.9 3.6-5.7 6.6-5.7 21.3 0 11.5.3 14 1.9 16.6 3.4 5.7 6.8 6.9 19.1 6.9 9.5 0 11.6-.3 15.8-2.4l4.7-2.3V488h-17.9l-.3 2.7c-.2 2-.9 2.9-2.5 3.1-2.1.3-2.3-.1-2.3-3.7V486h23v-8.8c0-10.5-1.8-14.9-7.1-17.4-4.1-2.1-16.5-3.1-22.2-1.9zm11.1 13.9c.3 1.8-.1 2.2-2.2 2.2-1.9 0-2.6-.5-2.6-1.8 0-3.9 4.3-4.3 4.8-.4zM161 463.4c0 3 .5 5.8 1 6.1.6.4 1 5.5 1 12s-.4 11.6-1 12c-.5.3-1 3.1-1 6.1v5.4h16.3c14.9 0 16.7-.2 20.7-2.3 4.9-2.4 7-5.5 7-10.4s-1.6-8.1-5.2-10.3c-2.1-1.2-2.7-2-1.6-2 2.9 0 5.8-4.8 5.8-9.6 0-5.7-3.4-9.8-9.4-11.3-2.5-.6-11-1.1-19-1.1H161v5.4zm24.8 9.3c-.2 2-.9 2.9-2.5 3.1-2 .3-2.3-.1-2.3-2.7 0-2.7.4-3.1 2.6-3.1s2.5.4 2.2 2.7zM185 487c1.4 0 2 3.1 1 5.1-.6 1-2 1.9-3 1.9-1.7 0-2-.7-2-4.1 0-3.3.3-4 1.6-3.5.9.3 1.9.6 2.4.6zM306 463.9c0 3.3.5 6.3 1 6.6.6.4 1 5.3 1 11.5s-.4 11.1-1 11.5c-.5.3-1 3.1-1 6.1v5.4h22v-5.4c0-3-.4-5.8-1-6.1-.6-.4-1-5.5-1-12.1V470h6.1l-.5 11.2c-.3 6.2-.8 14.1-1.1 17.5l-.7 6.3H352v-5.4c0-3-.4-5.8-1-6.1-.6-.4-1-5.5-1-12s.4-11.6 1-12c.6-.3 1-3.1 1-6.1V458h-46v5.9zM401 463.9c0 3.3.5 6.3 1 6.6.6.4 1 5.3 1 11.5s-.4 11.1-1 11.5c-.5.3-1 3.1-1 6.1v5.4h14.4c7.9 0 15.1.3 16 .6 1.2.4 1.6 2 1.6 5.5v4.9h7.4c5.8 0 7.5-.3 8-1.6.3-.9.6-5.6.6-10.5 0-7.8-.2-9-2-10.1-1.8-1.2-2-2.4-2-12.5 0-6.4.4-11.4 1-11.8.6-.3 1-3.1 1-6.1V458h-22.2l.7 6.7c.3 3.8.8 11.6 1.1 17.5l.5 10.8H421v-11.4c0-6.6.4-11.7 1-12.1.6-.3 1-3.1 1-6.1V458h-22v5.9zM514.9 458.9c-6.7 2.1-9.9 6.1-9.9 12.3 0 3.6 3.3 9.8 5.1 9.8.7 0 0 1.1-1.5 2.5-1.8 1.7-2.6 3.4-2.6 5.9 0 1.9-.4 3.8-1 4.1-.5.3-1 3.1-1 6.1v5.5l9.8-.3 9.7-.3.5-7.5c.5-8 1.3-10 3.6-10 1.6 0 2 5.5.4 6.5-.5.3-1 3.1-1 6.1v5.4h23v-4.8c0-2.6-.7-5.6-1.5-6.6-2.2-2.8-2.1-20.3.1-23.4 1-1.4 1.4-3.8 1.2-6.9l-.3-4.8-16-.2c-8.8-.1-17.2.2-18.6.6zm14.1 14.6c0 1.9-.4 3.5-.9 3.5-2.7 0-4.1-1.5-4.1-4.1 0-2.4.4-2.9 2.5-2.9 2.2 0 2.5.4 2.5 3.5zM553 464c0 3.3.4 6 .9 6s2.5 2 4.5 4.5l3.7 4.5-4.2 7.1c-2.3 3.9-4.8 7.3-5.6 7.6-.8.3-1.3 2.3-1.3 5.9v5.4h17l4.4-8.8c3.5-6.7 4.5-8.1 4.5-6 .1 1.5-.3 3-.9 3.3-.5.3-1 3.1-1 6.1v5.4h23v-4.8c0-2.6-.4-5.2-.9-5.7-1.1-1.3-2.4-6.8-1.4-6.2.5.3 2.6 4.2 4.8 8.6l3.9 8.1H621v-5.4c0-3-.4-5.8-1-6.1-.5-.3-2.8-3.7-5.1-7.5l-4.1-6.9 2-2.8c1.1-1.5 3.2-3.9 4.6-5.2 2.2-2 2.6-3.3 2.6-7.8V458h-20v3.7c0 2.3-1 5.4-2.5 7.8l-2.4 4-.1-7.8V458h-18v14.5l-2-3c-1.2-1.8-2-4.7-2-7.3V458h-20v6zM59.7 529.6c-1.5 1.6-.6 3.4 1.8 3.4s2.5.3 2.5 6c0 5.3.2 6 2 6s2-.7 2-6c0-5.8.1-6 2.6-6 1.9 0 2.5-.5 2.2-1.8-.3-1.3-1.5-1.8-6.4-2-3.3-.2-6.3 0-6.7.4zM75 539.6c0 9.7.1 10.4 2 10.4 1.6 0 2-.7 2-3 0-2.7.2-2.9 2.9-2.4 4.1.8 7.1-2.3 7.1-7.4 0-5.9-1.8-7.6-8.4-7.8l-5.6-.2v10.4zm9.5-2.6c0 3.1-.3 3.5-2.5 3.5-1.9 0-2.6-.6-2.8-2.3-.5-3.6.5-5.4 3-5 1.9.2 2.3.9 2.3 3.8zM93.8 530.1c-1 .5-1.8 1.7-1.8 2.5 0 1.3.8 1.4 4 .9 5-.9 5.5 1.1.5 2.1-3.9.7-6 3.4-5 6.4.7 2.3.4 2.2 7.6 2.5l5.7.3-.5-6.7c-.4-4.4-1.1-7-2.1-7.9-1.9-1.4-6-1.5-8.4-.1zm6.2 9.4c0 2.1-2.8 3.1-4.3 1.6-.9-.9-.8-1.4.3-2.1 2.2-1.4 4-1.2 4 .5zM108 537c0 7.3.2 8 2 8 1.6 0 2-.7 2-3.5 0-3 .3-3.5 2.4-3.5s2.5.6 2.8 3.2c.2 2.2.9 3.4 2.1 3.6 1.5.3 1.7-.6 1.7-7.8s-.2-8.1-1.7-7.8c-1.1.2-1.9 1.4-2.1 3.1-.3 2.1-.9 2.7-2.8 2.7-2 0-2.4-.5-2.4-3 0-2.3-.4-3-2-3-1.8 0-2 .7-2 8zM126.5 531.5c-1.6 1.5-2.5 3.6-2.5 5.5 0 3.7 3.9 8 7.2 8 2.9 0 6.8-2.6 6.8-4.6 0-1.6-3.6-1.9-4.5-.4-1.1 1.7-4.2 1.1-4.8-1-.7-2.8.3-6 1.9-6 .8 0 2.3.6 3.4 1.2 1.6 1 2.2 1 3.2 0 1.1-1.1.9-1.7-1.1-3.3-3.2-2.6-6.7-2.4-9.6.6zM140.4 530.3c-.3.8-.4 4.3-.2 7.8.3 5.6.5 6.4 2.3 6.4 1.7 0 2-.8 2.3-5.8.3-5.3.5-5.7 2.7-5.7 2.4 0 2.5.3 2.5 6.1 0 5.2.2 6 1.8 5.7 1.4-.3 1.7-1.5 1.7-7.8v-7.5l-6.3-.3c-4.6-.2-6.4.1-6.8 1.1zM159.5 531.5c-5 4.9-1.7 13.5 5 13.5 1.2 0 3.4-.9 4.9-2.1 2-1.6 2.6-2.9 2.6-5.9 0-7.1-7.6-10.4-12.5-5.5zm8 3.5c1 3.2-.4 6-3 6-1.5 0-2.6-.7-3-2-1-3.2.4-6 3-6 1.5 0 2.6.7 3 2zM175 539.5c0 9.8.1 10.5 2 10.5 1.6 0 2-.7 2-3 0-2.7.2-3 2.5-2.4 3.3.8 7.2-1.8 8-5.4 1.3-6.1-3.4-11.5-8.1-9.3-1.5.6-2.5.7-2.9.1-.4-.6-1.3-1-2.1-1-1.1 0-1.4 2-1.4 10.5zm9.5-2.5c0 2.8-.4 3.6-2.2 3.8-1.4.2-2.3-.3-2.8-1.7-1-3.4.4-6.3 2.8-5.9 1.8.2 2.2 1 2.2 3.8zM190.7 529.6c-1.5 1.6-.6 3.4 1.8 3.4s2.5.3 2.5 6c0 5.3.2 6 2 6s2-.7 2-6c0-5.8.1-6 2.6-6 1.9 0 2.5-.5 2.2-1.8-.3-1.3-1.5-1.8-6.4-2-3.3-.2-6.3 0-6.7.4zM206 537c0 7.2.2 8.1 1.8 7.8 1.1-.2 1.8-1.4 2-3.6.3-2.6.7-3.2 2.8-3.2 2.1 0 2.4.5 2.4 3.5 0 2.8.4 3.5 2 3.5 1.8 0 2-.7 2-8s-.2-8-2-8c-1.6 0-2 .7-2 3 0 2.5-.4 3-2.4 3-1.9 0-2.5-.6-2.8-2.7-.2-1.7-1-2.9-2-3.1-1.6-.3-1.8.6-1.8 7.8zM224.5 531.5c-1.6 1.5-2.5 3.6-2.5 5.5 0 3.8 3.9 8 7.3 8 4.2 0 7.7-3.6 7.7-8 0-7.1-7.6-10.4-12.5-5.5zm8 5.5c0 3.8-2.4 5.2-5 3-3.1-2.5-.9-7.3 3-6.8 1.6.2 2 1.1 2 3.8zM251.3 530.5c-3.4 2.4-2.8 3.6 1.8 3.3 2.7-.2 4.3.2 4.6.9.3.8-.4 1.3-1.6 1.3-1.2 0-2.1.4-2.1 1 0 .5.9 1 2 1s2 .5 2 1c0 1.7-3.1 2.4-5.2 1.1-1.2-.7-2.5-.8-3.5-.3-1.4.8-1.3 1.2.6 3.1 2.7 2.7 7.5 2.7 10.1.1 2.3-2.3 2.7-8.6.8-11.3-1.9-2.5-6.9-3.1-9.5-1.2zM265 537c0 7.3.2 8 2 8 1.6 0 2-.7 2-3 0-3.8 1-3.8 3.2 0 1.7 3 4.8 4.1 4.8 1.7 0-.6-.9-2.7-2-4.5-2-3.2-2-3.2 0-5.2 2.3-2.3 2.6-5 .6-5-1.9 0-4.6 2.7-4.6 4.6 0 .8-.4 1.4-1 1.4-.5 0-1-1.4-1-3 0-2.3-.4-3-2-3-1.8 0-2 .7-2 8zM280.5 531.5c-1.6 1.5-2.5 3.6-2.5 5.5 0 3.7 3.9 8 7.2 8 2.9 0 6.8-2.6 6.8-4.6 0-1.6-3.6-1.9-4.5-.4-.3.5-1.5 1-2.6 1-1.6 0-1.9-.7-1.9-4 0-4.3 1.3-5.1 5-2.8 1.6 1 2.2 1 3.2 0 1.1-1.1.9-1.7-1.1-3.3-3.2-2.6-6.7-2.4-9.6.6zM294.4 530.3c-.3.8-.4 4.3-.2 7.8.3 5.6.5 6.4 2.3 6.4 1.7 0 2-.8 2.3-5.8.3-5.3.5-5.7 2.7-5.7 2.4 0 2.5.3 2.5 6.1 0 5.2.2 6 1.8 5.7 1.4-.3 1.7-1.5 1.7-7.8v-7.5l-6.3-.3c-4.6-.2-6.4.1-6.8 1.1zM313 531c-1.3 1.3-2 3.3-2 6 0 4.8 2.7 8 6.8 8 2.6 0 6.2-2.5 6.2-4.3 0-1.1-3.5-.8-4.8.5-.8.8-1.5.8-2.7-.2-2.6-2.2-1.7-3 3.6-3 5.1 0 5.1 0 4.5-2.8-1.4-5.7-7.8-8-11.6-4.2zm7 3.5c0 .9-.9 1.5-2.5 1.5-2.4 0-3.2-1-1.8-2.3 1.2-1.3 4.3-.7 4.3.8zM329.7 529.7c-.4.3-.7 2.4-.7 4.5 0 2.5-.7 4.5-2.1 5.9-1.4 1.4-1.9 3-1.7 5.1.4 3.7 2.7 4.9 3.5 1.9.5-1.8 1.3-2.1 5.9-2.1 4.7 0 5.4.2 5.4 2 0 1.2.7 2 1.6 2 1.3 0 1.5-1.2.8-9.3-.3-5-.8-9.5-1.1-10-.5-.9-10.7-1-11.6 0zm7.3 7.3c0 3.6-.2 4-2.6 4-2.2 0-2.5-.3-2-2.3.3-1.2.6-3 .6-4s.8-1.7 2-1.7c1.7 0 2 .7 2 4zM345.4 530.4c-.3.7-.4 4.2-.2 7.7.4 8.1 2.4 9 6.5 2.8l2.8-4.3.5 3.9c.3 2.7 1 4.1 2.3 4.3 1.5.3 1.7-.6 1.7-7.7 0-7.3-.2-8.1-1.9-8.1-1.2 0-3 1.7-4.8 4.7l-2.8 4.8-.3-4.8c-.2-3.3-.7-4.7-1.8-4.7-.8 0-1.7.6-2 1.4zM363 537v8h5.4c4.6 0 5.4.3 5.9 2.1.3 1.2 1.2 1.9 1.9 1.7 1.6-.5 2.4-7.8.9-7.8-.7 0-1.1-2.5-1.1-6.1 0-5.2-.2-6-1.7-5.7-1.4.2-1.9 1.5-2.1 6.1-.3 5.3-.5 5.7-2.7 5.7-2.4 0-2.5-.3-2.5-6 0-5.3-.2-6-2-6s-2 .7-2 8zM380.4 530.4c-.3.7-.4 4.2-.2 7.7.4 8.4 2.4 9.1 6.7 2.2l3.1-4.8v4.7c0 4.1.3 4.8 2 4.8 1.8 0 2-.7 2-8 0-7.1-.2-8-1.9-8-1 0-3.1 1.8-4.7 4.2l-2.9 4.3-.3-4.3c-.2-2.9-.8-4.2-1.8-4.2-.8 0-1.7.6-2 1.4zM399.6 531.1c-3.7 2.9-3.7 8.9 0 11.8 7.9 6.2 17-4.3 9.9-11.4-3-3-6.4-3.2-9.9-.4zm7.9 3.9c1 3.2-.4 6-3 6s-4-2.8-3-6c.4-1.3 1.5-2 3-2s2.6.7 3 2zM415 537c0 7.3.2 8 2 8 1.6 0 2-.7 2-3.5 0-3 .3-3.5 2.4-3.5s2.5.6 2.8 3.2c.2 2.2.9 3.4 2.1 3.6 1.5.3 1.7-.6 1.7-7.8s-.2-8.1-1.7-7.8c-1.1.2-1.9 1.4-2.1 3.1-.3 2.1-.9 2.7-2.8 2.7-2 0-2.4-.5-2.4-3 0-2.3-.4-3-2-3-1.8 0-2 .7-2 8zM432 537c0 7.3.2 8 2 8 1.6 0 2-.7 2-3.5 0-3 .3-3.5 2.4-3.5s2.5.6 2.8 3.2c.2 2.5.8 3.3 2.3 3.3 1.8 0 2-.7 2-7.5s-.2-7.5-2-7.5c-1.4 0-2.1.8-2.3 2.7-.3 2.2-.9 2.8-2.8 2.8-2 0-2.4-.5-2.4-3 0-2.3-.4-3-2-3-1.8 0-2 .7-2 8zM450.8 530.1c-1 .5-1.8 1.7-1.8 2.5 0 1.3.8 1.4 4 .9 4.9-.8 5.5 1 .8 2-4.3.9-5.8 2.2-5.8 5.1 0 3.1 1.5 3.8 8 4l5.6.2-.4-6.6c-.3-4.6-.9-7.1-2-8-1.9-1.4-6-1.5-8.4-.1zm6.2 9.3c0 1.8-3.1 2.9-4.4 1.6-.8-.8-.7-1.4.4-2 2.2-1.4 4-1.2 4 .4zM467.3 529.7c-3 .6-4.1 4.7-2 7.1 1.4 1.5 1.4 1.9-.4 4.1-2.4 3-2.4 4.1 0 4.1 1.1 0 2.9-1.4 4.1-3 2.7-3.7 3.8-3.8 4.2-.3.2 2 .9 2.8 2.3 2.8 1.8 0 2-.7 2-7.5v-7.5l-4-.1c-2.2-.1-5 0-6.2.3zm5.7 4.3c0 1.3-.7 2-1.9 2-2.5 0-3.8-2-2-3.1 2.3-1.5 3.9-1 3.9 1.1zM489 537c0 7.3.2 8 2 8 1.6 0 2-.7 2-3 0-1.7.4-3 .9-3s1.4 1.3 2.1 3c.8 1.8 2 3 3.1 3 2.4 0 2.4-1.5-.2-5.6l-2-3.3 2-2c2.4-2.4 2.7-5.1.7-5.1-1.9 0-4.6 2.7-4.6 4.6 0 .8-.4 1.4-1 1.4-.5 0-1-1.4-1-3 0-2.3-.4-3-2-3-1.8 0-2 .7-2 8zM504.5 531.5c-1.6 1.5-2.5 3.6-2.5 5.5 0 3.6 3.8 8 6.9 8 8.3 0 11.6-9.7 4.9-14.4-3.2-2.3-6.5-2-9.3.9zm8 5.5c0 2.8-.4 3.6-2.2 3.8-2.9.4-4.8-3-3.3-5.9.7-1.3 1.9-1.9 3.3-1.7 1.8.2 2.2 1 2.2 3.8zM520 537.1c0 7.1.2 8 1.8 7.7 1.1-.2 1.8-1.5 2.1-3.8l.3-3.5 1.3 3.5c1.7 5.1 4 5 6.4-.2l1.9-4.3.1 4.2c.1 3.1.5 4.3 1.6 4.3 1.2 0 1.5-1.6 1.5-8 0-7.8-.1-8-2.4-8-2 0-2.7.8-4.2 5.2l-1.7 5.2-2-5.2c-1.6-4.2-2.4-5.2-4.3-5.2-2.3 0-2.4.3-2.4 8.1zM541 537.1c0 7.1.2 8 1.8 7.7 1.3-.2 1.8-1.5 2-6.1.3-5.3.5-5.7 2.7-5.7 2.4 0 2.5.3 2.5 6 0 5.3.2 6 2 6s2-.7 2-8v-8h-13v8.1zM560.2 529.7c-.7.2-1.7 1.4-2.3 2.5-1 1.8-.8 1.9 3.5 1.3 5.3-.8 6.5.9 1.4 2-4.3 1-5.8 2.2-5.8 5.1 0 3.1 2.4 4.2 8.4 4l5-.1-.3-6.5c-.1-4.6-.7-6.9-1.8-7.8-1.7-1.2-5.7-1.5-8.1-.5zm5.8 9.2c0 .5-.7 1.4-1.5 2.1-1.8 1.5-4.2-.1-3.1-1.9.8-1.3 4.6-1.5 4.6-.2zM573.4 530.3c-.3.8-.4 4.3-.2 7.8.3 5.6.5 6.4 2.3 6.4 1.5 0 2.1-.8 2.3-3.3.3-2.6.7-3.2 2.8-3.2 2.1 0 2.4.5 2.4 3.5 0 2.8.4 3.5 2 3.5 1.8 0 2-.7 2-8s-.2-8-2-8c-1.6 0-2 .7-2 3 0 2.5-.4 3-2.4 3-1.9 0-2.5-.6-2.8-2.7-.3-3-3.4-4.4-4.4-2zM590.4 530.3c-.3.8-.4 4.3-.2 7.8.3 5.6.5 6.4 2.3 6.4 1.2 0 3-1.5 4.5-3.9l2.5-3.9.5 3.9c.3 2.6 1.1 4 2.3 4.2 1.5.3 1.7-.6 1.7-7.7 0-9.6-1.3-10.4-5.9-4l-3 4-.3-3.8c-.3-3.9-3.2-6-4.4-3zM610 530.3c-3 1.5-3.7 4.3-1.7 6.5 1.4 1.5 1.4 2-.3 4.2-2.5 3.2-2.5 4 0 4 1.1 0 2.9-1.4 4.2-3 1.2-1.7 2.8-3 3.5-3 .8 0 1.3 1.2 1.3 3 0 2.3.4 3 2 3 1.8 0 2-.7 2-8v-8h-4.2c-2.4 0-5.4.6-6.8 1.3zm7 3.7c0 1.5-.7 2-2.5 2-2.4 0-3.4-1.8-1.8-3.3 1.5-1.5 4.3-.7 4.3 1.3zM240 537c0 1.7.7 2 4 2s4-.3 4-2-.7-2-4-2-4 .3-4 2z"/></svg>