<svg xmlns="http://www.w3.org/2000/svg" viewBox="0 0 270.28903 44.171908" height="58.896" width="360.385"><path d="M255.055 24.883c.617 0 1.113.383 1.113 1 0 .613-.496 1-1.113 1h-2.149c-.617 0-1.113-.387-1.113-1 0-.617.496-1 1.113-1zm0 0" fill="#fff"/><path d="M35.578 13.45H0v5.546h4.45v2.77h2.277v-2.77h28.851v11.711h5.543V13.45zm176.496 28.027a6.007 6.007 0 0 1 0-12.012 6.007 6.007 0 1 1 0 12.012m0-14.711c-4.797 0-8.7 3.906-8.7 8.703.001 4.797 3.903 8.703 8.7 8.703 4.797 0 8.7-3.906 8.7-8.703 0-4.797-3.903-8.703-8.7-8.703" fill="#303d7a"/><path d="M213.828 35.469a1.754 1.754 0 1 1-3.507 0 1.754 1.754 0 0 1 3.507 0" fill="#303d7a"/><path d="M212.074 37.77c-1.27 0-2.3-1.036-2.3-2.301a2.304 2.304 0 0 1 2.3-2.301 2.304 2.304 0 0 1 2.301 2.3 2.305 2.305 0 0 1-2.3 2.302m22.12 3.203a6.007 6.007 0 1 1-.003-12.01 6.007 6.007 0 0 1 .003 12.01m0-14.707c-4.8 0-8.703 3.902-8.703 8.699 0 4.8 3.902 8.703 8.703 8.703 4.797 0 8.7-3.902 8.7-8.703 0-4.797-3.903-8.7-8.7-8.7" fill="#303d7a"/><path d="M235.95 34.965c0 .973-.786 1.754-1.759 1.754a1.754 1.754 0 1 1 0-3.508c.973 0 1.758.785 1.758 1.754" fill="#303d7a"/><path d="M234.195 37.266c-1.27 0-2.3-1.032-2.3-2.301a2.301 2.301 0 0 1 2.3-2.297 2.3 2.3 0 0 1 2.297 2.297 2.3 2.3 0 0 1-2.297 2.3m-44.242 3.708a6.007 6.007 0 0 1 0-12.012 6.007 6.007 0 1 1 0 12.012m0-14.707c-4.797 0-8.7 3.902-8.7 8.699 0 4.8 3.903 8.703 8.7 8.703 4.797 0 8.703-3.902 8.703-8.703 0-4.797-3.902-8.7-8.703-8.7" fill="#303d7a"/><path d="M191.71 34.965c0 .973-.788 1.754-1.757 1.754a1.754 1.754 0 1 1 0-3.508c.969 0 1.758.785 1.758 1.754" fill="#303d7a"/><path d="M189.953 37.266a2.305 2.305 0 0 1-2.3-2.301 2.301 2.301 0 0 1 4.602 0 2.303 2.303 0 0 1-2.302 2.3m-9.789 1.157h-2.539v-5.543h2.539zm-12.332 2.551a6.004 6.004 0 0 1-6.004-6.008 6.003 6.003 0 0 1 6.004-6.004 6.004 6.004 0 0 1 6.008 6.004 6.005 6.005 0 0 1-6.008 6.008m0-14.707c-4.797 0-8.7 3.902-8.7 8.699 0 4.8 3.903 8.703 8.7 8.703 4.797 0 8.703-3.902 8.703-8.703 0-4.797-3.902-8.7-8.703-8.7" fill="#303d7a"/><path d="M169.59 34.965c0 .973-.79 1.754-1.758 1.754a1.754 1.754 0 1 1 0-3.508c.969 0 1.758.785 1.758 1.754" fill="#303d7a"/><path d="M167.832 37.266a2.301 2.301 0 0 1-2.297-2.301 2.3 2.3 0 0 1 2.297-2.297 2.3 2.3 0 0 1 2.3 2.297 2.3 2.3 0 0 1-2.3 2.3m-9.789 1.157h-2.586v-5.543h2.586zm-12.328 2.551a6.007 6.007 0 0 1 0-12.012 6.007 6.007 0 1 1 0 12.012m0-14.707c-4.801 0-8.703 3.902-8.703 8.699 0 4.8 3.902 8.703 8.703 8.703 4.797 0 8.699-3.902 8.699-8.703 0-4.797-3.902-8.7-8.7-8.7" fill="#303d7a"/><path d="M147.469 34.965c0 .973-.785 1.754-1.754 1.754a1.755 1.755 0 1 1 1.754-1.754" fill="#303d7a"/><path d="M145.715 37.266a2.303 2.303 0 0 1-2.301-2.301 2.301 2.301 0 0 1 4.602 0c0 1.27-1.036 2.3-2.301 2.3" fill="#303d7a"/><path d="M270.289 35.309L258.25 23.746v.012l-222.602-.012v14.676h100.274v-3.129h.02c-.005-.11-.02-.215-.02-.328 0-5.399 4.394-9.79 9.793-9.79 5.398 0 9.789 4.391 9.789 9.79 0 .113-.012.219-.016.328h2.57c-.003-.11-.015-.215-.015-.328 0-5.399 4.39-9.79 9.789-9.79 5.402 0 9.793 4.391 9.793 9.79 0 .113-.012.219-.016.328h2.57c-.003-.11-.015-.215-.015-.328 0-5.399 4.39-9.79 9.79-9.79 5.398 0 9.792 4.391 9.792 9.79 0 .113-.015.219-.02.328h2.567c.094-5.316 4.441-9.613 9.781-9.613 5.34 0 9.684 4.297 9.782 9.613h2.562c-.004-.11-.016-.215-.016-.328 0-5.399 4.391-9.79 9.793-9.79 5.395 0 9.79 4.391 9.79 9.79 0 .113-.016.219-.02.328h14.285v.016zm0 0" fill="#303d7a"/><path d="M246.258 38.422h-2.274v-5.543h2.274zm-43.977-.168h-2.539V32.71h2.54zm22.121 0h-2.539V32.71h2.54zm0 0" fill="#303d7a"/><path d="M41.152 13.461h-1V5.465h1zM258.496 24.18h-1V5.664h1zm0 0" fill="#f5ae23"/><path d="M257.996 8.914l-216.86-.336v-1l216.86.336zm0 0" fill="#f5ae23"/><path d="M46.832 9.29l-6.504-1.165 6.524-1.754zm204.66.25l6.504-1.165-6.523-1.754zM125.008 2.125a.494.494 0 0 0 .406.195.497.497 0 0 0 .41-.195c.102-.125.153-.328.153-.598 0-.52-.188-.777-.563-.777-.371 0-.559.258-.559.777 0 .27.051.473.153.598m-.219 2.3c.016.122.05.227.102.313.05.09.12.16.207.207a.599.599 0 0 0 .316.078.607.607 0 0 0 .32-.078.528.528 0 0 0 .207-.207.98.98 0 0 0 .102-.312 2.32 2.32 0 0 0 .027-.38 2.38 2.38 0 0 0-.027-.382.988.988 0 0 0-.102-.308.554.554 0 0 0-.207-.208.607.607 0 0 0-.32-.078.602.602 0 0 0-.316.078.555.555 0 0 0-.207.208.822.822 0 0 0-.102.308c-.02.117-.027.246-.027.383 0 .133.008.258.027.379m-.941-1.281c.16-.258.398-.418.718-.48v-.017a1.043 1.043 0 0 1-.636-.449 1.006 1.006 0 0 1-.137-.32 1.369 1.369 0 0 1-.043-.32c0-.555.148-.953.445-1.196.297-.242.703-.363 1.219-.363.52 0 .926.121 1.223.363.297.243.441.641.441 1.196 0 .101-.012.207-.043.32a1.014 1.014 0 0 1-.14.32 1.034 1.034 0 0 1-.629.45v.015c.316.063.558.223.718.48.16.254.239.563.239.919 0 .168-.02.347-.06.543a1.333 1.333 0 0 1-.253.554 1.43 1.43 0 0 1-.547.422c-.238.113-.555.168-.95.168-.394 0-.71-.055-.944-.168a1.476 1.476 0 0 1-.551-.422 1.394 1.394 0 0 1-.25-.554 2.768 2.768 0 0 1-.059-.543c0-.356.078-.665.239-.918m4.976 2.308c0 .2-.015.387-.047.567-.027.18-.082.332-.16.464a1.057 1.057 0 0 1-.324.32 1.237 1.237 0 0 1-.527.153v-.559a.433.433 0 0 0 .312-.222.823.823 0 0 0 .106-.41v-.102h-.418v-1.25h1.058zm1.84-2.758c.094.164.254.246.48.246.227 0 .391-.082.489-.246.093-.168.144-.441.144-.824 0-.16-.008-.308-.027-.45a1.245 1.245 0 0 0-.09-.355.56.56 0 0 0-.191-.23.557.557 0 0 0-.324-.086.554.554 0 0 0-.332.086.49.49 0 0 0-.188.234 1.156 1.156 0 0 0-.086.356c-.012.137-.02.285-.02.445 0 .383.048.656.145.824m.059 2.149c.078.12.215.18.406.18a.564.564 0 0 0 .367-.11c.09-.07.16-.172.211-.3.051-.126.086-.278.102-.454.015-.176.023-.37.023-.578v-.27h-.015a1.08 1.08 0 0 1-.415.348c-.18.086-.394.13-.652.13-.25 0-.46-.044-.637-.13a1.13 1.13 0 0 1-.43-.37 1.611 1.611 0 0 1-.238-.56 3.085 3.085 0 0 1-.078-.707c0-.656.145-1.16.438-1.503.289-.348.754-.52 1.394-.52.395 0 .711.07.946.219.234.144.414.34.539.586.125.242.207.523.242.843.039.32.059.653.059 1 0 .403-.012.793-.036 1.172a3.165 3.165 0 0 1-.218.996 1.47 1.47 0 0 1-.567.684c-.258.168-.621.25-1.086.25-.203 0-.398-.02-.586-.059a1.267 1.267 0 0 1-.5-.222 1.16 1.16 0 0 1-.347-.442 1.611 1.611 0 0 1-.141-.683h1.105c0 .21.036.379.114.5m4.98-1.02h-2.254V2.88h2.254zm1.809-2.16h-1.13V.91h.106c.383 0 .688-.07.906-.215.223-.144.364-.375.422-.695h.848v5.664h-1.152zm3.695-.656l-.121 1.289h.015a.856.856 0 0 1 .418-.324c.168-.07.38-.102.625-.102.27 0 .497.05.676.156.176.106.32.243.422.41.106.172.18.368.223.583.043.214.062.433.062.66 0 .312-.027.597-.082.855-.05.254-.144.477-.281.66-.137.184-.32.325-.559.414-.234.094-.53.141-.894.141-.36 0-.649-.047-.867-.144a1.2 1.2 0 0 1-.508-.38 1.362 1.362 0 0 1-.238-.511 2.482 2.482 0 0 1-.059-.516v-.152h1.105c0 .098.004.195.016.305a.978.978 0 0 0 .074.3c.04.09.098.168.172.23a.443.443 0 0 0 .297.095c.238 0 .41-.094.516-.278.105-.183.156-.46.156-.828 0-.234-.012-.43-.031-.586a1.107 1.107 0 0 0-.11-.367.436.436 0 0 0-.203-.191.841.841 0 0 0-.32-.055c-.164 0-.293.047-.379.14a.63.63 0 0 0-.164.38h-1.031l.207-3.083h2.953v.899zm4.016 4.445c0 .2-.016.387-.043.567a1.36 1.36 0 0 1-.164.464 1.016 1.016 0 0 1-.325.32 1.236 1.236 0 0 1-.523.153v-.559a.449.449 0 0 0 .312-.222.862.862 0 0 0 .102-.41v-.102h-.414v-1.25h1.055zm.574.211c0-.25.027-.484.078-.707.05-.219.129-.426.23-.621.106-.2.235-.39.395-.582a5.99 5.99 0 0 1 .547-.57l.465-.434c.129-.11.23-.215.308-.312.074-.094.137-.192.18-.286.043-.097.07-.203.082-.312.016-.113.02-.242.02-.387 0-.469-.188-.703-.56-.703a.576.576 0 0 0-.339.09.554.554 0 0 0-.191.238 1.16 1.16 0 0 0-.09.352c-.012.132-.02.277-.02.425h-1.105v-.214c0-.532.144-.934.426-1.22.28-.28.726-.421 1.335-.421.579 0 1.004.133 1.282.398.277.266.414.649.414 1.145 0 .184-.016.352-.047.508a1.873 1.873 0 0 1-.152.453c-.07.144-.16.281-.274.418-.11.137-.246.277-.406.422l-.64.59a2.266 2.266 0 0 0-.4.453 1.21 1.21 0 0 0-.183.379h2.133v.898zm5.984-4.304h1.578l.672 2.878.672-2.879h1.574v4.305h-1.03l-.001-3.058-.758 3.058h-.914l-.758-3.058v3.058h-1.035zm6.352 4.304h-1.055v-1.25h1.055zm0 0" fill="#f5ae23"/></svg>