<svg xmlns="http://www.w3.org/2000/svg" viewBox="0 0 337.8613 55.214878" height="58.896" width="360.385"><path d="M318.818 31.104c.772 0 1.392.478 1.392 1.25 0 .766-.62 1.25-1.392 1.25h-2.685c-.772 0-1.392-.484-1.392-1.25 0-.772.62-1.25 1.392-1.25zm0 0" fill="#fff"/><path d="M44.473 16.812H0v6.933h5.562v3.462h2.846v-3.462h36.065v14.639H51.4V16.812zm0 0M265.093 51.846a7.512 7.512 0 0 1-7.51-7.51 7.508 7.508 0 0 1 7.51-7.505c4.145 0 7.51 3.36 7.51 7.505a7.512 7.512 0 0 1-7.51 7.51m0-18.389c-5.996 0-10.874 4.883-10.874 10.879 0 5.996 4.878 10.879 10.874 10.879s10.874-4.883 10.874-10.879c0-5.996-4.878-10.879-10.874-10.879" fill="#303d7a"/><path d="M267.285 44.336a2.192 2.192 0 1 1-4.384 0 2.192 2.192 0 0 1 4.384 0" fill="#303d7a"/><path d="M265.093 47.212a2.881 2.881 0 0 1-2.876-2.876 2.881 2.881 0 0 1 2.876-2.876 2.881 2.881 0 0 1 2.876 2.876 2.881 2.881 0 0 1-2.876 2.876M292.744 51.216a7.508 7.508 0 1 1-.003-15.013 7.508 7.508 0 0 1 .003 15.013m0-18.384c-6 0-10.879 4.878-10.879 10.874 0 6.001 4.878 10.879 10.88 10.879 5.995 0 10.873-4.878 10.873-10.879 0-5.996-4.878-10.874-10.874-10.874" fill="#303d7a"/><path d="M294.936 43.706a2.19 2.19 0 0 1-2.197 2.192 2.192 2.192 0 1 1 0-4.384c1.216 0 2.197.981 2.197 2.192" fill="#303d7a"/><path d="M292.744 46.582a2.878 2.878 0 0 1-2.876-2.876 2.877 2.877 0 0 1 2.876-2.871 2.876 2.876 0 0 1 2.871 2.871 2.877 2.877 0 0 1-2.87 2.876M237.441 51.216a7.508 7.508 0 0 1 0-15.015 7.508 7.508 0 1 1 0 15.015m0-18.384c-5.996 0-10.874 4.878-10.874 10.874 0 6.001 4.878 10.879 10.874 10.879s10.88-4.878 10.88-10.879c0-5.996-4.879-10.874-10.88-10.874" fill="#303d7a"/><path d="M239.639 43.706a2.193 2.193 0 0 1-2.198 2.192 2.192 2.192 0 1 1 0-4.385c1.211 0 2.198.982 2.198 2.193" fill="#303d7a"/><path d="M237.441 46.582a2.881 2.881 0 0 1-2.876-2.876 2.877 2.877 0 0 1 5.752 0 2.878 2.878 0 0 1-2.876 2.876M225.205 48.027h-3.174V41.1h3.174zm0 0M209.79 51.216a7.505 7.505 0 0 1-7.505-7.51 7.504 7.504 0 0 1 7.505-7.505c4.15 0 7.51 3.36 7.51 7.505 0 4.15-3.36 7.51-7.51 7.51m0-18.384c-5.996 0-10.874 4.878-10.874 10.874 0 6.001 4.878 10.879 10.874 10.879s10.879-4.878 10.879-10.879c0-5.996-4.878-10.874-10.879-10.874" fill="#303d7a"/><path d="M211.987 43.706a2.193 2.193 0 0 1-2.197 2.192 2.192 2.192 0 1 1 0-4.384c1.211 0 2.197.981 2.197 2.192" fill="#303d7a"/><path d="M209.79 46.582a2.877 2.877 0 0 1-2.871-2.876 2.876 2.876 0 0 1 2.871-2.871 2.877 2.877 0 0 1 2.876 2.871 2.878 2.878 0 0 1-2.876 2.876M197.554 48.027h-3.233V41.1h3.233zm0 0M182.144 51.216a7.508 7.508 0 0 1 0-15.015 7.508 7.508 0 1 1 0 15.015m0-18.384c-6.001 0-10.88 4.878-10.88 10.874 0 6.001 4.879 10.879 10.88 10.879 5.996 0 10.874-4.878 10.874-10.879 0-5.996-4.878-10.874-10.874-10.874" fill="#303d7a"/><path d="M184.336 43.706a2.19 2.19 0 0 1-2.192 2.192 2.193 2.193 0 0 1-2.198-2.192c0-1.21.987-2.192 2.198-2.192 1.21 0 2.192.981 2.192 2.192" fill="#303d7a"/><path d="M182.144 46.582a2.878 2.878 0 0 1-2.876-2.876 2.877 2.877 0 0 1 5.752 0 2.881 2.881 0 0 1-2.876 2.876" fill="#303d7a"/><path d="M337.861 44.136l-15.049-14.453v.014l-278.251-.014v18.344h125.341v-3.91h.025c-.005-.137-.025-.27-.025-.41 0-6.749 5.493-12.237 12.242-12.237 6.748 0 12.236 5.488 12.236 12.236 0 .142-.015.274-.02.41h3.213c-.005-.136-.02-.268-.02-.41 0-6.748 5.489-12.236 12.237-12.236 6.753 0 12.241 5.488 12.241 12.236 0 .142-.014.274-.02.41h3.214c-.005-.136-.02-.268-.02-.41 0-6.748 5.488-12.236 12.237-12.236 6.748 0 12.24 5.488 12.24 12.236 0 .142-.019.274-.024.41h3.208c.117-6.645 5.552-12.016 12.227-12.016 6.675 0 12.104 5.37 12.226 12.016h3.204c-.005-.136-.02-.268-.02-.41 0-6.748 5.488-12.236 12.241-12.236 6.743 0 12.237 5.488 12.237 12.236 0 .142-.02.274-.025.41h17.857v.02zm0 0" fill="#303d7a"/><path d="M307.822 48.027h-2.842V41.1h2.842zm0 0M252.852 47.817h-3.174V40.89h3.174zm0 0M280.503 47.817h-3.174V40.89h3.174zm0 0" fill="#303d7a"/><path d="M51.44 16.826h-1.25V6.831h1.25zm0 0M323.12 30.225h-1.25V7.08h1.25zm0 0" fill="#f5ae23"/><path d="M322.495 11.143l-271.074-.42v-1.25l271.074.42zm0 0" fill="#f5ae23"/><path d="M58.54 11.611l-8.13-1.455 8.154-2.192zm0 0M314.365 11.924l8.13-1.455-8.154-2.193zm0 0M156.26 2.656a.618.618 0 0 0 .508.244.62.62 0 0 0 .512-.244c.127-.156.19-.41.19-.747 0-.65-.234-.971-.702-.971-.464 0-.699.322-.699.971 0 .337.064.591.19.747m-.273 2.876c.02.152.064.283.127.39a.66.66 0 0 0 .259.26c.103.063.24.097.396.097a.76.76 0 0 0 .4-.097.66.66 0 0 0 .259-.26c.058-.106.102-.238.127-.39.024-.151.034-.307.034-.473 0-.171-.01-.332-.034-.479a1.236 1.236 0 0 0-.127-.386.693.693 0 0 0-.259-.258.759.759 0 0 0-.4-.098.753.753 0 0 0-.396.098.693.693 0 0 0-.259.258c-.063.108-.107.24-.127.386a2.943 2.943 0 0 0-.034.479 3 3 0 0 0 .034.473m-1.176-1.601c.2-.323.498-.523.898-.6v-.02a1.304 1.304 0 0 1-.796-.562 1.257 1.257 0 0 1-.17-.4 1.712 1.712 0 0 1-.054-.4c0-.694.185-1.192.556-1.495.371-.303.88-.454 1.524-.454.649 0 1.157.151 1.528.454.371.303.552.801.552 1.494 0 .127-.015.26-.054.4a1.266 1.266 0 0 1-.176.401 1.292 1.292 0 0 1-.786.562v.02c.395.077.698.277.898.6.2.317.298.703.298 1.147 0 .21-.024.435-.073.679a1.688 1.688 0 0 1-.317.693c-.157.21-.386.386-.684.528-.298.141-.693.21-1.187.21-.493 0-.888-.069-1.181-.21a1.844 1.844 0 0 1-.689-.528 1.742 1.742 0 0 1-.312-.693 3.458 3.458 0 0 1-.073-.679c0-.444.097-.83.297-1.147M161.03 6.816c0 .25-.02.484-.058.708a1.601 1.601 0 0 1-.2.582c-.103.16-.24.292-.406.4-.17.102-.39.166-.659.19v-.698a.541.541 0 0 0 .39-.278c.089-.156.132-.327.132-.513V7.08h-.522V5.518h1.323zm0 0M163.33 3.37c.117.204.317.307.6.307.284 0 .489-.103.611-.308.117-.21.18-.552.18-1.03 0-.2-.01-.386-.033-.562a1.556 1.556 0 0 0-.113-.444.7.7 0 0 0-.239-.288.696.696 0 0 0-.405-.107c-.176 0-.313.034-.415.107a.612.612 0 0 0-.235.293 1.445 1.445 0 0 0-.107.444c-.015.171-.024.357-.024.557 0 .478.058.82.18 1.03m.074 2.686c.097.151.268.224.507.224.19 0 .347-.044.46-.136a.87.87 0 0 0 .263-.376c.064-.157.107-.347.127-.567.02-.22.03-.464.03-.722V4.14h-.02a1.349 1.349 0 0 1-.518.434 1.868 1.868 0 0 1-.815.161c-.313 0-.577-.053-.796-.16-.22-.113-.4-.264-.537-.465a2.014 2.014 0 0 1-.298-.698 3.857 3.857 0 0 1-.098-.884c0-.82.18-1.45.547-1.88C162.617.215 163.198 0 164 0c.493 0 .889.088 1.182.273.293.181.517.425.674.733.156.303.258.654.302 1.055.05.4.074.815.074 1.25 0 .503-.015.99-.044 1.464a3.956 3.956 0 0 1-.274 1.246 1.837 1.837 0 0 1-.708.854c-.322.21-.776.313-1.357.313-.254 0-.498-.025-.733-.074a1.584 1.584 0 0 1-.625-.278 1.45 1.45 0 0 1-.434-.552c-.112-.23-.171-.517-.176-.854h1.382c0 .263.044.473.142.625M169.629 4.78h-2.817V3.6h2.817zm0 0M171.89 2.08h-1.412v-.942h.132c.479 0 .86-.088 1.133-.269.278-.18.454-.469.527-.869h1.06v7.08h-1.44zm0 0M176.509 1.26l-.152 1.611h.02a1.07 1.07 0 0 1 .522-.405c.21-.088.474-.127.782-.127.337 0 .62.063.844.195.22.132.4.303.528.513.132.215.224.459.278.727.054.269.078.542.078.826 0 .39-.034.747-.102 1.069-.064.317-.181.596-.352.825-.17.23-.4.405-.698.518-.293.117-.664.176-1.118.176-.45 0-.81-.059-1.084-.181a1.5 1.5 0 0 1-.635-.474 1.703 1.703 0 0 1-.298-.64 3.102 3.102 0 0 1-.073-.644v-.19h1.382c0 .122.005.244.02.38.01.132.043.26.092.376.049.113.122.21.215.289a.554.554 0 0 0 .37.117c.299 0 .513-.117.645-.347.132-.23.196-.576.196-1.035 0-.293-.015-.537-.04-.733a1.383 1.383 0 0 0-.136-.459.545.545 0 0 0-.254-.239 1.052 1.052 0 0 0-.4-.068c-.206 0-.367.058-.474.176a.787.787 0 0 0-.205.473h-1.29l.26-3.852h3.691V1.26zm0 0M181.528 6.816c0 .25-.02.484-.053.708a1.701 1.701 0 0 1-.206.582 1.27 1.27 0 0 1-.405.4c-.17.102-.39.166-.654.19v-.698a.56.56 0 0 0 .39-.278c.083-.156.127-.327.127-.513V7.08h-.517V5.518h1.318zm0 0M182.246 7.08c0-.312.034-.605.098-.884.063-.273.16-.532.288-.776.132-.25.293-.488.493-.728.195-.234.425-.473.684-.712l.58-.542c.162-.137.289-.269.386-.391.093-.117.171-.24.225-.357.054-.122.088-.253.102-.39.02-.142.025-.303.025-.484 0-.585-.235-.878-.698-.878a.72.72 0 0 0-.425.112.692.692 0 0 0-.24.298 1.453 1.453 0 0 0-.112.44 6.111 6.111 0 0 0-.024.531h-1.382v-.268c0-.664.18-1.167.532-1.524.352-.351.908-.527 1.67-.527.723 0 1.255.166 1.602.498.346.332.517.81.517 1.43 0 .23-.02.44-.058.635a2.341 2.341 0 0 1-.19.567c-.089.18-.201.351-.343.522-.136.171-.307.347-.507.528l-.801.737c-.215.195-.381.38-.498.566-.122.186-.2.342-.23.474h2.666V7.08zm0 0M189.727 1.7h1.972l.84 3.598.84-3.599h1.968V7.08h-1.29V3.257l-.947 3.823h-1.142l-.948-3.823V7.08h-1.293zm0 0M197.666 7.08h-1.318V5.518h1.318zm0 0" fill="#f5ae23"/></svg>