<svg xmlns="http://www.w3.org/2000/svg" viewBox="0 0 270.29 49.17"><title>4678</title><g id="85dce4d3-53a4-42d2-a37c-91bbad4dd134" data-name="Слой 2"><g id="a033364d-ddbf-4d72-ac89-766937cafa32" data-name="Слой 1"><path d="M255.05,29.88a1,1,0,0,1,1.11,1h0a1,1,0,0,1-1.11,1h-2.15a1,1,0,0,1-1.11-1h0a1,1,0,0,1,1.11-1Z" fill="#fff"/><polygon points="35.58 13.45 0 13.45 0 19 4.45 19 4.45 21.77 6.73 21.77 6.73 19 35.58 19 35.58 30.71 41.12 30.71 41.12 19 41.12 13.45 35.58 13.45" fill="#253678"/><path d="M212.07,31.77a8.7,8.7,0,1,0,8.7,8.7A8.71,8.71,0,0,0,212.07,31.77Zm0,14.71a6,6,0,1,1,6-6A6,6,0,0,1,212.07,46.48Z" fill="#253678"/><circle cx="212.07" cy="40.47" r="1.75" fill="#253678"/><path d="M212.07,42.77a2.3,2.3,0,1,1,2.3-2.3A2.3,2.3,0,0,1,212.07,42.77Z" fill="#253678"/><path d="M234.19,31.27a8.7,8.7,0,1,0,8.7,8.7A8.71,8.71,0,0,0,234.19,31.27Zm0,14.71a6,6,0,1,1,6-6A6,6,0,0,1,234.19,46Z" fill="#253678"/><circle cx="234.19" cy="39.97" r="1.75" fill="#253678"/><path d="M234.19,42.27a2.3,2.3,0,1,1,2.3-2.3A2.3,2.3,0,0,1,234.19,42.27Z" fill="#253678"/><path d="M190,31.27a8.7,8.7,0,1,0,8.7,8.7A8.71,8.71,0,0,0,190,31.27ZM190,46a6,6,0,1,1,6-6A6,6,0,0,1,190,46Z" fill="#253678"/><circle cx="189.95" cy="39.97" r="1.75" fill="#253678"/><path d="M190,42.27a2.3,2.3,0,1,1,2.3-2.3A2.3,2.3,0,0,1,190,42.27Z" fill="#253678"/><rect x="177.62" y="37.88" width="2.54" height="5.54" fill="#253678"/><path d="M167.83,31.27a8.7,8.7,0,1,0,8.7,8.7A8.71,8.71,0,0,0,167.83,31.27Zm0,14.71a6,6,0,1,1,6-6A6,6,0,0,1,167.83,46Z" fill="#253678"/><circle cx="167.83" cy="39.97" r="1.75" fill="#253678"/><path d="M167.83,42.27a2.3,2.3,0,1,1,2.3-2.3A2.3,2.3,0,0,1,167.83,42.27Z" fill="#253678"/><rect x="155.46" y="37.88" width="2.58" height="5.54" fill="#253678"/><path d="M145.71,31.27a8.7,8.7,0,1,0,8.7,8.7A8.71,8.71,0,0,0,145.71,31.27Zm0,14.71a6,6,0,1,1,6-6A6,6,0,0,1,145.71,46Z" fill="#253678"/><circle cx="145.71" cy="39.97" r="1.75" fill="#253678"/><path d="M145.71,42.27A2.3,2.3,0,1,1,148,40,2.3,2.3,0,0,1,145.71,42.27Z" fill="#253678"/><path d="M63.65,34.9l69.61.06.1,8.45h2.56V40.29h0c0-.11,0-.22,0-.33a9.79,9.79,0,0,1,19.58,0c0,.11,0,.22,0,.33h2.57c0-.11,0-.22,0-.33a9.79,9.79,0,0,1,19.58,0c0,.11,0,.22,0,.33h2.57c0-.11,0-.22,0-.33a9.79,9.79,0,0,1,19.58,0c0,.11,0,.22,0,.33h2.56a9.78,9.78,0,0,1,19.56,0h2.56c0-.11,0-.22,0-.33A9.79,9.79,0,0,1,244,40c0,.11,0,.22,0,.33h14.29v0h12l-12-11.56h-125l-69.65.39" fill="#253678"/><rect x="243.98" y="37.88" width="2.28" height="5.54" fill="#253678"/><rect x="199.74" y="37.71" width="2.54" height="5.54" fill="#253678"/><rect x="221.86" y="37.71" width="2.54" height="5.54" fill="#253678"/><rect x="60.27" y="29" width="2.27" height="5.54" fill="#253678"/><rect x="35.52" y="29" width="20.71" height="5.54" fill="#253678"/><rect x="57.08" y="29" width="2.28" height="5.54" fill="#253678"/><rect x="40.15" y="5.47" width="1" height="7.99" fill="#f6ad15"/><rect x="257.5" y="5.66" width="1" height="23.52" fill="#f6ad15"/><rect x="149.07" y="-100.18" width="1" height="216.86" transform="translate(141.09 157.8) rotate(-89.91)" fill="#f6ad15"/><polygon points="46.83 9.29 40.33 8.13 46.85 6.37 46.83 9.29" fill="#f6ad15"/><polygon points="251.49 9.54 258 8.38 251.47 6.62 251.49 9.54" fill="#f6ad15"/><path d="M123.85,3.14a1.05,1.05,0,0,1,.72-.48v0a1,1,0,0,1-.39-.18,1,1,0,0,1-.39-.59,1.37,1.37,0,0,1,0-.32,1.46,1.46,0,0,1,.44-1.2,2.22,2.22,0,0,1,2.44,0,1.46,1.46,0,0,1,.44,1.2,1.26,1.26,0,0,1,0,.32,1.13,1.13,0,0,1-.14.32,1.06,1.06,0,0,1-.25.27,1,1,0,0,1-.38.18v0a1.05,1.05,0,0,1,.72.48,1.7,1.7,0,0,1,.24.92,2.75,2.75,0,0,1-.06.54,1.36,1.36,0,0,1-.25.55,1.42,1.42,0,0,1-.55.42,2.76,2.76,0,0,1-1.9,0,1.43,1.43,0,0,1-.55-.42,1.36,1.36,0,0,1-.25-.55,2.75,2.75,0,0,1-.06-.54A1.7,1.7,0,0,1,123.85,3.14Zm.94,1.28a.9.9,0,0,0,.1.31.57.57,0,0,0,.2.21.72.72,0,0,0,.64,0,.57.57,0,0,0,.2-.21.9.9,0,0,0,.1-.31,2.59,2.59,0,0,0,0-.76.89.89,0,0,0-.1-.31.57.57,0,0,0-.2-.21.71.71,0,0,0-.64,0,.57.57,0,0,0-.2.21.89.89,0,0,0-.1.31,2.64,2.64,0,0,0,0,.76Zm.22-2.3a.53.53,0,0,0,.82,0,1,1,0,0,0,.15-.6q0-.78-.56-.78t-.56.78A1,1,0,0,0,125,2.13Z" fill="#f6ad15"/><path d="M128.82,5.46a3.48,3.48,0,0,1,0,.56,1.27,1.27,0,0,1-.16.46,1,1,0,0,1-.32.32,1.25,1.25,0,0,1-.52.16V6.4a.44.44,0,0,0,.31-.22.82.82,0,0,0,.1-.41v-.1h-.42V4.42h1.06Z" fill="#f6ad15"/><path d="M130.72,4.84a.44.44,0,0,0,.4.18.57.57,0,0,0,.37-.11.7.7,0,0,0,.21-.3,1.65,1.65,0,0,0,.1-.46q0-.26,0-.58V3.31h0a1,1,0,0,1-.41.35,1.47,1.47,0,0,1-.65.13,1.42,1.42,0,0,1-.64-.13,1.12,1.12,0,0,1-.43-.37,1.62,1.62,0,0,1-.24-.56,3.09,3.09,0,0,1-.08-.71,2.28,2.28,0,0,1,.44-1.5A1.72,1.72,0,0,1,131.2,0a1.77,1.77,0,0,1,.94.22,1.48,1.48,0,0,1,.54.58,2.44,2.44,0,0,1,.24.84,8.58,8.58,0,0,1,.06,1q0,.61,0,1.17a3.08,3.08,0,0,1-.22,1,1.47,1.47,0,0,1-.57.68,2,2,0,0,1-1.08.25,2.83,2.83,0,0,1-.59-.06,1.24,1.24,0,0,1-.5-.22,1.18,1.18,0,0,1-.35-.44,1.65,1.65,0,0,1-.14-.68h1.1A.92.92,0,0,0,130.72,4.84Zm-.06-2.15a.51.51,0,0,0,.48.25.52.52,0,0,0,.49-.25,1.73,1.73,0,0,0,.14-.82,3.9,3.9,0,0,0,0-.45,1.18,1.18,0,0,0-.09-.36.55.55,0,0,0-.19-.23.57.57,0,0,0-.32-.08.58.58,0,0,0-.33.08.52.52,0,0,0-.19.24,1.21,1.21,0,0,0-.08.36c0,.14,0,.28,0,.44A1.73,1.73,0,0,0,130.66,2.7Z" fill="#f6ad15"/><path d="M135.7,3.82h-2.26V2.88h2.26Z" fill="#f6ad15"/><path d="M137.51,1.66h-1.13V.91h.1A1.65,1.65,0,0,0,137.4.7a1,1,0,0,0,.42-.7h.85V5.66h-1.15Z" fill="#f6ad15"/><path d="M141.21,1l-.12,1.29h0a.9.9,0,0,1,.42-.32,1.71,1.71,0,0,1,.62-.1,1.33,1.33,0,0,1,.68.16,1.19,1.19,0,0,1,.42.41,1.76,1.76,0,0,1,.22.58,3.37,3.37,0,0,1,.06.66,4.18,4.18,0,0,1-.08.86,1.67,1.67,0,0,1-.28.66,1.25,1.25,0,0,1-.56.42,2.46,2.46,0,0,1-.9.14,2.2,2.2,0,0,1-.87-.14,1.22,1.22,0,0,1-.51-.38,1.32,1.32,0,0,1-.24-.51A2.43,2.43,0,0,1,140,4.2V4h1.1q0,.14,0,.3a1,1,0,0,0,.08.3.6.6,0,0,0,.17.23.45.45,0,0,0,.3.09.55.55,0,0,0,.52-.28,1.73,1.73,0,0,0,.16-.83,4.46,4.46,0,0,0,0-.58,1.06,1.06,0,0,0-.11-.37.43.43,0,0,0-.2-.19.8.8,0,0,0-.32-.06.5.5,0,0,0-.38.14.67.67,0,0,0-.16.38h-1l.21-3.08h3V1Z" fill="#f6ad15"/><path d="M145.22,5.46a3.48,3.48,0,0,1,0,.56,1.27,1.27,0,0,1-.16.46,1,1,0,0,1-.32.32,1.25,1.25,0,0,1-.52.16V6.4a.44.44,0,0,0,.31-.22.82.82,0,0,0,.1-.41v-.1h-.42V4.42h1.06Z" fill="#f6ad15"/><path d="M145.8,5.66a3.11,3.11,0,0,1,.08-.7,2.56,2.56,0,0,1,.23-.62,3.35,3.35,0,0,1,.39-.58,6,6,0,0,1,.55-.57l.46-.43a2.58,2.58,0,0,0,.31-.31,1.32,1.32,0,0,0,.18-.29,1.09,1.09,0,0,0,.08-.31,3.3,3.3,0,0,0,0-.38q0-.7-.56-.7a.58.58,0,0,0-.34.09.58.58,0,0,0-.19.24,1.13,1.13,0,0,0-.09.35,4.16,4.16,0,0,0,0,.42h-1.1V1.64a1.65,1.65,0,0,1,.42-1.22A1.83,1.83,0,0,1,147.56,0a1.79,1.79,0,0,1,1.28.4,1.51,1.51,0,0,1,.42,1.14,2.53,2.53,0,0,1,0,.51,1.91,1.91,0,0,1-.15.45,2.06,2.06,0,0,1-.27.42,4,4,0,0,1-.41.42l-.64.59a2.37,2.37,0,0,0-.4.45,1.3,1.3,0,0,0-.18.38h2.14v.9Z" fill="#f6ad15"/><path d="M151.78,1.36h1.58L154,4.24l.67-2.88h1.58v4.3h-1V2.61l-.76,3.06h-.91l-.76-3.06V5.66h-1Z" fill="#f6ad15"/><path d="M158.13,5.66h-1.06V4.42h1.06Z" fill="#f6ad15"/></g></g></svg>