<svg xmlns="http://www.w3.org/2000/svg" viewBox="0 0 410.31024 55.22462" height="58.906" width="437.664"><path d="M89.521 41.338h-6.928V16.826h6.928zm0 0" fill="#303d7a"/><path d="M89.521 23.76h-51.4v-6.934h51.4zm0 0" fill="#303d7a"/><path d="M46.528 27.222h-2.841v-6.929h2.841zm0 0M381.42 51.23a7.51 7.51 0 0 1-7.509-7.51 7.508 7.508 0 0 1 15.015 0c0 4.146-3.36 7.51-7.505 7.51m0-18.383c-6.001 0-10.879 4.878-10.879 10.874S375.42 54.6 381.421 54.6c5.991 0 10.874-4.883 10.874-10.88 0-5.995-4.878-10.873-10.874-10.873" fill="#303d7a"/><path d="M383.613 43.72a2.19 2.19 0 0 1-2.192 2.193 2.193 2.193 0 0 1-2.197-2.192c0-1.211.986-2.193 2.197-2.193 1.21 0 2.192.982 2.192 2.193" fill="#303d7a"/><path d="M381.42 46.597a2.878 2.878 0 0 1-2.875-2.876 2.881 2.881 0 0 1 2.876-2.876 2.877 2.877 0 0 1 0 5.752M353.77 51.86a7.512 7.512 0 0 1-7.51-7.51 7.512 7.512 0 0 1 7.51-7.51 7.512 7.512 0 0 1 7.51 7.51 7.512 7.512 0 0 1-7.51 7.51m0-18.388c-5.997 0-10.875 4.882-10.875 10.879 0 5.996 4.878 10.874 10.875 10.874 5.996 0 10.874-4.878 10.874-10.874 0-5.997-4.878-10.88-10.875-10.88" fill="#303d7a"/><path d="M355.962 44.35a2.192 2.192 0 1 1-4.384.001 2.192 2.192 0 0 1 4.384 0" fill="#303d7a"/><path d="M353.77 47.227a2.881 2.881 0 0 1-2.876-2.876 2.874 2.874 0 0 1 5.747 0 2.877 2.877 0 0 1-2.872 2.876M326.118 51.23a7.508 7.508 0 0 1-7.505-7.51 7.508 7.508 0 1 1 15.015 0 7.51 7.51 0 0 1-7.51 7.51m0-18.383c-5.996 0-10.874 4.878-10.874 10.874S320.122 54.6 326.118 54.6s10.879-4.883 10.879-10.88c0-5.995-4.883-10.873-10.879-10.873" fill="#303d7a"/><path d="M328.31 43.72a2.19 2.19 0 0 1-2.192 2.193 2.192 2.192 0 1 1 2.192-2.192" fill="#303d7a"/><path d="M326.118 46.597a2.881 2.881 0 0 1-2.876-2.876 2.884 2.884 0 0 1 2.876-2.876 2.881 2.881 0 0 1 2.876 2.876 2.878 2.878 0 0 1-2.876 2.876M313.882 48.042h-3.174v-6.929h3.174zm0 0M298.467 51.23a7.508 7.508 0 0 1-7.505-7.51 7.508 7.508 0 1 1 15.015 0 7.51 7.51 0 0 1-7.51 7.51m0-18.383c-5.996 0-10.874 4.878-10.874 10.874S292.47 54.6 298.467 54.6s10.879-4.883 10.879-10.88c0-5.995-4.878-10.873-10.88-10.873" fill="#303d7a"/><path d="M300.664 43.72a2.19 2.19 0 0 1-2.197 2.193 2.192 2.192 0 1 1 0-4.385c1.216 0 2.197.982 2.197 2.193" fill="#303d7a"/><path d="M298.467 46.597a2.877 2.877 0 0 1 0-5.752 2.881 2.881 0 0 1 2.876 2.876 2.878 2.878 0 0 1-2.876 2.876M243.169 51.23a7.512 7.512 0 0 1-7.51-7.51 7.512 7.512 0 0 1 7.51-7.509 7.512 7.512 0 0 1 7.51 7.51 7.512 7.512 0 0 1-7.51 7.51m0-18.384c-5.996 0-10.874 4.878-10.874 10.874S237.173 54.6 243.169 54.6s10.874-4.883 10.874-10.88c0-5.995-4.878-10.873-10.874-10.873" fill="#303d7a"/><path d="M245.366 43.72a2.193 2.193 0 0 1-2.197 2.193 2.192 2.192 0 1 1 0-4.385c1.21 0 2.197.982 2.197 2.193" fill="#303d7a"/><path d="M243.169 46.597a2.878 2.878 0 0 1-2.876-2.876 2.881 2.881 0 0 1 2.876-2.876 2.881 2.881 0 0 1 2.876 2.876 2.878 2.878 0 0 1-2.876 2.876M286.23 48.042h-3.232v-6.929h3.232zm0 0M270.82 51.23a7.512 7.512 0 0 1-7.51-7.51 7.512 7.512 0 0 1 7.51-7.509 7.512 7.512 0 0 1 7.51 7.51 7.512 7.512 0 0 1-7.51 7.51m0-18.384c-6 0-10.879 4.878-10.879 10.874S264.82 54.6 270.821 54.6c5.995 0 10.873-4.883 10.873-10.88 0-5.995-4.878-10.873-10.874-10.873" fill="#303d7a"/><path d="M273.013 43.72a2.19 2.19 0 0 1-2.193 2.193 2.193 2.193 0 0 1-2.197-2.192c0-1.211.986-2.193 2.197-2.193s2.193.982 2.193 2.193" fill="#303d7a"/><path d="M270.82 46.597a2.878 2.878 0 0 1-2.876-2.876 2.881 2.881 0 0 1 2.876-2.876 2.877 2.877 0 0 1 0 5.752M258.58 48.042h-3.258v-6.929h3.257zm0 0M230.933 48.042h-3.194v-6.929h3.194zm0 0M215.522 51.23a7.51 7.51 0 0 1-7.51-7.51 7.508 7.508 0 0 1 15.015 0c0 4.146-3.359 7.51-7.505 7.51m0-18.383c-6 0-10.878 4.878-10.878 10.874S209.52 54.6 215.522 54.6c5.997 0 10.874-4.883 10.874-10.88 0-5.995-4.877-10.873-10.874-10.873" fill="#303d7a"/><path d="M217.715 43.72a2.193 2.193 0 0 1-2.197 2.193 2.192 2.192 0 1 1 0-4.385c1.21 0 2.197.982 2.197 2.193" fill="#303d7a"/><path d="M215.522 46.597a2.878 2.878 0 0 1-2.876-2.876 2.881 2.881 0 0 1 2.876-2.876 2.877 2.877 0 0 1 0 5.752M203.281 48.042h-3.271v-6.929h3.271zm0 0M187.871 51.23a7.51 7.51 0 0 1-7.51-7.51 7.508 7.508 0 0 1 15.015 0c0 4.146-3.36 7.51-7.505 7.51m0-18.383c-6 0-10.879 4.878-10.879 10.874S181.87 54.6 187.872 54.6c5.995 0 10.873-4.883 10.873-10.88 0-5.995-4.878-10.873-10.874-10.873" fill="#303d7a"/><path d="M190.063 43.72a2.19 2.19 0 0 1-2.192 2.193 2.193 2.193 0 0 1-2.197-2.192c0-1.211.986-2.193 2.197-2.193s2.192.982 2.192 2.193" fill="#303d7a"/><path d="M187.871 46.597a2.878 2.878 0 0 1-2.876-2.876 2.881 2.881 0 0 1 2.876-2.876 2.877 2.877 0 0 1 0 5.752" fill="#303d7a"/><path d="M82.593 30.527v17.515h92.9v-4.204h.005c0-.039-.005-.078-.005-.118 0-6.748 5.493-12.236 12.246-12.236s12.246 5.488 12.246 12.236c0 .04-.01.078-.01.118h3.189c0-.039-.005-.078-.005-.118 0-6.748 5.493-12.236 12.246-12.236s12.246 5.488 12.246 12.236c0 .04-.01.078-.01.118h3.188c0-.039-.005-.078-.005-.118 0-6.748 5.494-12.236 12.247-12.236s12.246 5.488 12.246 12.236c0 .04-.005.078-.01.118h3.188c0-.039-.005-.078-.005-.118 0-6.748 5.493-12.236 12.246-12.236 6.748 0 12.246 5.488 12.246 12.236 0 .04-.005.078-.01.118h3.189c0-.039-.005-.078-.005-.118 0-6.748 5.493-12.236 12.246-12.236s12.246 5.488 12.246 12.236c0 .04-.005.078-.01.118h3.188c0-.039-.005-.078-.005-.118 0-6.748 5.494-12.236 12.247-12.236 6.752 0 12.246 5.488 12.246 12.236 0 .04-.005.078-.01.118h3.208c.273-6.514 5.644-11.724 12.221-11.724s11.949 5.21 12.217 11.724h3.208c0-.039-.005-.078-.005-.118 0-6.748 5.493-12.236 12.246-12.236s12.246 5.488 12.246 12.236c0 .04-.005.078-.005.118h16.67v-13.31zm0 0M67.544 48.667h-2.842v-6.929h2.842zm0 0" fill="#303d7a"/><path d="M62.33 32.114s-25.201-2.45-34.098-3.056C21.177 28.579 0 27.134 0 27.134v6.928l31.91 1.822 5.14 5.854s1.148.371 2.98.908c.834-5.942 5.937-10.532 12.104-10.532 6.748 0 12.236 5.489 12.236 12.237 0 .58-.054 1.142-.132 1.699 7.906-2.559-1.909-13.936-1.909-13.936" fill="#303d7a"/><path d="M52.134 51.86a7.512 7.512 0 0 1-7.51-7.51 7.512 7.512 0 0 1 7.51-7.51 7.512 7.512 0 0 1 7.51 7.51 7.512 7.512 0 0 1-7.51 7.51m0-18.388c-5.996 0-10.874 4.882-10.874 10.879 0 5.996 4.878 10.874 10.874 10.874s10.879-4.878 10.879-10.874c0-5.997-4.883-10.88-10.88-10.88" fill="#303d7a"/><path d="M54.326 44.35a2.192 2.192 0 1 1-4.384.001 2.192 2.192 0 0 1 4.384 0" fill="#303d7a"/><path d="M52.134 47.227a2.881 2.881 0 0 1-2.876-2.876 2.878 2.878 0 0 1 2.876-2.876 2.878 2.878 0 0 1 2.876 2.876 2.881 2.881 0 0 1-2.876 2.876M39.897 48.667h-2.846v-6.929h2.846zm0 0M396.499 48.042h-2.842v-6.929h2.842zm0 0M369.18 47.187h-3.174V40.26h3.174zm0 0M341.533 47.832h-3.174v-6.929h3.174zm0 0" fill="#303d7a"/><path d="M89.497 16.826h-1.25V6.831h1.25zm0 0M409.922 30.527h-1.25V7.08h1.25zm0 0" fill="#f5ae23"/><path d="M409.297 11.143l-319.824-.42v-1.25l319.824.42zm0 0" fill="#f5ae23"/><path d="M96.597 11.611l-8.13-1.455 8.15-2.192zm0 0M401.167 11.924l8.13-1.455-8.154-2.193zm0 0M227.993 2.08h-1.411v-.942h.132c.478 0 .86-.088 1.133-.274.278-.175.454-.468.527-.864h1.06v7.08h-1.44zm0 0M233.613 1.797l-1.382 2.69h1.402v-2.69zM233.462 0h1.49v4.487h.678V5.61h-.679v1.47h-1.318V5.61h-2.52V4.43zm0 0M239.033 4.775h-2.822V3.6h2.822zm0 0M239.653 7.08c0-.317.03-.61.093-.884.064-.273.161-.532.293-.776.127-.25.288-.493.488-.728.196-.239.425-.473.684-.712l.581-.542a3.18 3.18 0 0 0 .386-.391c.097-.117.17-.24.224-.361.054-.118.088-.25.103-.386.02-.142.03-.303.03-.484 0-.585-.235-.878-.704-.878a.72.72 0 0 0-.425.112.699.699 0 0 0-.24.298 1.45 1.45 0 0 0-.111.44 6.087 6.087 0 0 0-.025.526h-1.377v-.268c0-.66.176-1.162.528-1.519.356-.351.913-.527 1.67-.527.722 0 1.254.166 1.601.498.347.332.518.81.518 1.43 0 .225-.02.435-.059.635-.039.196-.103.381-.19.567-.083.176-.2.351-.337.522-.142.171-.313.347-.513.528l-.8.737a3.18 3.18 0 0 0-.499.566c-.122.181-.195.342-.23.474h2.671V7.08zm0 0M246.094 2.08h-1.411v-.942h.127c.483 0 .859-.088 1.137-.274.279-.175.45-.468.523-.864h1.064v7.08h-1.44zm0 0M251.934 1.7h1.967l.84 3.598.84-3.599h1.973V7.08h-1.294V3.257l-.948 3.823h-1.142l-.947-3.823V7.08h-1.29zm0 0M259.873 7.08h-1.323V5.518h1.323zm0 0" fill="#f5ae23"/></svg>