<svg xmlns="http://www.w3.org/2000/svg" viewBox="0 0 328.24819 44.17969" height="58.906" width="437.664"><path d="M71.617 33.07h-5.543V13.461h5.543zm0 0" fill="#303d7a"/><path d="M71.617 19.008H30.496V13.46h41.121zm0 0" fill="#303d7a"/><path d="M37.223 21.777h-2.274v-5.543h2.274zm267.914 19.207a6.007 6.007 0 1 1 0-12.015 6.007 6.007 0 0 1 6.004 6.008 6.007 6.007 0 0 1-6.004 6.007m0-14.707c-4.801 0-8.703 3.903-8.703 8.7 0 4.796 3.902 8.703 8.703 8.703 4.793 0 8.699-3.907 8.699-8.703 0-4.797-3.902-8.7-8.7-8.7" fill="#303d7a"/><path d="M306.89 34.977a1.75 1.75 0 0 1-1.753 1.753 1.755 1.755 0 1 1 0-3.507c.968 0 1.754.785 1.754 1.754" fill="#303d7a"/><path d="M305.137 37.277a2.301 2.301 0 0 1-.001-4.601 2.301 2.301 0 0 1 0 4.602m-22.12 4.21a6.01 6.01 0 0 1-6.008-6.008 6.01 6.01 0 0 1 6.008-6.007 6.01 6.01 0 0 1 6.007 6.007 6.01 6.01 0 0 1-6.007 6.008m0-14.71c-4.797 0-8.7 3.906-8.7 8.702 0 4.797 3.903 8.7 8.7 8.7 4.796 0 8.699-3.903 8.699-8.7 0-4.796-3.903-8.703-8.7-8.703" fill="#303d7a"/><path d="M284.77 35.48a1.754 1.754 0 1 1-3.508 0 1.754 1.754 0 0 1 3.507 0" fill="#303d7a"/><path d="M283.016 37.781a2.304 2.304 0 0 1-2.301-2.3 2.299 2.299 0 0 1 4.598 0c0 1.265-1.028 2.3-2.297 2.3m-22.122 3.203a6.007 6.007 0 0 1-6.003-6.007 6.007 6.007 0 1 1 12.011 0 6.007 6.007 0 0 1-6.008 6.007m0-14.707c-4.796 0-8.699 3.903-8.699 8.7 0 4.796 3.903 8.703 8.7 8.703 4.796 0 8.703-3.907 8.703-8.703 0-4.797-3.907-8.7-8.704-8.7" fill="#303d7a"/><path d="M262.648 34.977a1.75 1.75 0 0 1-1.754 1.753 1.754 1.754 0 1 1 1.754-1.754" fill="#303d7a"/><path d="M260.894 37.277a2.305 2.305 0 0 1-2.3-2.3 2.307 2.307 0 0 1 2.3-2.301 2.304 2.304 0 0 1 2.301 2.3 2.302 2.302 0 0 1-2.3 2.301m-9.79 1.157h-2.539V32.89h2.54zm-12.332 2.55a6.007 6.007 0 0 1-6.004-6.007 6.007 6.007 0 1 1 12.012 0 6.007 6.007 0 0 1-6.008 6.007m0-14.707c-4.796 0-8.699 3.903-8.699 8.7 0 4.796 3.903 8.703 8.7 8.703 4.796 0 8.703-3.907 8.703-8.703 0-4.797-3.903-8.7-8.704-8.7" fill="#303d7a"/><path d="M240.531 34.977c0 .972-.785 1.753-1.758 1.753a1.754 1.754 0 1 1 0-3.507c.973 0 1.758.785 1.758 1.754" fill="#303d7a"/><path d="M238.773 37.277a2.301 2.301 0 0 1 0-4.601 2.304 2.304 0 0 1 2.301 2.3 2.302 2.302 0 0 1-2.3 2.301m-44.239 3.707a6.01 6.01 0 0 1-6.008-6.007 6.01 6.01 0 0 1 6.008-6.008 6.01 6.01 0 0 1 6.008 6.008 6.01 6.01 0 0 1-6.008 6.007m0-14.707c-4.797 0-8.7 3.903-8.7 8.7 0 4.796 3.903 8.703 8.7 8.703 4.797 0 8.7-3.907 8.7-8.703 0-4.797-3.903-8.7-8.7-8.7" fill="#303d7a"/><path d="M196.293 34.977c0 .972-.79 1.753-1.758 1.753a1.754 1.754 0 1 1 0-3.508c.969 0 1.758.786 1.758 1.755" fill="#303d7a"/><path d="M194.535 37.277a2.3 2.3 0 1 1 0-4.6 2.3 2.3 0 0 1 0 4.6m34.449 1.157h-2.586V32.89h2.586zm-12.328 2.55a6.01 6.01 0 0 1-6.008-6.007 6.01 6.01 0 0 1 6.008-6.008 6.01 6.01 0 0 1 6.008 6.008 6.01 6.01 0 0 1-6.008 6.007m0-14.707c-4.8 0-8.703 3.903-8.703 8.7 0 4.796 3.902 8.703 8.703 8.703 4.797 0 8.7-3.907 8.7-8.703 0-4.797-3.903-8.7-8.7-8.7" fill="#303d7a"/><path d="M218.41 34.977a1.75 1.75 0 0 1-1.754 1.753 1.755 1.755 0 1 1 0-3.507c.969 0 1.754.785 1.754 1.754" fill="#303d7a"/><path d="M216.656 37.277a2.3 2.3 0 0 1 0-4.601 2.301 2.301 0 0 1 0 4.601m-9.793 1.157h-2.605V32.89h2.605zm-22.117 0h-2.555V32.89h2.555zm-12.328 2.55a6.007 6.007 0 1 1 0-12.015 6.007 6.007 0 0 1 6.004 6.008 6.007 6.007 0 0 1-6.004 6.007m0-14.707c-4.8 0-8.703 3.903-8.703 8.7 0 4.796 3.902 8.703 8.703 8.703 4.797 0 8.7-3.907 8.7-8.703 0-4.797-3.903-8.7-8.7-8.7" fill="#303d7a"/><path d="M174.172 34.977c0 .972-.79 1.753-1.758 1.753a1.754 1.754 0 1 1 0-3.508c.969 0 1.758.786 1.758 1.755" fill="#303d7a"/><path d="M172.418 37.277a2.3 2.3 0 0 1 0-4.601 2.301 2.301 0 0 1 0 4.602m-9.793 1.156h-2.617V32.89h2.617zm-12.328 2.55a6.007 6.007 0 1 1 0-12.015 6.007 6.007 0 0 1 6.004 6.008 6.007 6.007 0 0 1-6.004 6.007m0-14.707c-4.8 0-8.703 3.903-8.703 8.7 0 4.796 3.902 8.703 8.703 8.703 4.797 0 8.7-3.907 8.7-8.703-.001-4.797-3.903-8.7-8.7-8.7" fill="#303d7a"/><path d="M152.05 34.977a1.75 1.75 0 0 1-1.753 1.753 1.755 1.755 0 1 1 0-3.507c.969 0 1.754.785 1.754 1.754" fill="#303d7a"/><path d="M150.297 37.277a2.3 2.3 0 0 1 0-4.601 2.301 2.301 0 0 1 0 4.602" fill="#303d7a"/><path d="M66.074 24.422v14.012h74.32V35.07h.004c0-.03-.004-.062-.004-.094 0-5.398 4.395-9.789 9.797-9.789 5.403 0 9.797 4.391 9.797 9.79 0 .03-.008.061-.008.093h2.551c0-.03-.004-.062-.004-.094 0-5.398 4.395-9.789 9.797-9.789 5.402 0 9.797 4.391 9.797 9.79 0 .03-.008.061-.008.093h2.55c0-.03-.003-.062-.003-.094 0-5.398 4.394-9.789 9.796-9.789 5.403 0 9.797 4.391 9.797 9.79 0 .03-.004.061-.008.093h2.551c0-.03-.004-.062-.004-.094 0-5.398 4.395-9.789 9.797-9.789 5.398 0 9.797 4.391 9.797 9.79 0 .03-.004.061-.008.093h2.55c0-.03-.003-.062-.003-.094 0-5.398 4.394-9.789 9.796-9.789 5.403 0 9.797 4.391 9.797 9.79 0 .03-.004.061-.008.093h2.551c0-.03-.004-.062-.004-.094 0-5.398 4.395-9.789 9.797-9.789 5.402 0 9.797 4.391 9.797 9.79 0 .03-.004.061-.008.093h2.566c.22-5.21 4.516-9.379 9.778-9.379 5.261 0 9.558 4.168 9.773 9.38h2.566c0-.032-.004-.063-.004-.095 0-5.398 4.395-9.789 9.797-9.789 5.403 0 9.797 4.391 9.797 9.79 0 .03-.004.061-.004.093h13.336V24.422zM54.035 38.934h-2.273V33.39h2.273zm0 0" fill="#303d7a"/><path d="M49.863 25.691s-20.16-1.96-27.277-2.445C16.94 22.863 0 21.707 0 21.707v5.543l25.527 1.457 4.114 4.684s.918.296 2.382.726c.668-4.754 4.75-8.426 9.684-8.426 5.398 0 9.789 4.391 9.789 9.79 0 .464-.043.914-.105 1.359 6.324-2.047-1.528-11.149-1.528-11.149" fill="#303d7a"/><path d="M41.707 41.488a6.01 6.01 0 0 1-6.008-6.008 6.01 6.01 0 0 1 6.008-6.007 6.01 6.01 0 0 1 6.008 6.007 6.01 6.01 0 0 1-6.008 6.008m0-14.71c-4.797 0-8.7 3.906-8.7 8.702 0 4.797 3.903 8.7 8.7 8.7 4.797 0 8.703-3.903 8.703-8.7 0-4.796-3.906-8.703-8.703-8.703" fill="#303d7a"/><path d="M43.46 35.48a1.754 1.754 0 1 1-3.507 0 1.754 1.754 0 0 1 3.508 0" fill="#303d7a"/><path d="M41.707 37.781a2.301 2.301 0 1 1 2.3-2.301 2.304 2.304 0 0 1-2.3 2.301m-9.789 1.153H29.64V33.39h2.277zm285.282-.5h-2.274V32.89h2.273zm-21.856-.684h-2.54v-5.543h2.54zm-22.117.516h-2.54v-5.543h2.54zm0 0" fill="#303d7a"/><path d="M71.598 13.461h-1V5.465h1zm256.339 10.961h-1V5.664h1zm0 0" fill="#f5ae23"/><path d="M327.437 8.914L71.578 8.578v-1l255.86.336zm0 0" fill="#f5ae23"/><path d="M77.277 9.29l-6.504-1.165 6.52-1.754zm243.657.25l6.503-1.165-6.523-1.754zm-138.54-7.876h-1.128V.91h.105c.383 0 .688-.07.906-.219.223-.14.364-.375.422-.691h.848v5.664h-1.153zm4.496-.226l-1.105 2.152h1.121V1.438zM186.77 0h1.19v3.59h.544v.898h-.543v1.176h-1.055V4.488h-2.015v-.945zm4.457 3.82h-2.258v-.94h2.258zm.496 1.844c0-.254.023-.488.074-.707a2.46 2.46 0 0 1 .234-.621c.102-.2.23-.395.39-.582.157-.191.34-.379.548-.57l.465-.434a2.62 2.62 0 0 0 .308-.312c.078-.094.137-.192.18-.29a1 1 0 0 0 .082-.308 2.86 2.86 0 0 0 .023-.387c0-.469-.187-.703-.562-.703a.576.576 0 0 0-.34.09.559.559 0 0 0-.192.238 1.16 1.16 0 0 0-.09.352 5.14 5.14 0 0 0-.019.422h-1.101v-.215c0-.528.14-.93.421-1.215.286-.281.73-.422 1.336-.422.578 0 1.004.133 1.282.398.277.266.414.649.414 1.145 0 .18-.016.348-.047.508a1.931 1.931 0 0 1-.422.87c-.113.138-.25.278-.41.423l-.64.59a2.504 2.504 0 0 0-.4.453 1.268 1.268 0 0 0-.183.379h2.137v.898zm5.152-4h-1.129V.91h.102c.386 0 .687-.07.91-.219.222-.14.36-.375.418-.691h.851v5.664h-1.152zm4.672-.304h1.574l.672 2.878.672-2.879h1.578v4.305h-1.035V2.606l-.758 3.058h-.914l-.758-3.058v3.058h-1.031zm6.351 4.304h-1.058v-1.25h1.058zm0 0" fill="#f5ae23"/></svg>