<svg xmlns="http://www.w3.org/2000/svg" viewBox="0 0 269.42869 55.937498" height="59.667" width="287.391"><path d="M266.313 30.806c.772 0 1.392 1.108 1.392 1.875 0 .766-.62 1.875-1.392 1.875h-2.685c-.772 0-1.392-1.109-1.392-1.875 0-.767.62-1.875 1.392-1.875zm0 0" fill="#fff"/><path d="M51.401 23.843H0v-6.929h51.401zm0 0M181.499 44.448H44.473V37.52h137.026zm0 0" fill="#303d7a"/><path d="M8.408 27.305H5.562v-6.929h2.846zm0 0M44.473 32.065H51.4v2.842h-6.928zm0 0M44.473 36.309H51.4v2.841h-6.928zm0 0M44.473 27.92H51.4v2.847h-6.928zm0 0M44.473 23.687H51.4v2.841h-6.928zm0 0M179.404 30.098v14.419h2.1c0-.03-.005-.059-.005-.083 0-6.748 5.488-12.237 12.236-12.237s12.237 5.489 12.237 12.237c0 .024 0 .053-.005.083h3.208c.288-6.495 5.649-11.695 12.211-11.695 6.563 0 11.92 5.2 12.208 11.695h3.208c0-.03-.005-.059-.005-.083 0-6.748 5.488-12.237 12.236-12.237s12.241 5.489 12.241 12.237c0 .024-.005.053-.005.083h7.964v-14.42zm0 0" fill="#303d7a"/><path d="M249.033 51.943a7.508 7.508 0 0 1-7.505-7.51 7.508 7.508 0 1 1 15.015 0 7.51 7.51 0 0 1-7.51 7.51m0-18.383c-5.996 0-10.874 4.873-10.874 10.874 0 5.996 4.878 10.874 10.874 10.874s10.88-4.878 10.88-10.874c0-6.001-4.879-10.874-10.88-10.874" fill="#303d7a"/><path d="M251.23 44.434c0 1.21-.986 2.192-2.197 2.192a2.192 2.192 0 1 1 0-4.385c1.211 0 2.197.982 2.197 2.193" fill="#303d7a"/><path d="M249.033 47.305a2.873 2.873 0 1 1 2.876-2.871 2.874 2.874 0 0 1-2.876 2.87M221.387 52.568a7.508 7.508 0 0 1-7.51-7.505 7.512 7.512 0 0 1 7.51-7.51 7.512 7.512 0 0 1 7.51 7.51 7.508 7.508 0 0 1-7.51 7.505m0-18.383c-6.001 0-10.88 4.877-10.88 10.878 0 5.997 4.879 10.874 10.88 10.874 5.996 0 10.874-4.877 10.874-10.874 0-6-4.878-10.878-10.874-10.878" fill="#303d7a"/><path d="M223.58 45.063c0 1.211-.982 2.193-2.193 2.193a2.196 2.196 0 0 1-2.198-2.193c0-1.215.987-2.192 2.198-2.192a2.19 2.19 0 0 1 2.192 2.192" fill="#303d7a"/><path d="M221.387 47.935a2.877 2.877 0 0 1-2.876-2.872 2.878 2.878 0 0 1 2.876-2.875 2.877 2.877 0 0 1 2.87 2.875 2.876 2.876 0 0 1-2.87 2.872M193.735 51.943a7.512 7.512 0 0 1-7.51-7.51 7.512 7.512 0 0 1 7.51-7.51 7.512 7.512 0 0 1 7.51 7.51 7.512 7.512 0 0 1-7.51 7.51m0-18.383c-5.996 0-10.874 4.873-10.874 10.874 0 5.996 4.878 10.874 10.874 10.874s10.874-4.878 10.874-10.874c0-6.001-4.873-10.874-10.874-10.874" fill="#303d7a"/><path d="M195.928 44.434a2.192 2.192 0 1 1-4.385 0 2.192 2.192 0 0 1 4.385 0" fill="#303d7a"/><path d="M193.735 47.305a2.874 2.874 0 0 1-2.876-2.871 2.881 2.881 0 0 1 2.876-2.876 2.881 2.881 0 0 1 2.876 2.876 2.874 2.874 0 0 1-2.876 2.87M181.499 48.75h-2.847v-6.929h2.847zm0 0M264.116 48.75h-2.842v-6.929h2.842zm0 0M209.145 48.545h-3.173V41.61h3.173zm0 0M236.797 48.545h-3.174V41.61h3.174zm0 0" fill="#303d7a"/><path d="M51.499 16.831h-1.25V6.836h1.25zm0 0M269.429 30.23h-1.25V7.08h1.25zm0 0" fill="#f5ae23"/><path d="M268.804 11.143l-217.325-.415v-1.25l217.325.415zm0 0" fill="#f5ae23"/><path d="M58.599 11.616l-8.13-1.46 8.154-2.192zm0 0M260.674 11.929l8.13-1.46-8.155-2.193zm0 0M138.608 5.444c.02.171.059.318.118.44.053.127.136.22.239.293.102.068.239.107.405.107.17 0 .313-.039.415-.107a.668.668 0 0 0 .234-.293c.054-.127.088-.279.103-.445.02-.175.03-.356.03-.556 0-.479-.064-.825-.182-1.03-.122-.206-.322-.313-.6-.313-.288 0-.493.107-.61.313-.123.205-.181.551-.181 1.03 0 .2.01.386.03.561m1.283-4.282c-.097-.146-.263-.22-.503-.22a.709.709 0 0 0-.454.137.86.86 0 0 0-.273.371 2.065 2.065 0 0 0-.122.571c-.02.22-.03.46-.03.723v.347h.02c.117-.186.288-.332.513-.445.224-.107.498-.166.815-.166.313 0 .581.06.8.166.22.113.396.264.538.46.132.2.234.43.298.698.063.273.093.566.093.888 0 .82-.181 1.44-.542 1.866-.367.42-.948.634-1.748.634-.494 0-.884-.088-1.177-.263a1.725 1.725 0 0 1-.674-.713 2.997 2.997 0 0 1-.308-1.055 11.41 11.41 0 0 1-.068-1.25c0-.498.014-.986.044-1.455.03-.469.122-.889.268-1.25.152-.366.386-.654.708-.874.318-.22.772-.332 1.358-.332.254 0 .498.034.737.093.235.058.445.16.625.298.181.141.323.327.435.556.107.23.166.513.176.855h-1.382c0-.283-.05-.493-.147-.64M143.589 6.821a4.6 4.6 0 0 1-.054.703c-.039.225-.107.42-.205.581a1.222 1.222 0 0 1-.405.4c-.171.103-.39.167-.655.196v-.703a.524.524 0 0 0 .386-.273c.088-.157.132-.328.132-.513V7.08h-.518V5.522h1.319zm0 0M145.767 1.265l-.147 1.606h.02c.131-.185.302-.322.517-.405.215-.083.474-.127.781-.127.342 0 .62.068.845.2.225.127.4.298.532.513.127.215.22.454.274.727.054.269.078.542.078.825 0 .391-.034.748-.098 1.065a2.05 2.05 0 0 1-.356.825c-.171.235-.4.405-.693.523-.293.117-.67.175-1.124.175-.444 0-.805-.063-1.084-.18a1.53 1.53 0 0 1-.634-.474c-.147-.2-.244-.41-.293-.64a2.862 2.862 0 0 1-.078-.649v-.186h1.381c0 .118.005.245.02.381.015.132.044.254.098.371a.716.716 0 0 0 .214.293.575.575 0 0 0 .367.113c.302 0 .517-.113.644-.347.132-.225.195-.571.195-1.035 0-.288-.01-.532-.039-.728a1.285 1.285 0 0 0-.131-.459.53.53 0 0 0-.26-.239.945.945 0 0 0-.4-.073c-.205 0-.36.058-.473.176a.865.865 0 0 0-.205.478h-1.29l.26-3.852h3.69v1.123zm0 0M152.187 4.78h-2.817V3.604h2.817zm0 0M154.448 2.08h-1.41v-.937h.13c.48 0 .86-.093 1.134-.274.278-.176.454-.469.527-.869h1.06v7.08h-1.44zm0 0M159.082 5.186c.024.283.068.507.127.673.059.162.142.274.24.332a.732.732 0 0 0 .38.093.62.62 0 0 0 .39-.117c.098-.078.176-.205.235-.39.054-.181.098-.43.117-.733.025-.308.04-.688.04-1.143V3.13c0-.444-.015-.81-.04-1.094a2.524 2.524 0 0 0-.122-.669.634.634 0 0 0-.24-.337.758.758 0 0 0-.38-.088.64.64 0 0 0-.39.113c-.103.078-.181.205-.235.39a3.44 3.44 0 0 0-.122.738c-.025.307-.034.683-.034 1.137v.772c0 .444.01.81.034 1.094m-1.426-2.828c.034-.449.127-.85.273-1.2.147-.352.367-.63.665-.84.297-.21.708-.318 1.235-.318.43 0 .79.064 1.074.186.283.127.508.322.679.595.17.274.293.63.361 1.065.069.44.103.971.103 1.596 0 .494-.015.967-.05 1.416-.033.46-.121.86-.268 1.211a1.814 1.814 0 0 1-.664.82c-.298.2-.708.303-1.235.303-.43 0-.786-.058-1.07-.17a1.399 1.399 0 0 1-.688-.582c-.166-.273-.288-.625-.356-1.064a9.813 9.813 0 0 1-.108-1.592c0-.498.02-.967.05-1.426M164.087 6.821a4.6 4.6 0 0 1-.054.703c-.039.225-.107.42-.205.581a1.222 1.222 0 0 1-.405.4c-.171.103-.39.167-.655.196v-.703a.541.541 0 0 0 .391-.273c.088-.157.127-.328.127-.513V7.08h-.518V5.522h1.319zm0 0M166.27 1.265l-.152 1.606h.02c.131-.185.307-.322.517-.405.215-.083.474-.127.781-.127.342 0 .62.068.845.2.225.127.4.298.532.513.127.215.22.454.274.727.054.269.083.542.083.825 0 .391-.034.748-.103 1.065a2.05 2.05 0 0 1-.356.825c-.166.235-.4.405-.693.523-.293.117-.665.175-1.119.175-.449 0-.81-.063-1.088-.18a1.53 1.53 0 0 1-.635-.474c-.147-.2-.244-.41-.293-.64a3.146 3.146 0 0 1-.074-.649v-.186h1.377c0 .118.01.245.02.381.015.132.049.254.098.371a.764.764 0 0 0 .214.293.58.58 0 0 0 .371.113c.298 0 .513-.113.645-.347.127-.225.195-.571.195-1.035a5.03 5.03 0 0 0-.044-.728 1.285 1.285 0 0 0-.132-.459.52.52 0 0 0-.253-.239.976.976 0 0 0-.4-.073c-.21 0-.367.058-.48.176a.865.865 0 0 0-.204.478h-1.29l.26-3.852h3.69v1.123zm0 0M172.285 1.704h1.973l.84 3.599.84-3.599h1.967V7.08h-1.289V3.262l-.947 3.818h-1.143l-.947-3.818V7.08h-1.294zm0 0M180.23 7.08h-1.324V5.522h1.323zm0 0" fill="#f5ae23"/></svg>