<svg xmlns="http://www.w3.org/2000/svg" viewBox="0 0 215.54293 44.749998" height="59.667" width="287.391"><path d="M213.05 24.645c.618 0 1.114.886 1.114 1.5 0 .613-.496 1.5-1.113 1.5h-2.149c-.617 0-1.113-.887-1.113-1.5 0-.614.496-1.5 1.113-1.5zm0 0" fill="#fff"/><path d="M41.121 19.074H0v-5.543h41.121zM145.2 35.559H35.577v-5.543H145.2zm0 0" fill="#303d7a"/><path d="M6.727 21.844H4.449V16.3h2.278zm28.851 3.808h5.543v2.274h-5.543zm0 3.395h5.543v2.273h-5.543zm0-6.711h5.543v2.277h-5.543zm0-3.386h5.543v2.273h-5.543zm107.945 5.128v11.535h1.68c0-.023-.004-.047-.004-.066 0-5.399 4.39-9.79 9.79-9.79 5.398 0 9.788 4.391 9.788 9.79 0 .02 0 .043-.004.066h2.567c.23-5.195 4.52-9.355 9.77-9.355s9.534 4.16 9.765 9.355h2.566c0-.023-.004-.047-.004-.066 0-5.399 4.39-9.79 9.79-9.79 5.398 0 9.792 4.391 9.792 9.79 0 .02-.004.043-.004.066h6.371V24.078zm0 0" fill="#303d7a"/><path d="M199.227 41.555a6.007 6.007 0 0 1-6.004-6.008 6.007 6.007 0 1 1 12.011 0 6.007 6.007 0 0 1-6.007 6.008m0-14.707c-4.797 0-8.7 3.898-8.7 8.699 0 4.797 3.903 8.7 8.7 8.7 4.796 0 8.703-3.903 8.703-8.7 0-4.8-3.903-8.7-8.703-8.7" fill="#303d7a"/><path d="M200.984 35.547c0 .969-.789 1.754-1.757 1.754a1.754 1.754 0 1 1 0-3.508c.968 0 1.757.785 1.757 1.754" fill="#303d7a"/><path d="M199.227 37.844a2.298 2.298 0 1 1 .002-4.596 2.298 2.298 0 0 1-.002 4.596m-22.117 4.211a6.007 6.007 0 1 1 0-12.012 6.007 6.007 0 0 1 0 12.012m0-14.707c-4.801 0-8.704 3.902-8.704 8.703 0 4.797 3.903 8.699 8.703 8.699 4.797 0 8.7-3.902 8.7-8.7 0-4.8-3.903-8.702-8.7-8.702" fill="#303d7a"/><path d="M178.863 36.05a1.757 1.757 0 0 1-3.512 0c0-.972.79-1.753 1.758-1.753.97 0 1.754.781 1.754 1.754" fill="#303d7a"/><path d="M177.11 38.348a2.302 2.302 0 0 1-2.301-2.297c0-1.27 1.03-2.301 2.3-2.301a2.301 2.301 0 0 1 2.297 2.3 2.3 2.3 0 0 1-2.297 2.298m-22.121 3.207a6.01 6.01 0 0 1-6.008-6.008 6.01 6.01 0 0 1 6.008-6.008 6.01 6.01 0 0 1 6.008 6.008 6.01 6.01 0 0 1-6.008 6.008m0-14.707c-4.797 0-8.699 3.898-8.699 8.699 0 4.797 3.902 8.7 8.7 8.7 4.796 0 8.698-3.903 8.698-8.7 0-4.8-3.898-8.7-8.699-8.7" fill="#303d7a"/><path d="M156.742 35.547a1.754 1.754 0 1 1-3.507 0 1.754 1.754 0 0 1 3.507 0" fill="#303d7a"/><path d="M154.988 37.844a2.298 2.298 0 1 1 0-4.597 2.304 2.304 0 0 1 2.301 2.3 2.299 2.299 0 0 1-2.3 2.297M145.2 39h-2.278v-5.543h2.277zm66.093 0h-2.274v-5.543h2.274zm-43.977-.164h-2.539v-5.547h2.54zm22.121 0h-2.539v-5.547h2.54zm0 0" fill="#303d7a"/><path d="M41.2 13.465h-1V5.469h1zm174.343 10.719h-1V5.664h1zm0 0" fill="#f5ae23"/><path d="M215.043 8.914l-173.86-.332v-1l173.86.332zm0 0" fill="#f5ae23"/><path d="M46.879 9.293l-6.504-1.168 6.523-1.754zm161.66.25l6.504-1.168-6.524-1.754zm-97.652-5.188a1.1 1.1 0 0 0 .093.352c.043.102.11.176.192.234a.578.578 0 0 0 .324.086c.137 0 .25-.03.332-.086a.534.534 0 0 0 .188-.234c.043-.102.07-.223.082-.355.015-.141.023-.286.023-.446 0-.383-.05-.66-.145-.824-.097-.164-.257-.25-.48-.25-.23 0-.395.086-.488.25-.098.164-.145.441-.145.824 0 .16.008.309.024.45M111.914.93c-.078-.117-.211-.176-.402-.176a.567.567 0 0 0-.364.11.688.688 0 0 0-.219.296c-.05.13-.082.281-.097.457a6.55 6.55 0 0 0-.024.578v.278h.016a.994.994 0 0 1 .41-.356c.18-.086.399-.133.652-.133.25 0 .465.047.641.133.176.09.316.211.43.367.105.16.187.344.238.559.05.219.074.453.074.71 0 .657-.144 1.153-.433 1.493-.293.336-.758.508-1.399.508-.394 0-.707-.07-.941-.211a1.38 1.38 0 0 1-.54-.57 2.398 2.398 0 0 1-.245-.844 9.128 9.128 0 0 1-.055-1c0-.399.012-.79.035-1.164.024-.375.098-.711.215-1a1.54 1.54 0 0 1 .566-.7c.254-.175.618-.265 1.086-.265.203 0 .399.027.59.074.188.047.356.13.5.238.145.114.258.262.348.446.086.183.133.41.14.683h-1.105c0-.226-.04-.394-.117-.511m2.957 4.527c0 .195-.016.387-.043.563-.031.18-.086.335-.164.464a.978.978 0 0 1-.324.32 1.294 1.294 0 0 1-.524.157v-.563a.419.419 0 0 0 .309-.218.823.823 0 0 0 .105-.41v-.106h-.414V4.418h1.055zm1.742-4.445l-.117 1.285h.016a.893.893 0 0 1 .414-.324c.172-.067.379-.102.625-.102.273 0 .496.055.675.16.18.102.32.239.426.41.102.172.176.364.219.582.043.215.063.434.063.66 0 .313-.028.598-.079.852a1.64 1.64 0 0 1-.285.66c-.136.188-.32.325-.554.418-.235.094-.536.14-.899.14-.355 0-.644-.05-.867-.144a1.225 1.225 0 0 1-.508-.379 1.322 1.322 0 0 1-.234-.511 2.292 2.292 0 0 1-.063-.52v-.148h1.106c0 .093.004.195.015.304a.954.954 0 0 0 .078.297c.04.094.094.172.172.235a.46.46 0 0 0 .293.09c.242 0 .414-.09.516-.278.105-.18.156-.457.156-.828 0-.23-.008-.426-.031-.582a1.027 1.027 0 0 0-.106-.367.424.424 0 0 0-.207-.192.756.756 0 0 0-.32-.058.498.498 0 0 0-.379.14.692.692 0 0 0-.164.383h-1.031l.207-3.082h2.953v.899zm5.137 2.812h-2.254v-.941h2.254zm1.809-2.16h-1.13v-.75h.106c.383 0 .688-.074.906-.219.223-.14.364-.375.422-.695h.848v5.664h-1.152zm3.707 2.484c.02.227.054.407.101.54a.496.496 0 0 0 .192.265c.078.047.18.074.304.074.13 0 .23-.03.313-.093a.629.629 0 0 0 .187-.313c.043-.144.078-.344.094-.586.02-.246.031-.55.031-.914v-.617c0-.356-.012-.648-.031-.875a2.019 2.019 0 0 0-.098-.535.507.507 0 0 0-.191-.27.606.606 0 0 0-.305-.07.511.511 0 0 0-.312.09.578.578 0 0 0-.188.312 2.75 2.75 0 0 0-.098.59c-.02.246-.027.547-.027.91v.617c0 .356.008.649.027.875m-1.14-2.261c.027-.36.101-.68.219-.961a1.51 1.51 0 0 1 .53-.672c.24-.168.567-.254.99-.254.343 0 .632.05.858.148.227.102.407.258.543.477.137.219.235.504.29.852.054.351.081.777.081 1.277 0 .394-.011.773-.039 1.133a3.1 3.1 0 0 1-.214.968c-.118.278-.297.5-.532.657-.238.16-.566.242-.988.242-.344 0-.629-.047-.855-.137a1.12 1.12 0 0 1-.551-.465c-.133-.218-.23-.5-.285-.851a7.855 7.855 0 0 1-.086-1.274c0-.398.015-.773.039-1.14m5.145 3.57c0 .195-.016.387-.044.563-.03.18-.085.335-.164.464a.978.978 0 0 1-.324.32 1.294 1.294 0 0 1-.523.157v-.563a.433.433 0 0 0 .312-.218.82.82 0 0 0 .102-.41v-.106h-.414V4.418h1.054zm1.746-4.445l-.122 1.285h.016a.913.913 0 0 1 .414-.324 1.73 1.73 0 0 1 .625-.102c.274 0 .496.055.676.16.18.102.32.239.426.41.101.172.175.364.218.582.043.215.067.434.067.66 0 .313-.027.598-.082.852a1.64 1.64 0 0 1-.285.66c-.133.188-.32.325-.555.418-.234.094-.531.14-.895.14-.359 0-.648-.05-.87-.144a1.225 1.225 0 0 1-.508-.379 1.322 1.322 0 0 1-.235-.511 2.518 2.518 0 0 1-.058-.52v-.148h1.101c0 .093.008.195.016.304.011.106.039.204.078.297a.616.616 0 0 0 .172.235c.074.058.172.09.297.09.238 0 .41-.09.515-.278.102-.18.156-.457.156-.828 0-.23-.011-.426-.035-.582a1.027 1.027 0 0 0-.105-.367.417.417 0 0 0-.203-.192.781.781 0 0 0-.32-.058c-.169 0-.294.047-.383.14a.692.692 0 0 0-.165.383h-1.03l.206-3.082h2.953v.899zm4.812.351h1.578l.672 2.88.672-2.88h1.574v4.301h-1.031V2.61l-.758 3.055h-.914l-.758-3.055v3.055h-1.035zm6.356 4.301h-1.059V4.418h1.059zm0 0" fill="#f5ae23"/></svg>