<svg xmlns="http://www.w3.org/2000/svg" viewBox="0 0 215.54 45.3"><title>9491</title><g id="a736a967-b555-46e4-8cf7-2b62bdd517f1" data-name="Слой 2"><g id="1a4e2c0d-7a7a-4e62-a457-6d6ca1bd0a8c" data-name="Слой 1"><path d="M213.05,25.2c.62,0,1.11.88,1.11,1.5h0c0,.61-.5,1.5-1.11,1.5H210.9c-.62,0-1.11-.89-1.11-1.5h0c0-.62.5-1.5,1.11-1.5Z" fill="#fff"/><rect y="14.08" width="41.12" height="5.54" fill="#253678"/><rect x="35.58" y="30.57" width="109.62" height="5.54" fill="#253678"/><rect x="4.45" y="16.85" width="2.28" height="5.54" fill="#253678"/><rect x="35.58" y="26.2" width="5.54" height="2.28" fill="#253678"/><rect x="35.58" y="29.6" width="5.54" height="2.28" fill="#253678"/><rect x="35.58" y="22.89" width="5.54" height="2.28" fill="#253678"/><rect x="35.58" y="19.5" width="5.54" height="2.28" fill="#253678"/><path d="M143.52,24.63V36.16h1.68s0,0,0-.06a9.79,9.79,0,0,1,19.58,0s0,0,0,.06h2.56a9.78,9.78,0,0,1,19.54,0h2.56s0,0,0-.06a9.79,9.79,0,0,1,19.58,0s0,0,0,.06h6.37V24.63Z" fill="#253678"/><path d="M199.23,27.4a8.7,8.7,0,1,0,8.7,8.7A8.71,8.71,0,0,0,199.23,27.4Zm0,14.71a6,6,0,1,1,6-6A6,6,0,0,1,199.23,42.11Z" fill="#253678"/><circle cx="199.23" cy="36.1" r="1.75" fill="#253678"/><path d="M199.23,38.4a2.3,2.3,0,1,1,2.3-2.3A2.3,2.3,0,0,1,199.23,38.4Z" fill="#253678"/><path d="M177.11,27.9a8.7,8.7,0,1,0,8.7,8.7A8.71,8.71,0,0,0,177.11,27.9Zm0,14.71a6,6,0,1,1,6-6A6,6,0,0,1,177.11,42.61Z" fill="#253678"/><circle cx="177.11" cy="36.6" r="1.75" fill="#253678"/><path d="M177.11,38.9a2.3,2.3,0,1,1,2.3-2.3A2.3,2.3,0,0,1,177.11,38.9Z" fill="#253678"/><path d="M155,27.4a8.7,8.7,0,1,0,8.7,8.7A8.71,8.71,0,0,0,155,27.4Zm0,14.71a6,6,0,1,1,6-6A6,6,0,0,1,155,42.11Z" fill="#253678"/><circle cx="154.99" cy="36.1" r="1.75" fill="#253678"/><path d="M155,38.4a2.3,2.3,0,1,1,2.3-2.3A2.3,2.3,0,0,1,155,38.4Z" fill="#253678"/><rect x="142.92" y="34.01" width="2.27" height="5.54" fill="#253678"/><rect x="209.02" y="34.01" width="2.27" height="5.54" fill="#253678"/><rect x="164.78" y="33.84" width="2.54" height="5.55" fill="#253678"/><rect x="186.9" y="33.84" width="2.54" height="5.55" fill="#253678"/><rect x="40.2" y="6.02" width="1" height="8" fill="#f6ad15"/><rect x="214.54" y="6.22" width="1" height="18.52" fill="#f6ad15"/><rect x="143.58" y="6.22" width="1" height="18.52" fill="#f6ad15"/><rect x="127.61" y="-78.13" width="1" height="173.86" transform="translate(119.07 136.9) rotate(-89.89)" fill="#f6ad15"/><polygon points="46.88 9.85 40.38 8.68 46.9 6.92 46.88 9.85" fill="#f6ad15"/><polygon points="208.54 10.1 215.04 8.93 208.52 7.17 208.54 10.1" fill="#f6ad15"/><polygon points="150.08 10.26 143.58 9.1 150.1 7.34 150.08 10.26" fill="#f6ad15"/><polygon points="137.75 10.1 144.26 8.93 137.74 7.17 137.75 10.1" fill="#f6ad15"/><path d="M86.55,1A.47.47,0,0,0,86.12.8a.61.61,0,0,0-.39.12.72.72,0,0,0-.23.32,1.75,1.75,0,0,0-.11.48q0,.28,0,.61v.3h0a1.07,1.07,0,0,1,.44-.38,1.57,1.57,0,0,1,.69-.14,1.52,1.52,0,0,1,.68.14,1.19,1.19,0,0,1,.45.39,1.71,1.71,0,0,1,.26.59A3.3,3.3,0,0,1,88,4a2.37,2.37,0,0,1-.46,1.59A1.86,1.86,0,0,1,86,6.11a2,2,0,0,1-1-.22,1.48,1.48,0,0,1-.57-.61,2.59,2.59,0,0,1-.26-.9,9.11,9.11,0,0,1-.06-1.06c0-.42,0-.84,0-1.24A3.34,3.34,0,0,1,84.41,1,1.65,1.65,0,0,1,85,.28,2,2,0,0,1,86.17,0a2.54,2.54,0,0,1,.62.08,1.42,1.42,0,0,1,.53.25A1.3,1.3,0,0,1,87.7.8a1.76,1.76,0,0,1,.15.73H86.67A1,1,0,0,0,86.55,1ZM85.46,4.63a1.25,1.25,0,0,0,.1.38.58.58,0,0,0,.2.25.6.6,0,0,0,.34.09.62.62,0,0,0,.35-.09.56.56,0,0,0,.2-.25,1.3,1.3,0,0,0,.09-.38c0-.14,0-.3,0-.47a1.84,1.84,0,0,0-.15-.88A.54.54,0,0,0,86.1,3a.55.55,0,0,0-.52.26,1.84,1.84,0,0,0-.15.88A4.14,4.14,0,0,0,85.46,4.63Z" fill="#f6ad15"/><path d="M89.69,5.8a3.73,3.73,0,0,1,0,.6,1.36,1.36,0,0,1-.17.49,1,1,0,0,1-.34.34,1.33,1.33,0,0,1-.56.17V6.8a.47.47,0,0,0,.33-.24A.87.87,0,0,0,89,6.13V6h-.44V4.69h1.12Z" fill="#f6ad15"/><path d="M91.55,1.07l-.13,1.37h0a1,1,0,0,1,.44-.34A1.84,1.84,0,0,1,92.54,2a1.42,1.42,0,0,1,.72.17,1.26,1.26,0,0,1,.45.44,1.86,1.86,0,0,1,.23.62,3.61,3.61,0,0,1,.07.7,4.47,4.47,0,0,1-.09.91,1.78,1.78,0,0,1-.3.7A1.32,1.32,0,0,1,93,6a2.59,2.59,0,0,1-1,.15A2.36,2.36,0,0,1,91.16,6a1.29,1.29,0,0,1-.54-.4A1.39,1.39,0,0,1,90.37,5a2.59,2.59,0,0,1-.06-.55V4.3h1.17c0,.1,0,.21,0,.32a1.08,1.08,0,0,0,.08.32.64.64,0,0,0,.18.25.48.48,0,0,0,.31.1A.58.58,0,0,0,92.62,5a1.84,1.84,0,0,0,.17-.88,4.73,4.73,0,0,0,0-.62,1.13,1.13,0,0,0-.11-.39.46.46,0,0,0-.22-.2.84.84,0,0,0-.34-.06.53.53,0,0,0-.4.15.71.71,0,0,0-.17.4h-1.1L90.63.12h3.14v1Z" fill="#f6ad15"/><path d="M96.67,1.45h1.68l.71,3.06.71-3.06h1.68V6h-1.1V2.77L99.54,6h-1l-.81-3.25V6h-1.1Z" fill="#f6ad15"/><path d="M103.42,6H102.3V4.69h1.12Z" fill="#f6ad15"/><path d="M173.27,0h1.27V3.82h.58v1h-.58V6h-1.12V4.77h-2.14v-1Zm.13,1.53-1.17,2.29h1.19V1.53Z" fill="#f6ad15"/><path d="M177.66,1.45h1.68l.71,3.06.71-3.06h1.68V6h-1.1V2.77L180.54,6h-1l-.81-3.25V6h-1.1Z" fill="#f6ad15"/><path d="M184.41,6h-1.12V4.69h1.12Z" fill="#f6ad15"/></g></g></svg>