<svg xmlns="http://www.w3.org/2000/svg" viewBox="0 0 215.54 45.3"><defs><style>.cls-1{fill:#fff}.cls-2{fill:#253678}.cls-3{fill:#f6ad15}</style></defs><title>9491</title><g id="Слой_2" data-name="Слой 2"><g id="Слой_1-2" data-name="Слой 1"><path class="cls-1" d="M213.05 25.19c.62 0 1.11.88 1.11 1.5 0 .61-.5 1.5-1.11 1.5h-2.15c-.62 0-1.11-.89-1.11-1.5 0-.62.5-1.5 1.11-1.5z"/><path class="cls-2" d="M0 14.08h41.12v5.54H0zm35.58 16.48H145.2v5.54H35.58z"/><path class="cls-2" d="M4.45 16.85h2.28v5.54H4.45zm31.13 9.35h5.54v2.28h-5.54zm0 3.39h5.54v2.28h-5.54zm0-6.71h5.54v2.28h-5.54zm0-3.38h5.54v2.28h-5.54zm107.94 5.13v11.53h1.68v-.06a9.79 9.79 0 0 1 19.58 0v.06h2.56a9.78 9.78 0 0 1 19.54 0h2.56v-.06a9.79 9.79 0 0 1 19.58 0v.06h6.37V24.63z"/><path class="cls-2" d="M199.23 27.4a8.7 8.7 0 1 0 8.7 8.7 8.71 8.71 0 0 0-8.7-8.7zm0 14.71a6 6 0 1 1 6-6 6 6 0 0 1-6 5.99z"/><circle class="cls-2" cx="199.23" cy="36.1" r="1.75"/><path class="cls-2" d="M199.23 38.39a2.3 2.3 0 1 1 2.3-2.3 2.3 2.3 0 0 1-2.3 2.3zM177.11 27.9a8.7 8.7 0 1 0 8.7 8.7 8.71 8.71 0 0 0-8.7-8.7zm0 14.71a6 6 0 1 1 6-6 6 6 0 0 1-6 6z"/><circle class="cls-2" cx="177.11" cy="36.6" r="1.75"/><path class="cls-2" d="M177.11 38.9a2.3 2.3 0 1 1 2.3-2.3 2.3 2.3 0 0 1-2.3 2.3zM155 27.4a8.7 8.7 0 1 0 8.7 8.7 8.71 8.71 0 0 0-8.7-8.7zm0 14.71a6 6 0 1 1 6-6 6 6 0 0 1-6 5.99z"/><circle class="cls-2" cx="154.99" cy="36.1" r="1.75"/><path class="cls-2" d="M155 38.39a2.3 2.3 0 1 1 2.3-2.3 2.3 2.3 0 0 1-2.3 2.3zm-12.08-4.38h2.27v5.54h-2.27zm66.1 0h2.27v5.54h-2.27zm-44.24-.17h2.54v5.55h-2.54zm22.12 0h2.54v5.55h-2.54z"/><path class="cls-3" d="M40.2 6.02h1v8h-1zm174.34.19h1v18.52h-1zm-70.96 0h1v18.52h-1z"/><path class="cls-3" transform="rotate(-89.89 128.117 8.8)" d="M127.61-78.13h1V95.73h-1z"/><path class="cls-3" d="M46.88 9.84l-6.5-1.16 6.52-1.76-.02 2.92zm161.66.25l6.5-1.16-6.52-1.76.02 2.92zm-58.46.17l-6.5-1.17 6.52-1.75-.02 2.92z"/><path class="cls-3" d="M137.75 10.09l6.51-1.16-6.52-1.76.01 2.92zM86.67 1.53a1 1 0 0 0-.12-.53.47.47 0 0 0-.43-.2.61.61 0 0 0-.39.11.73.73 0 0 0-.23.32 1.76 1.76 0 0 0-.11.48v.91a1.07 1.07 0 0 1 .44-.38 1.57 1.57 0 0 1 .69-.14 1.52 1.52 0 0 1 .68.14 1.19 1.19 0 0 1 .45.39 1.71 1.71 0 0 1 .25.59A3.31 3.31 0 0 1 88 4a2.37 2.37 0 0 1-.46 1.58 1.86 1.86 0 0 1-1.54.53 2 2 0 0 1-1-.22 1.48 1.48 0 0 1-.57-.61 2.6 2.6 0 0 1-.26-.9 9.09 9.09 0 0 1-.06-1.06V2.08A3.33 3.33 0 0 1 84.42 1 1.65 1.65 0 0 1 85 .28 2 2 0 0 1 86.17 0a2.55 2.55 0 0 1 .63.08 1.43 1.43 0 0 1 .53.25 1.3 1.3 0 0 1 .37.47 1.76 1.76 0 0 1 .15.73zm-1.24 2.62a4.16 4.16 0 0 0 0 .48 1.26 1.26 0 0 0 .1.38.6.6 0 0 0 .2.25.61.61 0 0 0 .34.09.63.63 0 0 0 .35-.09.56.56 0 0 0 .2-.25 1.3 1.3 0 0 0 .09-.38v-.47a1.85 1.85 0 0 0-.15-.87.54.54 0 0 0-.46-.29.55.55 0 0 0-.52.26 1.84 1.84 0 0 0-.15.89zm4.26.54V5.8a3.68 3.68 0 0 1 0 .6 1.36 1.36 0 0 1-.17.49 1 1 0 0 1-.34.34 1.31 1.31 0 0 1-.56.17v-.6a.47.47 0 0 0 .33-.24.87.87 0 0 0 .05-.43V6h-.44V4.69zm4.07-3.62h-2.21l-.13 1.37a1 1 0 0 1 .44-.34 1.84 1.84 0 0 1 .68-.1 1.4 1.4 0 0 1 .72.17 1.25 1.25 0 0 1 .45.44 1.88 1.88 0 0 1 .23.62 3.62 3.62 0 0 1 .07.7 4.47 4.47 0 0 1-.08.91 1.77 1.77 0 0 1-.3.7A1.32 1.32 0 0 1 93 6a2.59 2.59 0 0 1-1 .15 2.35 2.35 0 0 1-.84-.15 1.29 1.29 0 0 1-.54-.4 1.39 1.39 0 0 1-.25-.6 2.6 2.6 0 0 1-.06-.55V4.3h1.17v.32a1.06 1.06 0 0 0 .08.32.63.63 0 0 0 .18.25.48.48 0 0 0 .31.1.58.58 0 0 0 .57-.29 1.83 1.83 0 0 0 .17-.88 4.62 4.62 0 0 0 0-.62 1.11 1.11 0 0 0-.11-.39.46.46 0 0 0-.22-.2.84.84 0 0 0-.34-.06.53.53 0 0 0-.4.15.71.71 0 0 0-.17.4h-1.1l.18-3.28h3.14zm4.58.37l.71 3.06.71-3.06h1.67V6h-1.1V2.77L99.54 6h-1l-.81-3.25V6h-1.1V1.44zm5.08 3.25V6h-1.12V4.69zm67.85-.93l2-3.76h1.27v3.82h.58v1h-.58V6h-1.12V4.77h-2.14zm2.14-2.23l-1.17 2.29h1.19zm5.93-.09L180 4.5l.71-3.06h1.67V6h-1.1V2.77L180.53 6h-1l-.81-3.25V6h-1.1V1.44zm5.07 3.25V6h-1.12V4.69z"/></g></g></svg>