<svg xmlns="http://www.w3.org/2000/svg" viewBox="0 0 298.02 48.4"><title>0296</title><g id="b2c630e5-7e9c-4a43-92da-badddbbba928" data-name="Слой 2"><g id="498ed8aa-2950-4367-9eca-0f4bd7208376" data-name="Слой 1"><rect x="35.58" y="26.85" width="5.54" height="2.27" fill="#253678"/><rect x="35.58" y="20.53" width="5.54" height="2.28" fill="#253678"/><rect x="35.58" y="23.91" width="5.54" height="2.28" fill="#253678"/><rect x="60.33" y="28.18" width="2.27" height="5.54" fill="#253678"/><rect x="35.58" y="28.18" width="20.71" height="5.54" fill="#253678"/><rect x="57.14" y="28.18" width="2.28" height="5.54" fill="#253678"/><polygon points="0 11.73 0 17.27 4.45 17.27 4.45 20.04 6.73 20.04 6.73 17.27 35.58 17.27 35.58 19.42 41.12 19.42 41.12 17.27 41.12 17.15 41.12 11.73 0 11.73" fill="#253678"/><path d="M269.94,30.52a8.69,8.69,0,1,0,8.69,8.69A8.7,8.7,0,0,0,269.94,30.52Zm0,14.69a6,6,0,1,1,6-6A6,6,0,0,1,269.94,45.21Z" fill="#253678"/><circle cx="269.94" cy="39.21" r="1.75" fill="#253678"/><path d="M269.94,41.51a2.3,2.3,0,1,1,2.3-2.3A2.3,2.3,0,0,1,269.94,41.51Z" fill="#253678"/><path d="M247.85,31a8.69,8.69,0,1,0,8.69,8.69A8.7,8.7,0,0,0,247.85,31Zm0,14.69a6,6,0,1,1,6-6A6,6,0,0,1,247.85,45.71Z" fill="#253678"/><circle cx="247.85" cy="39.72" r="1.75" fill="#253678"/><path d="M247.85,42a2.3,2.3,0,1,1,2.3-2.3A2.3,2.3,0,0,1,247.85,42Z" fill="#253678"/><path d="M225.76,30.52a8.69,8.69,0,1,0,8.69,8.69A8.7,8.7,0,0,0,225.76,30.52Zm0,14.69a6,6,0,1,1,6-6A6,6,0,0,1,225.76,45.21Z" fill="#253678"/><circle cx="225.76" cy="39.21" r="1.75" fill="#253678"/><path d="M225.76,41.51a2.3,2.3,0,1,1,2.3-2.3A2.3,2.3,0,0,1,225.76,41.51Z" fill="#253678"/><path d="M298,39.77,286,28.22v0l-222.41.14v5.63l149.75.2.1,8.51H216V39.78h0c0-.19,0-.37,0-.57a9.78,9.78,0,0,1,19.55,0c0,.19,0,.38,0,.56h0V42.5h2.54V39.77h0s0,0,0-.06a9.78,9.78,0,0,1,19.55,0s0,0,0,.06h0V42.5h2.54V39.77h0c0-.18,0-.37,0-.56a9.78,9.78,0,0,1,19.56,0c0,.19,0,.37,0,.56h0v2.89H282v-2.9Z" fill="#253678"/><rect x="40.35" y="3.73" width="1" height="7.99" fill="#f6ad15"/><rect x="285.01" y="5.66" width="1" height="22.52" fill="#f6ad15"/><rect x="162.59" y="-114.18" width="1" height="244.86" transform="translate(154.62 171.32) rotate(-89.92)" fill="#f6ad15"/><polygon points="47.35 9.29 40.85 8.13 47.37 6.37 47.35 9.29" fill="#f6ad15"/><polygon points="279.01 9.04 285.51 7.88 278.99 6.12 279.01 9.04" fill="#f6ad15"/><path d="M145.8,1.66h-1.13V.91h.1a1.65,1.65,0,0,0,.91-.22,1,1,0,0,0,.42-.7H147V5.66H145.8Z" fill="#f6ad15"/><path d="M149.64,1.66h-1.13V.91h.1a1.65,1.65,0,0,0,.91-.22,1,1,0,0,0,.42-.7h.85V5.66h-1.15Z" fill="#f6ad15"/><path d="M154.64,3.82h-2.26V2.88h2.26Z" fill="#f6ad15"/><path d="M156.44,1.66h-1.13V.91h.1a1.65,1.65,0,0,0,.91-.22,1,1,0,0,0,.42-.7h.85V5.66h-1.15Z" fill="#f6ad15"/><path d="M160.29,4.84a.44.44,0,0,0,.4.18.58.58,0,0,0,.37-.11.7.7,0,0,0,.21-.3,1.65,1.65,0,0,0,.1-.46q0-.26,0-.58V3.31h0a1,1,0,0,1-.41.35,1.47,1.47,0,0,1-.65.13,1.42,1.42,0,0,1-.64-.13,1.12,1.12,0,0,1-.43-.37,1.62,1.62,0,0,1-.24-.56,3.09,3.09,0,0,1-.08-.71,2.28,2.28,0,0,1,.44-1.5,1.72,1.72,0,0,1,1.4-.52,1.76,1.76,0,0,1,.94.22,1.48,1.48,0,0,1,.54.58,2.44,2.44,0,0,1,.24.84,8.57,8.57,0,0,1,.06,1q0,.61,0,1.17a3.09,3.09,0,0,1-.22,1,1.47,1.47,0,0,1-.57.68,2,2,0,0,1-1.08.25,2.83,2.83,0,0,1-.59-.06,1.24,1.24,0,0,1-.5-.22,1.18,1.18,0,0,1-.35-.44,1.65,1.65,0,0,1-.14-.68h1.1A.92.92,0,0,0,160.29,4.84Zm-.06-2.15a.51.51,0,0,0,.48.25.52.52,0,0,0,.49-.25,1.73,1.73,0,0,0,.14-.82,3.9,3.9,0,0,0,0-.45,1.18,1.18,0,0,0-.09-.36A.55.55,0,0,0,161,.84a.57.57,0,0,0-.32-.08.58.58,0,0,0-.33.08.52.52,0,0,0-.19.24,1.21,1.21,0,0,0-.08.36c0,.14,0,.28,0,.44A1.73,1.73,0,0,0,160.24,2.7Z" fill="#f6ad15"/><path d="M165,1.36h1.58l.67,2.88.67-2.88h1.58v4.3h-1V2.61l-.76,3.06h-.91L166,2.61V5.66h-1Z" fill="#f6ad15"/><path d="M171.31,5.66h-1.06V4.42h1.06Z" fill="#f6ad15"/></g></g></svg>