<svg xmlns="http://www.w3.org/2000/svg" viewBox="0 0 372.51962 64.59298" height="68.899" width="397.354"><path d="M44.472 32.65h6.929v2.842h-6.929v-2.843zm0 4.122h6.929v2.842h-6.929v-2.842zm0-8.268h6.929v2.844h-6.929v-2.844zM0 17.495v6.929h5.564v3.466h2.843v-3.466h36.066v2.69h6.93v-9.619H0z" fill="#313f7b"/><path d="M57.31 40.3a.555.555 0 0 1-.555.555h-3.89a.555.555 0 0 1-.555-.555v-.14c0-.307.248-.555.555-.555h3.89c.306 0 .555.248.555.555v.14z" fill="#fff"/><path d="M337.425 60.6a7.5 7.5 0 0 1-7.499-7.497 7.499 7.499 0 1 1 7.499 7.498m0-18.36c-5.99 0-10.862 4.873-10.862 10.862s4.872 10.863 10.862 10.863c5.989 0 10.86-4.874 10.86-10.863s-4.87-10.862-10.86-10.862" fill="#313f7b"/><path d="M339.616 53.103a2.19 2.19 0 1 1-4.38-.003 2.19 2.19 0 0 1 4.38.003" fill="#313f7b"/><path d="M337.425 55.972a2.871 2.871 0 0 1-2.87-2.869 2.872 2.872 0 0 1 2.87-2.87 2.871 2.871 0 0 1 2.869 2.87 2.871 2.871 0 0 1-2.869 2.87m-27.613 5.255a7.498 7.498 0 1 1 0-14.996 7.499 7.499 0 0 1 0 14.996m0-18.359c-5.99 0-10.86 4.871-10.86 10.861s4.87 10.863 10.86 10.863c5.99 0 10.863-4.874 10.863-10.863 0-5.99-4.873-10.86-10.863-10.86" fill="#313f7b"/><path d="M312.003 53.73a2.19 2.19 0 0 1-4.38 0 2.19 2.19 0 0 1 4.38 0" fill="#313f7b"/><path d="M309.812 56.602a2.875 2.875 0 0 1-2.872-2.872 2.874 2.874 0 0 1 2.872-2.87 2.874 2.874 0 0 1 2.87 2.87 2.874 2.874 0 0 1-2.87 2.872M282.198 60.6a7.497 7.497 0 0 1-7.496-7.497 7.498 7.498 0 1 1 7.496 7.498m0-18.36c-5.988 0-10.86 4.873-10.86 10.862s4.872 10.863 10.86 10.863c5.99 0 10.863-4.874 10.863-10.863s-4.873-10.862-10.863-10.862" fill="#313f7b"/><path d="M284.39 53.103a2.19 2.19 0 0 1-2.19 2.189 2.19 2.19 0 1 1 2.19-2.19" fill="#313f7b"/><path d="M282.198 55.972a2.872 2.872 0 0 1-2.87-2.869 2.872 2.872 0 0 1 2.87-2.87 2.872 2.872 0 0 1 2.87 2.87 2.872 2.872 0 0 1-2.87 2.87" fill="#313f7b"/><path d="M372.52 53.794L357.496 39.36v-.046H44.57l.067 18.101h225.34V53.81h.036c-.015-.235-.036-.469-.036-.707 0-6.738 5.483-12.22 12.221-12.22 6.737 0 12.223 5.482 12.223 12.22 0 .238-.024.47-.036.703h.036v3.4h3.17v-3.402h.005c0-.024-.005-.049-.005-.074 0-6.737 5.481-12.22 12.22-12.22 6.739 0 12.221 5.483 12.221 12.22 0 .025-.004.048-.004.071h.004v3.405h3.17V53.8h.034c-.011-.23-.034-.461-.034-.697 0-6.738 5.484-12.22 12.223-12.22 6.736 0 12.22 5.482 12.22 12.22 0 .235-.022.465-.035.693h.036v3.62h2.84v-3.62l20.034-.002z" fill="#313f7b"/><path d="M51.06 7.502v9.994M356.893 7.417v31.897M50.82 10.438l306.073.416" fill="none" stroke="#f6af26" stroke-miterlimit="10" stroke-width="1.25"/><path d="M59.19 11.95l-8.13-1.456L59.214 8.3l-.024 3.65zm289.573.313l8.13-1.457-8.154-2.192.024 3.649z" fill="#f6af26"/><text x="271.318" y="310.34" font-weight="700" font-stretch="condensed" font-size="10" fill="#f6af26" transform="translate(-90.883 -302.923)"><tspan y="310.34" x="271.31769 276.11768 280.91766 284.61768 289.41766 294.21768 296.61768 303.15768">11-19 м.</tspan></text></svg>