<svg xmlns="http://www.w3.org/2000/svg" viewBox="0 0 283.8476 54.853558" height="58.51" width="302.771"><path d="M281.396 39.76c.772 0 1.397-.146 1.397.626 0 .766-.625.625-1.397.625h-2.685c-.767 0-1.392.141-1.392-.625 0-.772.625-.625 1.392-.625zm0 0" fill="#fff"/><path d="M44.473 16.455H0v6.929h5.566v3.467h2.842v-3.467h36.065v20.61h6.933V16.455zm0 0" fill="#303d7a"/><path d="M183.384 43.35c0-2.06.522-4.004 1.426-5.708H44.473v6.928h138.974a12.55 12.55 0 0 1-.063-1.22M261.738 37.642a12.158 12.158 0 0 1 1.421 5.708c0 .41-.02.82-.058 1.22h20.747v-6.928zm0 0M238.745 44.57a12.56 12.56 0 0 1-.059-1.22c0-2.06.518-4.004 1.421-5.708h-6.386a12.133 12.133 0 0 1 1.792 6.338c0 .2-.02.39-.03.59zm0 0M211.064 44.57c-.01-.2-.029-.39-.029-.59 0-2.325.66-4.488 1.792-6.338h-6.386a12.158 12.158 0 0 1 1.357 6.928zm0 0" fill="#303d7a"/><path d="M250.923 31.113c6.26 0 11.426 4.722 12.143 10.791 1.045.103 2.09.196 3.135.308-.703-7.832-7.3-13.994-15.317-13.994-7.783 0-14.234 5.81-15.24 13.325a80.449 80.449 0 0 1 3.238-.303c1.006-5.747 6.015-10.127 12.04-10.127" fill="#303d7a"/><path d="M250.923 32.476c-5.244 0-9.634 3.73-10.65 8.681.625-.039 1.255-.088 1.885-.112 1.109-3.78 4.6-6.543 8.726-6.543 4.321 0 7.944 3.027 8.862 7.075.645.054 1.284.127 1.924.19-.772-5.248-5.288-9.291-10.747-9.291" fill="#303d7a"/><path d="M250.923 50.86a7.512 7.512 0 0 1-7.51-7.51 7.508 7.508 0 0 1 7.51-7.505c4.145 0 7.51 3.36 7.51 7.505a7.512 7.512 0 0 1-7.51 7.51m0-18.384c-5.996 0-10.874 4.878-10.874 10.874 0 6 4.878 10.879 10.874 10.879s10.879-4.878 10.879-10.88c0-5.995-4.878-10.873-10.88-10.873" fill="#303d7a"/><path d="M253.12 43.35a2.193 2.193 0 0 1-2.197 2.192 2.192 2.192 0 1 1 0-4.385c1.21 0 2.197.982 2.197 2.193" fill="#303d7a"/><path d="M250.923 46.226a2.881 2.881 0 0 1-2.876-2.876 2.877 2.877 0 0 1 5.752 0 2.878 2.878 0 0 1-2.876 2.876M223.271 31.743c6.26 0 11.426 4.722 12.149 10.791 1.04.103 2.085.196 3.13.308-.703-7.837-7.3-14-15.313-14-7.783 0-14.233 5.816-15.239 13.326 1.074-.117 2.153-.22 3.232-.303 1.006-5.742 6.016-10.122 12.041-10.122" fill="#303d7a"/><path d="M223.271 33.106c-5.244 0-9.633 3.73-10.649 8.676.63-.034 1.26-.083 1.89-.107 1.103-3.78 4.594-6.548 8.725-6.548 4.322 0 7.94 3.032 8.863 7.08.64.054 1.279.127 1.919.19-.767-5.248-5.289-9.291-10.748-9.291" fill="#303d7a"/><path d="M223.271 51.49a7.508 7.508 0 0 1-7.504-7.51 7.508 7.508 0 1 1 15.014 0 7.51 7.51 0 0 1-7.51 7.51m0-18.384c-5.996 0-10.874 4.877-10.874 10.874 0 5.996 4.878 10.874 10.874 10.874 5.997 0 10.88-4.878 10.88-10.874 0-5.997-4.879-10.874-10.88-10.874" fill="#303d7a"/><path d="M225.469 43.98a2.195 2.195 0 0 1-4.39 0 2.195 2.195 0 0 1 4.39 0" fill="#303d7a"/><path d="M223.271 46.85a2.876 2.876 0 0 1-2.87-2.87 2.88 2.88 0 0 1 2.87-2.876 2.881 2.881 0 0 1 2.876 2.876 2.877 2.877 0 0 1-2.876 2.87M195.625 32.476c-5.156 0-9.478 3.608-10.59 8.432.62-.039 1.24-.083 1.864-.107 1.104-3.775 4.595-6.548 8.726-6.548 4.321 0 7.94 3.032 8.862 7.08.616.054 1.23.127 1.846.18-.874-5.121-5.337-9.037-10.708-9.037" fill="#303d7a"/><path d="M195.625 31.113c6.172 0 11.274 4.595 12.104 10.542 1.07.103 2.14.196 3.208.313-.703-7.832-7.3-14-15.312-14-7.783 0-14.233 5.816-15.24 13.33a89.193 89.193 0 0 1 3.233-.307c1.104-5.62 6.065-9.878 12.007-9.878" fill="#303d7a"/><path d="M195.625 50.86a7.51 7.51 0 0 1-7.51-7.51 7.505 7.505 0 0 1 7.51-7.505 7.508 7.508 0 0 1 0 15.015m0-18.384c-5.996 0-10.879 4.878-10.879 10.874 0 6 4.883 10.879 10.879 10.879 5.996 0 10.874-4.878 10.874-10.88 0-5.995-4.878-10.873-10.874-10.873" fill="#303d7a"/><path d="M197.817 43.35a2.19 2.19 0 0 1-2.192 2.192 2.192 2.192 0 1 1 2.192-2.192" fill="#303d7a"/><path d="M195.625 46.226a2.878 2.878 0 0 1-2.876-2.876 2.877 2.877 0 0 1 2.876-2.871 2.876 2.876 0 0 1 2.871 2.87 2.877 2.877 0 0 1-2.871 2.877M183.384 47.666h-2.842v-6.929h2.842zm0 0M266.006 47.666h-2.847v-6.929h2.847zm0 0M211.035 47.456h-3.174v-6.929h3.174zm0 0M238.687 47.456h-3.174v-6.929h3.174zm0 0" fill="#303d7a"/><path d="M51.626 16.826h-1.25V6.831h1.25zm0 0M283.306 37.725h-1.25V7.08h1.25zm0 0" fill="#f5ae23"/><path d="M282.68 11.143l-231.074-.415v-1.25l231.075.415zm0 0" fill="#f5ae23"/><path d="M58.726 11.611l-8.13-1.455 8.154-2.192zm0 0M274.55 11.924l8.13-1.455-8.154-2.193zm0 0M150.127 2.08h-1.411v-.942h.127c.483 0 .86-.088 1.137-.269.274-.18.45-.469.523-.869h1.064v7.08h-1.44zm0 0M153.286 7.08c0-.312.03-.605.093-.879.063-.273.161-.537.293-.781.127-.25.293-.488.488-.728a7.66 7.66 0 0 1 .684-.712l.58-.542c.162-.137.289-.269.387-.391.097-.117.17-.24.224-.357a1.28 1.28 0 0 0 .103-.39c.02-.142.029-.303.029-.479 0-.59-.235-.883-.703-.883a.72.72 0 0 0-.425.112.729.729 0 0 0-.24.298 1.605 1.605 0 0 0-.112.44 6.112 6.112 0 0 0-.024.531h-1.377v-.268c0-.664.176-1.167.527-1.524.357-.351.914-.527 1.67-.527.723 0 1.255.166 1.602.498.347.337.518.81.518 1.43 0 .23-.02.44-.06.635a2.436 2.436 0 0 1-.527 1.089c-.141.171-.312.347-.512.528l-.8.737c-.21.195-.377.386-.499.566a1.642 1.642 0 0 0-.23.474h2.671V7.08zm0 0M159.766 6.821c0 .244-.02.479-.059.703a1.602 1.602 0 0 1-.2.582c-.103.16-.24.292-.405.4-.171.102-.391.166-.66.195v-.703a.541.541 0 0 0 .391-.278c.088-.156.132-.322.132-.513V7.08h-.523V5.518h1.324zm0 0M162.944 1.797l-1.382 2.69h1.402v-2.69zM162.793 0h1.49v4.487h.683V5.61h-.684v1.47h-1.318V5.61h-2.52V4.43zm0 0M167.964 1.7h1.973l.84 3.598.84-3.599h1.967V7.08h-1.29V3.257l-.951 3.823h-1.138l-.952-3.823V7.08h-1.29zm0 0M175.903 7.08h-1.318V5.518h1.318zm0 0" fill="#f5ae23"/></svg>