<svg xmlns="http://www.w3.org/2000/svg" viewBox="0 0 227.07 43.89"><defs><style>.cls-1{fill:#fff}.cls-2{fill:#253678}.cls-3{fill:#f6ad15}</style></defs><title>2850</title><g id="Слой_2" data-name="Слой 2"><g id="Слой_1-2" data-name="Слой 1"><path class="cls-1" d="M225.12 31.81c.62 0 1.11-.12 1.11.5 0 .61-.5.5-1.11.5H223c-.61 0-1.11.11-1.11-.5 0-.62.5-.5 1.11-.5z"/><path class="cls-2" d="M35.58 13.17H0v5.54h4.45v2.77h2.28v-2.77h28.85V35.2h5.54V13.17h-5.54z"/><path class="cls-2" d="M146.71 34.68a9.72 9.72 0 0 1 1.14-4.57H35.58v5.54h111.18a9.73 9.73 0 0 1-.05-.97zm62.68-4.57a9.72 9.72 0 0 1 1.09 5.54h16.6v-5.54zM191 35.66v-1a9.72 9.72 0 0 1 1.14-4.57H187a9.72 9.72 0 0 1 1.43 5.07v.47zm-22.15 0v-.47a9.71 9.71 0 0 1 1.43-5.07h-5.11a9.72 9.72 0 0 1 1.14 4.57v1z"/><path class="cls-2" d="M200.74 24.89a9.8 9.8 0 0 1 9.71 8.63l2.51.25a12.3 12.3 0 0 0-24.44-.54q1.29-.15 2.59-.24a9.8 9.8 0 0 1 9.63-8.1z"/><path class="cls-2" d="M200.74 26a8.71 8.71 0 0 0-8.52 6.95l1.51-.09a7.27 7.27 0 0 1 14.07.43l1.54.15a8.71 8.71 0 0 0-8.6-7.44z"/><path class="cls-2" d="M200.74 26a8.7 8.7 0 1 0 8.7 8.7 8.71 8.71 0 0 0-8.7-8.7zm0 14.71a6 6 0 1 1 6-6 6 6 0 0 1-6 5.98z"/><circle class="cls-2" cx="200.74" cy="34.68" r="1.75"/><path class="cls-2" d="M200.74 37a2.3 2.3 0 1 1 2.3-2.3 2.3 2.3 0 0 1-2.3 2.3zm-22.12-11.61a9.8 9.8 0 0 1 9.71 8.61l2.51.25a12.3 12.3 0 0 0-24.44-.54q1.29-.15 2.59-.24a9.8 9.8 0 0 1 9.63-8.08z"/><path class="cls-2" d="M178.62 26.48a8.71 8.71 0 0 0-8.52 6.94l1.51-.09a7.27 7.27 0 0 1 14.07.43l1.54.15a8.71 8.71 0 0 0-8.6-7.43z"/><path class="cls-2" d="M178.62 26.48a8.7 8.7 0 1 0 8.7 8.7 8.71 8.71 0 0 0-8.7-8.7zm0 14.71a6 6 0 1 1 6-6 6 6 0 0 1-6 6z"/><circle class="cls-2" cx="178.62" cy="35.18" r="1.75"/><path class="cls-2" d="M178.62 37.48a2.3 2.3 0 1 1 2.3-2.3 2.3 2.3 0 0 1-2.3 2.3zM156.5 26a8.71 8.71 0 0 0-8.5 6.73l1.49-.09a7.27 7.27 0 0 1 14.07.43l1.48.15A8.71 8.71 0 0 0 156.5 26z"/><path class="cls-2" d="M156.5 24.89a9.8 9.8 0 0 1 9.68 8.43l2.57.25a12.3 12.3 0 0 0-24.44-.57q1.29-.15 2.59-.24a9.8 9.8 0 0 1 9.6-7.87z"/><path class="cls-2" d="M156.5 26a8.7 8.7 0 1 0 8.7 8.7 8.71 8.71 0 0 0-8.7-8.7zm0 14.71a6 6 0 1 1 6-6 6 6 0 0 1-6 5.98z"/><circle class="cls-2" cx="156.5" cy="34.68" r="1.75"/><path class="cls-2" d="M156.5 37a2.3 2.3 0 1 1 2.3-2.3 2.3 2.3 0 0 1-2.3 2.3zm-12.07-4.41h2.27v5.54h-2.27zm66.1 0h2.27v5.54h-2.27zm-44.24-.17h2.54v5.54h-2.54zm22.12 0h2.54v5.54h-2.54z"/><path class="cls-3" d="M40.3 5.47h1v7.99h-1zm185.34.19h1v24.52h-1z"/><path class="cls-3" transform="rotate(-89.9 133.714 8.25)" d="M133.21-84.18h1v184.86h-1z"/><path class="cls-3" d="M46.98 9.29l-6.5-1.16L47 6.37l-.02 2.92zm172.66.25l6.5-1.16-6.52-1.76.02 2.92zM120.1 1.66H119V.91h.1a1.65 1.65 0 0 0 .9-.21 1 1 0 0 0 .42-.7h.85v5.66h-1.17zm2.53 4a3.11 3.11 0 0 1 .08-.7 2.56 2.56 0 0 1 .23-.62 3.35 3.35 0 0 1 .39-.58 6 6 0 0 1 .55-.57l.46-.43a2.57 2.57 0 0 0 .31-.31 1.32 1.32 0 0 0 .18-.29 1.09 1.09 0 0 0 .08-.31 3.33 3.33 0 0 0 0-.38q0-.7-.56-.7a.58.58 0 0 0-.34.09.58.58 0 0 0-.19.24 1.13 1.13 0 0 0-.09.35 4.16 4.16 0 0 0 0 .42h-1.1v-.23a1.65 1.65 0 0 1 .42-1.22 1.83 1.83 0 0 1 1.34-.42 1.79 1.79 0 0 1 1.28.4 1.51 1.51 0 0 1 .42 1.14 2.53 2.53 0 0 1 0 .51 1.9 1.9 0 0 1-.15.45 2.06 2.06 0 0 1-.27.42 4 4 0 0 1-.41.42l-.64.59a2.37 2.37 0 0 0-.4.45 1.3 1.3 0 0 0-.18.38h2.14v.9zm5.18-.2a3.48 3.48 0 0 1 0 .56 1.27 1.27 0 0 1-.16.46 1 1 0 0 1-.32.32 1.25 1.25 0 0 1-.52.16V6.4a.44.44 0 0 0 .31-.22.82.82 0 0 0 .1-.41v-.1h-.42V4.42h1.06zM130.23 0h1.19v3.59h.58v.9h-.54v1.17h-1.06V4.49h-2v-.95zm.12 1.44l-1.1 2.15h1.12V1.44zm4.02-.08h1.58l.67 2.88.67-2.88h1.58v4.3h-1V2.61l-.76 3.06h-.91l-.76-3.06v3.05h-1zm6.35 4.3h-1.06V4.42h1.06z"/></g></g></svg>