<svg xmlns="http://www.w3.org/2000/svg" viewBox="0 0 227.07 43.89"><title>2850</title><g id="0b5ea494-8333-4c14-b374-f7c332c4ad99" data-name="Слой 2"><g id="4fc9743b-1e09-4d13-b398-599424da570c" data-name="Слой 1"><path d="M225.12,31.81c.62,0,1.11-.12,1.11.5h0c0,.61-.5.5-1.11.5H223c-.61,0-1.11.11-1.11-.5h0c0-.62.5-.5,1.11-.5Z" fill="#fff"/><polygon points="35.58 13.17 0 13.17 0 18.71 4.45 18.71 4.45 21.48 6.73 21.48 6.73 18.71 35.58 18.71 35.58 35.2 41.12 35.2 41.12 18.71 41.12 13.17 35.58 13.17" fill="#253678"/><path d="M146.71,34.68a9.72,9.72,0,0,1,1.14-4.57H35.58v5.54H146.76A9.73,9.73,0,0,1,146.71,34.68Z" fill="#253678"/><path d="M209.39,30.11a9.72,9.72,0,0,1,1.09,5.54h16.6V30.11Z" fill="#253678"/><path d="M191,35.66c0-.32,0-.65,0-1a9.72,9.72,0,0,1,1.14-4.57H187a9.72,9.72,0,0,1,1.43,5.07c0,.16,0,.31,0,.47Z" fill="#253678"/><path d="M168.85,35.66c0-.16,0-.31,0-.47a9.71,9.71,0,0,1,1.43-5.07h-5.11a9.72,9.72,0,0,1,1.14,4.57c0,.33,0,.65,0,1Z" fill="#253678"/><path d="M200.74,24.89a9.8,9.8,0,0,1,9.71,8.63l2.51.25a12.3,12.3,0,0,0-24.44-.54q1.29-.15,2.59-.24A9.8,9.8,0,0,1,200.74,24.89Z" fill="#253678"/><path d="M200.74,26a8.71,8.71,0,0,0-8.52,6.95l1.51-.09a7.27,7.27,0,0,1,14.07.43l1.54.15A8.71,8.71,0,0,0,200.74,26Z" fill="#253678"/><path d="M200.74,26a8.7,8.7,0,1,0,8.7,8.7A8.71,8.71,0,0,0,200.74,26Zm0,14.71a6,6,0,1,1,6-6A6,6,0,0,1,200.74,40.69Z" fill="#253678"/><circle cx="200.74" cy="34.68" r="1.75" fill="#253678"/><path d="M200.74,37a2.3,2.3,0,1,1,2.3-2.3A2.3,2.3,0,0,1,200.74,37Z" fill="#253678"/><path d="M178.62,25.39A9.8,9.8,0,0,1,188.33,34l2.51.25a12.3,12.3,0,0,0-24.44-.54q1.29-.15,2.59-.24A9.8,9.8,0,0,1,178.62,25.39Z" fill="#253678"/><path d="M178.62,26.48a8.71,8.71,0,0,0-8.52,6.94l1.51-.09a7.27,7.27,0,0,1,14.07.43l1.54.15A8.71,8.71,0,0,0,178.62,26.48Z" fill="#253678"/><path d="M178.62,26.48a8.7,8.7,0,1,0,8.7,8.7A8.71,8.71,0,0,0,178.62,26.48Zm0,14.71a6,6,0,1,1,6-6A6,6,0,0,1,178.62,41.19Z" fill="#253678"/><circle cx="178.62" cy="35.18" r="1.75" fill="#253678"/><path d="M178.62,37.48a2.3,2.3,0,1,1,2.3-2.3A2.3,2.3,0,0,1,178.62,37.48Z" fill="#253678"/><path d="M156.5,26A8.71,8.71,0,0,0,148,32.73l1.49-.09a7.27,7.27,0,0,1,14.07.43l1.48.15A8.71,8.71,0,0,0,156.5,26Z" fill="#253678"/><path d="M156.5,24.89a9.8,9.8,0,0,1,9.68,8.43l2.57.25A12.3,12.3,0,0,0,144.31,33q1.29-.15,2.59-.24A9.8,9.8,0,0,1,156.5,24.89Z" fill="#253678"/><path d="M156.5,26a8.7,8.7,0,1,0,8.7,8.7A8.71,8.71,0,0,0,156.5,26Zm0,14.71a6,6,0,1,1,6-6A6,6,0,0,1,156.5,40.69Z" fill="#253678"/><circle cx="156.5" cy="34.68" r="1.75" fill="#253678"/><path d="M156.5,37a2.3,2.3,0,1,1,2.3-2.3A2.3,2.3,0,0,1,156.5,37Z" fill="#253678"/><rect x="144.43" y="32.59" width="2.27" height="5.54" fill="#253678"/><rect x="210.53" y="32.59" width="2.27" height="5.54" fill="#253678"/><rect x="166.29" y="32.42" width="2.54" height="5.54" fill="#253678"/><rect x="188.41" y="32.42" width="2.54" height="5.54" fill="#253678"/><rect x="40.3" y="5.47" width="1" height="7.99" fill="#f6ad15"/><rect x="225.64" y="5.66" width="1" height="24.52" fill="#f6ad15"/><rect x="133.21" y="-84.18" width="1" height="184.86" transform="translate(125.23 141.95) rotate(-89.9)" fill="#f6ad15"/><polygon points="46.98 9.29 40.48 8.13 47 6.37 46.98 9.29" fill="#f6ad15"/><polygon points="219.64 9.54 226.14 8.38 219.62 6.62 219.64 9.54" fill="#f6ad15"/><path d="M120.1,1.66H119V.91h.1A1.65,1.65,0,0,0,120,.7a1,1,0,0,0,.42-.7h.85V5.66H120.1Z" fill="#f6ad15"/><path d="M122.63,5.66a3.11,3.11,0,0,1,.08-.7,2.56,2.56,0,0,1,.23-.62,3.35,3.35,0,0,1,.39-.58,6,6,0,0,1,.55-.57l.46-.43a2.57,2.57,0,0,0,.31-.31,1.32,1.32,0,0,0,.18-.29,1.09,1.09,0,0,0,.08-.31,3.33,3.33,0,0,0,0-.38q0-.7-.56-.7a.58.58,0,0,0-.34.09.58.58,0,0,0-.19.24,1.13,1.13,0,0,0-.09.35,4.16,4.16,0,0,0,0,.42h-1.1V1.64a1.65,1.65,0,0,1,.42-1.22A1.83,1.83,0,0,1,124.39,0a1.79,1.79,0,0,1,1.28.4,1.51,1.51,0,0,1,.42,1.14,2.53,2.53,0,0,1,0,.51,1.9,1.9,0,0,1-.15.45,2.06,2.06,0,0,1-.27.42,4,4,0,0,1-.41.42l-.64.59a2.37,2.37,0,0,0-.4.45,1.3,1.3,0,0,0-.18.38h2.14v.9Z" fill="#f6ad15"/><path d="M127.81,5.46a3.48,3.48,0,0,1,0,.56,1.27,1.27,0,0,1-.16.46,1,1,0,0,1-.32.32,1.25,1.25,0,0,1-.52.16V6.4a.44.44,0,0,0,.31-.22.82.82,0,0,0,.1-.41v-.1h-.42V4.42h1.06Z" fill="#f6ad15"/><path d="M130.23,0h1.19V3.59H132v.9h-.54V5.66h-1.06V4.49h-2V3.54Zm.12,1.44-1.1,2.15h1.12V1.44Z" fill="#f6ad15"/><path d="M134.37,1.36h1.58l.67,2.88.67-2.88h1.58v4.3h-1V2.61l-.76,3.06h-.91l-.76-3.06V5.66h-1Z" fill="#f6ad15"/><path d="M140.72,5.66h-1.06V4.42h1.06Z" fill="#f6ad15"/></g></g></svg>