<svg xmlns="http://www.w3.org/2000/svg" viewBox="0 0 281.39 50.7"><title>9429</title><g id="f11b962e-bf25-410c-891c-a652dd7597c2" data-name="Слой 2"><g id="2ca0e38f-e693-4ed2-a762-692fa756b2f3" data-name="Слой 1"><path d="M45,31.73a1,1,0,0,1,1.11,1h0a1,1,0,0,1-1.11,1H42.82a1,1,0,0,1-1.11-1h0a1,1,0,0,1,1.11-1Z" fill="#fff"/><polyline points="275.85 30.81 281.39 30.81 281.39 6.1 275.87 0.21" fill="#253678"/><polygon points="35.58 13.98 0 13.98 0 19.52 4.45 19.52 4.45 22.29 6.73 22.29 6.73 19.52 35.58 19.52 35.58 35.6 41.12 35.6 41.12 19.52 41.12 13.98 35.58 13.98" fill="#253678"/><path d="M222.5,32.79a8.7,8.7,0,1,0,8.7,8.7A8.71,8.71,0,0,0,222.5,32.79Zm0,14.71a6,6,0,1,1,6-6A6,6,0,0,1,222.5,47.5Z" fill="#253678"/><circle cx="222.5" cy="41.49" r="1.75" fill="#253678"/><path d="M222.5,43.79a2.3,2.3,0,1,1,2.3-2.3A2.3,2.3,0,0,1,222.5,43.79Z" fill="#253678"/><path d="M200.38,33.3a8.7,8.7,0,1,0,8.7,8.7A8.71,8.71,0,0,0,200.38,33.3Zm0,14.71a6,6,0,1,1,6-6A6,6,0,0,1,200.38,48Z" fill="#253678"/><circle cx="200.38" cy="42" r="1.75" fill="#253678"/><path d="M200.38,44.3a2.3,2.3,0,1,1,2.3-2.3A2.3,2.3,0,0,1,200.38,44.3Z" fill="#253678"/><path d="M178.26,32.79a8.7,8.7,0,1,0,8.7,8.7A8.71,8.71,0,0,0,178.26,32.79Zm0,14.71a6,6,0,1,1,6-6A6,6,0,0,1,178.26,47.5Z" fill="#253678"/><circle cx="178.26" cy="41.49" r="1.75" fill="#253678"/><path d="M178.26,43.79a2.3,2.3,0,1,1,2.3-2.3A2.3,2.3,0,0,1,178.26,43.79Z" fill="#253678"/><rect x="232.29" y="39.4" width="2.57" height="5.54" fill="#253678"/><path d="M244.62,32.79a8.7,8.7,0,1,0,8.7,8.7A8.71,8.71,0,0,0,244.62,32.79Zm0,14.71a6,6,0,1,1,6-6A6,6,0,0,1,244.62,47.5Z" fill="#253678"/><circle cx="244.62" cy="41.49" r="1.75" fill="#253678"/><path d="M244.62,43.79a2.3,2.3,0,1,1,2.3-2.3A2.3,2.3,0,0,1,244.62,43.79Z" fill="#253678"/><rect x="254.41" y="39.4" width="2.27" height="5.54" fill="#253678"/><rect x="188.05" y="39.24" width="2.54" height="5.54" fill="#253678"/><path d="M156.14,32.79a8.7,8.7,0,1,0,8.7,8.7A8.71,8.71,0,0,0,156.14,32.79Zm0,14.71a6,6,0,1,1,6-6A6,6,0,0,1,156.14,47.5Z" fill="#253678"/><circle cx="156.14" cy="41.49" r="1.75" fill="#253678"/><path d="M156.14,43.79a2.3,2.3,0,1,1,2.3-2.3A2.3,2.3,0,0,1,156.14,43.79Z" fill="#253678"/><rect x="165.93" y="39.24" width="2.54" height="5.54" fill="#253678"/><path d="M134,32.79a8.7,8.7,0,1,0,8.7,8.7A8.71,8.71,0,0,0,134,32.79Zm0,14.71a6,6,0,1,1,6-6A6,6,0,0,1,134,47.5Z" fill="#253678"/><circle cx="134.02" cy="41.49" r="1.75" fill="#253678"/><path d="M134,43.79a2.3,2.3,0,1,1,2.3-2.3A2.3,2.3,0,0,1,134,43.79Z" fill="#253678"/><path d="M38.17,29.78l-.33,5.77L122,35.5v9.45h2.27V41.49a9.79,9.79,0,1,1,19.58,0c0,.33,0,.65,0,1h2.64c0-.32,0-.64,0-1a9.79,9.79,0,1,1,19.58,0c0,.33,0,.65,0,1h2.64c0-.32,0-.64,0-1a9.79,9.79,0,1,1,19.58,0c0,.33,0,.65,0,1h2.61c0-.16,0-.31,0-.47a9.79,9.79,0,0,1,19.58,0c0,.16,0,.31,0,.47h2.61a9.79,9.79,0,1,1,19.48,0h2.64c0-.32,0-.64,0-1a9.79,9.79,0,1,1,19.53,1h27V30Z" fill="#253678"/><rect x="143.81" y="39.24" width="2.54" height="5.54" fill="#253678"/><rect x="210.17" y="39.24" width="2.54" height="5.54" fill="#253678"/><path d="M278.74,32.73A1.73,1.73,0,1,1,280.46,31,1.73,1.73,0,0,1,278.74,32.73Z" fill="#fff"/><rect x="40.07" y="6.02" width="1" height="7.99" fill="#f6ad15"/><rect x="157.99" y="-108.63" width="1" height="234.86" transform="translate(149.46 167.28) rotate(-89.92)" fill="#f6ad15"/><polygon points="46.75 9.84 40.25 8.68 46.77 6.92 46.75 9.84" fill="#f6ad15"/><polygon points="269.41 10.09 275.92 8.93 269.39 7.17 269.41 10.09" fill="#f6ad15"/><path d="M144.58,1.77h-1.2V1h.11a1.76,1.76,0,0,0,1-.23A1.06,1.06,0,0,0,144.9,0h.9V6h-1.22Z" fill="#f6ad15"/><path d="M148.66,1.77h-1.2V1h.11a1.76,1.76,0,0,0,1-.23A1.06,1.06,0,0,0,149,0h.9V6h-1.22Z" fill="#f6ad15"/><path d="M152.78,5.8a3.74,3.74,0,0,1,0,.6,1.36,1.36,0,0,1-.17.49,1,1,0,0,1-.34.34,1.32,1.32,0,0,1-.56.17V6.8a.47.47,0,0,0,.33-.24.87.87,0,0,0,.11-.43V6h-.44V4.69h1.12Z" fill="#f6ad15"/><path d="M153.61,3.34a1.12,1.12,0,0,1,.77-.51v0a1.09,1.09,0,0,1-.41-.19,1.12,1.12,0,0,1-.27-.29,1.11,1.11,0,0,1-.15-.34,1.47,1.47,0,0,1,0-.34A1.56,1.56,0,0,1,154,.39a2.37,2.37,0,0,1,2.59,0A1.55,1.55,0,0,1,157,1.66,1.34,1.34,0,0,1,157,2a1.19,1.19,0,0,1-.15.34,1.12,1.12,0,0,1-.27.29,1.09,1.09,0,0,1-.4.19v0a1.11,1.11,0,0,1,.77.51,1.81,1.81,0,0,1,.25,1,2.93,2.93,0,0,1-.06.58,1.45,1.45,0,0,1-.27.59,1.52,1.52,0,0,1-.58.45,2.93,2.93,0,0,1-2,0,1.52,1.52,0,0,1-.58-.45,1.45,1.45,0,0,1-.27-.59,2.93,2.93,0,0,1-.06-.58A1.81,1.81,0,0,1,153.61,3.34Zm1,1.36a1,1,0,0,0,.11.33.6.6,0,0,0,.22.22.75.75,0,0,0,.68,0,.6.6,0,0,0,.22-.22,1,1,0,0,0,.11-.33,2.78,2.78,0,0,0,0-.81,1,1,0,0,0-.11-.33.61.61,0,0,0-.22-.22.76.76,0,0,0-.68,0,.61.61,0,0,0-.22.22,1,1,0,0,0-.11.33,2.78,2.78,0,0,0,0,.81Zm.23-2.44a.56.56,0,0,0,.87,0,1,1,0,0,0,.16-.64q0-.82-.6-.82t-.6.82A1,1,0,0,0,154.85,2.26Z" fill="#f6ad15"/><path d="M159.75,1.45h1.68l.71,3.06.71-3.06h1.68V6h-1.1V2.77L162.63,6h-1l-.81-3.25V6h-1.1Z" fill="#f6ad15"/><path d="M166.51,6h-1.12V4.69h1.12Z" fill="#f6ad15"/></g></g></svg>