<svg xmlns="http://www.w3.org/2000/svg" viewBox="0 0 351.74319 63.115238" height="67.323" width="375.193"><path d="M56.216 46.9c.766 0 1.391.478 1.391 1.25 0 .766-.625 1.25-1.391 1.25H53.53c-.771 0-1.396-.484-1.396-1.25 0-.772.625-1.25 1.396-1.25zm0 0" fill="#fff"/><path d="M344.839 0h-.025v38.252h6.93V7.368zm0 0M44.473 24.717H0v6.929h5.566v3.461h2.842v-3.461h36.065v21.181h6.933v-28.11zm0 0" fill="#303d7a"/><path d="M49.795 37.3v15.522h105.561c-.044-.395-.063-.8-.063-1.21 0-6.754 5.488-12.242 12.236-12.242s12.241 5.488 12.241 12.241c0 .41-.024.816-.063 1.211h3.296a12.36 12.36 0 0 1-.059-1.21c0-6.754 5.489-12.242 12.237-12.242s12.236 5.488 12.236 12.241c0 .41-.02.816-.059 1.211h3.296a12.36 12.36 0 0 1-.058-1.21c0-6.754 5.488-12.242 12.236-12.242s12.236 5.488 12.236 12.241c0 .41-.024.816-.058 1.211h3.261c-.01-.195-.029-.385-.029-.586 0-6.748 5.489-12.236 12.237-12.236s12.24 5.488 12.24 12.236c0 .2-.024.391-.028.586h3.266c-.044-.395-.063-.8-.063-1.21 0-6.754 5.488-12.242 12.236-12.242s12.241 5.488 12.241 12.241c0 .41-.024.816-.063 1.211h3.296c-.04-.395-.064-.8-.064-1.21 0-6.754 5.493-12.242 12.241-12.242 6.748 0 12.237 5.488 12.237 12.241 0 .41-.02.816-.064 1.211h33.79V37.3zm0 0" fill="#303d7a"/><path d="M278.13 59.116a7.508 7.508 0 1 1 0-15.014 7.508 7.508 0 0 1 0 15.015m0-18.385c-5.996 0-10.874 4.878-10.874 10.88 0 5.995 4.878 10.873 10.874 10.873s10.879-4.878 10.879-10.874c0-6-4.878-10.879-10.88-10.879" fill="#303d7a"/><path d="M280.322 51.611c0 1.211-.981 2.188-2.192 2.188a2.193 2.193 0 1 1 2.192-2.188" fill="#303d7a"/><path d="M278.13 54.482a2.877 2.877 0 0 1-2.876-2.87 2.878 2.878 0 0 1 2.876-2.877 2.878 2.878 0 0 1 2.876 2.876 2.877 2.877 0 0 1-2.876 2.871M250.478 59.746a7.508 7.508 0 0 1-7.504-7.51 7.508 7.508 0 1 1 15.014 0 7.51 7.51 0 0 1-7.51 7.51m0-18.384c-5.996 0-10.874 4.878-10.874 10.874s4.878 10.88 10.874 10.88c5.997 0 10.88-4.884 10.88-10.88s-4.879-10.874-10.88-10.874" fill="#303d7a"/><path d="M252.676 52.236c0 1.211-.987 2.193-2.198 2.193a2.192 2.192 0 1 1 0-4.385c1.211 0 2.198.981 2.198 2.192" fill="#303d7a"/><path d="M250.478 55.112a2.877 2.877 0 0 1 0-5.752 2.881 2.881 0 0 1 2.876 2.876 2.878 2.878 0 0 1-2.876 2.876M222.832 59.116c-4.15 0-7.51-3.36-7.51-7.505 0-4.15 3.36-7.51 7.51-7.51a7.505 7.505 0 0 1 7.505 7.51 7.504 7.504 0 0 1-7.505 7.505m0-18.384c-6.001 0-10.879 4.878-10.879 10.88 0 5.995 4.878 10.873 10.879 10.873 5.996 0 10.874-4.878 10.874-10.874 0-6-4.878-10.879-10.874-10.879" fill="#303d7a"/><path d="M225.024 51.611c0 1.211-.981 2.188-2.192 2.188a2.192 2.192 0 1 1 0-4.385c1.21 0 2.192.982 2.192 2.197" fill="#303d7a"/><path d="M222.832 54.482a2.877 2.877 0 0 1-2.876-2.87 2.878 2.878 0 0 1 2.876-2.877 2.877 2.877 0 0 1 2.871 2.876 2.876 2.876 0 0 1-2.871 2.871M293.574 55.928h-3.208v-6.929h3.208zm0 0M305.781 59.116a7.508 7.508 0 1 1 0-15.014 7.508 7.508 0 0 1 0 15.015m0-18.385c-5.996 0-10.874 4.878-10.874 10.88 0 5.995 4.878 10.873 10.874 10.873s10.874-4.878 10.874-10.874c0-6-4.878-10.879-10.874-10.879" fill="#303d7a"/><path d="M307.974 51.611c0 1.211-.982 2.188-2.193 2.188a2.193 2.193 0 1 1 2.192-2.188" fill="#303d7a"/><path d="M305.781 54.482a2.877 2.877 0 0 1-2.876-2.87 2.874 2.874 0 1 1 2.876 2.871" fill="#303d7a"/><path d="M348.423 40.66a2.159 2.159 0 1 1 2.158-2.158 2.162 2.162 0 0 1-2.158 2.157" fill="#fff"/><path d="M320.86 55.928h-2.842v-6.929h2.841zm0 0M238.242 55.718h-3.174v-6.929h3.174zm0 0M195.18 59.116a7.508 7.508 0 1 1 0-15.014 7.508 7.508 0 0 1 0 15.015m0-18.385c-5.995 0-10.873 4.878-10.873 10.88 0 5.995 4.878 10.873 10.874 10.873s10.874-4.878 10.874-10.874c0-6-4.878-10.879-10.874-10.879" fill="#303d7a"/><path d="M197.373 51.611c0 1.211-.981 2.188-2.192 2.188a2.193 2.193 0 1 1 2.192-2.188" fill="#303d7a"/><path d="M195.18 54.482a2.877 2.877 0 0 1-2.875-2.87 2.878 2.878 0 0 1 2.876-2.877 2.878 2.878 0 0 1 2.876 2.876 2.877 2.877 0 0 1-2.876 2.871M210.596 55.718h-3.179v-6.929h3.179zm0 0M167.53 59.116a7.504 7.504 0 0 1-7.506-7.505c0-4.15 3.36-7.51 7.505-7.51a7.508 7.508 0 0 1 0 15.015m0-18.384c-5.996 0-10.874 4.878-10.874 10.88 0 5.995 4.878 10.873 10.874 10.873 6.001 0 10.88-4.878 10.88-10.874 0-6-4.879-10.879-10.88-10.879" fill="#303d7a"/><path d="M169.727 51.611c0 1.211-.987 2.188-2.198 2.188a2.193 2.193 0 0 1 0-4.385c1.211 0 2.198.982 2.198 2.197" fill="#303d7a"/><path d="M167.53 54.482a2.876 2.876 0 0 1-2.872-2.87 2.877 2.877 0 0 1 2.871-2.877 2.878 2.878 0 0 1 2.876 2.876 2.877 2.877 0 0 1-2.876 2.871M155.293 55.928h-2.842v-6.929h2.842zm0 0M182.944 55.718h-3.173v-6.929h3.173zm0 0M265.894 55.718h-3.174v-6.929h3.174zm0 0" fill="#303d7a"/><path d="M51.343 24.76h-1.25v-9.994h1.25zm0 0" fill="#f5ae23"/><path d="M344.897 19.077l-293.574-.415v-1.25l293.574.415zm0 0" fill="#f5ae23"/><path d="M58.442 19.546l-8.13-1.455 8.155-2.193zm0 0M336.768 19.858l8.13-1.455-8.155-2.192zm0 0M176.094 10.015h-1.411v-.943h.131c.479 0 .855-.088 1.133-.268.279-.18.45-.469.528-.87h1.06v7.08h-1.441zm0 0M179.253 15.015c0-.313.03-.606.093-.88.063-.273.16-.536.293-.78.127-.25.293-.489.488-.728a7.66 7.66 0 0 1 .683-.713l.582-.542a2.87 2.87 0 0 0 .385-.39c.098-.118.171-.24.225-.357a1.44 1.44 0 0 0 .107-.39c.015-.142.025-.303.025-.48 0-.59-.235-.883-.703-.883a.73.73 0 0 0-.425.112.73.73 0 0 0-.24.298 1.448 1.448 0 0 0-.107.44c-.02.166-.03.346-.03.532h-1.376v-.269c0-.664.176-1.167.527-1.523.357-.352.913-.527 1.67-.527.723 0 1.255.166 1.602.498.346.337.522.81.522 1.43 0 .23-.02.44-.063.635a2.436 2.436 0 0 1-.527 1.089c-.142.17-.313.347-.513.527l-.801.738c-.21.195-.376.385-.498.566a1.786 1.786 0 0 0-.23.474h2.671v1.123zm0 0M185.732 14.756c0 .244-.02.478-.053.703a1.702 1.702 0 0 1-.205.581c-.103.161-.24.293-.406.4-.17.103-.39.166-.654.196v-.703a.542.542 0 0 0 .386-.279c.088-.156.132-.322.132-.512v-.127h-.518v-1.563h1.318zm0 0M187.91 9.194l-.146 1.612h.02c.131-.19.302-.323.517-.406.215-.083.473-.127.781-.127.342 0 .62.064.845.196.224.132.4.302.532.517.127.21.22.454.273.723.054.269.078.547.078.825 0 .39-.034.752-.097 1.07a2.08 2.08 0 0 1-.357.825c-.17.23-.4.405-.693.522-.293.112-.669.171-1.123.171-.444 0-.806-.059-1.084-.176a1.583 1.583 0 0 1-.635-.478 1.62 1.62 0 0 1-.293-.64 2.821 2.821 0 0 1-.078-.644v-.19h1.382c0 .121.005.248.02.38.014.132.044.259.097.376.049.117.117.21.215.288a.55.55 0 0 0 .366.117c.303 0 .518-.117.645-.346.132-.23.195-.577.195-1.036 0-.293-.01-.537-.039-.727a1.283 1.283 0 0 0-.132-.464.58.58 0 0 0-.259-.24 1.034 1.034 0 0 0-.4-.068c-.205 0-.361.059-.474.176a.865.865 0 0 0-.205.474h-1.289l.259-3.848h3.691v1.118zm0 0M193.93 9.634h1.973l.84 3.598.84-3.598h1.968v5.38h-1.29v-3.823l-.951 3.824h-1.138l-.952-3.824v3.824h-1.29zm0 0M201.87 15.015h-1.318v-1.563h1.318zm0 0" fill="#f5ae23"/></svg>