<svg xmlns="http://www.w3.org/2000/svg" viewBox="0 0 281.39 50.49"><defs><style>.cls-1{fill:#fff}.cls-2{fill:#253678}.cls-3{fill:#f6ad15}</style></defs><title>9429</title><g id="Слой_2" data-name="Слой 2"><g id="Слой_1-2" data-name="Слой 1"><path class="cls-1" d="M45 31.52a1 1 0 0 1 1.11 1 1 1 0 0 1-1.11 1h-2.18a1 1 0 0 1-1.11-1 1 1 0 0 1 1.11-1z"/><path class="cls-2" d="M275.85 30.6h5.54V5.89L275.87 0M35.58 13.77H0v5.55h4.45v2.77h2.28v-2.77h28.85V35.4h5.54V13.77h-5.54zM222.5 32.59a8.7 8.7 0 1 0 8.7 8.7 8.71 8.71 0 0 0-8.7-8.7zm0 14.71a6 6 0 1 1 6-6 6 6 0 0 1-6 5.99z"/><circle class="cls-2" cx="222.5" cy="41.29" r="1.75"/><path class="cls-2" d="M222.5 43.59a2.3 2.3 0 1 1 2.3-2.3 2.3 2.3 0 0 1-2.3 2.3zm-22.12-10.5a8.7 8.7 0 1 0 8.7 8.7 8.71 8.71 0 0 0-8.7-8.7zm0 14.71a6 6 0 1 1 6-6 6 6 0 0 1-6 6z"/><circle class="cls-2" cx="200.38" cy="41.79" r="1.75"/><path class="cls-2" d="M200.38 44.09a2.3 2.3 0 1 1 2.3-2.3 2.3 2.3 0 0 1-2.3 2.3zm-22.12-11.5a8.7 8.7 0 1 0 8.7 8.7 8.71 8.71 0 0 0-8.7-8.7zm0 14.71a6 6 0 1 1 6-6 6 6 0 0 1-6 5.99z"/><circle class="cls-2" cx="178.26" cy="41.29" r="1.75"/><path class="cls-2" d="M178.26 43.59a2.3 2.3 0 1 1 2.3-2.3 2.3 2.3 0 0 1-2.3 2.3zm54.03-4.39h2.57v5.54h-2.57zm12.33-6.61a8.7 8.7 0 1 0 8.7 8.7 8.71 8.71 0 0 0-8.7-8.7zm0 14.71a6 6 0 1 1 6-6 6 6 0 0 1-6 5.99z"/><circle class="cls-2" cx="244.62" cy="41.29" r="1.75"/><path class="cls-2" d="M244.62 43.59a2.3 2.3 0 1 1 2.3-2.3 2.3 2.3 0 0 1-2.3 2.3zm9.79-4.39h2.27v5.54h-2.27zm-66.36-.17h2.54v5.54h-2.54zm-31.91-6.44a8.7 8.7 0 1 0 8.7 8.7 8.71 8.71 0 0 0-8.7-8.7zm0 14.71a6 6 0 1 1 6-6 6 6 0 0 1-6 5.99z"/><circle class="cls-2" cx="156.14" cy="41.29" r="1.75"/><path class="cls-2" d="M156.14 43.59a2.3 2.3 0 1 1 2.3-2.3 2.3 2.3 0 0 1-2.3 2.3zm9.79-4.56h2.54v5.54h-2.54zM134 32.59a8.7 8.7 0 1 0 8.7 8.7 8.71 8.71 0 0 0-8.7-8.7zm0 14.71a6 6 0 1 1 6-6 6 6 0 0 1-6 5.99z"/><circle class="cls-2" cx="134.02" cy="41.29" r="1.75"/><path class="cls-2" d="M134 43.59a2.3 2.3 0 1 1 2.3-2.3 2.3 2.3 0 0 1-2.3 2.3z"/><path class="cls-2" d="M38.17 29.58l-.33 5.77 84.16-.06v9.45h2.27v-3.45a9.79 9.79 0 1 1 19.58 0v1h2.64v-1a9.79 9.79 0 1 1 19.58 0v1h2.64v-1a9.79 9.79 0 1 1 19.58 0v1h2.61v-.47a9.79 9.79 0 0 1 19.58 0v.47h2.61a9.79 9.79 0 1 1 19.48 0h2.64v-1a9.79 9.79 0 1 1 19.53 1h27V29.84z"/><path class="cls-2" d="M143.81 39.03h2.54v5.54h-2.54zm66.36 0h2.54v5.54h-2.54z"/><path class="cls-1" d="M278.74 32.53a1.73 1.73 0 1 1 1.73-1.73 1.73 1.73 0 0 1-1.73 1.73z"/><path class="cls-3" d="M40.07 5.82h1v7.99h-1z"/><path class="cls-3" transform="rotate(-89.92 158.487 8.595)" d="M157.99-108.83h1v234.86h-1z"/><path class="cls-3" d="M46.75 9.64l-6.5-1.17 6.52-1.75-.02 2.92zm222.66.25l6.51-1.17-6.53-1.75.02 2.92zM140.87 2h-1.13v-.74h.1a1.65 1.65 0 0 0 .91-.22 1 1 0 0 0 .42-.7h.83V6h-1.15zm2.53 4a3.11 3.11 0 0 1 .08-.7 2.57 2.57 0 0 1 .23-.62 3.35 3.35 0 0 1 .39-.58 6 6 0 0 1 .55-.57l.46-.43a2.57 2.57 0 0 0 .31-.31 1.32 1.32 0 0 0 .18-.29 1.09 1.09 0 0 0 .08-.31 3.3 3.3 0 0 0 0-.38q0-.7-.56-.7a.58.58 0 0 0-.34.09.58.58 0 0 0-.19.24 1.13 1.13 0 0 0-.09.35 4.19 4.19 0 0 0 0 .42h-1.1V2a1.65 1.65 0 0 1 .42-1.22 1.83 1.83 0 0 1 1.34-.42 1.79 1.79 0 0 1 1.28.4 1.51 1.51 0 0 1 .42 1.14 2.53 2.53 0 0 1 0 .51 1.91 1.91 0 0 1-.15.45 2.07 2.07 0 0 1-.27.42 4 4 0 0 1-.41.42l-.64.59a2.38 2.38 0 0 0-.4.45 1.3 1.3 0 0 0-.18.38h2.14V6zm5.18-.2a3.48 3.48 0 0 1 0 .56 1.27 1.27 0 0 1-.16.46 1 1 0 0 1-.32.32 1.25 1.25 0 0 1-.52.16v-.55a.44.44 0 0 0 .31-.22.82.82 0 0 0 .1-.41V6h-.42V4.76h1.06zm1.75-4.44l-.12 1.29a.9.9 0 0 1 .42-.32 1.71 1.71 0 0 1 .62-.1 1.33 1.33 0 0 1 .68.16 1.19 1.19 0 0 1 .42.41 1.76 1.76 0 0 1 .22.58 3.37 3.37 0 0 1 .06.66 4.18 4.18 0 0 1-.08.86 1.67 1.67 0 0 1-.28.66 1.25 1.25 0 0 1-.56.42 2.46 2.46 0 0 1-.9.14A2.2 2.2 0 0 1 150 6a1.22 1.22 0 0 1-.51-.38 1.32 1.32 0 0 1-.24-.51 2.43 2.43 0 0 1-.06-.52V4.4h1.1a3 3 0 0 0 0 .3 1 1 0 0 0 .08.3.6.6 0 0 0 .17.23.45.45 0 0 0 .3.09.55.55 0 0 0 .52-.28 1.73 1.73 0 0 0 .16-.83 4.46 4.46 0 0 0 0-.58 1.06 1.06 0 0 0-.11-.37.43.43 0 0 0-.2-.19.81.81 0 0 0-.32-.06.5.5 0 0 0-.38.14.67.67 0 0 0-.16.38h-1l.21-3.08h3v.9zm4.81.35h1.58l.67 2.88.67-2.88h1.58V6h-1V3l-.79 3h-.91l-.76-3v3h-1zM161.5 6h-1.06V4.76h1.06z"/></g></g></svg>