<svg xmlns="http://www.w3.org/2000/svg" viewBox="0 0 281.39453 50.492189" height="67.323" width="375.193"><path d="M44.973 37.52c.613 0 1.113.382 1.113 1 0 .613-.5 1-1.113 1h-2.149c-.617 0-1.117-.387-1.117-1 0-.618.5-1 1.117-1zm0 0" fill="#fff"/><path d="M275.871 0h-.02v30.602h5.544V5.895zM35.578 19.773H0v5.543h4.453v2.77h2.274v-2.77h28.851v16.946h5.547V19.773zm0 0" fill="#303d7a"/><path d="M39.836 29.84v12.418h84.45a8.777 8.777 0 0 1-.052-.969c0-5.402 4.39-9.793 9.79-9.793 5.398 0 9.792 4.39 9.792 9.793 0 .328-.02.652-.05.969h2.636a9.887 9.887 0 0 1-.047-.969c0-5.402 4.391-9.793 9.79-9.793 5.398 0 9.788 4.39 9.788 9.793 0 .328-.015.652-.046.969h2.636a9.887 9.887 0 0 1-.047-.969c0-5.402 4.391-9.793 9.79-9.793 5.398 0 9.789 4.39 9.789 9.793 0 .328-.02.652-.047.969h2.609c-.008-.156-.023-.309-.023-.469 0-5.398 4.39-9.789 9.789-9.789 5.398 0 9.793 4.39 9.793 9.79 0 .16-.02.312-.024.468h2.614a8.801 8.801 0 0 1-.051-.969c0-5.402 4.39-9.793 9.789-9.793 5.398 0 9.793 4.39 9.793 9.793 0 .328-.02.652-.051.969h2.637a9.879 9.879 0 0 1-.051-.969c0-5.402 4.394-9.793 9.793-9.793 5.398 0 9.789 4.39 9.789 9.793 0 .328-.016.652-.05.969h27.03V29.84zm0 0" fill="#303d7a"/><path d="M222.504 47.293a6.007 6.007 0 1 1 0-12.012 6.007 6.007 0 0 1 0 12.012m0-14.707c-4.797 0-8.7 3.902-8.7 8.703 0 4.797 3.903 8.7 8.7 8.7 4.797 0 8.703-3.903 8.703-8.7 0-4.8-3.902-8.703-8.703-8.703" fill="#303d7a"/><path d="M224.258 41.29a1.75 1.75 0 0 1-1.754 1.75 1.755 1.755 0 1 1 1.754-1.75" fill="#303d7a"/><path d="M222.504 43.586a2.3 2.3 0 0 1-2.3-2.297 2.3 2.3 0 0 1 4.6 0 2.301 2.301 0 0 1-2.3 2.297m-22.121 4.211a6.007 6.007 0 0 1-6.004-6.008 6.007 6.007 0 1 1 12.012 0 6.007 6.007 0 0 1-6.008 6.008m0-14.707c-4.797 0-8.7 3.902-8.7 8.7 0 4.796 3.903 8.702 8.7 8.702 4.797 0 8.703-3.906 8.703-8.703 0-4.797-3.902-8.7-8.703-8.7" fill="#303d7a"/><path d="M202.14 41.79c0 .968-.788 1.753-1.757 1.753a1.754 1.754 0 1 1 0-3.508c.969 0 1.758.785 1.758 1.754" fill="#303d7a"/><path d="M200.383 44.09a2.301 2.301 0 0 1 0-4.602 2.3 2.3 0 1 1 0 4.601m-22.117 3.204a6.004 6.004 0 0 1-6.008-6.004 6.005 6.005 0 0 1 6.008-6.008 6.004 6.004 0 0 1 6.003 6.008 6.003 6.003 0 0 1-6.003 6.004m0-14.707c-4.801 0-8.704 3.902-8.704 8.703 0 4.797 3.903 8.7 8.704 8.7 4.796 0 8.699-3.903 8.699-8.7 0-4.8-3.903-8.703-8.7-8.703" fill="#303d7a"/><path d="M180.02 41.29a1.75 1.75 0 0 1-1.754 1.75 1.754 1.754 0 1 1 0-3.509c.968 0 1.753.785 1.753 1.758" fill="#303d7a"/><path d="M178.266 43.586a2.301 2.301 0 0 1-2.301-2.297c0-1.27 1.031-2.3 2.3-2.3a2.301 2.301 0 0 1 2.297 2.3 2.3 2.3 0 0 1-2.296 2.297m56.594 1.156h-2.567V39.2h2.566zm9.765 2.551a6.007 6.007 0 1 1 0-12.012 6.007 6.007 0 0 1 0 12.012m0-14.707c-4.797 0-8.7 3.902-8.7 8.703 0 4.797 3.903 8.7 8.7 8.7 4.797 0 8.7-3.903 8.7-8.7 0-4.8-3.903-8.703-8.7-8.703" fill="#303d7a"/><path d="M246.379 41.29a1.75 1.75 0 0 1-1.754 1.75 1.755 1.755 0 1 1 1.754-1.75" fill="#303d7a"/><path d="M244.625 43.586a2.3 2.3 0 0 1-2.3-2.297 2.299 2.299 0 1 1 2.3 2.297" fill="#303d7a"/><path d="M278.738 32.527a1.727 1.727 0 1 1 1.727-1.727 1.73 1.73 0 0 1-1.727 1.727" fill="#fff"/><path d="M256.687 44.742h-2.273V39.2h2.273zm-66.093-.168h-2.54v-5.543h2.54zm-34.45 2.719a6.007 6.007 0 1 1 0-12.012 6.007 6.007 0 0 1 0 12.012m0-14.707c-4.796 0-8.699 3.902-8.699 8.703 0 4.797 3.903 8.7 8.7 8.7 4.796 0 8.699-3.903 8.699-8.7 0-4.8-3.903-8.703-8.7-8.703" fill="#303d7a"/><path d="M157.898 41.29a1.75 1.75 0 0 1-1.754 1.75 1.755 1.755 0 1 1 1.754-1.75" fill="#303d7a"/><path d="M156.144 43.586a2.3 2.3 0 0 1-2.3-2.297 2.3 2.3 0 0 1 4.601 0 2.301 2.301 0 0 1-2.3 2.297m12.332.988h-2.543v-5.543h2.543zm-34.454 2.719a6.003 6.003 0 0 1-6.004-6.004 6.004 6.004 0 0 1 6.004-6.008 6.007 6.007 0 0 1 0 12.012m0-14.707c-4.796 0-8.699 3.902-8.699 8.703 0 4.797 3.903 8.7 8.7 8.7 4.8 0 8.703-3.903 8.703-8.7 0-4.8-3.903-8.703-8.704-8.703" fill="#303d7a"/><path d="M135.781 41.29c0 .968-.789 1.75-1.758 1.75a1.755 1.755 0 1 1 1.758-1.75" fill="#303d7a"/><path d="M134.023 43.586a2.3 2.3 0 0 1-2.296-2.297 2.3 2.3 0 1 1 4.597 0 2.301 2.301 0 0 1-2.3 2.297m-9.79 1.156h-2.273V39.2h2.273zm22.121-.168h-2.539v-5.543h2.54zm66.36 0h-2.54v-5.543h2.54zm0 0" fill="#303d7a"/><path d="M41.074 19.809h-1v-7.997h1zm0 0" fill="#f5ae23"/><path d="M275.918 15.262l-234.86-.332v-1l234.86.332zm0 0" fill="#f5ae23"/><path d="M46.754 15.637l-6.504-1.164 6.523-1.754zm222.66.25l6.504-1.164-6.524-1.754zM140.875 8.012h-1.129v-.754h.106c.382 0 .683-.07.906-.215.222-.145.36-.375.422-.695h.847v5.664h-1.152zm2.527 4c0-.25.024-.485.074-.703.051-.22.13-.43.235-.625.101-.2.234-.391.39-.582.157-.188.34-.38.547-.57l.465-.434c.13-.11.23-.215.309-.313.078-.094.137-.191.18-.285.042-.098.07-.2.085-.312.012-.114.02-.243.02-.383 0-.473-.188-.707-.563-.707a.583.583 0 0 0-.34.09.583.583 0 0 0-.19.238 1.159 1.159 0 0 0-.087.351 3.689 3.689 0 0 0-.023.426h-1.102v-.215c0-.53.14-.933.422-1.218.285-.282.73-.422 1.336-.422.578 0 1.004.133 1.281.398.278.27.418.649.418 1.145 0 .183-.015.351-.05.507a1.949 1.949 0 0 1-.422.871 4.1 4.1 0 0 1-.41.422l-.641.59c-.168.157-.3.309-.399.453a1.43 1.43 0 0 0-.183.38h2.137v.898zm5.184-.207c0 .195-.016.383-.043.562a1.36 1.36 0 0 1-.164.465 1.057 1.057 0 0 1-.324.32 1.294 1.294 0 0 1-.524.157v-.563a.434.434 0 0 0 .309-.223.812.812 0 0 0 .105-.41v-.101h-.414v-1.25h1.055zm1.742-4.45l-.117 1.29h.015a.87.87 0 0 1 .415-.325 1.73 1.73 0 0 1 .625-.101c.273 0 .496.05.675.156.18.105.32.242.426.414.102.168.176.363.219.578.043.215.062.438.062.66 0 .313-.027.602-.078.856a1.664 1.664 0 0 1-.285.66c-.137.184-.32.324-.555.418-.234.09-.535.137-.898.137-.355 0-.645-.047-.867-.141a1.266 1.266 0 0 1-.508-.383 1.297 1.297 0 0 1-.234-.511 2.26 2.26 0 0 1-.063-.516v-.152h1.106c0 .097.004.199.015.304a.977.977 0 0 0 .078.301.56.56 0 0 0 .172.23.44.44 0 0 0 .293.094c.242 0 .414-.094.516-.277.105-.184.156-.461.156-.828 0-.235-.008-.43-.031-.582a1.026 1.026 0 0 0-.106-.371.464.464 0 0 0-.207-.192.827.827 0 0 0-.32-.055.498.498 0 0 0-.379.141.692.692 0 0 0-.164.379h-1.031l.207-3.078h2.953v.894zm4.816.352h1.579l.671 2.879.672-2.879h1.575v4.305h-1.032V8.953l-.761 3.059h-.91l-.762-3.059v3.059h-1.032zm6.352 4.305h-1.055v-1.25h1.055zm0 0" fill="#f5ae23"/></svg>