<svg xmlns="http://www.w3.org/2000/svg" viewBox="0 0 220.95 44.89"><title>2652</title><g id="548e986c-6cb3-4523-8365-c3b9a8aab7fe" data-name="Слой 2"><g id="219925fe-101b-4f92-8472-a5ee0a17784d" data-name="Слой 1"><path d="M219.08,25.5c.62,0,1.11-.12,1.11.5h0c0,.61-.5.5-1.11.5h-2.15c-.62,0-1.11.11-1.11-.5h0c0-.62.5-.5,1.11-.5Z" fill="#fff"/><rect x="35.58" y="25.79" width="5.54" height="2.28" fill="#253678"/><polygon points="41.12 30.15 41.12 29.18 35.58 29.18 35.58 30.15 35.58 31.46 35.58 35.7 151.23 35.7 151.23 30.15 41.12 30.15" fill="#253678"/><rect x="35.58" y="22.47" width="5.54" height="2.28" fill="#253678"/><polygon points="0 13.67 0 19.21 4.45 19.21 4.45 21.98 6.73 21.98 6.73 19.21 35.58 19.21 35.58 21.36 41.12 21.36 41.12 19.21 41.12 19.09 41.12 13.67 0 13.67" fill="#253678"/><path d="M205.26,27a8.7,8.7,0,1,0,8.7,8.7A8.71,8.71,0,0,0,205.26,27Zm0,14.71a6,6,0,1,1,6-6A6,6,0,0,1,205.26,41.69Z" fill="#253678"/><circle cx="205.26" cy="35.68" r="1.75" fill="#253678"/><path d="M205.26,38a2.3,2.3,0,1,1,2.3-2.3A2.3,2.3,0,0,1,205.26,38Z" fill="#253678"/><path d="M183.14,27.48a8.7,8.7,0,1,0,8.7,8.7A8.71,8.71,0,0,0,183.14,27.48Zm0,14.71a6,6,0,1,1,6-6A6,6,0,0,1,183.14,42.19Z" fill="#253678"/><circle cx="183.14" cy="36.19" r="1.75" fill="#253678"/><path d="M183.14,38.48a2.3,2.3,0,1,1,2.3-2.3A2.3,2.3,0,0,1,183.14,38.48Z" fill="#253678"/><path d="M161,27a8.7,8.7,0,1,0,8.7,8.7A8.71,8.71,0,0,0,161,27Zm0,14.71a6,6,0,1,1,6-6A6,6,0,0,1,161,41.69Z" fill="#253678"/><circle cx="161.02" cy="35.68" r="1.75" fill="#253678"/><path d="M161,38a2.3,2.3,0,1,1,2.3-2.3A2.3,2.3,0,0,1,161,38Z" fill="#253678"/><path d="M220.95,24.31H149.08v9.29H149v5.54h2.27V35.84h0c0-.05,0-.11,0-.16a9.79,9.79,0,0,1,19.58,0c0,.05,0,.11,0,.16h0V39h2.54V35.84h0a9.78,9.78,0,0,1,19.55,0h0V39h2.54V35.84h0c0-.05,0-.11,0-.16a9.79,9.79,0,0,1,19.58,0c0,.05,0,.11,0,.16h0v3.29h2.28V35.84h3.62Z" fill="#253678"/><rect x="40.16" y="5.73" width="1" height="7.99" fill="#f6ad15"/><rect x="219.5" y="5.93" width="1" height="18.52" fill="#f6ad15"/><rect x="149.11" y="5.79" width="1" height="18.52" fill="#f6ad15"/><rect x="130.07" y="-80.92" width="1" height="178.86" transform="translate(121.82 139.07) rotate(-89.89)" fill="#f6ad15"/><polygon points="46.84 9.55 40.34 8.39 46.86 6.63 46.84 9.55" fill="#f6ad15"/><polygon points="213.5 9.8 220 8.64 213.48 6.88 213.5 9.8" fill="#f6ad15"/><polygon points="156.12 9.68 149.61 8.51 156.13 6.76 156.12 9.68" fill="#f6ad15"/><polygon points="143.11 9.68 149.61 8.51 143.09 6.76 143.11 9.68" fill="#f6ad15"/><path d="M179.58,0h1.27V3.82h.58v1h-.58V6h-1.12V4.77h-2.14v-1Zm.13,1.53-1.17,2.29h1.19V1.53Z" fill="#f6ad15"/><path d="M184,1.45h1.68l.71,3.06.71-3.06h1.68V6h-1.1V2.77L186.85,6h-1l-.81-3.25V6H184Z" fill="#f6ad15"/><path d="M190.72,6H189.6V4.69h1.12Z" fill="#f6ad15"/><path d="M93.3,1.05a8,8,0,0,0-.67,1.13,11.4,11.4,0,0,0-.88,2.54q-.14.66-.22,1.3H90.25q.07-.54.2-1.14a10.22,10.22,0,0,1,.36-1.22,10.8,10.8,0,0,1,.55-1.25,9.21,9.21,0,0,1,.77-1.23H89.59V.12H93.3Z" fill="#f6ad15"/><path d="M95.07,5.8a3.74,3.74,0,0,1,0,.6,1.35,1.35,0,0,1-.17.49,1,1,0,0,1-.34.34,1.32,1.32,0,0,1-.56.17V6.8a.47.47,0,0,0,.33-.24.87.87,0,0,0,.11-.43V6h-.44V4.69h1.12Z" fill="#f6ad15"/><path d="M98,1A.48.48,0,0,0,97.62.8a.62.62,0,0,0-.39.11.73.73,0,0,0-.23.32,1.74,1.74,0,0,0-.11.48q0,.28,0,.61v.3h0a1.07,1.07,0,0,1,.44-.38A1.56,1.56,0,0,1,98,2.11a1.51,1.51,0,0,1,.68.14,1.19,1.19,0,0,1,.45.39,1.73,1.73,0,0,1,.26.6,3.3,3.3,0,0,1,.08.75A2.38,2.38,0,0,1,99,5.57a1.86,1.86,0,0,1-1.48.54,2,2,0,0,1-1-.22A1.48,1.48,0,0,1,96,5.29a2.59,2.59,0,0,1-.26-.9,9.08,9.08,0,0,1-.06-1.06q0-.64,0-1.24A3.33,3.33,0,0,1,95.91,1a1.65,1.65,0,0,1,.6-.74A2,2,0,0,1,97.67,0a2.55,2.55,0,0,1,.62.08,1.43,1.43,0,0,1,.53.26A1.3,1.3,0,0,1,99.2.8a1.76,1.76,0,0,1,.15.73H98.17A1,1,0,0,0,98,1ZM97,4.63a1.27,1.27,0,0,0,.1.38.59.59,0,0,0,.2.25.6.6,0,0,0,.34.09A.62.62,0,0,0,98,5.25a.56.56,0,0,0,.2-.25,1.3,1.3,0,0,0,.09-.38q0-.22,0-.47a1.84,1.84,0,0,0-.15-.88A.54.54,0,0,0,97.6,3a.55.55,0,0,0-.52.26,1.85,1.85,0,0,0-.15.88A4.15,4.15,0,0,0,97,4.63Z" fill="#f6ad15"/><path d="M102,1.45h1.68l.71,3.06.71-3.06h1.68V6h-1.1V2.77L104.92,6h-1l-.81-3.25V6H102Z" fill="#f6ad15"/><path d="M108.79,6h-1.12V4.69h1.12Z" fill="#f6ad15"/></g></g></svg>