<svg xmlns="http://www.w3.org/2000/svg" xmlns:xlink="http://www.w3.org/1999/xlink" viewBox="0 0 220.9492 44.614077" height="59.485" width="294.599"><defs><symbol id="e" overflow="visible"><path d="M1.453 0H2.61v-5.656h-.843c-.063.312-.204.543-.422.687-.219.149-.524.219-.907.219H.329V-4h1.125zm0 0"/></symbol><symbol id="d" overflow="visible"><path d="M2.61-2.781H.36v.937h2.25zm0 0"/></symbol><symbol id="g" overflow="visible"><path d="M.375-4.297h1.563l.671 2.875.672-2.875H4.86V0H3.83v-3.063L3.078 0h-.923l-.75-3.063V0H.375zm0 0"/></symbol><symbol id="h" overflow="visible"><path d="M1.484-1.25H.438V0h1.046zm0 0"/></symbol><symbol id="a" overflow="visible"><path d="M1.313-1.766c0-.382.046-.656.14-.812.102-.164.27-.25.5-.25.219 0 .375.086.469.25.101.156.156.43.156.812 0 .168-.012.32-.031.454a1.32 1.32 0 0 1-.078.359.61.61 0 0 1-.188.234.601.601 0 0 1-.328.078.584.584 0 0 1-.328-.078.545.545 0 0 1-.188-.234 1.458 1.458 0 0 1-.093-.36 2.662 2.662 0 0 1-.032-.453zm1.171-2.453h1.11a1.71 1.71 0 0 0-.156-.687 1.083 1.083 0 0 0-.344-.438 1.164 1.164 0 0 0-.5-.234 2.218 2.218 0 0 0-.578-.078c-.47 0-.836.09-1.094.265-.25.168-.438.399-.563.688a3.454 3.454 0 0 0-.218 1c-.024.375-.032.765-.032 1.172 0 .344.016.68.047 1 .04.312.125.593.25.843.125.243.301.434.531.579.239.132.555.203.954.203.644 0 1.113-.164 1.406-.5.289-.344.437-.844.437-1.5a2.99 2.99 0 0 0-.078-.703 1.612 1.612 0 0 0-.25-.563 1.03 1.03 0 0 0-.422-.375 1.36 1.36 0 0 0-.64-.14c-.262 0-.48.046-.656.14a.915.915 0 0 0-.407.36h-.015v-.282c0-.207.004-.398.015-.578.02-.176.055-.328.11-.453a.606.606 0 0 1 .218-.297.582.582 0 0 1 .36-.11c.187 0 .316.06.39.173.082.117.125.289.125.515zm0 0"/></symbol><symbol id="b" overflow="visible"><path d="M1.484-1.25H.438V0h.406v.11a.83.83 0 0 1-.11.406.39.39 0 0 1-.296.218v.563c.207-.024.378-.074.515-.156.133-.086.242-.196.328-.329.082-.125.133-.277.157-.453.03-.18.046-.363.046-.562zm0 0"/></symbol><symbol id="f" overflow="visible"><path d="M.14-2.64c0 .5.024.93.079 1.28.062.344.16.626.297.844.132.22.316.375.546.47.227.093.516.14.86.14.414 0 .742-.078.984-.235a1.49 1.49 0 0 0 .531-.671c.114-.282.188-.598.22-.954.03-.363.046-.742.046-1.14 0-.5-.031-.926-.094-1.281-.054-.352-.148-.641-.28-.86a1.156 1.156 0 0 0-.548-.469c-.23-.093-.515-.14-.86-.14-.429 0-.76.086-1 .25-.23.168-.405.39-.53.672a3.239 3.239 0 0 0-.22.968c-.023.356-.03.73-.03 1.125zm1.157.25v-.626c0-.351.008-.648.031-.89.02-.25.05-.446.094-.594.039-.156.101-.258.187-.313a.504.504 0 0 1 .313-.093c.125 0 .223.027.297.078.082.043.144.133.187.266.051.125.086.304.11.53.02.22.03.512.03.876v.61c0 .366-.01.671-.03.921a3.634 3.634 0 0 1-.094.578.578.578 0 0 1-.188.313.512.512 0 0 1-.312.093.675.675 0 0 1-.313-.062.574.574 0 0 1-.187-.266 2.559 2.559 0 0 1-.094-.547 9.015 9.015 0 0 1-.031-.875zm0 0"/></symbol><symbol id="c" overflow="visible"><path d="M3.656-5.547H.172v.984h2.39a9.52 9.52 0 0 0-.734 1.172c-.2.387-.371.778-.516 1.172a9.528 9.528 0 0 0-.328 1.14A9.778 9.778 0 0 0 .797 0H2c.05-.395.117-.8.203-1.219.094-.414.207-.82.344-1.218.144-.407.305-.797.484-1.172.188-.375.395-.727.625-1.063zm0 0"/></symbol></defs><path d="M219.086 25.231c.613 0 1.113-.113 1.113.5 0 .614-.5.5-1.113.5h-2.149c-.617 0-1.117.114-1.117-.5 0-.613.5-.5 1.117-.5zm0 0" fill="#fff"/><path d="M35.578 25.516h5.543v2.274h-5.543zm5.543 4.364v-.969h-5.543v6.512H151.23V29.88zm-5.543-7.68h5.543v2.273h-5.543zM0 13.395v5.543h4.45v2.77h2.277v-2.77h28.851v2.153h5.543v-7.696zm205.262 28.024a6.01 6.01 0 0 1-6.008-6.008 6.01 6.01 0 0 1 6.008-6.008 6.01 6.01 0 0 1 6.007 6.008 6.01 6.01 0 0 1-6.007 6.008m0-14.707c-4.797 0-8.7 3.902-8.7 8.699s3.903 8.703 8.7 8.703c4.797 0 8.699-3.906 8.699-8.703 0-4.797-3.902-8.7-8.7-8.7" fill="#303d7a"/><path d="M207.016 35.411a1.754 1.754 0 1 1-3.508 0 1.754 1.754 0 0 1 3.508 0" fill="#303d7a"/><path d="M205.262 37.712a2.303 2.303 0 0 1-2.301-2.301c0-1.266 1.031-2.3 2.3-2.3a2.3 2.3 0 0 1 .001 4.6m-22.122 4.208a6.007 6.007 0 1 1 .005-12.01 6.007 6.007 0 0 1-.004 12.01m0-14.707c-4.797 0-8.7 3.902-8.7 8.703 0 4.797 3.903 8.7 8.7 8.7 4.8 0 8.703-3.903 8.703-8.7 0-4.8-3.903-8.703-8.703-8.703" fill="#303d7a"/><path d="M184.898 35.915c0 .969-.789 1.754-1.757 1.754a1.754 1.754 0 1 1 0-3.508c.968 0 1.757.785 1.757 1.754" fill="#303d7a"/><path d="M183.14 38.212a2.304 2.304 0 0 1-2.3-2.297 2.301 2.301 0 0 1 4.601 0 2.301 2.301 0 0 1-2.3 2.297m-22.121 3.207a6.007 6.007 0 0 1-6.004-6.008 6.007 6.007 0 1 1 12.011 0 6.007 6.007 0 0 1-6.008 6.008m0-14.707c-4.796 0-8.699 3.902-8.699 8.699s3.903 8.703 8.7 8.703c4.8 0 8.703-3.906 8.703-8.703 0-4.797-3.903-8.7-8.704-8.7" fill="#303d7a"/><path d="M162.777 35.411a1.755 1.755 0 1 1-3.509-.001 1.755 1.755 0 0 1 3.51.001" fill="#303d7a"/><path d="M161.02 37.712a2.301 2.301 0 0 1 0-4.602 2.301 2.301 0 0 1 0 4.601" fill="#303d7a"/><path d="M220.95 24.036h-71.868v9.285h-.125v5.543h2.273v-3.293h.012c-.004-.055-.012-.105-.012-.16 0-5.398 4.395-9.79 9.79-9.79 5.402 0 9.792 4.392 9.792 9.79 0 .055-.008.105-.008.16h.008v3.125h2.54v-3.125h.015c.184-5.238 4.492-9.45 9.774-9.45 5.285 0 9.59 4.212 9.773 9.45h.016v3.125h2.543v-3.125h.008c-.004-.055-.008-.105-.008-.16 0-5.398 4.39-9.79 9.789-9.79 5.398 0 9.789 4.392 9.789 9.79 0 .055-.008.105-.008.16h.008v3.293h2.277v-3.293h3.621zm0 0" fill="#303d7a"/><path d="M40.66 5.458v7.996m179.344-7.797v18.516M41.144 8.075l178.86.332" fill="none" stroke="#f5ae23" stroke-miterlimit="10"/><path d="M46.84 9.282l-6.504-1.164 6.523-1.754zm166.66.25l6.504-1.164-6.524-1.754zm0 0" fill="#f5ae23"/><g transform="translate(-109.027 -281.769)" fill="#f5ae23"><use xlink:href="#a" x="220.529" y="287.425" width="100%" height="100%"/><use xlink:href="#b" x="224.369" y="287.425" width="100%" height="100%"/><use xlink:href="#c" x="226.289" y="287.425" width="100%" height="100%"/><use xlink:href="#d" x="230.129" y="287.425" width="100%" height="100%"/><use xlink:href="#e" x="233.089" y="287.425" width="100%" height="100%"/><use xlink:href="#f" x="236.929" y="287.425" width="100%" height="100%"/><use xlink:href="#b" x="240.769" y="287.425" width="100%" height="100%"/><use xlink:href="#c" x="242.689" y="287.425" width="100%" height="100%"/><use xlink:href="#g" x="246.529" y="287.425" width="100%" height="100%"/><use xlink:href="#g" x="248.449" y="287.425" width="100%" height="100%"/><use xlink:href="#h" x="253.681" y="287.425" width="100%" height="100%"/></g></svg>