<svg xmlns="http://www.w3.org/2000/svg" viewBox="0 0 276.18537 56.116009" height="59.857" width="294.598"><defs><clipPath id="a"><path d="M0 1190.55h841.89V0H0v1190.55z"/></clipPath></defs><path d="M273.856 31.886c.768 0 1.392-.144 1.392.625 0 .768-.624.625-1.392.625h-2.685c-.77 0-1.394.143-1.394-.625 0-.769.624-.625 1.394-.625h2.685z" fill="#fff"/><path d="M44.472 32.24h6.929v2.845h-6.929V32.24zM51.402 37.696v-1.213h-6.929v8.143H189.04v-6.93H51.402zM44.472 28.096h6.929v2.844h-6.929v-2.844zM0 17.09v6.928h5.564v3.465h2.843v-3.465h36.066v2.69h6.93v-9.619H0zM256.577 52.12a7.509 7.509 0 1 1 .002-15.018 7.509 7.509 0 0 1-.002 15.017m0-18.385c-5.996 0-10.876 4.879-10.876 10.876 0 5.998 4.88 10.878 10.876 10.878 5.996 0 10.876-4.88 10.876-10.878 0-5.997-4.878-10.876-10.876-10.876" fill="#313f7b"/><path d="M258.772 44.61a2.194 2.194 0 0 1-4.389 0 2.194 2.194 0 0 1 4.389 0" fill="#313f7b"/><path d="M256.577 47.484a2.878 2.878 0 0 1-2.875-2.874 2.878 2.878 0 0 1 2.875-2.873 2.878 2.878 0 0 1 2.875 2.873 2.878 2.878 0 0 1-2.875 2.874M228.927 52.747a7.509 7.509 0 1 1 .002-15.015 7.509 7.509 0 0 1-.002 15.015m0-18.385c-5.996 0-10.875 4.879-10.875 10.878 0 5.997 4.879 10.876 10.875 10.876 5.998 0 10.878-4.879 10.878-10.876 0-5.999-4.88-10.878-10.878-10.878" fill="#313f7b"/><path d="M231.122 45.24a2.194 2.194 0 1 1-4.388-.004 2.194 2.194 0 0 1 4.388.003" fill="#313f7b"/><path d="M228.927 48.112a2.877 2.877 0 0 1-2.875-2.872 2.879 2.879 0 0 1 2.875-2.875 2.877 2.877 0 0 1 2.874 2.875 2.875 2.875 0 0 1-2.874 2.872M201.277 52.12a7.509 7.509 0 1 1 .002-15.018 7.509 7.509 0 0 1-.002 15.017m0-18.385c-5.996 0-10.875 4.879-10.875 10.876 0 5.998 4.879 10.878 10.875 10.878 5.997 0 10.877-4.88 10.877-10.878 0-5.997-4.878-10.876-10.877-10.876" fill="#313f7b"/><path d="M203.472 44.61a2.193 2.193 0 1 1-4.387-.001 2.193 2.193 0 0 1 4.387.002" fill="#313f7b"/><path d="M201.277 47.484a2.877 2.877 0 0 1-2.874-2.874 2.878 2.878 0 0 1 2.874-2.873 2.878 2.878 0 0 1 2.875 2.873 2.877 2.877 0 0 1-2.875 2.874" fill="#313f7b"/><path d="M276.185 30.393h-89.83v11.606h-.16v6.93h2.844V44.81h.011c0-.067-.01-.132-.01-.199 0-6.747 5.49-12.238 12.237-12.238 6.748 0 12.238 5.49 12.238 12.238 0 .067-.01.132-.01.199h.01v3.909h3.174V44.81h.021c.23-6.549 5.614-11.809 12.217-11.809 6.603 0 11.987 5.26 12.216 11.809h.021v3.909h3.175V44.81h.01c-.001-.067-.01-.132-.01-.199 0-6.747 5.49-12.238 12.238-12.238 6.747 0 12.238 5.49 12.238 12.238 0 .067-.01.132-.01.199h.01v4.119h2.844V44.81h4.526V30.393z" fill="#313f7b"/><g clip-path="url(#a)" transform="matrix(1.25 0 0 -1.25 -136.284 1136.323)"><path d="M149.688 903.322v-7.995M329.03 903.125v-18.518M150.17 900.708l178.86-.333" fill="none" stroke="#f6af26" stroke-miterlimit="10"/><path d="M155.867 899.499l-6.504 1.165 6.523 1.754-.019-2.92zM322.525 899.249l6.504 1.165-6.523 1.754.02-2.92z" fill="#f6af26"/></g><text style="-inkscape-font-specification:HelveticaNeueBoldCondensed" x="446.999" y="368.864" font-weight="700" font-stretch="condensed" font-size="10" font-family="Helvetica Neue" fill="#f6af26" transform="translate(-307.622 -361.447)"><tspan y="368.864" x="446.99908 451.7991 454.1991 458.99911 462.6991 467.49908 472.2991 474.6991 479.49908 481.89911 488.43909">6,7-10,7 м.</tspan></text></svg>