<svg xmlns="http://www.w3.org/2000/svg" viewBox="0 0 247.07 43.89"><title>5566</title><g id="d53a6a55-5e29-4470-8fc5-53305717af1a" data-name="Слой 2"><g id="cb0625cc-5436-4e9a-9cfa-9f3b5242baf6" data-name="Слой 1"><path d="M135,1.66h-1.13V.91h.1a1.65,1.65,0,0,0,.91-.22,1,1,0,0,0,.42-.7h.85V5.66H135Z" fill="#f6ad15"/><path d="M137.5,5.66a3.1,3.1,0,0,1,.08-.7,2.56,2.56,0,0,1,.23-.62,3.35,3.35,0,0,1,.39-.58,6,6,0,0,1,.55-.57l.46-.43a2.64,2.64,0,0,0,.31-.31,1.32,1.32,0,0,0,.18-.29,1.09,1.09,0,0,0,.08-.31,3.33,3.33,0,0,0,0-.38q0-.7-.56-.7a.58.58,0,0,0-.34.09.59.59,0,0,0-.19.24,1.13,1.13,0,0,0-.09.35,4.15,4.15,0,0,0,0,.42h-1.1V1.64a1.65,1.65,0,0,1,.42-1.22A1.83,1.83,0,0,1,139.26,0a1.79,1.79,0,0,1,1.28.4A1.52,1.52,0,0,1,141,1.54a2.52,2.52,0,0,1,0,.51,1.88,1.88,0,0,1-.15.45,2.08,2.08,0,0,1-.27.42,4.06,4.06,0,0,1-.41.42l-.64.59a2.37,2.37,0,0,0-.4.45,1.29,1.29,0,0,0-.18.38H141v.9Z" fill="#f6ad15"/><path d="M142.68,5.46a3.5,3.5,0,0,1,0,.56,1.27,1.27,0,0,1-.16.46.94.94,0,0,1-.32.32,1.24,1.24,0,0,1-.52.16V6.4a.43.43,0,0,0,.31-.22.82.82,0,0,0,.1-.41v-.1h-.42V4.42h1.06Z" fill="#f6ad15"/><path d="M144.43,1l-.12,1.29h0a.91.91,0,0,1,.42-.32,1.72,1.72,0,0,1,.62-.1A1.32,1.32,0,0,1,146,2a1.18,1.18,0,0,1,.42.41,1.74,1.74,0,0,1,.22.58,3.37,3.37,0,0,1,.06.66,4.18,4.18,0,0,1-.08.86,1.67,1.67,0,0,1-.28.66,1.25,1.25,0,0,1-.56.42,2.46,2.46,0,0,1-.9.14,2.21,2.21,0,0,1-.87-.14,1.21,1.21,0,0,1-.51-.38,1.31,1.31,0,0,1-.24-.51,2.43,2.43,0,0,1-.06-.52V4h1.1q0,.14,0,.3a1,1,0,0,0,.08.3.59.59,0,0,0,.17.23.45.45,0,0,0,.3.09.55.55,0,0,0,.52-.28,1.73,1.73,0,0,0,.16-.83,4.46,4.46,0,0,0,0-.58,1.06,1.06,0,0,0-.11-.37.43.43,0,0,0-.2-.19.81.81,0,0,0-.32-.06.5.5,0,0,0-.38.14.67.67,0,0,0-.16.38h-1l.21-3.08h3V1Z" fill="#f6ad15"/><path d="M149.25,1.36h1.58l.67,2.88.67-2.88h1.58v4.3h-1V2.61l-.76,3.06H151l-.76-3.06V5.66h-1Z" fill="#f6ad15"/><path d="M155.6,5.66h-1.06V4.42h1.06Z" fill="#f6ad15"/><path d="M245.12,31.81c.62,0,1.11-.12,1.11.5h0c0,.61-.5.5-1.11.5H243c-.61,0-1.11.11-1.11-.5h0c0-.62.5-.5,1.11-.5Z" fill="#fff"/><polygon points="35.58 13.17 0 13.17 0 18.71 4.45 18.71 4.45 21.48 6.73 21.48 6.73 18.71 35.58 18.71 35.58 35.2 41.12 35.2 41.12 18.71 41.12 13.17 35.58 13.17" fill="#253678"/><path d="M166.71,34.68a9.73,9.73,0,0,1,1.14-4.57H35.58v5.54H166.76A9.75,9.75,0,0,1,166.71,34.68Z" fill="#253678"/><path d="M229.39,30.11a9.71,9.71,0,0,1,1.09,5.54h16.6V30.11Z" fill="#253678"/><path d="M211,35.66c0-.32,0-.65,0-1a9.71,9.71,0,0,1,1.14-4.57H207a9.73,9.73,0,0,1,1.43,5.07c0,.16,0,.31,0,.47Z" fill="#253678"/><path d="M188.85,35.66c0-.16,0-.31,0-.47a9.72,9.72,0,0,1,1.43-5.07h-5.11a9.72,9.72,0,0,1,1.14,4.57c0,.33,0,.66,0,1Z" fill="#253678"/><path d="M220.74,24.89a9.8,9.8,0,0,1,9.71,8.63l2.51.25a12.3,12.3,0,0,0-24.44-.54q1.29-.15,2.59-.24A9.8,9.8,0,0,1,220.74,24.89Z" fill="#253678"/><path d="M220.74,26a8.72,8.72,0,0,0-8.52,6.95l1.51-.09a7.27,7.27,0,0,1,14.07.43l1.54.15A8.7,8.7,0,0,0,220.74,26Z" fill="#253678"/><path d="M220.74,26a8.7,8.7,0,1,0,8.7,8.7A8.71,8.71,0,0,0,220.74,26Zm0,14.71a6,6,0,1,1,6-6A6,6,0,0,1,220.74,40.69Z" fill="#253678"/><circle cx="220.74" cy="34.68" r="1.75" fill="#253678"/><path d="M220.74,37a2.3,2.3,0,1,1,2.3-2.3A2.3,2.3,0,0,1,220.74,37Z" fill="#253678"/><path d="M198.62,25.39A9.8,9.8,0,0,1,208.33,34l2.51.25a12.3,12.3,0,0,0-24.44-.54q1.29-.15,2.59-.24A9.8,9.8,0,0,1,198.62,25.39Z" fill="#253678"/><path d="M198.62,26.48a8.71,8.71,0,0,0-8.52,6.94l1.51-.09a7.27,7.27,0,0,1,14.07.43l1.54.15A8.7,8.7,0,0,0,198.62,26.48Z" fill="#253678"/><path d="M198.62,26.48a8.7,8.7,0,1,0,8.7,8.7A8.71,8.71,0,0,0,198.62,26.48Zm0,14.71a6,6,0,1,1,6-6A6,6,0,0,1,198.62,41.19Z" fill="#253678"/><circle cx="198.62" cy="35.18" r="1.76" fill="#253678"/><path d="M198.62,37.48a2.3,2.3,0,1,1,2.3-2.3A2.3,2.3,0,0,1,198.62,37.48Z" fill="#253678"/><path d="M176.5,26A8.71,8.71,0,0,0,168,32.73l1.49-.09a7.27,7.27,0,0,1,14.07.43l1.48.15A8.71,8.71,0,0,0,176.5,26Z" fill="#253678"/><path d="M176.5,24.89a9.8,9.8,0,0,1,9.69,8.43l2.57.25A12.3,12.3,0,0,0,164.31,33q1.29-.15,2.59-.24A9.8,9.8,0,0,1,176.5,24.89Z" fill="#253678"/><path d="M176.5,26a8.7,8.7,0,1,0,8.7,8.7A8.71,8.71,0,0,0,176.5,26Zm0,14.71a6,6,0,1,1,6-6A6,6,0,0,1,176.5,40.69Z" fill="#253678"/><circle cx="176.5" cy="34.68" r="1.75" fill="#253678"/><path d="M176.5,37a2.3,2.3,0,1,1,2.3-2.3A2.3,2.3,0,0,1,176.5,37Z" fill="#253678"/><rect x="164.43" y="32.59" width="2.27" height="5.54" fill="#253678"/><rect x="230.53" y="32.59" width="2.27" height="5.54" fill="#253678"/><rect x="186.29" y="32.42" width="2.54" height="5.54" fill="#253678"/><rect x="208.41" y="32.42" width="2.54" height="5.54" fill="#253678"/><rect x="40.3" y="5.47" width="1" height="7.99" fill="#f6ad15"/><rect x="245.64" y="5.66" width="1" height="24.52" fill="#f6ad15"/><rect x="143.21" y="-94.18" width="1" height="204.86" transform="translate(135.23 151.95) rotate(-89.91)" fill="#f6ad15"/><polygon points="46.98 9.29 40.48 8.13 47 6.37 46.98 9.29" fill="#f6ad15"/><polygon points="239.64 9.54 246.14 8.38 239.62 6.62 239.64 9.54" fill="#f6ad15"/></g></g></svg>