<svg xmlns="http://www.w3.org/2000/svg" viewBox="0 0 308.84271 54.853558" height="58.51" width="329.432"><path d="M306.396 39.76c.767 0 1.387-.146 1.387.626 0 .766-.62.625-1.387.625h-2.69c-.767 0-1.392.141-1.392-.625 0-.772.625-.625 1.392-.625zm0 0" fill="#fff"/><path d="M44.468 16.46H0v6.929h5.562v3.462h2.841v-3.462h36.065v20.605H51.4V16.46zm0 0" fill="#303d7a"/><path d="M208.379 43.35c0-2.06.522-4.004 1.426-5.708H44.468v6.928h163.974a12.55 12.55 0 0 1-.063-1.22M286.733 37.642a12.104 12.104 0 0 1 1.363 6.928h20.747v-6.928zm0 0M263.74 44.57a12.104 12.104 0 0 1 1.362-6.929h-6.386a12.146 12.146 0 0 1 1.792 6.339c0 .2-.02.395-.03.59zm0 0M236.06 44.57c-.01-.195-.03-.39-.03-.59 0-2.32.664-4.488 1.787-6.338h-6.381a12.158 12.158 0 0 1 1.42 5.708c0 .415-.019.82-.058 1.22zm0 0" fill="#303d7a"/><path d="M275.918 31.113c6.26 0 11.426 4.722 12.143 10.791 1.045.103 2.09.196 3.135.308-.703-7.837-7.3-13.994-15.317-13.994-7.783 0-14.234 5.81-15.24 13.325 1.08-.122 2.159-.22 3.238-.303 1.006-5.742 6.016-10.127 12.04-10.127" fill="#303d7a"/><path d="M275.918 32.476c-5.244 0-9.634 3.73-10.65 8.676.626-.034 1.255-.083 1.885-.107 1.109-3.774 4.595-6.543 8.726-6.543 4.326 0 7.94 3.027 8.867 7.075.64.059 1.28.132 1.919.19-.771-5.248-5.288-9.291-10.747-9.291" fill="#303d7a"/><path d="M275.918 50.86a7.508 7.508 0 0 1 0-15.015 7.508 7.508 0 1 1 0 15.014m0-18.383c-5.996 0-10.874 4.878-10.874 10.874 0 6 4.878 10.879 10.874 10.879s10.874-4.878 10.874-10.88c0-5.995-4.873-10.873-10.874-10.873" fill="#303d7a"/><path d="M278.115 43.35a2.193 2.193 0 0 1-2.197 2.192 2.192 2.192 0 1 1 0-4.385c1.21 0 2.197.982 2.197 2.193" fill="#303d7a"/><path d="M275.918 46.226a2.878 2.878 0 0 1-2.876-2.876 2.881 2.881 0 0 1 2.876-2.876 2.881 2.881 0 0 1 2.876 2.876 2.878 2.878 0 0 1-2.876 2.876M248.271 31.743c6.255 0 11.426 4.722 12.144 10.791 1.045.103 2.09.196 3.13.308-.703-7.837-7.3-14-15.313-14-7.788 0-14.233 5.816-15.244 13.33a91.627 91.627 0 0 1 3.238-.307c1.005-5.742 6.015-10.122 12.045-10.122" fill="#303d7a"/><path d="M248.271 33.106c-5.249 0-9.638 3.73-10.654 8.676.625-.034 1.255-.083 1.885-.112 1.113-3.775 4.6-6.543 8.73-6.543 4.322 0 7.94 3.032 8.863 7.08.64.054 1.279.127 1.924.19-.772-5.249-5.293-9.292-10.748-9.292" fill="#303d7a"/><path d="M248.271 51.49a7.51 7.51 0 0 1-7.51-7.51 7.51 7.51 0 0 1 7.51-7.51c4.141 0 7.505 3.364 7.505 7.51 0 4.145-3.364 7.51-7.505 7.51m0-18.384c-6 0-10.878 4.873-10.878 10.874 0 5.996 4.877 10.874 10.878 10.874 5.997 0 10.874-4.878 10.874-10.874 0-6.001-4.877-10.874-10.874-10.874" fill="#303d7a"/><path d="M250.464 43.98c0 1.21-.982 2.192-2.197 2.192a2.192 2.192 0 1 1 0-4.385c1.215 0 2.197.982 2.197 2.193" fill="#303d7a"/><path d="M248.271 46.856a2.882 2.882 0 0 1-2.88-2.876 2.885 2.885 0 0 1 2.88-2.876 2.877 2.877 0 0 1 0 5.752M220.62 32.476c-5.156 0-9.477 3.608-10.59 8.432.62-.034 1.24-.083 1.865-.107 1.103-3.775 4.594-6.543 8.725-6.543 4.321 0 7.94 3.027 8.862 7.075.616.054 1.23.122 1.846.18-.879-5.121-5.337-9.037-10.708-9.037" fill="#303d7a"/><path d="M220.62 31.113c6.167 0 11.275 4.595 12.105 10.542 1.069.103 2.138.196 3.208.313-.704-7.832-7.3-14-15.313-14-7.783 0-14.233 5.816-15.24 13.33a90.273 90.273 0 0 1 3.233-.307c1.104-5.62 6.065-9.878 12.007-9.878" fill="#303d7a"/><path d="M220.62 50.86a7.508 7.508 0 0 1 0-15.015 7.508 7.508 0 1 1 0 15.014m0-18.383c-6 0-10.879 4.878-10.879 10.874 0 6 4.878 10.879 10.88 10.879 5.995 0 10.873-4.878 10.873-10.88 0-5.995-4.878-10.873-10.874-10.873" fill="#303d7a"/><path d="M222.812 43.35a2.19 2.19 0 0 1-2.197 2.192 2.192 2.192 0 1 1 0-4.385c1.216 0 2.197.982 2.197 2.193" fill="#303d7a"/><path d="M220.62 46.226a2.878 2.878 0 0 1-2.876-2.876 2.881 2.881 0 0 1 2.876-2.876 2.877 2.877 0 0 1 0 5.752M208.379 47.666h-2.842v-6.929h2.842zm0 0M291 47.666h-2.84v-6.929H291zm0 0M236.03 47.456h-3.174v-6.929h3.174zm0 0M263.682 47.456h-3.174v-6.929h3.174zm0 0" fill="#303d7a"/><path d="M51.626 16.826h-1.25v-9.99h1.25zm0 0M308.3 37.725h-1.25V7.08h1.25zm0 0" fill="#f5ae23"/><path d="M307.676 11.143l-256.074-.415v-1.25l256.074.415zm0 0" fill="#f5ae23"/><path d="M58.726 11.611l-8.135-1.455 8.154-2.192zm0 0M299.546 11.924l8.13-1.455-8.155-2.193zm0 0M163.809 3.37c.122.204.322.312.6.312.288 0 .493-.108.61-.313.123-.205.181-.552.181-1.03 0-.2-.01-.386-.03-.562a1.444 1.444 0 0 0-.116-.444.665.665 0 0 0-.24-.288.722.722 0 0 0-.405-.107.746.746 0 0 0-.415.107.642.642 0 0 0-.234.293 1.48 1.48 0 0 0-.103.444 4.98 4.98 0 0 0-.024.557c0 .478.059.825.176 1.03m.078 2.686c.092.151.263.224.503.224.195 0 .346-.044.459-.136a.892.892 0 0 0 .268-.371 2.26 2.26 0 0 0 .122-.572c.02-.22.03-.459.03-.722v-.342h-.02a1.264 1.264 0 0 1-.513.44 1.882 1.882 0 0 1-.815.165c-.312 0-.581-.058-.8-.166-.22-.112-.401-.263-.538-.459-.132-.2-.234-.43-.298-.703a3.835 3.835 0 0 1-.092-.884c0-.82.18-1.445.542-1.88.366-.434.947-.649 1.748-.649.493 0 .883.093 1.176.273.293.186.518.425.674.728.156.308.259.66.308 1.06.044.395.068.815.068 1.25 0 .503-.014.996-.044 1.464-.029.47-.117.884-.268 1.246-.152.356-.39.644-.713.854-.322.21-.772.313-1.353.313a3.66 3.66 0 0 1-.737-.074 1.492 1.492 0 0 1-.625-.283 1.443 1.443 0 0 1-.435-.547c-.107-.23-.166-.513-.175-.854h1.381c0 .263.05.473.147.625M168.71 6.821c0 .244-.019.479-.058.703a1.466 1.466 0 0 1-.205.577 1.177 1.177 0 0 1-.4.405c-.171.102-.39.166-.66.195v-.703a.529.529 0 0 0 .391-.278c.088-.152.132-.323.132-.513V7.08h-.522V5.518h1.323zm0 0M173.828 1.24a9.39 9.39 0 0 0-.781 1.328c-.235.474-.435.962-.606 1.46-.175.503-.317 1.011-.43 1.529-.116.512-.2 1.02-.263 1.523h-1.509a14.1 14.1 0 0 1 .24-1.348c.107-.468.249-.947.424-1.435.176-.483.39-.972.645-1.47.254-.488.556-.976.903-1.45h-2.983V.142h4.36zm0 0M177.31 4.78h-2.818V3.6h2.818zm0 0M179.57 2.08h-1.41v-.942h.131c.479 0 .86-.088 1.133-.269.278-.18.454-.473.527-.869h1.06v7.08h-1.44zm0 0M184.37 2.08h-1.411v-.942h.132c.478 0 .86-.088 1.133-.269.278-.18.454-.473.527-.869h1.06v7.08h-1.44zm0 0M189.209 6.821c0 .244-.02.479-.054.703a1.638 1.638 0 0 1-.205.577 1.192 1.192 0 0 1-.405.405c-.171.102-.39.166-.654.195v-.703a.547.547 0 0 0 .39-.278 1.05 1.05 0 0 0 .127-.513V7.08h-.517V5.518h1.318zm0 0M191.567 2.08h-1.406v-.942h.127c.483 0 .86-.088 1.138-.269.273-.18.449-.473.522-.869h1.06v7.08h-1.44zm0 0M197.808 4.78h-2.818V3.6h2.818zm0 0M200.068 2.08h-1.41v-.942h.131c.479 0 .86-.088 1.133-.269.278-.18.454-.473.527-.869h1.06v7.08h-1.44zm0 0M203.228 7.08c0-.312.034-.605.097-.879.064-.273.156-.537.288-.781a4.41 4.41 0 0 1 .488-.728c.2-.234.425-.473.689-.712l.581-.542c.156-.137.283-.269.38-.391.099-.117.172-.24.226-.361.053-.118.092-.245.107-.386.015-.142.024-.298.024-.479 0-.59-.234-.883-.698-.883a.72.72 0 0 0-.425.112.659.659 0 0 0-.239.298 1.318 1.318 0 0 0-.112.444c-.02.161-.025.342-.025.527h-1.381v-.268c0-.664.175-1.167.532-1.524.351-.351.908-.527 1.67-.527.717 0 1.255.166 1.596.498.347.337.523.81.523 1.43 0 .23-.02.44-.059.635a2.49 2.49 0 0 1-.19.567c-.088.176-.2.356-.342.522-.142.171-.308.347-.508.528l-.8.737c-.215.195-.381.386-.504.566a1.787 1.787 0 0 0-.229.474h2.67V7.08zm0 0M209.707 6.821c0 .244-.02.479-.054.703a1.547 1.547 0 0 1-.205.577 1.15 1.15 0 0 1-.405.405c-.171.102-.39.166-.654.195v-.703a.538.538 0 0 0 .39-.278 1 1 0 0 0 .127-.513V7.08h-.517V5.518h1.318zm0 0M211.89 1.26l-.152 1.611h.02c.132-.185.307-.327.522-.405.21-.088.469-.127.777-.127.341 0 .625.063.844.195.225.132.4.303.533.518.131.21.22.454.273.722.054.269.083.542.083.826 0 .39-.034.747-.103 1.069a2.041 2.041 0 0 1-.356.825c-.166.23-.4.405-.693.523-.293.112-.664.17-1.119.17-.449 0-.81-.058-1.083-.175-.279-.122-.494-.279-.635-.479a1.63 1.63 0 0 1-.298-.64 3.102 3.102 0 0 1-.073-.644v-.19h1.377c0 .122.01.244.019.38.015.132.049.26.098.376.049.113.122.21.214.289a.554.554 0 0 0 .372.117c.297 0 .512-.117.644-.347.127-.23.195-.576.195-1.035 0-.293-.014-.537-.039-.733a1.421 1.421 0 0 0-.136-.459.57.57 0 0 0-.254-.239 1.052 1.052 0 0 0-.4-.068c-.21 0-.367.058-.48.176a.813.813 0 0 0-.2.473h-1.293l.263-3.847h3.687V1.26zm0 0M217.91 1.7h1.968l.84 3.598.84-3.599h1.972V7.08h-1.294V3.262l-.947 3.818h-1.143l-.947-3.818V7.08h-1.289zm0 0M225.85 7.08h-1.324V5.518h1.324zm0 0" fill="#f5ae23"/></svg>