<svg xmlns="http://www.w3.org/2000/svg" viewBox="0 0 223.31 49.72"><title>9437</title><g id="280e40f1-034d-4330-a9f6-57ee302d53b5" data-name="Слой 2"><g id="4120e7fe-3847-4fca-a301-635ee2e6fe36" data-name="Слой 1"><rect x="65.46" y="29.44" width="2.27" height="5.54" fill="#253678"/><rect x="62.15" y="29.44" width="2.27" height="5.54" fill="#253678"/><rect x="58.76" y="29.44" width="2.28" height="5.54" fill="#253678"/><rect x="47.11" y="29.44" width="10.28" height="5.54" fill="#253678"/><rect y="12" width="41.12" height="5.54" fill="#253678"/><polygon points="41.65 12 36.11 12 47.11 24.03 47.11 24.03 47.11 34.13 52.65 34.13 52.65 24.03 41.65 12" fill="#253678"/><rect x="210.48" y="27.59" width="12.83" height="5.54" fill="#253678"/><rect x="5.45" y="14.77" width="2.28" height="5.54" fill="#253678"/><path d="M121.86,40.52a8.7,8.7,0,1,0-17.4,0c0,.13,0,.26,0,.4h17.36C121.85,40.78,121.86,40.65,121.86,40.52Z" fill="#253678"/><path d="M179.52,31.81a8.7,8.7,0,1,0,8.7,8.7A8.71,8.71,0,0,0,179.52,31.81Zm0,14.71a6,6,0,1,1,6-6A6,6,0,0,1,179.52,46.52Z" fill="#253678"/><circle cx="179.52" cy="40.52" r="1.75" fill="#253678"/><path d="M179.52,42.81a2.3,2.3,0,1,1,2.3-2.3A2.3,2.3,0,0,1,179.52,42.81Z" fill="#253678"/><path d="M157.4,32.32a8.7,8.7,0,1,0,8.7,8.7A8.71,8.71,0,0,0,157.4,32.32Zm0,14.71a6,6,0,1,1,6-6A6,6,0,0,1,157.4,47Z" fill="#253678"/><circle cx="157.4" cy="41.02" r="1.75" fill="#253678"/><path d="M157.4,43.32a2.3,2.3,0,1,1,2.3-2.3A2.3,2.3,0,0,1,157.4,43.32Z" fill="#253678"/><path d="M135.28,31.81a8.7,8.7,0,1,0,8.7,8.7A8.71,8.71,0,0,0,135.28,31.81Zm0,14.71a6,6,0,1,1,6-6A6,6,0,0,1,135.28,46.52Z" fill="#253678"/><circle cx="135.28" cy="40.52" r="1.75" fill="#253678"/><path d="M135.28,42.81a2.3,2.3,0,1,1,2.3-2.3A2.3,2.3,0,0,1,135.28,42.81Z" fill="#253678"/><rect x="122.95" y="38.43" width="2.54" height="5.55" fill="#253678"/><rect x="189.31" y="38.43" width="2.57" height="5.55" fill="#253678"/><path d="M201.64,31.81a8.7,8.7,0,1,0,8.7,8.7A8.71,8.71,0,0,0,201.64,31.81Zm0,14.71a6,6,0,1,1,6-6A6,6,0,0,1,201.64,46.52Z" fill="#253678"/><circle cx="201.64" cy="40.52" r="1.75" fill="#253678"/><path d="M201.64,42.81a2.3,2.3,0,1,1,2.3-2.3A2.3,2.3,0,0,1,201.64,42.81Z" fill="#253678"/><rect x="211.43" y="38.43" width="2.28" height="5.55" fill="#253678"/><rect x="145.07" y="38.26" width="2.54" height="5.54" fill="#253678"/><path d="M113.16,31.81a8.7,8.7,0,1,0,8.7,8.7A8.71,8.71,0,0,0,113.16,31.81Z" fill="#253678"/><circle cx="113.16" cy="40.52" r="6.01" fill="#fff"/><circle cx="113.16" cy="40.52" r="1.75" fill="#253678"/><path d="M113.16,42.81a2.3,2.3,0,1,1,2.3-2.3A2.3,2.3,0,0,1,113.16,42.81Z" fill="#253678"/><rect x="100.83" y="38.43" width="2.54" height="5.55" fill="#253678"/><path d="M91,31.81a8.7,8.7,0,1,0,8.7,8.7A8.71,8.71,0,0,0,91,31.81Zm0,14.71a6,6,0,1,1,6-6A6,6,0,0,1,91,46.52Z" fill="#253678"/><circle cx="91.04" cy="40.52" r="1.75" fill="#253678"/><path d="M91,42.81a2.3,2.3,0,1,1,2.3-2.3A2.3,2.3,0,0,1,91,42.81Z" fill="#253678"/><line x1="223.25" y1="40.91" x2="223.25" y2="40.93" fill="#253678"/><path d="M69.54,29.34v5.45l8.95,0,0,9.17H81V40.91h0c0-.13,0-.26,0-.4a9.8,9.8,0,0,1,19.61,0c0,.13,0,.26,0,.4h2.58c0-.13,0-.26,0-.4a9.8,9.8,0,0,1,19.61,0c0,.13,0,.26,0,.4h2.58c0-.13,0-.26,0-.4a9.8,9.8,0,0,1,19.61,0c0,.13,0,.26,0,.4h2.57a9.8,9.8,0,0,1,19.6,0h2.57c0-.13,0-.26,0-.4a9.8,9.8,0,0,1,19.61,0c0,.13,0,.26,0,.4h2.58c0-.13,0-.26,0-.4a9.8,9.8,0,0,1,19.61,0c0,.13,0,.26,0,.4h11.86V29.38H78.47l0,.07Z" fill="#253678"/><line x1="223.25" y1="29.36" x2="223.25" y2="29.38" fill="#253678"/><rect x="167.19" y="38.26" width="2.54" height="5.54" fill="#253678"/><rect x="40.73" y="5.93" width="1" height="6.07" fill="#f6ad15"/><rect x="222.25" y="5.74" width="1" height="21.85" fill="#f6ad15"/><polygon points="222.9 9.38 41.03 9.05 41.03 8.05 222.9 8.38 222.9 9.38" fill="#f6ad15"/><polygon points="47.73 9.76 41.23 8.59 47.75 6.84 47.73 9.76" fill="#f6ad15"/><polygon points="215.39 10.01 221.9 8.84 215.37 7.09 215.39 10.01" fill="#f6ad15"/><path d="M119.61,5.14a.47.47,0,0,0,.43.19.61.61,0,0,0,.39-.12.74.74,0,0,0,.23-.32,1.73,1.73,0,0,0,.11-.48c0-.19,0-.39,0-.61V3.52h0a1.1,1.1,0,0,1-.44.37,1.55,1.55,0,0,1-.69.14,1.5,1.5,0,0,1-.68-.14,1.2,1.2,0,0,1-.45-.39,1.71,1.71,0,0,1-.25-.59,3.29,3.29,0,0,1-.08-.75,2.43,2.43,0,0,1,.46-1.6A1.83,1.83,0,0,1,120.12,0a1.88,1.88,0,0,1,1,.23,1.57,1.57,0,0,1,.57.62,2.59,2.59,0,0,1,.26.9A9.19,9.19,0,0,1,122,2.81c0,.43,0,.85,0,1.24a3.29,3.29,0,0,1-.23,1.06,1.57,1.57,0,0,1-.6.73,2.11,2.11,0,0,1-1.15.27,3,3,0,0,1-.62-.06,1.31,1.31,0,0,1-.53-.24,1.25,1.25,0,0,1-.37-.47,1.76,1.76,0,0,1-.15-.73h1.17A1,1,0,0,0,119.61,5.14Zm-.06-2.28a.54.54,0,0,0,.51.26.55.55,0,0,0,.52-.26,1.85,1.85,0,0,0,.15-.87,4.27,4.27,0,0,0,0-.48,1.26,1.26,0,0,0-.1-.38.6.6,0,0,0-.2-.25.61.61,0,0,0-.34-.09.63.63,0,0,0-.35.09.56.56,0,0,0-.2.25,1.29,1.29,0,0,0-.09.38c0,.14,0,.3,0,.47A1.84,1.84,0,0,0,119.55,2.86Z" fill="#f6ad15"/><path d="M123.71,5.79a3.69,3.69,0,0,1,0,.6,1.36,1.36,0,0,1-.17.49,1,1,0,0,1-.34.34,1.33,1.33,0,0,1-.56.17V6.8a.46.46,0,0,0,.33-.24.86.86,0,0,0,.11-.43V6h-.44V4.69h1.12Z" fill="#f6ad15"/><path d="M125.65,5.06a.53.53,0,0,0,.53.28.7.7,0,0,0,.35-.08.53.53,0,0,0,.2-.21.85.85,0,0,0,.09-.31,3.16,3.16,0,0,0,0-.37,2.38,2.38,0,0,0,0-.39.94.94,0,0,0-.11-.33.61.61,0,0,0-.24-.23.84.84,0,0,0-.41-.08h-.41v-.8h.4a.61.61,0,0,0,.33-.08.62.62,0,0,0,.21-.21,1,1,0,0,0,.12-.3,1.63,1.63,0,0,0,0-.36,1,1,0,0,0-.14-.61.53.53,0,0,0-.44-.18.62.62,0,0,0-.32.07.48.48,0,0,0-.19.2.9.9,0,0,0-.09.31,3.31,3.31,0,0,0,0,.39h-1.12a1.79,1.79,0,0,1,.45-1.34A1.82,1.82,0,0,1,126.19,0a2,2,0,0,1,1.28.37,1.43,1.43,0,0,1,.45,1.17,1.51,1.51,0,0,1-.24.89,1.07,1.07,0,0,1-.68.44v0a1.13,1.13,0,0,1,.83.47,1.72,1.72,0,0,1,.24.95,2.74,2.74,0,0,1-.08.63,1.41,1.41,0,0,1-.3.59,1.56,1.56,0,0,1-.61.42,2.67,2.67,0,0,1-1,.16,1.68,1.68,0,0,1-1.31-.48,1.93,1.93,0,0,1-.43-1.35v0h1.17A2,2,0,0,0,125.65,5.06Z" fill="#f6ad15"/><path d="M131,4.06h-2.4v-1H131Z" fill="#f6ad15"/><path d="M132.94,1.77h-1.2V1h.11a1.75,1.75,0,0,0,1-.23,1.06,1.06,0,0,0,.45-.74h.9V6h-1.22Z" fill="#f6ad15"/><path d="M138,1a.48.48,0,0,0-.43-.19.61.61,0,0,0-.39.11.73.73,0,0,0-.23.32,1.76,1.76,0,0,0-.11.48c0,.19,0,.39,0,.61v.3h0a1.06,1.06,0,0,1,.44-.38,1.55,1.55,0,0,1,.69-.14,1.5,1.5,0,0,1,.68.14,1.19,1.19,0,0,1,.45.39,1.72,1.72,0,0,1,.25.59,3.3,3.3,0,0,1,.08.75A2.37,2.37,0,0,1,139,5.57a1.85,1.85,0,0,1-1.48.54,2,2,0,0,1-1-.22,1.49,1.49,0,0,1-.57-.61,2.6,2.6,0,0,1-.26-.9,9.21,9.21,0,0,1-.06-1.06q0-.64,0-1.24A3.32,3.32,0,0,1,135.86,1a1.65,1.65,0,0,1,.6-.74A2,2,0,0,1,137.61,0a2.55,2.55,0,0,1,.63.08,1.42,1.42,0,0,1,.53.25,1.28,1.28,0,0,1,.37.47,1.76,1.76,0,0,1,.15.73h-1.17A1,1,0,0,0,138,1ZM136.9,4.62A1.23,1.23,0,0,0,137,5a.57.57,0,0,0,.2.25.6.6,0,0,0,.34.09.61.61,0,0,0,.35-.09.55.55,0,0,0,.2-.25,1.3,1.3,0,0,0,.09-.38c0-.14,0-.3,0-.47a1.84,1.84,0,0,0-.15-.87.54.54,0,0,0-.51-.26.55.55,0,0,0-.52.26,1.84,1.84,0,0,0-.15.87A4.15,4.15,0,0,0,136.9,4.62Z" fill="#f6ad15"/><path d="M141.13,5.79a3.68,3.68,0,0,1,0,.6,1.35,1.35,0,0,1-.17.49,1,1,0,0,1-.34.34,1.33,1.33,0,0,1-.56.17V6.8a.46.46,0,0,0,.33-.24.86.86,0,0,0,.11-.43V6H140V4.69h1.12Z" fill="#f6ad15"/><path d="M143.07,5.06a.53.53,0,0,0,.53.28.7.7,0,0,0,.35-.08.53.53,0,0,0,.2-.21.85.85,0,0,0,.09-.31,3.16,3.16,0,0,0,0-.37,2.37,2.37,0,0,0,0-.39.94.94,0,0,0-.11-.33.61.61,0,0,0-.24-.23.84.84,0,0,0-.41-.08h-.41v-.8h.4a.61.61,0,0,0,.33-.08.62.62,0,0,0,.21-.21,1,1,0,0,0,.12-.3,1.63,1.63,0,0,0,0-.36A1,1,0,0,0,144,1a.53.53,0,0,0-.44-.18.62.62,0,0,0-.32.07.48.48,0,0,0-.19.2.91.91,0,0,0-.09.31,3.33,3.33,0,0,0,0,.39h-1.12A1.79,1.79,0,0,1,142.3.44,1.82,1.82,0,0,1,143.61,0a2,2,0,0,1,1.28.37,1.43,1.43,0,0,1,.45,1.17,1.5,1.5,0,0,1-.24.89,1.07,1.07,0,0,1-.68.44v0a1.13,1.13,0,0,1,.83.47,1.72,1.72,0,0,1,.24.95,2.74,2.74,0,0,1-.08.63,1.41,1.41,0,0,1-.3.59,1.56,1.56,0,0,1-.61.42,2.67,2.67,0,0,1-1,.16,1.68,1.68,0,0,1-1.31-.48,1.93,1.93,0,0,1-.43-1.35v0h1.17A2,2,0,0,0,143.07,5.06Z" fill="#f6ad15"/><path d="M148.1,1.44h1.67l.71,3.06.71-3.06h1.67V6h-1.1V2.77L151,6h-1l-.81-3.25V6h-1.1Z" fill="#f6ad15"/><path d="M154.85,6h-1.12V4.69h1.12Z" fill="#f6ad15"/></g></g></svg>