<svg xmlns="http://www.w3.org/2000/svg" viewBox="0 0 373.5693 55.26368"><path d="M56.21 40.537c.772 0 1.393-.146 1.393.625 0 .767-.62.625-1.392.625h-2.686c-.766 0-1.391.142-1.391-.625 0-.771.625-.625 1.391-.625zm298.712-8.75c.766 0 1.391.479 1.391 1.25 0 .767-.625 1.25-1.391 1.25h-2.686c-.771 0-1.391-.483-1.391-1.25 0-.771.62-1.25 1.391-1.25zm0 0" fill="#fff"/><path d="M51.401 39.404h-6.928V16.865H51.4zm0 0" fill="#303d7a"/><path d="M51.401 23.799H0v-6.934h51.401zm0 0" fill="#303d7a"/><path d="M8.408 27.26H5.566v-6.928h2.842zm320.435 24.01a7.508 7.508 0 0 1-7.505-7.51 7.508 7.508 0 1 1 15.015 0 7.51 7.51 0 0 1-7.51 7.51m0-18.384c-5.996 0-10.874 4.873-10.874 10.874 0 5.996 4.878 10.874 10.874 10.874s10.879-4.878 10.879-10.874c0-6.001-4.878-10.874-10.88-10.874" fill="#303d7a"/><path d="M331.04 43.76c0 1.21-.986 2.192-2.197 2.192a2.192 2.192 0 1 1 0-4.385c1.21 0 2.197.982 2.197 2.193" fill="#303d7a"/><path d="M328.843 46.63a2.873 2.873 0 1 1 2.876-2.87 2.874 2.874 0 0 1-2.876 2.87m-27.647 5.265c-4.15 0-7.51-3.36-7.51-7.505a7.508 7.508 0 1 1 7.51 7.505m0-18.384c-6 0-10.879 4.878-10.879 10.879 0 5.996 4.878 10.874 10.88 10.874 5.995 0 10.873-4.878 10.873-10.874 0-6.001-4.878-10.88-10.874-10.88" fill="#303d7a"/><path d="M303.389 44.39c0 1.21-.982 2.192-2.193 2.192A2.196 2.196 0 0 1 299 44.39c0-1.211.986-2.193 2.197-2.193s2.193.982 2.193 2.193" fill="#303d7a"/><path d="M301.196 47.26a2.877 2.877 0 0 1-2.876-2.87 2.878 2.878 0 0 1 2.876-2.876 2.877 2.877 0 0 1 2.871 2.876 2.876 2.876 0 0 1-2.87 2.87m-27.652 4.01a7.512 7.512 0 0 1-7.51-7.51 7.512 7.512 0 0 1 7.51-7.51 7.512 7.512 0 0 1 7.51 7.51 7.512 7.512 0 0 1-7.51 7.51m0-18.384c-5.996 0-10.874 4.873-10.874 10.874 0 5.996 4.878 10.874 10.874 10.874s10.874-4.878 10.874-10.874c0-6.001-4.878-10.874-10.874-10.874" fill="#303d7a"/><path d="M275.737 43.76a2.192 2.192 0 1 1-4.384 0 2.192 2.192 0 0 1 4.384 0" fill="#303d7a"/><path d="M273.545 46.63a2.874 2.874 0 0 1-2.876-2.87 2.881 2.881 0 0 1 2.876-2.876 2.881 2.881 0 0 1 2.876 2.876 2.874 2.874 0 0 1-2.876 2.87m-12.241 1.446h-3.174v-6.929h3.174zm-15.41 3.194a7.508 7.508 0 0 1-7.505-7.51 7.508 7.508 0 0 1 7.505-7.51 7.512 7.512 0 0 1 7.51 7.51 7.512 7.512 0 0 1-7.51 7.51m0-18.384c-5.997 0-10.874 4.873-10.874 10.874 0 5.996 4.877 10.874 10.874 10.874 5.996 0 10.878-4.878 10.878-10.874 0-6.001-4.877-10.874-10.878-10.874" fill="#303d7a"/><path d="M248.09 43.76c0 1.21-.986 2.192-2.196 2.192a2.192 2.192 0 1 1 0-4.385c1.21 0 2.197.982 2.197 2.193" fill="#303d7a"/><path d="M245.894 46.63a2.877 2.877 0 0 1-2.876-2.87 2.884 2.884 0 0 1 2.876-2.876 2.881 2.881 0 0 1 2.876 2.876 2.874 2.874 0 0 1-2.876 2.87m-12.237 1.446h-3.232v-6.929h3.232zm-15.41 3.194a7.51 7.51 0 0 1-7.51-7.51 7.508 7.508 0 0 1 15.015 0c0 4.145-3.36 7.51-7.505 7.51m0-18.384c-6 0-10.879 4.873-10.879 10.874 0 5.996 4.878 10.874 10.88 10.874 5.995 0 10.873-4.878 10.873-10.874 0-6.001-4.878-10.874-10.874-10.874" fill="#303d7a"/><path d="M220.44 43.76c0 1.21-.982 2.192-2.193 2.192a2.196 2.196 0 0 1-2.197-2.192c0-1.211.986-2.193 2.197-2.193s2.192.982 2.192 2.193" fill="#303d7a"/><path d="M218.247 46.63a2.874 2.874 0 0 1-2.876-2.87 2.881 2.881 0 0 1 2.876-2.876 2.873 2.873 0 1 1 0 5.747" fill="#303d7a"/><path d="M44.414 29.951v18.125h161.592V44.37h.034c-.015-.205-.034-.405-.034-.61 0-6.748 5.488-12.237 12.236-12.237 6.753 0 12.241 5.489 12.241 12.237 0 .205-.02.405-.034.61h3.238c-.01-.205-.03-.405-.03-.61 0-6.748 5.489-12.237 12.237-12.237s12.24 5.489 12.24 12.237c0 .205-.024.405-.033.61h3.237c-.01-.205-.03-.405-.03-.61 0-6.748 5.489-12.237 12.237-12.237s12.236 5.489 12.236 12.237c0 .205-.02.405-.029.61h3.203c.015-6.738 5.498-12.222 12.241-12.222 6.739 0 12.227 5.484 12.237 12.222h3.203c-.01-.205-.03-.405-.03-.61 0-6.748 5.489-12.237 12.237-12.237s12.241 5.489 12.241 12.237c0 .205-.024.405-.034.61h17.54V29.951zm0 0" fill="#303d7a"/><path d="M343.926 48.076h-2.842v-6.929h2.842zm-54.971-.21h-3.174v-6.928h3.174zm27.651 0h-3.173v-6.928h3.173zm56.964-3.462h-15.05V29.951zm0 0" fill="#303d7a"/><path d="M51.372 16.826h-1.25v-9.99h1.25zm306.68 13.404h-1.25V7.08h1.25zm0 0" fill="#f5ae23"/><path d="M357.427 11.143l-306.074-.415v-1.25l306.074.415zm0 0" fill="#f5ae23"/><path d="M58.472 11.616l-8.13-1.46 8.154-2.192zm290.825.313l8.13-1.46-8.155-2.193zM156.118 2.08h-1.406v-.937h.127c.483 0 .86-.093 1.138-.269.273-.18.449-.474.522-.874h1.06v7.08h-1.44zm4.805 0h-1.411v-.937h.127c.483 0 .859-.093 1.137-.269.274-.18.45-.474.523-.874h1.06v7.08h-1.436zm4.839 4.741c0 .244-.02.484-.059.703a1.519 1.519 0 0 1-.205.581 1.178 1.178 0 0 1-.405.4c-.166.103-.386.167-.655.196v-.703a.517.517 0 0 0 .391-.278.997.997 0 0 0 .132-.508V7.08h-.523V5.522h1.324zm2.299-3.447c.118.205.318.308.601.308s.488-.103.61-.308c.118-.21.176-.552.176-1.03 0-.2-.01-.39-.029-.562a1.514 1.514 0 0 0-.112-.444.683.683 0 0 0-.24-.293.733.733 0 0 0-.405-.103.735.735 0 0 0-.415.103.577.577 0 0 0-.234.298 1.448 1.448 0 0 0-.108.444 4.98 4.98 0 0 0-.024.557c0 .478.059.82.18 1.03m.074 2.68c.098.152.264.225.508.225.19 0 .342-.044.459-.132a.9.9 0 0 0 .263-.376c.064-.16.108-.351.127-.57.02-.22.03-.46.03-.719v-.341h-.02a1.27 1.27 0 0 1-.517.434c-.225.112-.494.166-.816.166-.312 0-.58-.054-.8-.166a1.385 1.385 0 0 1-.533-.459 2.06 2.06 0 0 1-.303-.698 3.909 3.909 0 0 1-.092-.889c0-.815.18-1.445.547-1.88.36-.43.942-.649 1.743-.649.493 0 .883.093 1.181.273.293.186.518.43.674.733.156.303.259.654.303 1.055.049.4.073.815.073 1.25 0 .507-.014.996-.049 1.464a3.809 3.809 0 0 1-.268 1.246 1.842 1.842 0 0 1-.708.854c-.327.21-.777.317-1.358.317a3.27 3.27 0 0 1-.732-.078 1.518 1.518 0 0 1-.625-.278 1.414 1.414 0 0 1-.435-.552c-.112-.23-.17-.512-.176-.854h1.377c0 .268.05.473.147.625m4.605-4.795l-.152 1.611h.024a1.12 1.12 0 0 1 .518-.405c.215-.083.473-.127.781-.127.337 0 .62.068.845.195.224.132.4.303.527.518.132.215.225.454.278.722.054.274.079.547.079.826 0 .395-.035.752-.098 1.069a2.08 2.08 0 0 1-.356.825c-.171.235-.4.405-.694.523-.298.112-.669.175-1.123.175-.444 0-.806-.063-1.084-.18a1.55 1.55 0 0 1-.635-.474c-.146-.2-.244-.41-.297-.64a3.183 3.183 0 0 1-.074-.649v-.186h1.382c0 .118.005.245.02.376.01.137.044.26.092.376a.818.818 0 0 0 .215.293.59.59 0 0 0 .371.113c.303 0 .518-.113.645-.347.132-.23.195-.576.195-1.035 0-.293-.015-.532-.039-.728a1.249 1.249 0 0 0-.137-.459.502.502 0 0 0-.254-.239.96.96 0 0 0-.4-.073c-.205 0-.366.058-.474.176a.8.8 0 0 0-.205.473h-1.289l.26-3.848h3.69V1.26zm6.42 3.52h-2.822V3.604h2.822zm2.26-2.7h-1.41v-.937h.132c.478 0 .854-.093 1.132-.269.279-.18.45-.474.528-.874h1.06v7.08h-1.441zm4.87.581c.126.161.297.24.512.24.21 0 .38-.079.508-.24.126-.161.19-.41.19-.752 0-.644-.234-.967-.698-.967-.469 0-.703.323-.703.967 0 .342.063.591.19.752m-.273 2.876c.02.151.063.278.127.386.063.112.15.2.258.264a.76.76 0 0 0 .4.092.756.756 0 0 0 .396-.092.707.707 0 0 0 .259-.264c.064-.108.103-.235.127-.386a2.953 2.953 0 0 0 0-.957 1.158 1.158 0 0 0-.127-.386.73.73 0 0 0-.259-.258.753.753 0 0 0-.395-.098.76.76 0 0 0-.4.098.73.73 0 0 0-.26.258c-.063.113-.107.24-.126.386a2.963 2.963 0 0 0-.035.483c0 .166.01.323.035.474m-1.177-1.606c.2-.318.503-.518.898-.6v-.02a1.296 1.296 0 0 1-.483-.22 1.29 1.29 0 0 1-.313-.342 1.232 1.232 0 0 1-.17-.395 1.725 1.725 0 0 1-.05-.4c0-.694.181-1.192.552-1.5.371-.303.88-.454 1.529-.454.644 0 1.152.151 1.523.454.371.308.557.806.557 1.5 0 .121-.02.258-.059.4a1.24 1.24 0 0 1-.176.395c-.078.127-.18.244-.312.342-.132.102-.288.17-.474.22v.02c.4.082.698.282.899.6.2.317.298.703.298 1.152 0 .205-.025.43-.074.679a1.724 1.724 0 0 1-.312.688c-.161.215-.39.39-.689.532-.293.137-.693.21-1.181.21-.498 0-.89-.073-1.187-.21-.298-.141-.527-.317-.684-.532a1.669 1.669 0 0 1-.317-.688 3.537 3.537 0 0 1-.073-.679c0-.45.097-.835.298-1.152m6.221 2.89a4.6 4.6 0 0 1-.054.703 1.702 1.702 0 0 1-.205.581 1.27 1.27 0 0 1-.406.4c-.17.103-.39.167-.654.196v-.703a.518.518 0 0 0 .386-.278.997.997 0 0 0 .132-.508V7.08h-.518V5.522h1.318zm2.431-4.16c.122.161.293.24.508.24.215 0 .38-.079.513-.24.122-.161.185-.41.185-.752 0-.644-.23-.967-.698-.967-.469 0-.698.323-.698.967 0 .342.063.591.19.752m-.278 2.876c.024.151.068.278.132.386.063.112.146.2.254.264a.774.774 0 0 0 .4.092.77.77 0 0 0 .4-.092.694.694 0 0 0 .254-.264c.064-.108.108-.235.132-.386.02-.151.034-.308.034-.474 0-.175-.014-.336-.034-.483a1.162 1.162 0 0 0-.132-.386.717.717 0 0 0-.254-.258.771.771 0 0 0-.4-.098.771.771 0 0 0-.4.098.717.717 0 0 0-.254.258c-.064.113-.108.24-.132.386a2.963 2.963 0 0 0-.034.483c0 .166.01.323.034.474m-1.172-1.606c.2-.318.498-.518.898-.6v-.02a1.229 1.229 0 0 1-.483-.22 1.31 1.31 0 0 1-.488-.737 1.725 1.725 0 0 1-.05-.4c0-.694.186-1.192.557-1.5.372-.303.88-.454 1.524-.454s1.157.151 1.523.454c.371.308.557.806.557 1.5 0 .121-.02.258-.054.4a1.503 1.503 0 0 1-.175.395 1.233 1.233 0 0 1-.318.342 1.25 1.25 0 0 1-.473.22v.02c.4.082.703.282.898.6.2.317.303.703.303 1.152 0 .205-.025.43-.074.679a1.735 1.735 0 0 1-.317.688c-.161.215-.39.39-.684.532-.297.137-.693.21-1.186.21s-.889-.073-1.187-.21a1.824 1.824 0 0 1-.683-.532 1.658 1.658 0 0 1-.313-.688 3.213 3.213 0 0 1-.078-.679c0-.45.103-.835.303-1.152m5.996-2.671l-.146 1.611h.02c.131-.185.302-.322.517-.405a2.16 2.16 0 0 1 .78-.127c.343 0 .621.068.846.195.224.132.4.303.532.518.127.215.22.454.273.722.054.274.078.547.078.826 0 .395-.034.752-.097 1.069a2.08 2.08 0 0 1-.357.825c-.17.235-.4.405-.693.523-.293.112-.669.175-1.123.175-.444 0-.806-.063-1.084-.18-.273-.122-.488-.279-.635-.474-.146-.2-.244-.41-.293-.64a2.894 2.894 0 0 1-.078-.649v-.186h1.382c0 .118.005.245.02.376.014.137.043.26.097.376a.716.716 0 0 0 .215.293.575.575 0 0 0 .366.113c.303 0 .518-.113.645-.347.132-.23.195-.576.195-1.035 0-.293-.01-.532-.039-.728a1.254 1.254 0 0 0-.132-.459.53.53 0 0 0-.259-.239.945.945 0 0 0-.4-.073c-.205 0-.361.058-.474.176a.865.865 0 0 0-.205.473H196.7l.259-3.848h3.691V1.26zm6.021.44h1.972l.84 3.603.84-3.604h1.968V7.08h-1.29V3.262l-.951 3.818h-1.138l-.952-3.818V7.08h-1.29zm7.939 5.38h-1.318V5.522h1.318zm0 0" fill="#f5ae23"/></svg>