<svg xmlns="http://www.w3.org/2000/svg" viewBox="0 0 308.74 49.21"><title>9631</title><g id="d057cd38-69f7-4e99-b6ae-79adccd6da1b" data-name="Слой 2"><g id="68b63597-3352-44da-a48c-15f5881e8db9" data-name="Слой 1"><path d="M143.33,3.82h-2.26V2.88h2.26Z" fill="#f6ad15"/><path d="M45,32.43c.62,0,1.11-.12,1.11.5h0c0,.61-.5.5-1.11.5H42.82c-.62,0-1.11.11-1.11-.5h0c0-.62.5-.5,1.11-.5Z" fill="#fff"/><path d="M283.94,30.43a1,1,0,0,1,1.12,1h0a1,1,0,0,1-1.12,1h-2.15a1,1,0,0,1-1.11-1h0a1,1,0,0,1,1.11-1Z" fill="#fff"/><rect x="35.58" y="13.49" width="5.54" height="18.03" fill="#253678"/><rect y="13.49" width="41.12" height="5.54" fill="#253678"/><rect x="4.45" y="16.26" width="2.27" height="5.54" fill="#253678"/><path d="M263.07,31.31a8.7,8.7,0,1,0,8.7,8.7A8.71,8.71,0,0,0,263.07,31.31Zm0,14.71a6,6,0,1,1,6-6A6,6,0,0,1,263.07,46Z" fill="#253678"/><circle cx="263.07" cy="40.01" r="1.75" fill="#253678"/><path d="M263.07,42.31a2.3,2.3,0,1,1,2.3-2.3A2.3,2.3,0,0,1,263.07,42.31Z" fill="#253678"/><path d="M241,31.81a8.7,8.7,0,1,0,8.7,8.7A8.71,8.71,0,0,0,241,31.81Zm0,14.71a6,6,0,1,1,6-6A6,6,0,0,1,241,46.52Z" fill="#253678"/><circle cx="240.96" cy="40.51" r="1.75" fill="#253678"/><path d="M241,42.81a2.3,2.3,0,1,1,2.3-2.3A2.3,2.3,0,0,1,241,42.81Z" fill="#253678"/><path d="M218.84,31.31a8.7,8.7,0,1,0,8.7,8.7A8.71,8.71,0,0,0,218.84,31.31Zm0,14.71a6,6,0,1,1,6-6A6,6,0,0,1,218.84,46Z" fill="#253678"/><circle cx="218.84" cy="40.01" r="1.75" fill="#253678"/><path d="M218.84,42.31a2.3,2.3,0,1,1,2.3-2.3A2.3,2.3,0,0,1,218.84,42.31Z" fill="#253678"/><rect x="206.51" y="37.92" width="2.54" height="5.54" fill="#253678"/><path d="M196.72,31.31a8.7,8.7,0,1,0,8.7,8.7A8.71,8.71,0,0,0,196.72,31.31Zm0,14.71a6,6,0,1,1,6-6A6,6,0,0,1,196.72,46Z" fill="#253678"/><circle cx="196.72" cy="40.01" r="1.75" fill="#253678"/><path d="M196.72,42.31A2.3,2.3,0,1,1,199,40,2.3,2.3,0,0,1,196.72,42.31Z" fill="#253678"/><rect x="184.34" y="37.92" width="2.59" height="5.54" fill="#253678"/><path d="M174.6,31.31a8.7,8.7,0,1,0,8.7,8.7A8.71,8.71,0,0,0,174.6,31.31Zm0,14.71a6,6,0,1,1,6-6A6,6,0,0,1,174.6,46Z" fill="#253678"/><circle cx="174.6" cy="40.01" r="1.75" fill="#253678"/><path d="M174.6,42.31a2.3,2.3,0,1,1,2.3-2.3A2.3,2.3,0,0,1,174.6,42.31Z" fill="#253678"/><rect x="272.87" y="37.92" width="2.27" height="5.54" fill="#253678"/><rect x="228.63" y="37.75" width="2.54" height="5.54" fill="#253678"/><rect x="250.75" y="37.75" width="2.54" height="5.54" fill="#253678"/><path d="M307.26,48.59,295.22,37h0l-8.35-8v0h-.05l-223.5.3V35l98.77,0v8.45h2.72v-3h0c0-.16,0-.32,0-.49a9.79,9.79,0,1,1,19.58,0c0,.17,0,.33,0,.49h2.59c0-.16,0-.32,0-.49a9.79,9.79,0,1,1,19.58,0c0,.17,0,.33,0,.49h2.59c0-.16,0-.32,0-.49a9.79,9.79,0,1,1,19.58,0c0,.17,0,.33,0,.49h2.56a9.79,9.79,0,0,1,19.58,0h2.56c0-.16,0-.32,0-.49a9.79,9.79,0,1,1,19.58,0c0,.17,0,.33,0,.49h14v0h8.41v8.07Z" fill="#253678"/><polygon points="286.82 28.98 298.85 29.08 298.75 40.64 286.82 28.98" fill="#7d8bb2"/><path d="M308.74,39.4a8.65,8.65,0,0,0-2.34-5.11l-.22-.21-2,1.86.22.21a6.46,6.46,0,0,1,1.61,3.25Z" fill="#7d8bb2"/><path d="M308.64,41.73l-2.73-.07a6,6,0,0,1-1.59,2.87l1.9,1.91A8.65,8.65,0,0,0,308.64,41.73Z" fill="#7d8bb2"/><path d="M299.89,30.34l0,2.73a6,6,0,0,1,3,1.34l1.73-2.06A8.11,8.11,0,0,0,299.89,30.34Z" fill="#7d8bb2"/><rect x="60.33" y="29.27" width="2.27" height="5.54" fill="#253678"/><rect x="35.58" y="29.27" width="20.71" height="5.54" fill="#253678"/><rect x="57.14" y="29.27" width="2.28" height="5.54" fill="#253678"/><rect x="40.1" y="5.47" width="1" height="7.99" fill="#f6ad15"/><rect x="285.44" y="5.67" width="1" height="23.52" fill="#f6ad15"/><rect x="163.01" y="-114.18" width="1" height="244.86" transform="translate(155.04 171.75) rotate(-89.92)" fill="#f6ad15"/><polygon points="46.78 9.29 40.27 8.13 46.8 6.37 46.78 9.29" fill="#f6ad15"/><polygon points="279.44 9.54 285.94 8.38 279.42 6.62 279.44 9.54" fill="#f6ad15"/><path d="M124.9,1.66h-1.13V.91h.1a1.66,1.66,0,0,0,.91-.21,1,1,0,0,0,.42-.7H126V5.66H124.9Z" fill="#f6ad15"/><path d="M128.74,1.66h-1.13V.91h.1a1.66,1.66,0,0,0,.91-.21A1,1,0,0,0,129,0h.85V5.66h-1.15Z" fill="#f6ad15"/><path d="M132.61,5.46a3.48,3.48,0,0,1,0,.56,1.28,1.28,0,0,1-.16.46,1,1,0,0,1-.32.32,1.25,1.25,0,0,1-.52.16V6.4a.44.44,0,0,0,.31-.22.82.82,0,0,0,.1-.41v-.1h-.42V4.42h1.06Z" fill="#f6ad15"/><path d="M134.51,4.84a.44.44,0,0,0,.4.18.57.57,0,0,0,.37-.11.7.7,0,0,0,.21-.3,1.67,1.67,0,0,0,.1-.46c0-.18,0-.37,0-.58V3.31h0a1,1,0,0,1-.41.35,1.47,1.47,0,0,1-.65.13,1.42,1.42,0,0,1-.64-.13,1.13,1.13,0,0,1-.43-.37,1.62,1.62,0,0,1-.24-.56,3.08,3.08,0,0,1-.08-.71,2.29,2.29,0,0,1,.44-1.5A1.72,1.72,0,0,1,135,0a1.77,1.77,0,0,1,.94.22,1.48,1.48,0,0,1,.54.58,2.44,2.44,0,0,1,.24.84,8.57,8.57,0,0,1,.06,1q0,.61,0,1.17a3.08,3.08,0,0,1-.22,1,1.47,1.47,0,0,1-.57.68,2,2,0,0,1-1.08.25,2.84,2.84,0,0,1-.59-.06,1.24,1.24,0,0,1-.5-.22,1.17,1.17,0,0,1-.35-.44,1.65,1.65,0,0,1-.14-.68h1.1A.92.92,0,0,0,134.51,4.84Zm-.06-2.15a.51.51,0,0,0,.48.25.52.52,0,0,0,.49-.25,1.74,1.74,0,0,0,.14-.82,3.93,3.93,0,0,0,0-.45,1.19,1.19,0,0,0-.09-.36.56.56,0,0,0-.19-.23.58.58,0,0,0-.32-.08.59.59,0,0,0-.33.08.52.52,0,0,0-.19.24,1.22,1.22,0,0,0-.08.36c0,.14,0,.28,0,.44A1.74,1.74,0,0,0,134.45,2.7Z" fill="#f6ad15"/><path d="M138.19,1l-.12,1.29h0A.9.9,0,0,1,138.5,2a1.72,1.72,0,0,1,.62-.1,1.32,1.32,0,0,1,.68.16,1.19,1.19,0,0,1,.42.41,1.76,1.76,0,0,1,.22.58,3.37,3.37,0,0,1,.06.66,4.19,4.19,0,0,1-.08.86,1.67,1.67,0,0,1-.28.66,1.25,1.25,0,0,1-.56.42,2.48,2.48,0,0,1-.9.14,2.19,2.19,0,0,1-.87-.14,1.22,1.22,0,0,1-.51-.38,1.32,1.32,0,0,1-.24-.51A2.44,2.44,0,0,1,137,4.2V4h1.1c0,.1,0,.2,0,.3a1,1,0,0,0,.08.3.6.6,0,0,0,.17.23.45.45,0,0,0,.3.09.55.55,0,0,0,.52-.28,1.73,1.73,0,0,0,.16-.83,4.45,4.45,0,0,0,0-.58,1.07,1.07,0,0,0-.11-.37.43.43,0,0,0-.2-.19.81.81,0,0,0-.32-.06.5.5,0,0,0-.38.14.67.67,0,0,0-.16.38h-1l.21-3.08h3V1Z" fill="#f6ad15"/><path d="M145.14,1.66H144V.91h.1A1.66,1.66,0,0,0,145,.7a1,1,0,0,0,.42-.7h.85V5.66h-1.15Z" fill="#f6ad15"/><path d="M147.87,3.14a1.05,1.05,0,0,1,.72-.48v0a1,1,0,0,1-.39-.18,1,1,0,0,1-.39-.59,1.37,1.37,0,0,1,0-.32,1.46,1.46,0,0,1,.44-1.2,2.22,2.22,0,0,1,2.44,0,1.46,1.46,0,0,1,.44,1.2,1.27,1.27,0,0,1,0,.32,1.15,1.15,0,0,1-.14.32,1.06,1.06,0,0,1-.25.27,1,1,0,0,1-.38.18v0a1.05,1.05,0,0,1,.72.48,1.7,1.7,0,0,1,.24.92,2.75,2.75,0,0,1-.06.54,1.36,1.36,0,0,1-.25.55,1.41,1.41,0,0,1-.55.42,2.76,2.76,0,0,1-1.9,0,1.41,1.41,0,0,1-.55-.42,1.35,1.35,0,0,1-.25-.55,2.74,2.74,0,0,1-.06-.54A1.7,1.7,0,0,1,147.87,3.14Zm.94,1.28a.89.89,0,0,0,.1.31.57.57,0,0,0,.2.21.72.72,0,0,0,.64,0,.57.57,0,0,0,.2-.21.89.89,0,0,0,.1-.31,2.59,2.59,0,0,0,0-.76.88.88,0,0,0-.1-.31.57.57,0,0,0-.2-.21.71.71,0,0,0-.64,0,.57.57,0,0,0-.2.21.88.88,0,0,0-.1.31,2.63,2.63,0,0,0,0,.76Zm.22-2.3a.53.53,0,0,0,.82,0,1,1,0,0,0,.15-.6c0-.52-.19-.78-.56-.78s-.56.26-.56.78A1,1,0,0,0,149,2.13Z" fill="#f6ad15"/><path d="M152.85,5.46a3.48,3.48,0,0,1,0,.56,1.27,1.27,0,0,1-.16.46,1,1,0,0,1-.32.32,1.25,1.25,0,0,1-.52.16V6.4a.44.44,0,0,0,.31-.22.82.82,0,0,0,.1-.41v-.1h-.42V4.42h1.06Z" fill="#f6ad15"/><path d="M153.63,3.14a1.05,1.05,0,0,1,.72-.48v0a1,1,0,0,1-.39-.18,1,1,0,0,1-.39-.59,1.37,1.37,0,0,1,0-.32A1.46,1.46,0,0,1,154,.37a2.22,2.22,0,0,1,2.44,0,1.46,1.46,0,0,1,.44,1.2,1.27,1.27,0,0,1,0,.32,1.15,1.15,0,0,1-.14.32,1.06,1.06,0,0,1-.25.27,1,1,0,0,1-.38.18v0a1.05,1.05,0,0,1,.72.48,1.7,1.7,0,0,1,.24.92,2.74,2.74,0,0,1-.06.54,1.35,1.35,0,0,1-.25.55,1.41,1.41,0,0,1-.55.42,2.76,2.76,0,0,1-1.9,0,1.41,1.41,0,0,1-.55-.42,1.36,1.36,0,0,1-.25-.55,2.75,2.75,0,0,1-.06-.54A1.7,1.7,0,0,1,153.63,3.14Zm.94,1.28a.89.89,0,0,0,.1.31.57.57,0,0,0,.2.21.72.72,0,0,0,.64,0,.57.57,0,0,0,.2-.21.89.89,0,0,0,.1-.31,2.6,2.6,0,0,0,0-.76.88.88,0,0,0-.1-.31.57.57,0,0,0-.2-.21.71.71,0,0,0-.64,0,.57.57,0,0,0-.2.21.89.89,0,0,0-.1.31,2.64,2.64,0,0,0,0,.76Zm.22-2.3a.53.53,0,0,0,.82,0,1,1,0,0,0,.15-.6c0-.52-.19-.78-.56-.78s-.56.26-.56.78A1,1,0,0,0,154.79,2.13Z" fill="#f6ad15"/><path d="M158.43,1l-.12,1.29h0a.9.9,0,0,1,.42-.32,1.72,1.72,0,0,1,.62-.1A1.32,1.32,0,0,1,160,2a1.19,1.19,0,0,1,.42.41,1.76,1.76,0,0,1,.22.58,3.38,3.38,0,0,1,.06.66,4.19,4.19,0,0,1-.08.86,1.67,1.67,0,0,1-.28.66,1.25,1.25,0,0,1-.56.42,2.48,2.48,0,0,1-.9.14,2.19,2.19,0,0,1-.87-.14,1.22,1.22,0,0,1-.51-.38,1.32,1.32,0,0,1-.24-.51,2.44,2.44,0,0,1-.06-.52V4h1.1a3,3,0,0,0,0,.3,1,1,0,0,0,.08.3.6.6,0,0,0,.17.23.45.45,0,0,0,.3.09.55.55,0,0,0,.52-.28,1.73,1.73,0,0,0,.16-.83,4.45,4.45,0,0,0,0-.58,1.07,1.07,0,0,0-.11-.37.43.43,0,0,0-.2-.19.81.81,0,0,0-.32-.06.5.5,0,0,0-.38.14.67.67,0,0,0-.16.38h-1l.21-3.08h3V1Z" fill="#f6ad15"/><path d="M163.25,1.36h1.58l.67,2.88.67-2.88h1.58v4.3h-1V2.61L166,5.66H165l-.76-3.06V5.66h-1Z" fill="#f6ad15"/><path d="M169.6,5.66h-1.06V4.42h1.06Z" fill="#f6ad15"/></g></g></svg>