<svg xmlns="http://www.w3.org/2000/svg" viewBox="0 0 308.74 49.21"><defs><style>.cls-1{fill:#fff}.cls-2{fill:#253678}.cls-3{fill:#7d8bb2}.cls-4{fill:#f6ad15}</style></defs><title>9631</title><g id="Слой_2" data-name="Слой 2"><g id="Слой_1-2" data-name="Слой 1"><path class="cls-1" d="M45 32.43c.62 0 1.11-.12 1.11.5 0 .61-.5.5-1.11.5h-2.18c-.62 0-1.11.11-1.11-.5 0-.62.5-.5 1.11-.5zm238.94-2a1 1 0 0 1 1.12 1 1 1 0 0 1-1.12 1h-2.15a1 1 0 0 1-1.11-1 1 1 0 0 1 1.11-1z"/><path class="cls-2" d="M35.58 13.49h5.54v18.03h-5.54z"/><path class="cls-2" d="M0 13.49h41.12v5.54H0z"/><path class="cls-2" d="M4.45 16.26h2.27v5.54H4.45zm258.62 15.05a8.7 8.7 0 1 0 8.7 8.7 8.71 8.71 0 0 0-8.7-8.7zm0 14.71a6 6 0 1 1 6-6 6 6 0 0 1-6 5.98z"/><circle class="cls-2" cx="263.07" cy="40.01" r="1.75"/><path class="cls-2" d="M263.07 42.31a2.3 2.3 0 1 1 2.3-2.3 2.3 2.3 0 0 1-2.3 2.3zM241 31.81a8.7 8.7 0 1 0 8.7 8.7 8.71 8.71 0 0 0-8.7-8.7zm0 14.71a6 6 0 1 1 6-6 6 6 0 0 1-6 6z"/><circle class="cls-2" cx="240.96" cy="40.51" r="1.75"/><path class="cls-2" d="M241 42.81a2.3 2.3 0 1 1 2.3-2.3 2.3 2.3 0 0 1-2.3 2.3zm-22.16-11.5a8.7 8.7 0 1 0 8.7 8.7 8.71 8.71 0 0 0-8.7-8.7zm0 14.71a6 6 0 1 1 6-6 6 6 0 0 1-6 5.98z"/><circle class="cls-2" cx="218.84" cy="40.01" r="1.75"/><path class="cls-2" d="M218.84 42.31a2.3 2.3 0 1 1 2.3-2.3 2.3 2.3 0 0 1-2.3 2.3zm-12.33-4.39h2.54v5.54h-2.54zm-9.79-6.61a8.7 8.7 0 1 0 8.7 8.7 8.71 8.71 0 0 0-8.7-8.7zm0 14.71a6 6 0 1 1 6-6 6 6 0 0 1-6 5.98z"/><circle class="cls-2" cx="196.72" cy="40.01" r="1.75"/><path class="cls-2" d="M196.72 42.31A2.3 2.3 0 1 1 199 40a2.3 2.3 0 0 1-2.28 2.31zm-12.38-4.39h2.59v5.54h-2.59zm-9.74-6.61a8.7 8.7 0 1 0 8.7 8.7 8.71 8.71 0 0 0-8.7-8.7zm0 14.71a6 6 0 1 1 6-6 6 6 0 0 1-6 5.98z"/><circle class="cls-2" cx="174.6" cy="40.01" r="1.75"/><path class="cls-2" d="M174.6 42.31a2.3 2.3 0 1 1 2.3-2.3 2.3 2.3 0 0 1-2.3 2.3zm98.27-4.39h2.27v5.54h-2.27zm-44.24-.17h2.54v5.54h-2.54zm22.12 0h2.54v5.54h-2.54z"/><path class="cls-2" d="M307.26 48.59L295.22 37l-8.35-8h-.05l-251.5.3V35h126.77v8.45h2.72v-3.49a9.79 9.79 0 1 1 19.58 0v.49h2.59v-.49a9.79 9.79 0 1 1 19.58 0v.49h2.59v-.49a9.79 9.79 0 1 1 19.58 0v.49h2.56a9.79 9.79 0 0 1 19.58 0h2.56v-.49a9.79 9.79 0 1 1 19.58 0v.49h22.41v8.07z"/><path class="cls-3" d="M286.82 28.98l12.03.1-.1 11.56-11.93-11.66zm21.92 10.42a8.65 8.65 0 0 0-2.34-5.11l-.22-.21-2 1.86.22.21a6.46 6.46 0 0 1 1.61 3.25zm-.1 2.33l-2.73-.07a6 6 0 0 1-1.59 2.87l1.9 1.91a8.65 8.65 0 0 0 2.42-4.71zm-8.75-11.39v2.73a6 6 0 0 1 3 1.34l1.73-2.06a8.11 8.11 0 0 0-4.73-2.01z"/><path class="cls-4" d="M40.1 5.47h1v7.99h-1zm245.34.2h1v23.52h-1z"/><path class="cls-4" transform="rotate(-89.92 163.515 8.247)" d="M163.01-114.18h1v244.86h-1z"/><path class="cls-4" d="M46.78 9.29l-6.51-1.16 6.53-1.76-.02 2.92zm232.66.25l6.5-1.16-6.52-1.76.02 2.92zM124.9 1.66h-1.13V.91h.1a1.66 1.66 0 0 0 .91-.21 1 1 0 0 0 .42-.7h.8v5.66h-1.1zm3.84 0h-1.13V.91h.1a1.66 1.66 0 0 0 .91-.21A1 1 0 0 0 129 0h.85v5.66h-1.15zm3.87 3.8a3.48 3.48 0 0 1 0 .56 1.28 1.28 0 0 1-.16.46 1 1 0 0 1-.32.32 1.25 1.25 0 0 1-.52.16V6.4a.44.44 0 0 0 .31-.22.82.82 0 0 0 .1-.41v-.1h-.42V4.42h1.06zm1.9-.62a.44.44 0 0 0 .4.18.57.57 0 0 0 .37-.11.7.7 0 0 0 .21-.3 1.67 1.67 0 0 0 .1-.46v-.84a1 1 0 0 1-.41.35 1.47 1.47 0 0 1-.65.13 1.42 1.42 0 0 1-.64-.13 1.13 1.13 0 0 1-.43-.37 1.62 1.62 0 0 1-.24-.56 3.08 3.08 0 0 1-.08-.71 2.29 2.29 0 0 1 .44-1.5A1.72 1.72 0 0 1 135 0a1.77 1.77 0 0 1 .94.22 1.48 1.48 0 0 1 .54.58 2.44 2.44 0 0 1 .24.84 8.57 8.57 0 0 1 .06 1v1.17a3.08 3.08 0 0 1-.22 1 1.47 1.47 0 0 1-.57.68 2 2 0 0 1-1.08.25 2.84 2.84 0 0 1-.59-.06 1.24 1.24 0 0 1-.5-.22 1.17 1.17 0 0 1-.35-.44 1.65 1.65 0 0 1-.14-.68h1.1a.92.92 0 0 0 .08.5zm-.06-2.15a.51.51 0 0 0 .48.25.52.52 0 0 0 .49-.25 1.74 1.74 0 0 0 .14-.82 3.93 3.93 0 0 0 0-.45 1.19 1.19 0 0 0-.09-.36.56.56 0 0 0-.19-.23.58.58 0 0 0-.32-.08.59.59 0 0 0-.33.08.52.52 0 0 0-.19.24 1.22 1.22 0 0 0-.08.36v.44a1.74 1.74 0 0 0 .09.83zM138.19 1l-.12 1.29a.9.9 0 0 1 .43-.29 1.72 1.72 0 0 1 .62-.1 1.32 1.32 0 0 1 .68.16 1.19 1.19 0 0 1 .42.41 1.76 1.76 0 0 1 .22.58 3.37 3.37 0 0 1 .06.66 4.19 4.19 0 0 1-.08.86 1.67 1.67 0 0 1-.28.66 1.25 1.25 0 0 1-.56.42 2.48 2.48 0 0 1-.9.14 2.19 2.19 0 0 1-.87-.14 1.22 1.22 0 0 1-.51-.38 1.32 1.32 0 0 1-.24-.51 2.44 2.44 0 0 1-.06-.56V4h1.1v.3a1 1 0 0 0 .08.3.6.6 0 0 0 .17.23.45.45 0 0 0 .3.09.55.55 0 0 0 .52-.28 1.73 1.73 0 0 0 .16-.83 4.45 4.45 0 0 0 0-.58 1.07 1.07 0 0 0-.11-.37.43.43 0 0 0-.2-.19.81.81 0 0 0-.32-.06.5.5 0 0 0-.38.14.67.67 0 0 0-.16.38h-1l.21-3.08h3V1zm5.14 2.82h-2.26v-.94h2.26zm1.81-2.16H144V.91h.1a1.66 1.66 0 0 0 .9-.21 1 1 0 0 0 .42-.7h.85v5.66h-1.15zm2.73 1.48a1.05 1.05 0 0 1 .72-.48 1 1 0 0 1-.39-.18 1 1 0 0 1-.39-.59 1.37 1.37 0 0 1 0-.32 1.46 1.46 0 0 1 .44-1.2 2.22 2.22 0 0 1 2.44 0 1.46 1.46 0 0 1 .44 1.2 1.27 1.27 0 0 1 0 .32 1.15 1.15 0 0 1-.14.32 1.06 1.06 0 0 1-.25.27 1 1 0 0 1-.38.18 1.05 1.05 0 0 1 .72.48 1.7 1.7 0 0 1 .24.92 2.75 2.75 0 0 1-.06.54 1.36 1.36 0 0 1-.25.55 1.41 1.41 0 0 1-.55.42 2.76 2.76 0 0 1-1.9 0 1.41 1.41 0 0 1-.55-.42 1.35 1.35 0 0 1-.25-.55 2.74 2.74 0 0 1-.06-.54 1.7 1.7 0 0 1 .17-.92zm.94 1.28a.89.89 0 0 0 .1.31.57.57 0 0 0 .2.21.72.72 0 0 0 .64 0 .57.57 0 0 0 .2-.21.89.89 0 0 0 .1-.31 2.59 2.59 0 0 0 0-.76.88.88 0 0 0-.1-.31.57.57 0 0 0-.2-.21.71.71 0 0 0-.64 0 .57.57 0 0 0-.2.21.88.88 0 0 0-.1.31 2.63 2.63 0 0 0 0 .76zm.22-2.3a.53.53 0 0 0 .82 0 1 1 0 0 0 .15-.6c0-.52-.19-.78-.56-.78s-.56.26-.56.78a1 1 0 0 0 .12.61zm3.82 3.34a3.48 3.48 0 0 1 0 .56 1.27 1.27 0 0 1-.16.46 1 1 0 0 1-.32.32 1.25 1.25 0 0 1-.52.16V6.4a.44.44 0 0 0 .31-.22.82.82 0 0 0 .1-.41v-.1h-.42V4.42h1.06zm.78-2.32a1.05 1.05 0 0 1 .72-.48 1 1 0 0 1-.39-.18 1 1 0 0 1-.39-.59 1.37 1.37 0 0 1 0-.32 1.46 1.46 0 0 1 .43-1.2 2.22 2.22 0 0 1 2.44 0 1.46 1.46 0 0 1 .44 1.2 1.27 1.27 0 0 1 0 .32 1.15 1.15 0 0 1-.14.32 1.06 1.06 0 0 1-.25.27 1 1 0 0 1-.38.18 1.05 1.05 0 0 1 .72.48 1.7 1.7 0 0 1 .24.92 2.74 2.74 0 0 1-.06.54 1.35 1.35 0 0 1-.25.55 1.41 1.41 0 0 1-.55.42 2.76 2.76 0 0 1-1.9 0 1.41 1.41 0 0 1-.55-.42 1.36 1.36 0 0 1-.25-.55 2.75 2.75 0 0 1-.06-.54 1.7 1.7 0 0 1 .18-.92zm.94 1.28a.89.89 0 0 0 .1.31.57.57 0 0 0 .2.21.72.72 0 0 0 .64 0 .57.57 0 0 0 .2-.21.89.89 0 0 0 .1-.31 2.6 2.6 0 0 0 0-.76.88.88 0 0 0-.1-.31.57.57 0 0 0-.2-.21.71.71 0 0 0-.64 0 .57.57 0 0 0-.2.21.89.89 0 0 0-.1.31 2.64 2.64 0 0 0 0 .76zm.22-2.3a.53.53 0 0 0 .82 0 1 1 0 0 0 .15-.6c0-.52-.19-.78-.56-.78s-.56.26-.56.78a1 1 0 0 0 .15.61zM158.43 1l-.12 1.29a.9.9 0 0 1 .42-.32 1.72 1.72 0 0 1 .62-.1A1.32 1.32 0 0 1 160 2a1.19 1.19 0 0 1 .42.41 1.76 1.76 0 0 1 .22.58 3.38 3.38 0 0 1 .06.66 4.19 4.19 0 0 1-.08.86 1.67 1.67 0 0 1-.28.66 1.25 1.25 0 0 1-.56.42 2.48 2.48 0 0 1-.9.14 2.19 2.19 0 0 1-.87-.14 1.22 1.22 0 0 1-.51-.38 1.32 1.32 0 0 1-.24-.51 2.44 2.44 0 0 1-.06-.52V4h1.1a3 3 0 0 0 0 .3 1 1 0 0 0 .08.3.6.6 0 0 0 .17.23.45.45 0 0 0 .3.09.55.55 0 0 0 .52-.28 1.73 1.73 0 0 0 .16-.83 4.45 4.45 0 0 0 0-.58 1.07 1.07 0 0 0-.11-.37.43.43 0 0 0-.2-.19.81.81 0 0 0-.32-.06.5.5 0 0 0-.38.14.67.67 0 0 0-.16.38h-1l.21-3.08h3V1zm4.82.36h1.58l.67 2.88.67-2.88h1.58v4.3h-1V2.61L166 5.66h-1l-.76-3.06v3.06h-1zm6.35 4.3h-1.06V4.42h1.06z"/></g></g></svg>