<svg xmlns="http://www.w3.org/2000/svg" viewBox="0 0 249.27 50.11"><defs><style>.cls-1{fill:#253678}.cls-2{fill:#f6ad15}</style></defs><title>8302</title><g id="Слой_2" data-name="Слой 2"><g id="Слой_1-2" data-name="Слой 1"><path class="cls-1" d="M35.58 13.39H0v5.54h4.45v2.77h2.28v-2.77h28.85v12.82h5.54V13.39h-5.54zm172.7 18.81a8.7 8.7 0 1 0 8.7 8.7 8.71 8.71 0 0 0-8.7-8.7zm0 14.71a6 6 0 1 1 6-6 6 6 0 0 1-6 6z"/><circle class="cls-1" cx="208.28" cy="40.9" r="1.75"/><path class="cls-1" d="M208.28 43.2a2.3 2.3 0 1 1 2.3-2.3 2.3 2.3 0 0 1-2.3 2.3zm-22.12-10.49a8.7 8.7 0 1 0 8.7 8.7 8.71 8.71 0 0 0-8.7-8.7zm0 14.71a6 6 0 1 1 6-6 6 6 0 0 1-6 5.99z"/><circle class="cls-1" cx="186.16" cy="41.41" r="1.75"/><path class="cls-1" d="M186.16 43.71a2.3 2.3 0 1 1 2.3-2.3 2.3 2.3 0 0 1-2.3 2.3zM164 32.2a8.7 8.7 0 1 0 8.7 8.7 8.71 8.71 0 0 0-8.7-8.7zm0 14.71a6 6 0 1 1 6-6 6 6 0 0 1-6 6z"/><circle class="cls-1" cx="164.04" cy="40.9" r="1.75"/><path class="cls-1" d="M164 43.2a2.3 2.3 0 1 1 2.3-2.3 2.3 2.3 0 0 1-2.3 2.3z"/><path class="cls-1" d="M249.27 41.65l-24.85-12.39-188.72-.4v5.77H152v9.73h2.54v-3.45a9.76 9.76 0 1 1 19.52 0v3.28h2.53v-2.78a9.76 9.76 0 1 1 19.52 0v2.79h2.53v-3.3a9.76 9.76 0 1 1 19.52 0v3.45h2.27v-2.7z"/><path class="cls-2" d="M40.27 5.47h1v7.99h-1zm183.34.19h1v23.52h-1z"/><path class="cls-2" transform="rotate(-89.9 132.683 8.252)" d="M132.18-83.18h1V99.68h-1z"/><path class="cls-2" d="M46.95 9.29l-6.5-1.16 6.52-1.76-.02 2.92zm170.66.25l6.5-1.16-6.52-1.76.02 2.92zm-97.54-7.88h-1.13V.91h.1A1.65 1.65 0 0 0 120 .7a1 1 0 0 0 .42-.7h.85v5.66h-1.15zm3.84 0h-1.13V.91h.1a1.65 1.65 0 0 0 .91-.22 1 1 0 0 0 .42-.7h.85v5.67h-1.15zm4.67-.3h1.58l.67 2.88.67-2.88h1.58v4.3h-1V2.61l-.76 3.06h-.91l-.76-3.06v3.05h-1zm6.35 4.3h-1.06V4.42h1.06z"/></g></g></svg>