<svg xmlns="http://www.w3.org/2000/svg" xmlns:xlink="http://www.w3.org/1999/xlink" viewBox="0 0 296.59177 48.30077" height="51.521" width="316.365"><path d="M44.473 9.902H0v6.929h5.566v3.467h2.842V16.83h36.065v16.03h6.933V9.902zm0 0M260.352 44.307a7.508 7.508 0 1 1-.004-15.017 7.508 7.508 0 0 1 .004 15.017m0-18.384c-6.001 0-10.88 4.878-10.88 10.879 0 5.996 4.879 10.874 10.88 10.874 5.996 0 10.874-4.878 10.874-10.874 0-6.001-4.878-10.88-10.874-10.88" fill="#303d7a"/><path d="M262.544 36.797c0 1.21-.982 2.192-2.192 2.192a2.196 2.196 0 0 1-2.198-2.192c0-1.211.987-2.193 2.198-2.193 1.21 0 2.192.982 2.192 2.193" fill="#303d7a"/><path d="M260.352 39.673a2.877 2.877 0 0 1-2.876-2.871c0-1.587 1.289-2.881 2.876-2.881a2.876 2.876 0 1 1 0 5.752M232.7 44.937a7.512 7.512 0 0 1-7.51-7.51 7.512 7.512 0 0 1 7.51-7.51 7.508 7.508 0 0 1 7.505 7.51c0 4.145-3.36 7.51-7.505 7.51m0-18.39c-5.996 0-10.874 4.879-10.874 10.88 0 5.996 4.878 10.874 10.874 10.874s10.874-4.878 10.874-10.874c0-6.001-4.878-10.88-10.874-10.88" fill="#303d7a"/><path d="M234.893 37.427a2.192 2.192 0 1 1-4.385 0 2.192 2.192 0 0 1 4.385 0" fill="#303d7a"/><path d="M232.7 40.298a2.877 2.877 0 0 1-2.876-2.871 2.874 2.874 0 1 1 2.876 2.871M205.049 44.307a7.507 7.507 0 0 1-7.505-7.505c0-4.15 3.36-7.51 7.505-7.51a7.508 7.508 0 0 1 0 15.015m0-18.384c-5.996 0-10.874 4.878-10.874 10.879 0 5.996 4.878 10.874 10.874 10.874s10.879-4.878 10.879-10.874c0-6.001-4.883-10.88-10.88-10.88" fill="#303d7a"/><path d="M207.246 36.797c0 1.21-.986 2.192-2.197 2.192a2.192 2.192 0 1 1 0-4.385c1.21 0 2.197.982 2.197 2.193" fill="#303d7a"/><path d="M205.049 39.673a2.876 2.876 0 0 1 0-5.752 2.882 2.882 0 0 1 2.876 2.88 2.877 2.877 0 0 1-2.876 2.872" fill="#303d7a"/><path d="M296.592 37.725L280.527 22.24H44.443l.064 18.877h148.628v-3.374h.049c-.025-.312-.05-.63-.05-.947 0-6.748 5.474-12.236 12.203-12.236 6.724 0 12.197 5.488 12.197 12.236 0 .317-.024.63-.049.942h.05v3.17h3.163v-3.17h.015c0-.107-.015-.21-.015-.312 0-6.748 5.474-12.237 12.202-12.237 6.724 0 12.198 5.489 12.198 12.237 0 .102-.015.205-.015.307h.015v3.174h3.164v-3.174h.049c-.025-.312-.05-.62-.05-.937 0-6.748 5.474-12.236 12.203-12.236 6.723 0 12.197 5.488 12.197 12.236 0 .317-.024.625-.044.932h.044v3.39h2.837v-3.39zm0 0" fill="#303d7a"/><path d="M50.967 0v9.995M280.146.249v21.895M51.572 3.271l228.574.416" fill="none" stroke="#f5ae23" stroke-width="1.25" stroke-miterlimit="10"/><path d="M58.691 4.78l-8.13-1.455 8.155-2.192zm0 0M272.017 5.093l8.13-1.455-8.155-2.193zm0 0" fill="#f5ae23"/><g transform="matrix(1.25 0 0 1.25 -137.54 -282.383)" fill="#f5ae23"><use xlink:href="#glyph0-1" x="228.647" y="226.105" width="100%" height="100%"/><use xlink:href="#glyph0-1" x="232.487" y="226.105" width="100%" height="100%"/><use xlink:href="#glyph0-4" x="236.327" y="226.105" width="100%" height="100%"/><use xlink:href="#glyph0-5" x="238.247" y="226.105" width="100%" height="100%"/><use xlink:href="#glyph0-6" x="243.478" y="226.105" width="100%" height="100%"/></g></svg>