<svg xmlns="http://www.w3.org/2000/svg" viewBox="0 0 249.27 50.11"><title>8302</title><g id="d28d8737-aef9-454c-97b8-5a233c2e7cf9" data-name="Слой 2"><g id="9d9d672a-be88-4ea1-aae8-6972618cae15" data-name="Слой 1"><polygon points="35.58 13.39 0 13.39 0 18.93 4.45 18.93 4.45 21.7 6.73 21.7 6.73 18.93 35.58 18.93 35.58 31.75 41.12 31.75 41.12 18.93 41.12 13.39 35.58 13.39" fill="#253678"/><path d="M208.28,32.2a8.7,8.7,0,1,0,8.7,8.7A8.71,8.71,0,0,0,208.28,32.2Zm0,14.71a6,6,0,1,1,6-6A6,6,0,0,1,208.28,46.91Z" fill="#253678"/><circle cx="208.28" cy="40.9" r="1.75" fill="#253678"/><path d="M208.28,43.2a2.3,2.3,0,1,1,2.3-2.3A2.3,2.3,0,0,1,208.28,43.2Z" fill="#253678"/><path d="M186.16,32.71a8.7,8.7,0,1,0,8.7,8.7A8.71,8.71,0,0,0,186.16,32.71Zm0,14.71a6,6,0,1,1,6-6A6,6,0,0,1,186.16,47.41Z" fill="#253678"/><circle cx="186.16" cy="41.41" r="1.75" fill="#253678"/><path d="M186.16,43.71a2.3,2.3,0,1,1,2.3-2.3A2.3,2.3,0,0,1,186.16,43.71Z" fill="#253678"/><path d="M164,32.2a8.7,8.7,0,1,0,8.7,8.7A8.71,8.71,0,0,0,164,32.2Zm0,14.71a6,6,0,1,1,6-6A6,6,0,0,1,164,46.91Z" fill="#253678"/><circle cx="164.04" cy="40.9" r="1.75" fill="#253678"/><path d="M164,43.2a2.3,2.3,0,1,1,2.3-2.3A2.3,2.3,0,0,1,164,43.2Z" fill="#253678"/><path d="M249.27,41.65,224.42,29.26,35.7,28.86v5.77H152l0,9.73h2.54v-2.7h0c0-.25,0-.5,0-.75a9.76,9.76,0,1,1,19.52,0c0,.25,0,.5,0,.75h0v2.53h2.53V41.66h0c0-.08,0-.16,0-.25a9.76,9.76,0,1,1,19.52,0c0,.08,0,.16,0,.25h0v2.54h2.53V41.65h0c0-.25,0-.5,0-.75a9.76,9.76,0,1,1,19.52,0c0,.25,0,.5,0,.74h0v2.71h2.27V41.65Z" fill="#253678"/><rect x="40.27" y="5.47" width="1" height="7.99" fill="#f6ad15"/><rect x="223.61" y="5.66" width="1" height="23.52" fill="#f6ad15"/><rect x="132.18" y="-83.18" width="1" height="182.86" transform="translate(124.2 140.92) rotate(-89.9)" fill="#f6ad15"/><polygon points="46.95 9.29 40.45 8.13 46.97 6.37 46.95 9.29" fill="#f6ad15"/><polygon points="217.61 9.54 224.11 8.38 217.59 6.62 217.61 9.54" fill="#f6ad15"/><path d="M120.07,1.66h-1.13V.91h.1A1.65,1.65,0,0,0,120,.7a1,1,0,0,0,.42-.7h.85V5.66h-1.15Z" fill="#f6ad15"/><path d="M123.91,1.66h-1.13V.91h.1a1.65,1.65,0,0,0,.91-.22,1,1,0,0,0,.42-.7h.85V5.66h-1.15Z" fill="#f6ad15"/><path d="M128.58,1.36h1.58l.67,2.88.67-2.88h1.58v4.3h-1V2.61l-.76,3.06h-.91l-.76-3.06V5.66h-1Z" fill="#f6ad15"/><path d="M134.93,5.66h-1.06V4.42h1.06Z" fill="#f6ad15"/></g></g></svg>