<svg xmlns="http://www.w3.org/2000/svg" viewBox="0 0 236.21 44.69"><title>1212</title><g id="cf0d7dba-d931-4aa6-911e-d379fc537563" data-name="Слой 2"><g id="7af8545e-3072-4a95-9c7b-c4ac0f9c9e52" data-name="Слой 1"><rect x="235.21" y="6.22" width="1" height="32.08" fill="#f6ad15"/><polygon points="35.58 13.97 0 13.97 0 19.51 4.45 19.51 4.45 22.29 6.73 22.29 6.73 19.51 35.58 19.51 35.58 32 41.12 32 41.12 19.51 41.12 13.97 35.58 13.97" fill="#253678"/><path d="M102.79,35.48a15.23,15.23,0,0,1,.68-4.57H63.58v5.54h38.24C101.79,36.14,102.79,35.81,102.79,35.48Z" fill="#253678"/><path d="M189.86,35.5c0-1.65,2.17-3.2,2.47-4.57h-47.4l1,5.54h43.95C189.87,36.15,189.86,35.83,189.86,35.5Z" fill="#253678"/><path d="M125.38,36.35c0-.16,0-.31,0-.47a9.71,9.71,0,0,1,1.43-5.07h-5.11a9.7,9.7,0,0,1,1.09,5.54Z" fill="#253678"/><path d="M135.14,27.17a8.72,8.72,0,0,0-8.52,6.95l1.51-.09a7.27,7.27,0,0,1,14.07.43c.51,0,1,1.1,1.54,1.15C143.12,31.41,139.51,27.17,135.14,27.17Z" fill="#253678"/><path d="M135.14,27.17a8.7,8.7,0,1,0,8.7,8.7A8.71,8.71,0,0,0,135.14,27.17Zm0,14.71a6,6,0,1,1,6-6A6,6,0,0,1,135.14,41.88Z" fill="#253678"/><circle cx="135.14" cy="35.87" r="1.75" fill="#253678"/><path d="M135.14,38.17a2.3,2.3,0,1,1,2.3-2.3A2.3,2.3,0,0,1,135.14,38.17Z" fill="#253678"/><path d="M113,26.67c-4.12,0-7.58,3.89-8.47,7.75.5,0,1-1.07,1.49-1.09a7.27,7.27,0,0,1,14.07.43l1.48.15A8.71,8.71,0,0,0,113,26.67Z" fill="#253678"/><path d="M113,26.67a8.7,8.7,0,1,0,8.7,8.7A8.71,8.71,0,0,0,113,26.67Zm0,14.71a6,6,0,1,1,6-6A6,6,0,0,1,113,41.38Z" fill="#253678"/><circle cx="113.02" cy="35.37" r="1.75" fill="#253678"/><path d="M113,37.67a2.3,2.3,0,1,1,2.3-2.3A2.3,2.3,0,0,1,113,37.67Z" fill="#253678"/><path d="M113,23.07a12.32,12.32,0,0,0-12.19,10.66v5.1h2.4l.19-5.34a9.78,9.78,0,0,1,19.29.53l2.57.25A12.32,12.32,0,0,0,113,23.07Z" fill="#253678"/><rect x="122.81" y="33.12" width="2.54" height="5.54" fill="#253678"/><path d="M147.37,35a12.3,12.3,0,0,0-24.44-.54q1.29-.15,2.59-.24a9.78,9.78,0,0,1,19.35.53l.07,3.94h2.54Z" fill="#253678"/><path d="M214.1,36.46c0-.16,0-.31,0-.47a9.72,9.72,0,0,1,1.43-5.07H210.4a9.71,9.71,0,0,1,1.14,4.57c0,.33,0,.65,0,1Z" fill="#253678"/><path d="M223.87,26.2a9.8,9.8,0,0,1,9.72,8.63l2.51.25a12.3,12.3,0,0,0-24.44-.54q1.29-.15,2.59-.24A9.8,9.8,0,0,1,223.87,26.2Z" fill="#253678"/><path d="M223.87,27.29a8.71,8.71,0,0,0-8.52,6.95l1.51-.09a7.27,7.27,0,0,1,14.07.43l1.54.15A8.71,8.71,0,0,0,223.87,27.29Z" fill="#253678"/><path d="M223.87,27.29a8.7,8.7,0,1,0,8.7,8.7A8.71,8.71,0,0,0,223.87,27.29Zm0,14.71a6,6,0,1,1,6-6A6,6,0,0,1,223.87,42Z" fill="#253678"/><circle cx="223.87" cy="35.99" r="1.75" fill="#253678"/><path d="M223.87,38.29a2.3,2.3,0,1,1,2.3-2.3A2.3,2.3,0,0,1,223.87,38.29Z" fill="#253678"/><path d="M201.75,26.78a8.71,8.71,0,0,0-8.47,6.75l1.49-.09a7.27,7.27,0,0,1,14.07.43l1.48.15A8.71,8.71,0,0,0,201.75,26.78Z" fill="#253678"/><path d="M201.75,26.78a8.7,8.7,0,1,0,8.7,8.7A8.71,8.71,0,0,0,201.75,26.78Zm0,14.71a6,6,0,1,1,6-6A6,6,0,0,1,201.75,41.49Z" fill="#253678"/><circle cx="201.75" cy="35.48" r="1.75" fill="#253678"/><path d="M201.75,37.78a2.3,2.3,0,1,1,2.3-2.3A2.3,2.3,0,0,1,201.75,37.78Z" fill="#253678"/><path d="M201.75,23.18a12.32,12.32,0,0,0-12.19,10.66l.13,5.1H192l.19-5.34a9.78,9.78,0,0,1,19.29.53l2.57.25A12.32,12.32,0,0,0,201.75,23.18Z" fill="#253678"/><rect x="211.54" y="33.23" width="2.54" height="5.54" fill="#253678"/><polygon points="235.21 33.23 236.09 35.08 236.19 38.77 233.66 38.77 233.58 34.83 235.21 33.23" fill="#253678"/><rect x="60.23" y="30.96" width="2.27" height="5.54" fill="#253678"/><rect x="35.48" y="30.96" width="20.71" height="5.54" fill="#253678"/><rect x="57.04" y="30.96" width="2.28" height="5.54" fill="#253678"/><rect x="39.86" y="6.02" width="1" height="7.99" fill="#f6ad15"/><rect x="137.78" y="-88.63" width="1" height="194.86" transform="translate(129.24 147.06) rotate(-89.9)" fill="#f6ad15"/><polygon points="46.54 9.84 40.04 8.68 46.56 6.92 46.54 9.84" fill="#f6ad15"/><polygon points="229.2 10.09 235.71 8.93 229.18 7.17 229.2 10.09" fill="#f6ad15"/><path d="M121.68,5.15a.47.47,0,0,0,.43.19.62.62,0,0,0,.39-.12.75.75,0,0,0,.22-.32,1.75,1.75,0,0,0,.11-.48c0-.19,0-.39,0-.61V3.52h0a1.1,1.1,0,0,1-.44.37,1.56,1.56,0,0,1-.69.14,1.5,1.5,0,0,1-.68-.14,1.19,1.19,0,0,1-.46-.39,1.72,1.72,0,0,1-.26-.59,3.3,3.3,0,0,1-.08-.75,2.43,2.43,0,0,1,.46-1.6A1.83,1.83,0,0,1,122.18,0a1.88,1.88,0,0,1,1,.23,1.58,1.58,0,0,1,.57.62,2.59,2.59,0,0,1,.26.9,9.08,9.08,0,0,1,.06,1.06c0,.43,0,.85,0,1.25a3.3,3.3,0,0,1-.23,1.06,1.57,1.57,0,0,1-.6.73,2.11,2.11,0,0,1-1.15.27,3.05,3.05,0,0,1-.62-.06,1.31,1.31,0,0,1-.53-.24,1.25,1.25,0,0,1-.37-.47,1.75,1.75,0,0,1-.15-.73h1.17A1,1,0,0,0,121.68,5.15Zm-.06-2.28a.54.54,0,0,0,.51.26.55.55,0,0,0,.52-.26,1.85,1.85,0,0,0,.15-.88,4.14,4.14,0,0,0,0-.48,1.26,1.26,0,0,0-.1-.38.58.58,0,0,0-.2-.25.6.6,0,0,0-.34-.09.62.62,0,0,0-.35.09.55.55,0,0,0-.2.25,1.3,1.3,0,0,0-.09.38c0,.14,0,.3,0,.47A1.85,1.85,0,0,0,121.61,2.87Z" fill="#f6ad15"/><path d="M125.78,5.8a3.74,3.74,0,0,1,0,.6,1.36,1.36,0,0,1-.17.49,1,1,0,0,1-.34.34,1.33,1.33,0,0,1-.56.17V6.8a.47.47,0,0,0,.33-.24.87.87,0,0,0,.11-.43V6h-.44V4.69h1.12Z" fill="#f6ad15"/><path d="M127.63,1.07l-.13,1.37h0A1,1,0,0,1,128,2.1a1.82,1.82,0,0,1,.66-.11,1.41,1.41,0,0,1,.72.17,1.26,1.26,0,0,1,.45.44,1.86,1.86,0,0,1,.23.62,3.62,3.62,0,0,1,.07.7,4.46,4.46,0,0,1-.08.91,1.77,1.77,0,0,1-.3.7,1.32,1.32,0,0,1-.59.44,2.59,2.59,0,0,1-1,.15,2.35,2.35,0,0,1-.92-.15,1.3,1.3,0,0,1-.54-.4,1.4,1.4,0,0,1-.25-.54,2.59,2.59,0,0,1-.06-.55V4.3h1.17c0,.1,0,.21,0,.32a1.07,1.07,0,0,0,.08.32.65.65,0,0,0,.18.25.48.48,0,0,0,.31.1.58.58,0,0,0,.55-.29,1.84,1.84,0,0,0,.17-.88,4.71,4.71,0,0,0,0-.62,1.13,1.13,0,0,0-.11-.39.46.46,0,0,0-.22-.21.86.86,0,0,0-.34-.06.53.53,0,0,0-.4.15.71.71,0,0,0-.17.4h-1.1l.22-3.28h3.14v1Z" fill="#f6ad15"/><path d="M133.09,4.07h-2.4v-1h2.4Z" fill="#f6ad15"/><path d="M135,1.77h-1.2V1h.11a1.75,1.75,0,0,0,1-.23,1.06,1.06,0,0,0,.45-.74h.9V6H135Z" fill="#f6ad15"/><path d="M138.94,1.07l-.13,1.37h0a1,1,0,0,1,.44-.34,1.82,1.82,0,0,1,.66-.11,1.41,1.41,0,0,1,.72.17,1.26,1.26,0,0,1,.45.44,1.87,1.87,0,0,1,.23.62,3.62,3.62,0,0,1,.07.7,4.47,4.47,0,0,1-.08.91,1.77,1.77,0,0,1-.3.7,1.32,1.32,0,0,1-.59.44,2.59,2.59,0,0,1-1,.15,2.36,2.36,0,0,1-.92-.15,1.3,1.3,0,0,1-.54-.4,1.4,1.4,0,0,1-.25-.54,2.58,2.58,0,0,1-.06-.55V4.3h1.17c0,.1,0,.21,0,.32a1.07,1.07,0,0,0,.08.32.65.65,0,0,0,.18.25.48.48,0,0,0,.31.1A.58.58,0,0,0,140,5a1.84,1.84,0,0,0,.17-.88,4.71,4.71,0,0,0,0-.62A1.13,1.13,0,0,0,140,3.1a.46.46,0,0,0-.22-.21.86.86,0,0,0-.34-.06.53.53,0,0,0-.4.15.71.71,0,0,0-.17.4h-1.1L138,.12h3.14v1Z" fill="#f6ad15"/><path d="M143.21,5.8a3.75,3.75,0,0,1,0,.6,1.36,1.36,0,0,1-.17.49,1,1,0,0,1-.34.34,1.33,1.33,0,0,1-.56.17V6.8a.47.47,0,0,0,.33-.24.87.87,0,0,0,.11-.43V6h-.44V4.69h1.12Z" fill="#f6ad15"/><path d="M145.07,1.07l-.13,1.37h0a1,1,0,0,1,.44-.34,1.82,1.82,0,0,1,.66-.11,1.41,1.41,0,0,1,.72.17,1.26,1.26,0,0,1,.45.44,1.86,1.86,0,0,1,.23.62,3.62,3.62,0,0,1,.07.7,4.46,4.46,0,0,1-.08.91,1.77,1.77,0,0,1-.3.7,1.32,1.32,0,0,1-.59.44,2.59,2.59,0,0,1-1,.15,2.36,2.36,0,0,1-.92-.15,1.3,1.3,0,0,1-.54-.4,1.4,1.4,0,0,1-.25-.54,2.58,2.58,0,0,1-.06-.55V4.3H145c0,.1,0,.21,0,.32a1.07,1.07,0,0,0,.08.32.65.65,0,0,0,.18.25.48.48,0,0,0,.31.1.58.58,0,0,0,.55-.29,1.84,1.84,0,0,0,.17-.88,4.73,4.73,0,0,0,0-.62,1.13,1.13,0,0,0-.11-.39.46.46,0,0,0-.22-.21.86.86,0,0,0-.34-.06.53.53,0,0,0-.4.15.71.71,0,0,0-.17.4h-1.1l.22-3.28h3.14v1Z" fill="#f6ad15"/><path d="M150.19,1.45h1.68l.71,3.06.71-3.06H155V6h-1.1V2.77L153.06,6h-1l-.81-3.25V6h-1.1Z" fill="#f6ad15"/><path d="M156.94,6h-1.12V4.69h1.12Z" fill="#f6ad15"/><rect x="144.24" y="25.12" width="4.88" height="1.33" fill="#f6ad15"/><rect x="151.5" y="25.12" width="4.88" height="1.33" fill="#f6ad15"/><rect x="158.76" y="25.12" width="4.88" height="1.33" fill="#f6ad15"/><rect x="166.02" y="25.12" width="4.87" height="1.33" fill="#f6ad15"/><rect x="173.29" y="25.12" width="4.88" height="1.33" fill="#f6ad15"/><rect x="180.55" y="25.12" width="4.88" height="1.33" fill="#f6ad15"/><rect x="187.81" y="25.12" width="4.87" height="1.33" fill="#f6ad15"/><rect x="56.45" y="25.12" width="4.82" height="1.33" fill="#f6ad15"/><rect x="63.63" y="25.12" width="4.82" height="1.33" fill="#f6ad15"/><rect x="41.49" y="25.12" width="4.82" height="1.33" fill="#f6ad15"/><rect x="48.67" y="25.12" width="4.82" height="1.33" fill="#f6ad15"/><rect x="70.8" y="25.12" width="4.82" height="1.33" fill="#f6ad15"/><rect x="77.98" y="25.12" width="4.82" height="1.33" fill="#f6ad15"/><rect x="85.15" y="25.12" width="4.82" height="1.33" fill="#f6ad15"/><rect x="92.33" y="25.12" width="4.82" height="1.33" fill="#f6ad15"/><rect x="99.5" y="25.12" width="4.82" height="1.33" fill="#f6ad15"/></g></g></svg>