<svg xmlns="http://www.w3.org/2000/svg" viewBox="0 0 236.21 45.37"><defs><style>.cls-1{fill:#f6ad15}.cls-2{fill:#253678}</style></defs><title>1212</title><g id="Слой_2" data-name="Слой 2"><g id="Слой_1-2" data-name="Слой 1"><path class="cls-1" d="M235.21 6.02h1V38.1h-1z"/><g id="_1" data-name="1"><path class="cls-2" d="M35.58 13.77H0v5.54h4.45v2.77h2.28v-2.77h28.85V31.8h5.54V13.77h-5.54z"/><path class="cls-2" d="M102.79 31.28c0-1.65 3.25-3.2 3.68-4.57H35.58v5.54h66.24c-.03-.31.97-.64.97-.97zm87.07 4.02c0-1.65 2.17-3.2 2.47-4.57h-47.4l1 5.54h43.95c-.01-.27-.02-.64-.02-.97zm-64.48 1.84v-.47a9.71 9.71 0 0 1 1.43-5.07h-5.11a9.7 9.7 0 0 1 1.09 5.54zm9.76-9.14a8.72 8.72 0 0 0-8.52 6.95l1.51-.09a7.27 7.27 0 0 1 14.07.43l1.54.15a8.71 8.71 0 0 0-8.6-7.44z"/><path class="cls-2" d="M135.14 28a8.7 8.7 0 1 0 8.7 8.7 8.71 8.71 0 0 0-8.7-8.7zm0 14.71a6 6 0 1 1 6-6 6 6 0 0 1-6 5.97z"/><circle class="cls-2" cx="135.14" cy="36.67" r="1.75"/><path class="cls-2" d="M135.14 39a2.3 2.3 0 1 1 2.3-2.3 2.3 2.3 0 0 1-2.3 2.3zM113 27.47a8.71 8.71 0 0 0-8.47 6.75l1.49-.09a7.27 7.27 0 0 1 14.07.43l1.48.15a8.71 8.71 0 0 0-8.57-7.24z"/><path class="cls-2" d="M113 27.47a8.7 8.7 0 1 0 8.7 8.7 8.71 8.71 0 0 0-8.7-8.7zm0 14.71a6 6 0 1 1 6-6 6 6 0 0 1-6 5.99z"/><circle class="cls-2" cx="113.02" cy="36.17" r="1.75"/><path class="cls-2" d="M113 38.47a2.3 2.3 0 1 1 2.3-2.3 2.3 2.3 0 0 1-2.3 2.3z"/><path class="cls-2" d="M113 23.87a12.32 12.32 0 0 0-12.19 10.66v5.1h2.4l.19-5.34a9.78 9.78 0 0 1 19.29.53l2.57.25A12.32 12.32 0 0 0 113 23.87z"/><path class="cls-2" d="M122.81 33.91h2.54v5.54h-2.54z"/><path class="cls-2" d="M147.37 35.76a12.3 12.3 0 0 0-24.44-.54q1.29-.15 2.59-.24a9.78 9.78 0 0 1 19.35.53l.07 3.94h2.54zm66.73.5v-.47a9.72 9.72 0 0 1 1.43-5.07h-5.13a9.71 9.71 0 0 1 1.14 4.57v1z"/><path class="cls-2" d="M223.87 26a9.8 9.8 0 0 1 9.72 8.63l2.51.25a12.3 12.3 0 0 0-24.44-.54q1.29-.15 2.59-.24a9.8 9.8 0 0 1 9.62-8.1z"/><path class="cls-2" d="M223.87 27.08a8.71 8.71 0 0 0-8.53 6.92l1.51-.09a7.27 7.27 0 0 1 14.07.43l1.54.15a8.71 8.71 0 0 0-8.59-7.41z"/><path class="cls-2" d="M223.87 27.08a8.7 8.7 0 1 0 8.7 8.7 8.71 8.71 0 0 0-8.7-8.7zm0 14.71a6 6 0 1 1 6-6 6 6 0 0 1-6 6z"/><circle class="cls-2" cx="223.87" cy="35.79" r="1.75"/><path class="cls-2" d="M223.87 38.08a2.3 2.3 0 1 1 2.3-2.3 2.3 2.3 0 0 1-2.3 2.3zm-22.12-11.5a8.71 8.71 0 0 0-8.47 6.75l1.49-.09a7.27 7.27 0 0 1 14.07.43l1.48.15a8.71 8.71 0 0 0-8.57-7.24z"/><path class="cls-2" d="M201.75 26.58a8.7 8.7 0 1 0 8.7 8.7 8.71 8.71 0 0 0-8.7-8.7zm0 14.71a6 6 0 1 1 6-6 6 6 0 0 1-6 6z"/><circle class="cls-2" cx="201.75" cy="35.28" r="1.75"/><path class="cls-2" d="M201.75 37.58a2.3 2.3 0 1 1 2.3-2.3 2.3 2.3 0 0 1-2.3 2.3z"/><path class="cls-2" d="M201.75 23a12.32 12.32 0 0 0-12.19 10.66l.13 5.1H192l.19-5.34a9.78 9.78 0 0 1 19.29.53l2.57.25a12.32 12.32 0 0 0-12.3-11.2z"/><path class="cls-2" d="M211.54 33.03h2.54v5.54h-2.54zm23.67-.01l.88 1.86.1 3.69h-2.53l-.08-3.94 1.63-1.61z"/></g><path class="cls-1" d="M39.86 5.82h1v7.99h-1z"/><path class="cls-1" transform="rotate(-89.9 138.278 8.597)" d="M137.78-88.83h1v194.86h-1z"/><path class="cls-1" d="M46.54 9.64l-6.5-1.16 6.52-1.76-.02 2.92zm182.66.25l6.51-1.16-6.53-1.76.02 2.92zM124.36 1.77h-1.2V1h.11a1.75 1.75 0 0 0 1-.23 1.06 1.06 0 0 0 .45-.74h.9V6h-1.22zm4.02 3.29a.53.53 0 0 0 .53.28.7.7 0 0 0 .35-.08.53.53 0 0 0 .2-.21.85.85 0 0 0 .09-.31 3.16 3.16 0 0 0 0-.37 2.38 2.38 0 0 0 0-.39.94.94 0 0 0-.11-.33.61.61 0 0 0-.24-.23.84.84 0 0 0-.41-.08h-.41v-.8h.4a.61.61 0 0 0 .33-.08.62.62 0 0 0 .21-.21 1 1 0 0 0 .12-.3 1.64 1.64 0 0 0 0-.36 1 1 0 0 0-.14-.61.53.53 0 0 0-.44-.18.62.62 0 0 0-.32.07.48.48 0 0 0-.19.2.9.9 0 0 0-.09.31 3.31 3.31 0 0 0 0 .39h-1.12a1.79 1.79 0 0 1 .46-1.33 1.82 1.82 0 0 1 1.32-.44 2 2 0 0 1 1.28.37 1.43 1.43 0 0 1 .45 1.17 1.51 1.51 0 0 1-.24.89 1.07 1.07 0 0 1-.68.44 1.13 1.13 0 0 1 .83.47 1.72 1.72 0 0 1 .24.95 2.74 2.74 0 0 1-.08.63 1.41 1.41 0 0 1-.3.59 1.56 1.56 0 0 1-.61.42 2.67 2.67 0 0 1-1 .16 1.68 1.68 0 0 1-1.31-.48 1.93 1.93 0 0 1-.43-1.35h1.17a2 2 0 0 0 .14.8zm4.17.73a3.68 3.68 0 0 1 0 .6 1.35 1.35 0 0 1-.17.49 1 1 0 0 1-.34.34 1.33 1.33 0 0 1-.56.17V6.8a.46.46 0 0 0 .33-.24.86.86 0 0 0 .11-.43V6h-.44V4.69h1.12zm1.85-4.72l-.13 1.37a1 1 0 0 1 .44-.34 1.84 1.84 0 0 1 .69-.1 1.41 1.41 0 0 1 .72.17 1.26 1.26 0 0 1 .45.44 1.87 1.87 0 0 1 .23.62 3.63 3.63 0 0 1 .07.7 4.47 4.47 0 0 1-.09.91 1.76 1.76 0 0 1-.3.7 1.33 1.33 0 0 1-.59.44 2.62 2.62 0 0 1-1 .15A2.33 2.33 0 0 1 134 6a1.3 1.3 0 0 1-.54-.4 1.41 1.41 0 0 1-.25-.54 2.59 2.59 0 0 1-.06-.55V4.3h1.17a3.15 3.15 0 0 0 0 .32 1.08 1.08 0 0 0 .08.32.65.65 0 0 0 .18.25.48.48 0 0 0 .31.1.58.58 0 0 0 .55-.29 1.84 1.84 0 0 0 .17-.88 4.69 4.69 0 0 0 0-.62 1.12 1.12 0 0 0-.11-.39.46.46 0 0 0-.22-.21.86.86 0 0 0-.34-.06.53.53 0 0 0-.4.15.7.7 0 0 0-.17.4h-1.1l.22-3.27h3.14v1zm5.46 2.99h-2.4v-1h2.4zm.53 1.94a3.29 3.29 0 0 1 .08-.75 2.73 2.73 0 0 1 .25-.66 3.57 3.57 0 0 1 .42-.62 6.67 6.67 0 0 1 .58-.61l.49-.46a2.67 2.67 0 0 0 .33-.33 1.43 1.43 0 0 0 .19-.31 1.14 1.14 0 0 0 .09-.33 3.48 3.48 0 0 0 0-.41c0-.5-.2-.75-.59-.75a.62.62 0 0 0-.36.09.61.61 0 0 0-.2.25 1.2 1.2 0 0 0-.09.37v.45h-1.17v-.19a1.75 1.75 0 0 1 .45-1.29 1.94 1.94 0 0 1 1.4-.45 1.9 1.9 0 0 1 1.36.42 1.61 1.61 0 0 1 .44 1.22 2.74 2.74 0 0 1-.05.54 2.06 2.06 0 0 1-.16.48 2.2 2.2 0 0 1-.29.45 4.1 4.1 0 0 1-.43.45l-.68.63a2.53 2.53 0 0 0-.42.48 1.4 1.4 0 0 0-.2.4h2.27V6zm4.12-4a3.26 3.26 0 0 1 .23-1 1.62 1.62 0 0 1 .56-.71 1.79 1.79 0 0 1 1-.27 2.3 2.3 0 0 1 .91.16 1.27 1.27 0 0 1 .58.51 2.43 2.43 0 0 1 .31.91 8.72 8.72 0 0 1 .09 1.35v1.21a3.27 3.27 0 0 1-.23 1 1.54 1.54 0 0 1-.56.7 1.86 1.86 0 0 1-1 .26 2.5 2.5 0 0 1-.91-.14 1.19 1.19 0 0 1-.58-.49 2.45 2.45 0 0 1-.31-.91 8.72 8.72 0 0 1-.09-1.36q-.04-.64 0-1.22zm1.21 2.4a2.23 2.23 0 0 0 .11.57.53.53 0 0 0 .2.29.62.62 0 0 0 .32.08.53.53 0 0 0 .33-.1.64.64 0 0 0 .2-.33 2.93 2.93 0 0 0 .1-.62V1.73a2.27 2.27 0 0 0-.11-.57.53.53 0 0 0-.2-.28.62.62 0 0 0-.32-.08.53.53 0 0 0-.33.1.64.64 0 0 0-.2.33 2.94 2.94 0 0 0-.1.62V3.5c-.03.35-.02.66 0 .91zm5.1-2.96h1.67l.71 3.06.71-3.06h1.67V6h-1.1V2.77L153.69 6h-1l-.81-3.25V6h-1.1zM157.57 6h-1.12V4.69h1.12z"/></g></g></svg>