<svg xmlns="http://www.w3.org/2000/svg" viewBox="0 0 284.25 50.25"><defs><style>.cls-1{fill:#253678}.cls-2{fill:#fff}.cls-3{fill:#f6ad15}</style></defs><title>4693</title><g id="Слой_2" data-name="Слой 2"><g id="Слой_1-2" data-name="Слой 1"><path class="cls-1" d="M35.58 13.53h5.54v18.03h-5.54z"/><path class="cls-1" d="M0 13.53h41.12v5.54H0z"/><path class="cls-1" d="M4.45 16.31h2.28v5.54H4.45zM181.86 41a8.7 8.7 0 1 0-17.4 0v.4h17.36c.03-.09.04-.22.04-.4zm57.66-8.65a8.7 8.7 0 1 0 8.7 8.7 8.71 8.71 0 0 0-8.7-8.7zm0 14.71a6 6 0 1 1 6-6 6 6 0 0 1-6 6z"/><circle class="cls-1" cx="239.52" cy="41.05" r="1.75"/><path class="cls-1" d="M239.52 43.35a2.3 2.3 0 1 1 2.3-2.3 2.3 2.3 0 0 1-2.3 2.3zm-22.12-10.5a8.7 8.7 0 1 0 8.7 8.7 8.71 8.71 0 0 0-8.7-8.7zm0 14.71a6 6 0 1 1 6-6 6 6 0 0 1-6 6z"/><circle class="cls-1" cx="217.4" cy="41.55" r="1.75"/><path class="cls-1" d="M217.4 43.85a2.3 2.3 0 1 1 2.3-2.3 2.3 2.3 0 0 1-2.3 2.3zm-22.12-11.5A8.7 8.7 0 1 0 204 41a8.71 8.71 0 0 0-8.72-8.65zm0 14.71a6 6 0 1 1 6-6 6 6 0 0 1-6 6z"/><circle class="cls-1" cx="195.28" cy="41.05" r="1.75"/><path class="cls-1" d="M195.28 43.35a2.3 2.3 0 1 1 2.3-2.3 2.3 2.3 0 0 1-2.3 2.3zm-12.33-4.39h2.54v5.55h-2.54zm66.36 0h2.57v5.55h-2.57zm12.33-6.61a8.7 8.7 0 1 0 8.7 8.7 8.71 8.71 0 0 0-8.7-8.7zm0 14.71a6 6 0 1 1 6-6 6 6 0 0 1-6 6z"/><circle class="cls-1" cx="261.64" cy="41.05" r="1.75"/><path class="cls-1" d="M261.64 43.35a2.3 2.3 0 1 1 2.3-2.3 2.3 2.3 0 0 1-2.3 2.3zm9.79-4.39h2.27v5.55h-2.27zm-66.36-.17h2.54v5.54h-2.54zm-31.91-6.44a8.7 8.7 0 1 0 8.7 8.7 8.71 8.71 0 0 0-8.7-8.7z"/><circle class="cls-2" cx="173.16" cy="41.05" r="6.01"/><circle class="cls-1" cx="173.16" cy="41.05" r="1.75"/><path class="cls-1" d="M173.16 43.35a2.3 2.3 0 1 1 2.3-2.3 2.3 2.3 0 0 1-2.3 2.3zm-12.33-4.39h2.54v5.55h-2.54zM151 32.35a8.7 8.7 0 1 0 8.7 8.7 8.71 8.71 0 0 0-8.7-8.7zm0 14.71a6 6 0 1 1 6-6 6 6 0 0 1-6 6z"/><circle class="cls-1" cx="151.04" cy="41.05" r="1.75"/><path class="cls-1" d="M151 43.35a2.3 2.3 0 1 1 2.3-2.3 2.3 2.3 0 0 1-2.3 2.3zm132.25-1.89l1-.01h-1v.01z"/><path class="cls-1" d="M35.57 30.27v4.78l102.93.47-.06 9H141V41.05a9.8 9.8 0 0 1 19.61 0v.4h2.58v-.4a9.8 9.8 0 0 1 19.61 0v.4h2.58v-.4A9.8 9.8 0 0 1 205 41v.4h2.57a9.8 9.8 0 0 1 19.6 0h2.57V41a9.8 9.8 0 0 1 19.61 0v.4h2.58V41a9.8 9.8 0 0 1 19.61 0v.4h11.86V29.91m-.15-.01v.01h1l-1-.01z"/><path class="cls-1" d="M227.19 38.79h2.54v5.54h-2.54zm50.66-7.43h5.55V6.65l-5.53-5.9"/><path class="cls-2" d="M280.74 33.28a1.73 1.73 0 1 1 1.73-1.73 1.73 1.73 0 0 1-1.73 1.73z"/><path class="cls-3" d="M40.05 5.47h1v8h-1z"/><path class="cls-3" transform="rotate(-89.92 159.462 8.25)" d="M158.96-110.18h1v236.86h-1z"/><path class="cls-3" d="M46.73 9.29l-6.5-1.16 6.52-1.76-.02 2.92zm223.66.25l6.5-1.16-6.52-1.76.02 2.92zM120.85 1.66h-1.13V.91h.1a1.65 1.65 0 0 0 .91-.22 1 1 0 0 0 .42-.7h.85v5.67h-1.15zm4.76-.73a.45.45 0 0 0-.4-.18.58.58 0 0 0-.36.11.69.69 0 0 0-.22.3 1.65 1.65 0 0 0-.1.46v.86a1 1 0 0 1 .41-.36 1.47 1.47 0 0 1 .65-.13 1.42 1.42 0 0 1 .64.13 1.13 1.13 0 0 1 .43.37 1.63 1.63 0 0 1 .24.56 3.1 3.1 0 0 1 .08.71 2.23 2.23 0 0 1-.44 1.49 1.74 1.74 0 0 1-1.4.51 1.85 1.85 0 0 1-.94-.21 1.39 1.39 0 0 1-.54-.57 2.43 2.43 0 0 1-.24-.84 8.68 8.68 0 0 1-.06-1V1.98a3.14 3.14 0 0 1 .22-1 1.54 1.54 0 0 1 .56-.7 1.9 1.9 0 0 1 1.11-.28 2.39 2.39 0 0 1 .59.07 1.35 1.35 0 0 1 .5.24 1.23 1.23 0 0 1 .35.44 1.66 1.66 0 0 1 .14.68h-1.1a.93.93 0 0 0-.12-.5zm-1 3.42a1.16 1.16 0 0 0 .09.36.56.56 0 0 0 .19.23.57.57 0 0 0 .32.08.59.59 0 0 0 .33-.08.53.53 0 0 0 .19-.24 1.25 1.25 0 0 0 .08-.36V3.9a1.74 1.74 0 0 0-.14-.82.51.51 0 0 0-.48-.25.52.52 0 0 0-.49.25 1.74 1.74 0 0 0-.14.82 3.9 3.9 0 0 0 .02.45zm3.95 1.11a3.5 3.5 0 0 1 0 .56 1.27 1.27 0 0 1-.16.46 1 1 0 0 1-.32.32 1.24 1.24 0 0 1-.52.16V6.4a.43.43 0 0 0 .31-.22.82.82 0 0 0 .1-.41v-.1h-.42V4.42h1.06zm1.83-.7a.5.5 0 0 0 .5.26.66.66 0 0 0 .33-.07.5.5 0 0 0 .19-.2.79.79 0 0 0 .09-.29 2.88 2.88 0 0 0 0-.35 2.27 2.27 0 0 0 0-.36.88.88 0 0 0-.11-.31.58.58 0 0 0-.22-.22.8.8 0 0 0-.38-.08h-.38v-.75h.38a.58.58 0 0 0 .31-.08.6.6 0 0 0 .2-.2.94.94 0 0 0 .11-.28 1.53 1.53 0 0 0 0-.34.93.93 0 0 0-.14-.58.5.5 0 0 0-.42-.17.59.59 0 0 0-.3.07.46.46 0 0 0-.18.19.85.85 0 0 0-.08.29 3.16 3.16 0 0 0 0 .37h-1.06a1.68 1.68 0 0 1 .42-1.26 1.71 1.71 0 0 1 1.25-.4 1.85 1.85 0 0 1 1.2.35 1.35 1.35 0 0 1 .43 1.1 1.42 1.42 0 0 1-.23.84 1 1 0 0 1-.64.41 1.07 1.07 0 0 1 .78.44 1.62 1.62 0 0 1 .23.89 2.56 2.56 0 0 1-.07.59 1.33 1.33 0 0 1-.28.55 1.47 1.47 0 0 1-.57.4 2.53 2.53 0 0 1-1 .15 1.58 1.58 0 0 1-1.23-.45 1.82 1.82 0 0 1-.37-1.27h1.1a1.88 1.88 0 0 0 .14.76zm5.05-.94h-2.26v-.94h2.26zm.5 1.84A3.11 3.11 0 0 1 136 5a2.57 2.57 0 0 1 .23-.62 3.35 3.35 0 0 1 .39-.58 6 6 0 0 1 .55-.57l.46-.43a2.65 2.65 0 0 0 .31-.31 1.32 1.32 0 0 0 .18-.29 1.09 1.09 0 0 0 .08-.31 3.3 3.3 0 0 0 0-.38q0-.7-.56-.7a.58.58 0 0 0-.34.09.59.59 0 0 0-.19.24 1.13 1.13 0 0 0-.09.35 4.15 4.15 0 0 0 0 .42h-1.1v-.27a1.65 1.65 0 0 1 .42-1.22A1.83 1.83 0 0 1 137.7 0a1.79 1.79 0 0 1 1.3.4 1.52 1.52 0 0 1 .42 1.14 2.52 2.52 0 0 1 0 .51 1.89 1.89 0 0 1-.15.45 2.07 2.07 0 0 1-.27.42 4 4 0 0 1-.41.42l-.64.59a2.37 2.37 0 0 0-.4.45 1.29 1.29 0 0 0-.18.38h2.14v.9zm5.06-.9a.5.5 0 0 0 .5.26.66.66 0 0 0 .33-.07.5.5 0 0 0 .19-.2.79.79 0 0 0 .09-.29 2.91 2.91 0 0 0 0-.35 2.28 2.28 0 0 0 0-.36.88.88 0 0 0-.11-.31.58.58 0 0 0-.22-.22.8.8 0 0 0-.38-.08h-.4v-.75h.38a.58.58 0 0 0 .31-.08.6.6 0 0 0 .2-.2 1 1 0 0 0 .11-.28 1.53 1.53 0 0 0 0-.34.93.93 0 0 0-.14-.58.5.5 0 0 0-.42-.17.59.59 0 0 0-.3.07.46.46 0 0 0-.14.19.85.85 0 0 0-.08.29 3.16 3.16 0 0 0 0 .37h-1.06a1.68 1.68 0 0 1 .44-1.25 1.71 1.71 0 0 1 1.24-.41 1.85 1.85 0 0 1 1.2.35 1.35 1.35 0 0 1 .43 1.1 1.42 1.42 0 0 1-.23.84 1 1 0 0 1-.64.41 1.07 1.07 0 0 1 .78.44 1.62 1.62 0 0 1 .23.89 2.57 2.57 0 0 1-.07.59 1.33 1.33 0 0 1-.28.55 1.47 1.47 0 0 1-.57.4 2.53 2.53 0 0 1-1 .15 1.58 1.58 0 0 1-1.23-.45 1.82 1.82 0 0 1-.37-1.27h1.1a1.88 1.88 0 0 0 .11.76zm4 .7a3.5 3.5 0 0 1 0 .56 1.27 1.27 0 0 1-.16.46 1 1 0 0 1-.32.32 1.24 1.24 0 0 1-.52.16V6.4a.43.43 0 0 0 .31-.22.82.82 0 0 0 .1-.41v-.1h-.42V4.42H145zm.74-2.32a1 1 0 0 1 .72-.48 1 1 0 0 1-.39-.18 1 1 0 0 1-.25-.27 1.06 1.06 0 0 1-.14-.32 1.37 1.37 0 0 1 0-.32 1.46 1.46 0 0 1 .44-1.2 2.23 2.23 0 0 1 2.44 0 1.46 1.46 0 0 1 .44 1.2 1.26 1.26 0 0 1 0 .32 1.14 1.14 0 0 1-.14.32 1 1 0 0 1-.25.27 1 1 0 0 1-.38.18 1 1 0 0 1 .72.48 1.7 1.7 0 0 1 .24.92 2.76 2.76 0 0 1-.06.54 1.36 1.36 0 0 1-.25.55 1.43 1.43 0 0 1-.55.42 2.76 2.76 0 0 1-1.9 0 1.43 1.43 0 0 1-.55-.42 1.36 1.36 0 0 1-.25-.55 2.76 2.76 0 0 1-.06-.54 1.7 1.7 0 0 1 .17-.92zm.94 1.29a.9.9 0 0 0 .1.31.57.57 0 0 0 .2.21.71.71 0 0 0 .64 0 .57.57 0 0 0 .2-.21.9.9 0 0 0 .1-.31A2.51 2.51 0 0 0 148 4a2.47 2.47 0 0 0 0-.38.89.89 0 0 0-.1-.31.57.57 0 0 0-.2-.21.72.72 0 0 0-.64 0 .57.57 0 0 0-.2.21.89.89 0 0 0-.1.31 2.47 2.47 0 0 0 0 .38 2.51 2.51 0 0 0-.08.43zm.22-2.3a.53.53 0 0 0 .82 0 1 1 0 0 0 .15-.6q0-.78-.56-.78t-.56.78a1 1 0 0 0 .15.6zm4.62-.77h1.58l.67 2.88.67-2.88H156v4.3h-1V2.61l-.76 3.06h-.91l-.76-3.06v3.05h-1zm6.35 4.3h-1.06V4.42h1.06z"/></g></g></svg>