<svg xmlns="http://www.w3.org/2000/svg" viewBox="0 0 284.25 50.52"><title>4693</title><g id="b9f39091-a93e-4968-bf2e-19d47835a18d" data-name="Слой 2"><g id="c92b793f-f092-49ba-a6b5-92aaa13473ea" data-name="Слой 1"><rect x="35.58" y="13.8" width="5.54" height="18.03" fill="#253678"/><rect y="13.8" width="41.12" height="5.54" fill="#253678"/><rect x="4.45" y="16.58" width="2.28" height="5.54" fill="#253678"/><path d="M181.86,41.32a8.7,8.7,0,1,0-17.4,0c0,.13,0,.26,0,.4h17.36C181.85,41.58,181.86,41.45,181.86,41.32Z" fill="#253678"/><path d="M239.52,32.62a8.7,8.7,0,1,0,8.7,8.7A8.71,8.71,0,0,0,239.52,32.62Zm0,14.71a6,6,0,1,1,6-6A6,6,0,0,1,239.52,47.32Z" fill="#253678"/><circle cx="239.52" cy="41.32" r="1.75" fill="#253678"/><path d="M239.52,43.62a2.3,2.3,0,1,1,2.3-2.3A2.3,2.3,0,0,1,239.52,43.62Z" fill="#253678"/><path d="M217.4,33.12a8.7,8.7,0,1,0,8.7,8.7A8.71,8.71,0,0,0,217.4,33.12Zm0,14.71a6,6,0,1,1,6-6A6,6,0,0,1,217.4,47.83Z" fill="#253678"/><circle cx="217.4" cy="41.82" r="1.75" fill="#253678"/><path d="M217.4,44.12a2.3,2.3,0,1,1,2.3-2.3A2.3,2.3,0,0,1,217.4,44.12Z" fill="#253678"/><path d="M195.28,32.62a8.7,8.7,0,1,0,8.7,8.7A8.71,8.71,0,0,0,195.28,32.62Zm0,14.71a6,6,0,1,1,6-6A6,6,0,0,1,195.28,47.32Z" fill="#253678"/><circle cx="195.28" cy="41.32" r="1.75" fill="#253678"/><path d="M195.28,43.62a2.3,2.3,0,1,1,2.3-2.3A2.3,2.3,0,0,1,195.28,43.62Z" fill="#253678"/><rect x="182.95" y="39.23" width="2.54" height="5.55" fill="#253678"/><rect x="249.31" y="39.23" width="2.57" height="5.55" fill="#253678"/><path d="M261.64,32.62a8.7,8.7,0,1,0,8.7,8.7A8.71,8.71,0,0,0,261.64,32.62Zm0,14.71a6,6,0,1,1,6-6A6,6,0,0,1,261.64,47.32Z" fill="#253678"/><circle cx="261.64" cy="41.32" r="1.75" fill="#253678"/><path d="M261.64,43.62a2.3,2.3,0,1,1,2.3-2.3A2.3,2.3,0,0,1,261.64,43.62Z" fill="#253678"/><rect x="271.43" y="39.23" width="2.27" height="5.55" fill="#253678"/><rect x="205.07" y="39.06" width="2.54" height="5.54" fill="#253678"/><path d="M173.16,32.62a8.7,8.7,0,1,0,8.7,8.7A8.71,8.71,0,0,0,173.16,32.62Z" fill="#253678"/><circle cx="173.16" cy="41.32" r="6.01" fill="#fff"/><circle cx="173.16" cy="41.32" r="1.75" fill="#253678"/><path d="M173.16,43.62a2.3,2.3,0,1,1,2.3-2.3A2.3,2.3,0,0,1,173.16,43.62Z" fill="#253678"/><rect x="160.83" y="39.23" width="2.54" height="5.55" fill="#253678"/><path d="M151,32.62a8.7,8.7,0,1,0,8.7,8.7A8.71,8.71,0,0,0,151,32.62Zm0,14.71a6,6,0,1,1,6-6A6,6,0,0,1,151,47.32Z" fill="#253678"/><circle cx="151.04" cy="41.32" r="1.75" fill="#253678"/><path d="M151,43.62a2.3,2.3,0,1,1,2.3-2.3A2.3,2.3,0,0,1,151,43.62Z" fill="#253678"/><polygon points="283.25 41.73 284.25 41.71 283.25 41.71 283.25 41.73" fill="#253678"/><path d="M63.57,30.18v5.54l75,.07-.06,9H141V41.71h0c0-.13,0-.26,0-.4a9.8,9.8,0,0,1,19.61,0c0,.13,0,.26,0,.4h2.58c0-.13,0-.26,0-.4a9.8,9.8,0,0,1,19.61,0c0,.13,0,.26,0,.4h2.58c0-.13,0-.26,0-.4a9.8,9.8,0,0,1,19.61,0c0,.13,0,.26,0,.4h2.57a9.8,9.8,0,0,1,19.6,0h2.57c0-.13,0-.26,0-.4a9.8,9.8,0,0,1,19.61,0c0,.13,0,.26,0,.4h2.58c0-.13,0-.26,0-.4a9.8,9.8,0,0,1,19.61,0c0,.13,0,.26,0,.4h11.86V30.18" fill="#253678"/><polygon points="283.25 30.16 283.25 30.18 284.25 30.18 283.25 30.16" fill="#253678"/><rect x="227.19" y="39.06" width="2.54" height="5.54" fill="#253678"/><rect x="60.33" y="30.18" width="2.27" height="5.54" fill="#253678"/><rect x="35.58" y="30.18" width="20.71" height="5.54" fill="#253678"/><rect x="57.14" y="30.18" width="2.28" height="5.54" fill="#253678"/><rect x="40.05" y="5.74" width="1" height="8" fill="#f6ad15"/><rect x="158.96" y="-109.91" width="1" height="236.86" transform="translate(150.72 167.97) rotate(-89.92)" fill="#f6ad15"/><polygon points="46.73 9.56 40.23 8.39 46.75 6.64 46.73 9.56" fill="#f6ad15"/><polygon points="270.39 9.81 276.89 8.64 270.37 6.89 270.39 9.81" fill="#f6ad15"/><polyline points="277.85 31.62 283.4 31.62 283.4 6.92 277.87 1.02" fill="#253678"/><path d="M280.74,33.55a1.73,1.73,0,1,1,1.73-1.73A1.73,1.73,0,0,1,280.74,33.55Z" fill="#fff"/><path d="M140.57,1.77h-1.2V1h.11a1.76,1.76,0,0,0,1-.23,1.06,1.06,0,0,0,.45-.74h.9V6h-1.22Z" fill="#f6ad15"/><path d="M143.25,6a3.3,3.3,0,0,1,.08-.75,2.73,2.73,0,0,1,.25-.66A3.54,3.54,0,0,1,144,4a6.36,6.36,0,0,1,.58-.61l.49-.46a2.78,2.78,0,0,0,.33-.33,1.37,1.37,0,0,0,.19-.31,1.14,1.14,0,0,0,.09-.33,3.5,3.5,0,0,0,0-.41q0-.75-.6-.75a.61.61,0,0,0-.36.09.62.62,0,0,0-.2.26,1.19,1.19,0,0,0-.09.37q0,.21,0,.45h-1.17V1.74a1.75,1.75,0,0,1,.45-1.29A1.94,1.94,0,0,1,145.12,0a1.9,1.9,0,0,1,1.36.42,1.61,1.61,0,0,1,.44,1.22,2.71,2.71,0,0,1-.05.54,2,2,0,0,1-.16.48,2.23,2.23,0,0,1-.29.45,4.15,4.15,0,0,1-.43.45l-.68.63a2.59,2.59,0,0,0-.42.48,1.4,1.4,0,0,0-.2.4H147V6Z" fill="#f6ad15"/><path d="M150,4.06h-2.4v-1H150Z" fill="#f6ad15"/><path d="M151.88,1.77h-1.2V1h.11a1.76,1.76,0,0,0,1-.23A1.06,1.06,0,0,0,152.2,0h.9V6h-1.22Z" fill="#f6ad15"/><path d="M156,5.15a.47.47,0,0,0,.43.19.61.61,0,0,0,.39-.12.74.74,0,0,0,.23-.32,1.72,1.72,0,0,0,.11-.48c0-.19,0-.39,0-.61V3.52h0a1.1,1.1,0,0,1-.44.37A1.56,1.56,0,0,1,156,4a1.51,1.51,0,0,1-.68-.14,1.2,1.2,0,0,1-.46-.39,1.74,1.74,0,0,1-.26-.6,3.3,3.3,0,0,1-.08-.75A2.43,2.43,0,0,1,155,.55,1.83,1.83,0,0,1,156.48,0a1.88,1.88,0,0,1,1,.23,1.57,1.57,0,0,1,.57.62,2.6,2.6,0,0,1,.26.9,9.1,9.1,0,0,1,.06,1.06q0,.65,0,1.25a3.28,3.28,0,0,1-.23,1.06,1.56,1.56,0,0,1-.6.73,2.11,2.11,0,0,1-1.15.27,3,3,0,0,1-.62-.06,1.33,1.33,0,0,1-.53-.24,1.25,1.25,0,0,1-.37-.47,1.75,1.75,0,0,1-.15-.73h1.17A1,1,0,0,0,156,5.15Zm-.06-2.28a.54.54,0,0,0,.51.26.55.55,0,0,0,.52-.26,1.84,1.84,0,0,0,.15-.87,4.15,4.15,0,0,0,0-.48,1.27,1.27,0,0,0-.1-.38.59.59,0,0,0-.2-.25.6.6,0,0,0-.34-.09.62.62,0,0,0-.35.09.55.55,0,0,0-.2.25,1.29,1.29,0,0,0-.09.38c0,.14,0,.3,0,.47A1.84,1.84,0,0,0,155.91,2.87Z" fill="#f6ad15"/><path d="M160.93,1.45h1.68l.71,3.06L164,1.45h1.68V6h-1.1V2.77L163.8,6h-1L162,2.77V6h-1.1Z" fill="#f6ad15"/><path d="M167.68,6h-1.12V4.69h1.12Z" fill="#f6ad15"/></g></g></svg>