<svg xmlns="http://www.w3.org/2000/svg" viewBox="0 0 355.31248 61.874998" height="66" width="379"><path d="M51.401 46.01h-6.928V23.478H51.4zm0 0" fill="#303d7a"/><path d="M51.401 30.405H0v-6.928h51.401zm0 0" fill="#303d7a"/><path d="M8.408 33.867H5.562v-6.929h2.846zm0 0M227.324 50.371c0-6-4.878-10.879-10.879-10.879-5.996 0-10.874 4.878-10.874 10.88 0 .165.02.326.025.492H227.3c.005-.166.024-.327.024-.493M299.395 57.876a7.507 7.507 0 1 1 7.51-7.505 7.505 7.505 0 0 1-7.51 7.505m0-18.384c-5.997 0-10.875 4.878-10.875 10.88 0 5.995 4.878 10.873 10.875 10.873 6 0 10.878-4.878 10.878-10.874 0-6-4.878-10.879-10.878-10.879" fill="#303d7a"/><path d="M301.592 50.371a2.195 2.195 0 0 1-4.39 0c0-1.216.986-2.192 2.197-2.192 1.206 0 2.193.976 2.193 2.192" fill="#303d7a"/><path d="M299.395 53.242a2.876 2.876 0 0 1-2.872-2.87 2.877 2.877 0 0 1 2.872-2.877 2.878 2.878 0 0 1 2.875 2.876 2.877 2.877 0 0 1-2.875 2.871M271.748 58.506a7.512 7.512 0 0 1-7.51-7.51 7.508 7.508 0 0 1 7.51-7.505c4.146 0 7.51 3.36 7.51 7.505a7.512 7.512 0 0 1-7.51 7.51m0-18.384c-5.996 0-10.879 4.878-10.879 10.874 0 6.001 4.883 10.879 10.879 10.879 5.996 0 10.874-4.878 10.874-10.879 0-5.996-4.878-10.874-10.874-10.874" fill="#303d7a"/><path d="M273.94 50.996a2.19 2.19 0 0 1-2.192 2.192 2.192 2.192 0 1 1 2.192-2.192" fill="#303d7a"/><path d="M271.748 53.872a2.878 2.878 0 0 1-2.876-2.876 2.881 2.881 0 0 1 2.876-2.876 2.877 2.877 0 0 1 0 5.752M244.097 57.876a7.508 7.508 0 1 1 .007-15.013 7.508 7.508 0 0 1-.007 15.013m0-18.384c-5.996 0-10.874 4.878-10.874 10.88 0 5.995 4.878 10.873 10.874 10.873s10.879-4.878 10.879-10.874c0-6-4.883-10.879-10.88-10.879" fill="#303d7a"/><path d="M246.289 50.371a2.192 2.192 0 1 1-4.384 0 2.192 2.192 0 0 1 4.384 0" fill="#303d7a"/><path d="M244.097 53.242a2.88 2.88 0 0 1-2.876-2.87 2.881 2.881 0 0 1 2.876-2.877 2.878 2.878 0 0 1 2.876 2.876 2.877 2.877 0 0 1-2.876 2.871M231.86 54.688h-3.173v-6.93h3.173zm0 0M314.844 54.688h-3.208v-6.93h3.208zm0 0M327.046 57.876a7.508 7.508 0 0 1 0-15.015 7.512 7.512 0 0 1 7.51 7.51 7.508 7.508 0 0 1-7.51 7.505m0-18.384c-5.996 0-10.874 4.878-10.874 10.88 0 5.995 4.878 10.873 10.874 10.873s10.879-4.878 10.879-10.874c0-6-4.878-10.879-10.88-10.879" fill="#303d7a"/><path d="M329.243 50.371c0 1.211-.986 2.192-2.197 2.192a2.192 2.192 0 1 1 0-4.384c1.21 0 2.197.976 2.197 2.192" fill="#303d7a"/><path d="M327.046 53.242a2.876 2.876 0 0 1-2.871-2.87 2.877 2.877 0 0 1 2.87-2.877 2.878 2.878 0 0 1 2.877 2.876 2.877 2.877 0 0 1-2.876 2.871M342.129 54.688h-2.842v-6.93h2.842zm0 0M259.507 54.478h-3.174v-6.93h3.174zm0 0M216.445 39.492c-5.996 0-10.874 4.878-10.874 10.88 0 5.995 4.878 10.873 10.874 10.873 6.001 0 10.88-4.878 10.88-10.874 0-6-4.879-10.879-10.88-10.879" fill="#303d7a"/><path d="M223.955 50.371a7.507 7.507 0 1 1-15.014-.004 7.507 7.507 0 0 1 15.014.004" fill="#fff"/><path d="M218.643 50.371a2.195 2.195 0 0 1-4.39 0c0-1.216.986-2.192 2.197-2.192 1.206 0 2.193.976 2.193 2.192" fill="#303d7a"/><path d="M216.445 53.242a2.876 2.876 0 0 1-2.87-2.87 2.877 2.877 0 0 1 2.87-2.877 2.878 2.878 0 0 1 2.876 2.876 2.877 2.877 0 0 1-2.876 2.871M204.209 54.688h-3.174v-6.93h3.174zm0 0M188.799 57.876a7.508 7.508 0 0 1-7.51-7.505 7.512 7.512 0 0 1 7.51-7.51 7.512 7.512 0 0 1 7.51 7.51 7.508 7.508 0 0 1-7.51 7.505m0-18.384c-6.001 0-10.88 4.878-10.88 10.88 0 5.995 4.879 10.873 10.88 10.873 5.996 0 10.874-4.878 10.874-10.874 0-6-4.878-10.879-10.874-10.879" fill="#303d7a"/><path d="M190.991 50.371c0 1.211-.981 2.192-2.192 2.192a2.196 2.196 0 0 1-2.197-2.192c0-1.216.986-2.192 2.197-2.192a2.19 2.19 0 0 1 2.192 2.192" fill="#303d7a"/><path d="M188.799 53.242a2.877 2.877 0 0 1-2.876-2.87 2.874 2.874 0 1 1 2.876 2.871M354.062 50.884l1.25-.02h-1.25zm0 0" fill="#303d7a"/><path d="M44.424 36.445l.097 18.243h131.783v-3.824h.024c-.005-.166-.024-.327-.024-.493 0-6.753 5.498-12.241 12.255-12.241 6.758 0 12.256 5.488 12.256 12.241 0 .166-.02.327-.024.493h3.228c-.005-.166-.025-.327-.025-.493 0-6.753 5.498-12.241 12.256-12.241s12.256 5.488 12.256 12.241c0 .166-.02.327-.025.493h3.228c-.005-.166-.024-.327-.024-.493 0-6.753 5.498-12.241 12.255-12.241 6.758 0 12.256 5.488 12.256 12.241 0 .166-.02.327-.024.493h3.208c.073-6.684 5.537-12.104 12.25-12.104 6.71 0 12.174 5.42 12.247 12.104h3.208c-.005-.166-.024-.327-.024-.493 0-6.753 5.498-12.241 12.255-12.241 6.763 0 12.256 5.488 12.256 12.241 0 .166-.014.327-.024.493h3.227c-.005-.166-.024-.327-.024-.493 0-6.753 5.498-12.241 12.256-12.241s12.256 5.488 12.256 12.241c0 .166-.015.327-.025.493h14.825V36.445zm0 0" fill="#303d7a"/><path d="M354.062 36.426v.02h1.25zm0 0M287.158 54.478h-3.174v-6.93h3.174zm0 0" fill="#303d7a"/><path d="M347.344 0h-.03v38.252h6.934V7.368zm0 0" fill="#303d7a"/><path d="M350.928 40.66a2.162 2.162 0 0 1-2.158-2.159 2.159 2.159 0 1 1 2.158 2.158" fill="#fff"/><path d="M51.313 23.384h-1.25v-9.995h1.25zm0 0" fill="#f5ae23"/><path d="M347.368 17.7l-296.074-.415v-1.25l296.074.415zm0 0" fill="#f5ae23"/><path d="M58.413 18.169l-8.13-1.455 8.155-2.193zm0 0M337.988 18.481l8.13-1.455-8.154-2.192zm0 0M151.064 8.638h-1.41v-.943h.126c.484 0 .86-.088 1.138-.268.273-.18.45-.474.522-.87h1.06v7.08h-1.436zm0 0M155.723 11.997c.02.176.058.322.112.444.058.123.137.22.244.293a.711.711 0 0 0 .405.103c.171 0 .308-.034.415-.103a.682.682 0 0 0 .235-.297c.049-.127.088-.274.102-.445.015-.17.025-.356.025-.556 0-.479-.059-.82-.181-1.03-.117-.206-.317-.308-.596-.308-.288 0-.493.102-.61.307-.122.21-.18.552-.18 1.03 0 .2.01.386.029.562m1.284-4.277c-.098-.147-.264-.225-.503-.225a.744.744 0 0 0-.46.137.91.91 0 0 0-.268.376 2.065 2.065 0 0 0-.122.571 6.498 6.498 0 0 0-.034.718v.351h.02c.122-.185.292-.336.517-.444.225-.112.493-.166.816-.166.312 0 .58.054.8.166.22.107.396.264.533.46.136.194.239.429.302.697.064.269.093.567.093.884 0 .82-.18 1.445-.542 1.865-.366.425-.947.635-1.748.635-.493 0-.889-.083-1.177-.259a1.706 1.706 0 0 1-.679-.713 2.992 2.992 0 0 1-.302-1.06 10.232 10.232 0 0 1-.074-1.25c0-.497.02-.98.05-1.454.029-.469.116-.884.268-1.25a1.95 1.95 0 0 1 .703-.87c.322-.224.776-.331 1.362-.331.254 0 .498.029.733.088.239.063.449.16.625.302.18.137.327.323.44.552.107.234.165.518.17.86h-1.377c0-.284-.049-.499-.146-.64M160.703 13.379c0 .244-.02.478-.058.703-.035.22-.103.415-.206.576a1.15 1.15 0 0 1-.405.405c-.166.103-.386.166-.654.196v-.703a.53.53 0 0 0 .39-.279c.088-.151.132-.322.132-.512v-.127h-.522v-1.563h1.323zm0 0M162.988 12.515c.103.214.308.322.625.322.171 0 .308-.03.415-.093a.639.639 0 0 0 .24-.244c.053-.103.092-.225.107-.366.02-.137.024-.283.024-.435 0-.16-.01-.312-.034-.459a1.173 1.173 0 0 0-.132-.38.727.727 0 0 0-.283-.274c-.117-.068-.278-.098-.478-.098h-.479v-.942h.469c.151 0 .283-.03.386-.093a.76.76 0 0 0 .249-.249 1.36 1.36 0 0 0 .141-.356c.03-.132.044-.274.044-.42 0-.342-.058-.581-.17-.723-.113-.137-.289-.21-.518-.21a.701.701 0 0 0-.376.088.534.534 0 0 0-.225.24 1.007 1.007 0 0 0-.107.366 4.286 4.286 0 0 0-.025.459h-1.318c0-.708.176-1.23.527-1.578.357-.341.87-.512 1.553-.512.645 0 1.148.146 1.504.44.356.292.532.751.532 1.376 0 .43-.092.777-.283 1.045-.19.273-.454.444-.796.518v.02c.46.072.786.258.977.556.19.298.283.669.283 1.113 0 .24-.03.488-.088.742a1.598 1.598 0 0 1-.352.689c-.17.205-.41.37-.712.503-.303.122-.704.185-1.197.185-.688 0-1.2-.185-1.538-.556-.342-.376-.512-.909-.512-1.592v-.03h1.381c.005.41.059.728.166.948M169.302 11.338h-2.823v-1.182h2.823zm0 0M169.922 13.638c0-.313.03-.606.093-.88.063-.273.16-.536.293-.78.126-.25.293-.489.488-.728a7.66 7.66 0 0 1 .683-.713l.581-.542a2.87 2.87 0 0 0 .386-.39c.098-.118.171-.24.225-.362.054-.117.088-.244.107-.386.015-.141.025-.297.025-.478 0-.59-.235-.884-.704-.884a.73.73 0 0 0-.424.112.729.729 0 0 0-.24.298 1.448 1.448 0 0 0-.107.445c-.02.16-.024.341-.024.527h-1.382v-.269c0-.664.176-1.167.527-1.523.357-.352.913-.527 1.67-.527.723 0 1.255.166 1.602.498.346.337.522.81.522 1.43 0 .23-.02.44-.063.635-.04.2-.103.386-.19.567-.084.175-.201.356-.338.522-.141.17-.312.347-.512.527l-.796.738c-.215.195-.381.385-.503.566a1.787 1.787 0 0 0-.23.474h2.671v1.123zm0 0M176.284 12.515c.108.214.313.322.625.322.176 0 .313-.03.415-.093a.618.618 0 0 0 .244-.244c.054-.103.093-.225.108-.366.014-.137.024-.283.024-.435 0-.16-.01-.312-.034-.459a1.074 1.074 0 0 0-.137-.38.683.683 0 0 0-.278-.274c-.122-.068-.278-.098-.479-.098h-.483v-.942h.474a.74.74 0 0 0 .385-.093.76.76 0 0 0 .25-.249c.063-.107.107-.224.136-.356.034-.132.05-.274.05-.42 0-.342-.06-.581-.172-.723-.117-.137-.288-.21-.522-.21a.725.725 0 0 0-.376.088.592.592 0 0 0-.225.24 1.005 1.005 0 0 0-.102.366 4.286 4.286 0 0 0-.025.459h-1.323c0-.708.18-1.23.532-1.578.352-.341.87-.512 1.548-.512.65 0 1.152.146 1.509.44.356.292.532.751.532 1.376 0 .43-.093.777-.283 1.045-.19.273-.454.444-.796.518v.02c.459.072.786.258.976.556.19.298.284.669.284 1.113 0 .24-.03.488-.088.742a1.653 1.653 0 0 1-.352.689c-.176.205-.41.37-.713.503-.307.122-.703.185-1.196.185-.688 0-1.201-.185-1.543-.556-.337-.376-.508-.909-.508-1.592v-.03h1.382c.005.41.059.728.161.948M181.201 13.379c0 .244-.02.478-.054.703-.039.22-.107.415-.205.576a1.192 1.192 0 0 1-.405.405c-.17.103-.39.166-.654.196v-.703a.53.53 0 0 0 .386-.279c.087-.151.131-.322.131-.512v-.127h-.517v-1.563h1.318zm0 0M183.633 9.219a.61.61 0 0 0 .508.234c.214 0 .38-.078.512-.234.122-.161.186-.41.186-.752 0-.645-.23-.972-.698-.972-.47 0-.699.327-.699.972 0 .342.064.59.19.752m-.278 2.876c.025.146.069.273.132.385.064.113.147.2.254.26.108.068.24.097.4.097.162 0 .294-.03.401-.098a.648.648 0 0 0 .254-.259c.063-.112.107-.239.132-.385.02-.152.034-.313.034-.479a3.56 3.56 0 0 0-.034-.478 1.125 1.125 0 0 0-.132-.386.681.681 0 0 0-.254-.259.771.771 0 0 0-.4-.097.771.771 0 0 0-.4.097.68.68 0 0 0-.255.259c-.063.107-.107.24-.132.386a2.903 2.903 0 0 0-.034.478c0 .166.01.327.034.479m-1.171-1.607c.2-.322.498-.522.898-.6v-.02a1.303 1.303 0 0 1-.483-.22 1.392 1.392 0 0 1-.318-.341 1.378 1.378 0 0 1-.17-.4 1.665 1.665 0 0 1-.05-.401c0-.693.186-1.192.557-1.494.371-.303.879-.454 1.524-.454.644 0 1.157.151 1.523.454.371.302.557.8.557 1.494a1.534 1.534 0 0 1-.23.8c-.078.128-.186.24-.317.342a1.33 1.33 0 0 1-.474.22v.02c.4.078.703.278.898.6.2.318.303.703.303 1.148 0 .21-.024.434-.073.678a1.754 1.754 0 0 1-.317.694c-.162.215-.391.39-.684.527-.298.142-.693.21-1.187.21-.493 0-.888-.068-1.186-.21a1.768 1.768 0 0 1-.684-.527 1.677 1.677 0 0 1-.312-.694 3.144 3.144 0 0 1-.078-.678c0-.445.102-.83.302-1.148M189.4 8.257h1.972l.84 3.598.84-3.598h1.968v5.38h-1.29V9.82l-.952 3.819h-1.137l-.953-3.819v3.819H189.4zm0 0M197.339 13.638h-1.318v-1.563h1.318zm0 0" fill="#f5ae23"/></svg>