<svg xmlns="http://www.w3.org/2000/svg" viewBox="0 0 346.87009 55.209958" height="58.891" width="369.995"><path d="M51.401 40.6h-6.928V16.817H51.4zm0 0" fill="#303d7a"/><path d="M51.401 16.816H0v6.93h5.562v3.461h2.846v-3.462h42.993zm0 0M304.966 51.216c-4.15 0-7.51-3.36-7.51-7.51a7.508 7.508 0 0 1 15.015 0c0 4.15-3.36 7.51-7.505 7.51m0-18.384c-6.001 0-10.88 4.878-10.88 10.874 0 6.001 4.879 10.879 10.88 10.879 5.996 0 10.874-4.878 10.874-10.879 0-5.996-4.878-10.874-10.874-10.874" fill="#303d7a"/><path d="M307.158 43.706c0 1.211-.981 2.192-2.192 2.192a2.196 2.196 0 0 1-2.197-2.192c0-1.21.986-2.192 2.197-2.192 1.21 0 2.192.981 2.192 2.192" fill="#303d7a"/><path d="M304.966 46.582a2.878 2.878 0 0 1-2.876-2.876 2.881 2.881 0 0 1 2.876-2.876 2.877 2.877 0 0 1 0 5.752M277.314 51.846a7.512 7.512 0 0 1-7.51-7.51 7.512 7.512 0 0 1 7.51-7.51 7.512 7.512 0 0 1 7.51 7.51 7.512 7.512 0 0 1-7.51 7.51m0-18.389c-5.996 0-10.874 4.878-10.874 10.879 0 5.996 4.878 10.874 10.874 10.874 5.997 0 10.874-4.878 10.874-10.874 0-6.001-4.877-10.879-10.874-10.879" fill="#303d7a"/><path d="M279.507 44.336a2.192 2.192 0 1 1-4.385 0 2.192 2.192 0 0 1 4.385 0" fill="#303d7a"/><path d="M277.314 47.212a2.878 2.878 0 0 1-2.876-2.876 2.881 2.881 0 0 1 2.876-2.876 2.881 2.881 0 0 1 2.876 2.876 2.878 2.878 0 0 1-2.876 2.876M249.663 51.216a7.505 7.505 0 0 1-7.505-7.51c0-4.145 3.36-7.51 7.505-7.51a7.51 7.51 0 1 1 0 15.02m0-18.384c-5.996 0-10.874 4.878-10.874 10.874 0 6.001 4.878 10.879 10.874 10.879s10.879-4.878 10.879-10.879c0-5.996-4.878-10.874-10.879-10.874" fill="#303d7a"/><path d="M251.86 43.706c0 1.211-.986 2.192-2.197 2.192a2.192 2.192 0 1 1 0-4.384c1.211 0 2.197.981 2.197 2.192" fill="#303d7a"/><path d="M249.663 46.582a2.881 2.881 0 0 1-2.876-2.876 2.884 2.884 0 0 1 2.876-2.876 2.881 2.881 0 0 1 2.876 2.876 2.878 2.878 0 0 1-2.876 2.876" fill="#303d7a"/><path d="M339.692 44.35l-15.044-14.453v-.014H44.473l.112 18.144h192.842v-3.696h.029c-.01-.21-.03-.415-.03-.625 0-6.748 5.489-12.236 12.237-12.236s12.236 5.488 12.236 12.236c0 .21-.02.42-.029.63h3.203c0-6.748 5.493-12.241 12.241-12.241 6.749 0 12.237 5.493 12.237 12.241v.005l3.208.005c-.01-.215-.034-.425-.034-.64 0-6.748 5.493-12.236 12.24-12.236 6.749 0 12.237 5.488 12.237 12.236 0 .215-.02.43-.034.64zm0 0" fill="#303d7a"/><path d="M320.044 48.027h-2.842v-6.933h2.842zm0 0M265.073 47.813H261.9v-6.93h3.174zm0 0M292.725 47.813h-3.174v-6.93h3.174zm0 0M331.821 29.6h15.05v14.453zm0 0" fill="#303d7a"/><path d="M51.357 16.826h-1.25v-9.99h1.25zm0 0M346.787 29.688h-1.25V7.08h1.25zm0 0" fill="#f5ae23"/><path d="M346.162 11.143l-294.824-.415v-1.25l294.824.415zm0 0" fill="#f5ae23"/><path d="M58.457 11.616l-8.13-1.46 8.154-2.192zm0 0M338.032 11.929l8.13-1.46-8.154-2.193zm0 0M171.108 2.08h-1.41v-.937h.126c.484 0 .86-.093 1.138-.274.273-.176.45-.469.522-.869h1.06v7.08h-1.436zm0 0M175.903 2.08h-1.406v-.937h.127c.483 0 .86-.093 1.138-.274.273-.176.449-.469.522-.869h1.06v7.08h-1.44zm0 0M182.144 4.78h-2.818V3.604h2.818zm0 0M184.404 2.08h-1.41v-.937h.131c.479 0 .86-.093 1.138-.274.273-.176.449-.469.522-.869h1.06v7.08h-1.44zm0 0M191.968 1.24a9.23 9.23 0 0 0-.786 1.328c-.23.474-.435.962-.606 1.46a12.92 12.92 0 0 0-.43 1.529c-.117.512-.2 1.025-.258 1.523h-1.514c.054-.425.132-.874.24-1.343.107-.468.248-.947.424-1.435.18-.489.396-.977.65-1.47.249-.493.551-.977.898-1.45h-2.979V.142h4.36zm0 0M194.043 6.821c0 .244-.015.484-.054.703a1.522 1.522 0 0 1-.205.581 1.137 1.137 0 0 1-.405.4c-.171.103-.386.167-.654.196v-.703a.525.525 0 0 0 .39-.278.997.997 0 0 0 .132-.508V7.08h-.522V5.522h1.318zm0 0M196.226 1.26l-.152 1.611h.02a1.13 1.13 0 0 1 .522-.405c.21-.083.474-.127.777-.127.341 0 .625.068.85.195.219.132.395.303.526.518.132.215.22.454.274.722.054.274.083.547.083.826 0 .395-.034.752-.103 1.069a2.074 2.074 0 0 1-.351.825c-.171.235-.405.405-.698.523-.293.112-.664.17-1.119.17-.449 0-.81-.058-1.084-.175-.278-.122-.488-.279-.634-.474-.147-.2-.25-.41-.298-.64a3.183 3.183 0 0 1-.073-.649v-.186h1.377c0 .118.01.245.024.376.01.132.044.26.093.376a.764.764 0 0 0 .214.293.58.58 0 0 0 .372.113c.297 0 .512-.113.644-.347.132-.23.195-.576.195-1.035 0-.293-.014-.532-.039-.728a1.348 1.348 0 0 0-.136-.459.501.501 0 0 0-.254-.239.96.96 0 0 0-.4-.073c-.21 0-.367.058-.474.176a.8.8 0 0 0-.205.473h-1.294l.263-3.848h3.687V1.26zm0 0M202.246 1.7h1.968l.84 3.603.84-3.604h1.972V7.08h-1.289V3.262l-.952 3.818h-1.143l-.947-3.818V7.08h-1.289zm0 0M210.186 7.08h-1.324V5.522h1.324zm0 0" fill="#f5ae23"/></svg>