<svg xmlns="http://www.w3.org/2000/svg" viewBox="0 0 281.61 49.78"><title>6989</title><g id="95743801-2b4b-45f0-8a6a-192ed6bd48e9" data-name="Слой 2"><g id="f9c6576a-0322-497f-a1ce-0b4e86b4da58" data-name="Слой 1"><rect x="35.58" y="14.06" width="5.54" height="19.03" fill="#253678"/><polygon points="41.12 14.06 0 14.06 0 19.6 4.45 19.6 4.45 22.37 6.73 22.37 6.73 19.6 41.12 19.6 41.12 14.06" fill="#253678"/><path d="M244,31.87a8.7,8.7,0,1,0,8.7,8.7A8.71,8.71,0,0,0,244,31.87Zm0,14.71a6,6,0,1,1,6-6A6,6,0,0,1,244,46.58Z" fill="#253678"/><circle cx="243.97" cy="40.57" r="1.75" fill="#253678"/><path d="M244,42.87a2.3,2.3,0,1,1,2.3-2.3A2.3,2.3,0,0,1,244,42.87Z" fill="#253678"/><path d="M221.85,32.37a8.7,8.7,0,1,0,8.7,8.7A8.71,8.71,0,0,0,221.85,32.37Zm0,14.71a6,6,0,1,1,6-6A6,6,0,0,1,221.85,47.08Z" fill="#253678"/><circle cx="221.85" cy="41.07" r="1.75" fill="#253678"/><path d="M221.85,43.37a2.3,2.3,0,1,1,2.3-2.3A2.3,2.3,0,0,1,221.85,43.37Z" fill="#253678"/><path d="M199.73,31.87a8.7,8.7,0,1,0,8.7,8.7A8.71,8.71,0,0,0,199.73,31.87Zm0,14.71a6,6,0,1,1,6-6A6,6,0,0,1,199.73,46.58Z" fill="#253678"/><circle cx="199.73" cy="40.57" r="1.75" fill="#253678"/><path d="M199.73,42.87a2.3,2.3,0,1,1,2.3-2.3A2.3,2.3,0,0,1,199.73,42.87Z" fill="#253678"/><rect x="253.76" y="38.48" width="2.27" height="5.54" fill="#253678"/><rect x="209.52" y="38.32" width="2.54" height="5.54" fill="#253678"/><rect x="231.64" y="38.32" width="2.54" height="5.54" fill="#253678"/><path d="M279.91,49.21,259.72,29.52h0l-196.14.31v5.77H187.39l-.1,8.44h2.65v-3h0c0-.17,0-.33,0-.5a9.79,9.79,0,0,1,19.58,0c0,.17,0,.34,0,.5h2.56a9.79,9.79,0,0,1,19.58,0h2.56c0-.17,0-.34,0-.51a9.79,9.79,0,0,1,19.58,0c0,.17,0,.34,0,.51h14.2l-.07,8Z" fill="#253678"/><polygon points="259.7 29.51 271.73 29.61 271.63 41.17 259.7 29.51" fill="#7d8bb2"/><path d="M281.61,39.93a8.65,8.65,0,0,0-2.34-5.11l-.22-.21-2,1.86.22.21a6.46,6.46,0,0,1,1.61,3.25Z" fill="#7d8bb2"/><path d="M281.52,42.26l-2.73-.07a6,6,0,0,1-1.59,2.87L279.1,47A8.65,8.65,0,0,0,281.52,42.26Z" fill="#7d8bb2"/><path d="M272.77,30.87l0,2.73a6,6,0,0,1,3,1.34l1.73-2.06A8.12,8.12,0,0,0,272.77,30.87Z" fill="#7d8bb2"/><rect x="60.33" y="29.9" width="2.27" height="5.54" fill="#253678"/><rect x="35.58" y="29.9" width="20.71" height="5.54" fill="#253678"/><rect x="57.14" y="29.9" width="2.28" height="5.54" fill="#253678"/><rect x="40.09" y="6.07" width="1" height="7.99" fill="#f6ad15"/><rect x="270.73" y="6.02" width="1" height="23.59" fill="#f6ad15"/><rect x="41.07" y="8.23" width="230.16" height="1" fill="#f6ad15"/><polygon points="46.77 9.9 40.26 8.73 46.79 6.98 46.77 9.9" fill="#f6ad15"/><polygon points="264.73 9.9 271.23 8.73 264.71 6.98 264.73 9.9" fill="#f6ad15"/><path d="M140.85,1.77h-1.2V1h.11a1.75,1.75,0,0,0,1-.23,1.06,1.06,0,0,0,.45-.74h.9V6h-1.22Z" fill="#f6ad15"/><path d="M144.93,1.77h-1.2V1h.11a1.75,1.75,0,0,0,1-.23,1.06,1.06,0,0,0,.45-.74h.9V6h-1.22Z" fill="#f6ad15"/><path d="M150.24,4.07h-2.4v-1h2.4Z" fill="#f6ad15"/><path d="M152.16,1.77H151V1h.11a1.75,1.75,0,0,0,1-.23,1.06,1.06,0,0,0,.45-.74h.9V6h-1.22Z" fill="#f6ad15"/><path d="M156.25,5.15a.47.47,0,0,0,.43.19.62.62,0,0,0,.39-.12.74.74,0,0,0,.23-.32,1.75,1.75,0,0,0,.11-.48c0-.19,0-.39,0-.61V3.52h0a1.1,1.1,0,0,1-.44.37,1.56,1.56,0,0,1-.69.14,1.5,1.5,0,0,1-.68-.14,1.19,1.19,0,0,1-.45-.39,1.72,1.72,0,0,1-.26-.59,3.3,3.3,0,0,1-.08-.75,2.43,2.43,0,0,1,.46-1.6A1.83,1.83,0,0,1,156.76,0a1.88,1.88,0,0,1,1,.23,1.58,1.58,0,0,1,.57.62,2.59,2.59,0,0,1,.26.9,9.1,9.1,0,0,1,.06,1.06c0,.43,0,.85,0,1.25a3.3,3.3,0,0,1-.23,1.06,1.57,1.57,0,0,1-.6.73,2.11,2.11,0,0,1-1.15.27,3.05,3.05,0,0,1-.62-.06,1.31,1.31,0,0,1-.53-.24,1.25,1.25,0,0,1-.37-.47,1.75,1.75,0,0,1-.15-.73h1.17A1,1,0,0,0,156.25,5.15Zm-.06-2.28a.54.54,0,0,0,.51.26.55.55,0,0,0,.52-.26,1.85,1.85,0,0,0,.15-.88,4.13,4.13,0,0,0,0-.48,1.25,1.25,0,0,0-.1-.38.58.58,0,0,0-.2-.25A.6.6,0,0,0,156.7.8a.62.62,0,0,0-.35.09.55.55,0,0,0-.2.25,1.3,1.3,0,0,0-.09.38c0,.14,0,.3,0,.47A1.85,1.85,0,0,0,156.19,2.87Z" fill="#f6ad15"/><path d="M161.21,1.45h1.68l.71,3.06.71-3.06H166V6h-1.1V2.77L164.08,6h-1l-.81-3.25V6h-1.1Z" fill="#f6ad15"/><path d="M168,6h-1.12V4.69H168Z" fill="#f6ad15"/></g></g></svg>